%TF.GenerationSoftware,KiCad,Pcbnew,7.0.6*%
%TF.CreationDate,2023-08-15T21:41:44+12:00*%
%TF.ProjectId,esp32c3-ev-board,65737033-3263-4332-9d65-762d626f6172,rev?*%
%TF.SameCoordinates,Original*%
%TF.FileFunction,Legend,Bot*%
%TF.FilePolarity,Positive*%
%FSLAX46Y46*%
G04 Gerber Fmt 4.6, Leading zero omitted, Abs format (unit mm)*
G04 Created by KiCad (PCBNEW 7.0.6) date 2023-08-15 21:41:44*
%MOMM*%
%LPD*%
G01*
G04 APERTURE LIST*
%ADD10C,0.200000*%
%ADD11C,0.250000*%
G04 APERTURE END LIST*
D10*
X139276517Y-93123980D02*
X139276517Y-92023980D01*
X139276517Y-92023980D02*
X139014612Y-92023980D01*
X139014612Y-92023980D02*
X138857469Y-92076361D01*
X138857469Y-92076361D02*
X138752707Y-92181123D01*
X138752707Y-92181123D02*
X138700326Y-92285885D01*
X138700326Y-92285885D02*
X138647945Y-92495409D01*
X138647945Y-92495409D02*
X138647945Y-92652552D01*
X138647945Y-92652552D02*
X138700326Y-92862076D01*
X138700326Y-92862076D02*
X138752707Y-92966838D01*
X138752707Y-92966838D02*
X138857469Y-93071600D01*
X138857469Y-93071600D02*
X139014612Y-93123980D01*
X139014612Y-93123980D02*
X139276517Y-93123980D01*
X137757469Y-93071600D02*
X137862231Y-93123980D01*
X137862231Y-93123980D02*
X138071755Y-93123980D01*
X138071755Y-93123980D02*
X138176517Y-93071600D01*
X138176517Y-93071600D02*
X138228898Y-92966838D01*
X138228898Y-92966838D02*
X138228898Y-92547790D01*
X138228898Y-92547790D02*
X138176517Y-92443028D01*
X138176517Y-92443028D02*
X138071755Y-92390647D01*
X138071755Y-92390647D02*
X137862231Y-92390647D01*
X137862231Y-92390647D02*
X137757469Y-92443028D01*
X137757469Y-92443028D02*
X137705088Y-92547790D01*
X137705088Y-92547790D02*
X137705088Y-92652552D01*
X137705088Y-92652552D02*
X138228898Y-92757314D01*
X137286041Y-93071600D02*
X137181279Y-93123980D01*
X137181279Y-93123980D02*
X136971755Y-93123980D01*
X136971755Y-93123980D02*
X136866993Y-93071600D01*
X136866993Y-93071600D02*
X136814612Y-92966838D01*
X136814612Y-92966838D02*
X136814612Y-92914457D01*
X136814612Y-92914457D02*
X136866993Y-92809695D01*
X136866993Y-92809695D02*
X136971755Y-92757314D01*
X136971755Y-92757314D02*
X137128898Y-92757314D01*
X137128898Y-92757314D02*
X137233660Y-92704933D01*
X137233660Y-92704933D02*
X137286041Y-92600171D01*
X137286041Y-92600171D02*
X137286041Y-92547790D01*
X137286041Y-92547790D02*
X137233660Y-92443028D01*
X137233660Y-92443028D02*
X137128898Y-92390647D01*
X137128898Y-92390647D02*
X136971755Y-92390647D01*
X136971755Y-92390647D02*
X136866993Y-92443028D01*
X136343184Y-93123980D02*
X136343184Y-92390647D01*
X136343184Y-92023980D02*
X136395565Y-92076361D01*
X136395565Y-92076361D02*
X136343184Y-92128742D01*
X136343184Y-92128742D02*
X136290803Y-92076361D01*
X136290803Y-92076361D02*
X136343184Y-92023980D01*
X136343184Y-92023980D02*
X136343184Y-92128742D01*
X135347945Y-92390647D02*
X135347945Y-93281123D01*
X135347945Y-93281123D02*
X135400326Y-93385885D01*
X135400326Y-93385885D02*
X135452707Y-93438266D01*
X135452707Y-93438266D02*
X135557469Y-93490647D01*
X135557469Y-93490647D02*
X135714612Y-93490647D01*
X135714612Y-93490647D02*
X135819374Y-93438266D01*
X135347945Y-93071600D02*
X135452707Y-93123980D01*
X135452707Y-93123980D02*
X135662231Y-93123980D01*
X135662231Y-93123980D02*
X135766993Y-93071600D01*
X135766993Y-93071600D02*
X135819374Y-93019219D01*
X135819374Y-93019219D02*
X135871755Y-92914457D01*
X135871755Y-92914457D02*
X135871755Y-92600171D01*
X135871755Y-92600171D02*
X135819374Y-92495409D01*
X135819374Y-92495409D02*
X135766993Y-92443028D01*
X135766993Y-92443028D02*
X135662231Y-92390647D01*
X135662231Y-92390647D02*
X135452707Y-92390647D01*
X135452707Y-92390647D02*
X135347945Y-92443028D01*
X134824136Y-92390647D02*
X134824136Y-93123980D01*
X134824136Y-92495409D02*
X134771755Y-92443028D01*
X134771755Y-92443028D02*
X134666993Y-92390647D01*
X134666993Y-92390647D02*
X134509850Y-92390647D01*
X134509850Y-92390647D02*
X134405088Y-92443028D01*
X134405088Y-92443028D02*
X134352707Y-92547790D01*
X134352707Y-92547790D02*
X134352707Y-93123980D01*
X133409850Y-93071600D02*
X133514612Y-93123980D01*
X133514612Y-93123980D02*
X133724136Y-93123980D01*
X133724136Y-93123980D02*
X133828898Y-93071600D01*
X133828898Y-93071600D02*
X133881279Y-92966838D01*
X133881279Y-92966838D02*
X133881279Y-92547790D01*
X133881279Y-92547790D02*
X133828898Y-92443028D01*
X133828898Y-92443028D02*
X133724136Y-92390647D01*
X133724136Y-92390647D02*
X133514612Y-92390647D01*
X133514612Y-92390647D02*
X133409850Y-92443028D01*
X133409850Y-92443028D02*
X133357469Y-92547790D01*
X133357469Y-92547790D02*
X133357469Y-92652552D01*
X133357469Y-92652552D02*
X133881279Y-92757314D01*
X132414612Y-93123980D02*
X132414612Y-92023980D01*
X132414612Y-93071600D02*
X132519374Y-93123980D01*
X132519374Y-93123980D02*
X132728898Y-93123980D01*
X132728898Y-93123980D02*
X132833660Y-93071600D01*
X132833660Y-93071600D02*
X132886041Y-93019219D01*
X132886041Y-93019219D02*
X132938422Y-92914457D01*
X132938422Y-92914457D02*
X132938422Y-92600171D01*
X132938422Y-92600171D02*
X132886041Y-92495409D01*
X132886041Y-92495409D02*
X132833660Y-92443028D01*
X132833660Y-92443028D02*
X132728898Y-92390647D01*
X132728898Y-92390647D02*
X132519374Y-92390647D01*
X132519374Y-92390647D02*
X132414612Y-92443028D01*
X130581279Y-93123980D02*
X130581279Y-92547790D01*
X130581279Y-92547790D02*
X130633660Y-92443028D01*
X130633660Y-92443028D02*
X130738422Y-92390647D01*
X130738422Y-92390647D02*
X130947946Y-92390647D01*
X130947946Y-92390647D02*
X131052708Y-92443028D01*
X130581279Y-93071600D02*
X130686041Y-93123980D01*
X130686041Y-93123980D02*
X130947946Y-93123980D01*
X130947946Y-93123980D02*
X131052708Y-93071600D01*
X131052708Y-93071600D02*
X131105089Y-92966838D01*
X131105089Y-92966838D02*
X131105089Y-92862076D01*
X131105089Y-92862076D02*
X131052708Y-92757314D01*
X131052708Y-92757314D02*
X130947946Y-92704933D01*
X130947946Y-92704933D02*
X130686041Y-92704933D01*
X130686041Y-92704933D02*
X130581279Y-92652552D01*
X130057470Y-92390647D02*
X130057470Y-93123980D01*
X130057470Y-92495409D02*
X130005089Y-92443028D01*
X130005089Y-92443028D02*
X129900327Y-92390647D01*
X129900327Y-92390647D02*
X129743184Y-92390647D01*
X129743184Y-92390647D02*
X129638422Y-92443028D01*
X129638422Y-92443028D02*
X129586041Y-92547790D01*
X129586041Y-92547790D02*
X129586041Y-93123980D01*
X128590803Y-93123980D02*
X128590803Y-92023980D01*
X128590803Y-93071600D02*
X128695565Y-93123980D01*
X128695565Y-93123980D02*
X128905089Y-93123980D01*
X128905089Y-93123980D02*
X129009851Y-93071600D01*
X129009851Y-93071600D02*
X129062232Y-93019219D01*
X129062232Y-93019219D02*
X129114613Y-92914457D01*
X129114613Y-92914457D02*
X129114613Y-92600171D01*
X129114613Y-92600171D02*
X129062232Y-92495409D01*
X129062232Y-92495409D02*
X129009851Y-92443028D01*
X129009851Y-92443028D02*
X128905089Y-92390647D01*
X128905089Y-92390647D02*
X128695565Y-92390647D01*
X128695565Y-92390647D02*
X128590803Y-92443028D01*
X127228899Y-93123980D02*
X127228899Y-92023980D01*
X127228899Y-92443028D02*
X127124137Y-92390647D01*
X127124137Y-92390647D02*
X126914613Y-92390647D01*
X126914613Y-92390647D02*
X126809851Y-92443028D01*
X126809851Y-92443028D02*
X126757470Y-92495409D01*
X126757470Y-92495409D02*
X126705089Y-92600171D01*
X126705089Y-92600171D02*
X126705089Y-92914457D01*
X126705089Y-92914457D02*
X126757470Y-93019219D01*
X126757470Y-93019219D02*
X126809851Y-93071600D01*
X126809851Y-93071600D02*
X126914613Y-93123980D01*
X126914613Y-93123980D02*
X127124137Y-93123980D01*
X127124137Y-93123980D02*
X127228899Y-93071600D01*
X125762232Y-92390647D02*
X125762232Y-93123980D01*
X126233661Y-92390647D02*
X126233661Y-92966838D01*
X126233661Y-92966838D02*
X126181280Y-93071600D01*
X126181280Y-93071600D02*
X126076518Y-93123980D01*
X126076518Y-93123980D02*
X125919375Y-93123980D01*
X125919375Y-93123980D02*
X125814613Y-93071600D01*
X125814613Y-93071600D02*
X125762232Y-93019219D01*
X125238423Y-93123980D02*
X125238423Y-92390647D01*
X125238423Y-92023980D02*
X125290804Y-92076361D01*
X125290804Y-92076361D02*
X125238423Y-92128742D01*
X125238423Y-92128742D02*
X125186042Y-92076361D01*
X125186042Y-92076361D02*
X125238423Y-92023980D01*
X125238423Y-92023980D02*
X125238423Y-92128742D01*
X124557470Y-93123980D02*
X124662232Y-93071600D01*
X124662232Y-93071600D02*
X124714613Y-92966838D01*
X124714613Y-92966838D02*
X124714613Y-92023980D01*
X124295566Y-92390647D02*
X123876518Y-92390647D01*
X124138423Y-92023980D02*
X124138423Y-92966838D01*
X124138423Y-92966838D02*
X124086042Y-93071600D01*
X124086042Y-93071600D02*
X123981280Y-93123980D01*
X123981280Y-93123980D02*
X123876518Y-93123980D01*
X122671757Y-93123980D02*
X122671757Y-92023980D01*
X122671757Y-92443028D02*
X122566995Y-92390647D01*
X122566995Y-92390647D02*
X122357471Y-92390647D01*
X122357471Y-92390647D02*
X122252709Y-92443028D01*
X122252709Y-92443028D02*
X122200328Y-92495409D01*
X122200328Y-92495409D02*
X122147947Y-92600171D01*
X122147947Y-92600171D02*
X122147947Y-92914457D01*
X122147947Y-92914457D02*
X122200328Y-93019219D01*
X122200328Y-93019219D02*
X122252709Y-93071600D01*
X122252709Y-93071600D02*
X122357471Y-93123980D01*
X122357471Y-93123980D02*
X122566995Y-93123980D01*
X122566995Y-93123980D02*
X122671757Y-93071600D01*
X121781281Y-92390647D02*
X121519376Y-93123980D01*
X121257471Y-92390647D02*
X121519376Y-93123980D01*
X121519376Y-93123980D02*
X121624138Y-93385885D01*
X121624138Y-93385885D02*
X121676519Y-93438266D01*
X121676519Y-93438266D02*
X121781281Y-93490647D01*
X120838424Y-93019219D02*
X120786043Y-93071600D01*
X120786043Y-93071600D02*
X120838424Y-93123980D01*
X120838424Y-93123980D02*
X120890805Y-93071600D01*
X120890805Y-93071600D02*
X120838424Y-93019219D01*
X120838424Y-93019219D02*
X120838424Y-93123980D01*
X120838424Y-92443028D02*
X120786043Y-92495409D01*
X120786043Y-92495409D02*
X120838424Y-92547790D01*
X120838424Y-92547790D02*
X120890805Y-92495409D01*
X120890805Y-92495409D02*
X120838424Y-92443028D01*
X120838424Y-92443028D02*
X120838424Y-92547790D01*
X138962231Y-93794980D02*
X138962231Y-94580695D01*
X138962231Y-94580695D02*
X139014612Y-94737838D01*
X139014612Y-94737838D02*
X139119374Y-94842600D01*
X139119374Y-94842600D02*
X139276517Y-94894980D01*
X139276517Y-94894980D02*
X139381279Y-94894980D01*
X137966993Y-94894980D02*
X137966993Y-94318790D01*
X137966993Y-94318790D02*
X138019374Y-94214028D01*
X138019374Y-94214028D02*
X138124136Y-94161647D01*
X138124136Y-94161647D02*
X138333660Y-94161647D01*
X138333660Y-94161647D02*
X138438422Y-94214028D01*
X137966993Y-94842600D02*
X138071755Y-94894980D01*
X138071755Y-94894980D02*
X138333660Y-94894980D01*
X138333660Y-94894980D02*
X138438422Y-94842600D01*
X138438422Y-94842600D02*
X138490803Y-94737838D01*
X138490803Y-94737838D02*
X138490803Y-94633076D01*
X138490803Y-94633076D02*
X138438422Y-94528314D01*
X138438422Y-94528314D02*
X138333660Y-94475933D01*
X138333660Y-94475933D02*
X138071755Y-94475933D01*
X138071755Y-94475933D02*
X137966993Y-94423552D01*
X137443184Y-94894980D02*
X137443184Y-94161647D01*
X137443184Y-93794980D02*
X137495565Y-93847361D01*
X137495565Y-93847361D02*
X137443184Y-93899742D01*
X137443184Y-93899742D02*
X137390803Y-93847361D01*
X137390803Y-93847361D02*
X137443184Y-93794980D01*
X137443184Y-93794980D02*
X137443184Y-93899742D01*
X136081279Y-94894980D02*
X136081279Y-93794980D01*
X136081279Y-93794980D02*
X135452707Y-94894980D01*
X135452707Y-94894980D02*
X135452707Y-93794980D01*
X134928898Y-94894980D02*
X134928898Y-94161647D01*
X134928898Y-93794980D02*
X134981279Y-93847361D01*
X134981279Y-93847361D02*
X134928898Y-93899742D01*
X134928898Y-93899742D02*
X134876517Y-93847361D01*
X134876517Y-93847361D02*
X134928898Y-93794980D01*
X134928898Y-93794980D02*
X134928898Y-93899742D01*
X133986040Y-94842600D02*
X134090802Y-94894980D01*
X134090802Y-94894980D02*
X134300326Y-94894980D01*
X134300326Y-94894980D02*
X134405088Y-94842600D01*
X134405088Y-94842600D02*
X134457469Y-94737838D01*
X134457469Y-94737838D02*
X134457469Y-94318790D01*
X134457469Y-94318790D02*
X134405088Y-94214028D01*
X134405088Y-94214028D02*
X134300326Y-94161647D01*
X134300326Y-94161647D02*
X134090802Y-94161647D01*
X134090802Y-94161647D02*
X133986040Y-94214028D01*
X133986040Y-94214028D02*
X133933659Y-94318790D01*
X133933659Y-94318790D02*
X133933659Y-94423552D01*
X133933659Y-94423552D02*
X134457469Y-94528314D01*
X133305088Y-94894980D02*
X133409850Y-94842600D01*
X133409850Y-94842600D02*
X133462231Y-94737838D01*
X133462231Y-94737838D02*
X133462231Y-93794980D01*
X132938422Y-94842600D02*
X132833660Y-94894980D01*
X132833660Y-94894980D02*
X132624136Y-94894980D01*
X132624136Y-94894980D02*
X132519374Y-94842600D01*
X132519374Y-94842600D02*
X132466993Y-94737838D01*
X132466993Y-94737838D02*
X132466993Y-94685457D01*
X132466993Y-94685457D02*
X132519374Y-94580695D01*
X132519374Y-94580695D02*
X132624136Y-94528314D01*
X132624136Y-94528314D02*
X132781279Y-94528314D01*
X132781279Y-94528314D02*
X132886041Y-94475933D01*
X132886041Y-94475933D02*
X132938422Y-94371171D01*
X132938422Y-94371171D02*
X132938422Y-94318790D01*
X132938422Y-94318790D02*
X132886041Y-94214028D01*
X132886041Y-94214028D02*
X132781279Y-94161647D01*
X132781279Y-94161647D02*
X132624136Y-94161647D01*
X132624136Y-94161647D02*
X132519374Y-94214028D01*
X131576517Y-94842600D02*
X131681279Y-94894980D01*
X131681279Y-94894980D02*
X131890803Y-94894980D01*
X131890803Y-94894980D02*
X131995565Y-94842600D01*
X131995565Y-94842600D02*
X132047946Y-94737838D01*
X132047946Y-94737838D02*
X132047946Y-94318790D01*
X132047946Y-94318790D02*
X131995565Y-94214028D01*
X131995565Y-94214028D02*
X131890803Y-94161647D01*
X131890803Y-94161647D02*
X131681279Y-94161647D01*
X131681279Y-94161647D02*
X131576517Y-94214028D01*
X131576517Y-94214028D02*
X131524136Y-94318790D01*
X131524136Y-94318790D02*
X131524136Y-94423552D01*
X131524136Y-94423552D02*
X132047946Y-94528314D01*
X131052708Y-94161647D02*
X131052708Y-94894980D01*
X131052708Y-94266409D02*
X131000327Y-94214028D01*
X131000327Y-94214028D02*
X130895565Y-94161647D01*
X130895565Y-94161647D02*
X130738422Y-94161647D01*
X130738422Y-94161647D02*
X130633660Y-94214028D01*
X130633660Y-94214028D02*
X130581279Y-94318790D01*
X130581279Y-94318790D02*
X130581279Y-94894980D01*
X128747946Y-94894980D02*
X128747946Y-94318790D01*
X128747946Y-94318790D02*
X128800327Y-94214028D01*
X128800327Y-94214028D02*
X128905089Y-94161647D01*
X128905089Y-94161647D02*
X129114613Y-94161647D01*
X129114613Y-94161647D02*
X129219375Y-94214028D01*
X128747946Y-94842600D02*
X128852708Y-94894980D01*
X128852708Y-94894980D02*
X129114613Y-94894980D01*
X129114613Y-94894980D02*
X129219375Y-94842600D01*
X129219375Y-94842600D02*
X129271756Y-94737838D01*
X129271756Y-94737838D02*
X129271756Y-94633076D01*
X129271756Y-94633076D02*
X129219375Y-94528314D01*
X129219375Y-94528314D02*
X129114613Y-94475933D01*
X129114613Y-94475933D02*
X128852708Y-94475933D01*
X128852708Y-94475933D02*
X128747946Y-94423552D01*
X128224137Y-94161647D02*
X128224137Y-94894980D01*
X128224137Y-94266409D02*
X128171756Y-94214028D01*
X128171756Y-94214028D02*
X128066994Y-94161647D01*
X128066994Y-94161647D02*
X127909851Y-94161647D01*
X127909851Y-94161647D02*
X127805089Y-94214028D01*
X127805089Y-94214028D02*
X127752708Y-94318790D01*
X127752708Y-94318790D02*
X127752708Y-94894980D01*
X126757470Y-94894980D02*
X126757470Y-93794980D01*
X126757470Y-94842600D02*
X126862232Y-94894980D01*
X126862232Y-94894980D02*
X127071756Y-94894980D01*
X127071756Y-94894980D02*
X127176518Y-94842600D01*
X127176518Y-94842600D02*
X127228899Y-94790219D01*
X127228899Y-94790219D02*
X127281280Y-94685457D01*
X127281280Y-94685457D02*
X127281280Y-94371171D01*
X127281280Y-94371171D02*
X127228899Y-94266409D01*
X127228899Y-94266409D02*
X127176518Y-94214028D01*
X127176518Y-94214028D02*
X127071756Y-94161647D01*
X127071756Y-94161647D02*
X126862232Y-94161647D01*
X126862232Y-94161647D02*
X126757470Y-94214028D01*
X125447947Y-94580695D02*
X124924137Y-94580695D01*
X125552709Y-94894980D02*
X125186042Y-93794980D01*
X125186042Y-93794980D02*
X124819375Y-94894980D01*
X124295566Y-94894980D02*
X124400328Y-94842600D01*
X124400328Y-94842600D02*
X124452709Y-94737838D01*
X124452709Y-94737838D02*
X124452709Y-93794980D01*
X123457471Y-94842600D02*
X123562233Y-94894980D01*
X123562233Y-94894980D02*
X123771757Y-94894980D01*
X123771757Y-94894980D02*
X123876519Y-94842600D01*
X123876519Y-94842600D02*
X123928900Y-94737838D01*
X123928900Y-94737838D02*
X123928900Y-94318790D01*
X123928900Y-94318790D02*
X123876519Y-94214028D01*
X123876519Y-94214028D02*
X123771757Y-94161647D01*
X123771757Y-94161647D02*
X123562233Y-94161647D01*
X123562233Y-94161647D02*
X123457471Y-94214028D01*
X123457471Y-94214028D02*
X123405090Y-94318790D01*
X123405090Y-94318790D02*
X123405090Y-94423552D01*
X123405090Y-94423552D02*
X123928900Y-94528314D01*
X123038424Y-94894980D02*
X122462233Y-94161647D01*
X123038424Y-94161647D02*
X122462233Y-94894980D01*
X121205091Y-94894980D02*
X121205091Y-93794980D01*
X121205091Y-93794980D02*
X120838424Y-94580695D01*
X120838424Y-94580695D02*
X120471757Y-93794980D01*
X120471757Y-93794980D02*
X120471757Y-94894980D01*
X119476519Y-94842600D02*
X119581281Y-94894980D01*
X119581281Y-94894980D02*
X119790805Y-94894980D01*
X119790805Y-94894980D02*
X119895567Y-94842600D01*
X119895567Y-94842600D02*
X119947948Y-94790219D01*
X119947948Y-94790219D02*
X120000329Y-94685457D01*
X120000329Y-94685457D02*
X120000329Y-94371171D01*
X120000329Y-94371171D02*
X119947948Y-94266409D01*
X119947948Y-94266409D02*
X119895567Y-94214028D01*
X119895567Y-94214028D02*
X119790805Y-94161647D01*
X119790805Y-94161647D02*
X119581281Y-94161647D01*
X119581281Y-94161647D02*
X119476519Y-94214028D01*
X119057472Y-94580695D02*
X118533662Y-94580695D01*
X119162234Y-94894980D02*
X118795567Y-93794980D01*
X118795567Y-93794980D02*
X118428900Y-94894980D01*
X117590805Y-94161647D02*
X117590805Y-94894980D01*
X118062234Y-94161647D02*
X118062234Y-94737838D01*
X118062234Y-94737838D02*
X118009853Y-94842600D01*
X118009853Y-94842600D02*
X117905091Y-94894980D01*
X117905091Y-94894980D02*
X117747948Y-94894980D01*
X117747948Y-94894980D02*
X117643186Y-94842600D01*
X117643186Y-94842600D02*
X117590805Y-94790219D01*
X116909853Y-94894980D02*
X117014615Y-94842600D01*
X117014615Y-94842600D02*
X117066996Y-94737838D01*
X117066996Y-94737838D02*
X117066996Y-93794980D01*
X116071758Y-94842600D02*
X116176520Y-94894980D01*
X116176520Y-94894980D02*
X116386044Y-94894980D01*
X116386044Y-94894980D02*
X116490806Y-94842600D01*
X116490806Y-94842600D02*
X116543187Y-94737838D01*
X116543187Y-94737838D02*
X116543187Y-94318790D01*
X116543187Y-94318790D02*
X116490806Y-94214028D01*
X116490806Y-94214028D02*
X116386044Y-94161647D01*
X116386044Y-94161647D02*
X116176520Y-94161647D01*
X116176520Y-94161647D02*
X116071758Y-94214028D01*
X116071758Y-94214028D02*
X116019377Y-94318790D01*
X116019377Y-94318790D02*
X116019377Y-94423552D01*
X116019377Y-94423552D02*
X116543187Y-94528314D01*
X115652711Y-94161647D02*
X115390806Y-94894980D01*
X115128901Y-94161647D02*
X115390806Y-94894980D01*
X115390806Y-94894980D02*
X115495568Y-95156885D01*
X115495568Y-95156885D02*
X115547949Y-95209266D01*
X115547949Y-95209266D02*
X115652711Y-95261647D01*
D11*
X141649336Y-83264619D02*
X140982669Y-83264619D01*
X140696955Y-84312238D02*
X141649336Y-84312238D01*
X141649336Y-84312238D02*
X141649336Y-82312238D01*
X141649336Y-82312238D02*
X140696955Y-82312238D01*
X140030288Y-82978904D02*
X139554098Y-84312238D01*
X139554098Y-84312238D02*
X139077907Y-82978904D01*
X138030288Y-84312238D02*
X138220764Y-84217000D01*
X138220764Y-84217000D02*
X138316002Y-84121761D01*
X138316002Y-84121761D02*
X138411240Y-83931285D01*
X138411240Y-83931285D02*
X138411240Y-83359857D01*
X138411240Y-83359857D02*
X138316002Y-83169380D01*
X138316002Y-83169380D02*
X138220764Y-83074142D01*
X138220764Y-83074142D02*
X138030288Y-82978904D01*
X138030288Y-82978904D02*
X137744573Y-82978904D01*
X137744573Y-82978904D02*
X137554097Y-83074142D01*
X137554097Y-83074142D02*
X137458859Y-83169380D01*
X137458859Y-83169380D02*
X137363621Y-83359857D01*
X137363621Y-83359857D02*
X137363621Y-83931285D01*
X137363621Y-83931285D02*
X137458859Y-84121761D01*
X137458859Y-84121761D02*
X137554097Y-84217000D01*
X137554097Y-84217000D02*
X137744573Y-84312238D01*
X137744573Y-84312238D02*
X138030288Y-84312238D01*
X136506478Y-84312238D02*
X136506478Y-82312238D01*
X136506478Y-82312238D02*
X135839811Y-83740809D01*
X135839811Y-83740809D02*
X135173145Y-82312238D01*
X135173145Y-82312238D02*
X135173145Y-84312238D01*
X133935050Y-84312238D02*
X134125526Y-84217000D01*
X134125526Y-84217000D02*
X134220764Y-84121761D01*
X134220764Y-84121761D02*
X134316002Y-83931285D01*
X134316002Y-83931285D02*
X134316002Y-83359857D01*
X134316002Y-83359857D02*
X134220764Y-83169380D01*
X134220764Y-83169380D02*
X134125526Y-83074142D01*
X134125526Y-83074142D02*
X133935050Y-82978904D01*
X133935050Y-82978904D02*
X133649335Y-82978904D01*
X133649335Y-82978904D02*
X133458859Y-83074142D01*
X133458859Y-83074142D02*
X133363621Y-83169380D01*
X133363621Y-83169380D02*
X133268383Y-83359857D01*
X133268383Y-83359857D02*
X133268383Y-83931285D01*
X133268383Y-83931285D02*
X133363621Y-84121761D01*
X133363621Y-84121761D02*
X133458859Y-84217000D01*
X133458859Y-84217000D02*
X133649335Y-84312238D01*
X133649335Y-84312238D02*
X133935050Y-84312238D01*
X132411240Y-82978904D02*
X132411240Y-84312238D01*
X132411240Y-83169380D02*
X132316002Y-83074142D01*
X132316002Y-83074142D02*
X132125526Y-82978904D01*
X132125526Y-82978904D02*
X131839811Y-82978904D01*
X131839811Y-82978904D02*
X131649335Y-83074142D01*
X131649335Y-83074142D02*
X131554097Y-83264619D01*
X131554097Y-83264619D02*
X131554097Y-84312238D01*
X140506479Y-90752238D02*
X141173146Y-89799857D01*
X141649336Y-90752238D02*
X141649336Y-88752238D01*
X141649336Y-88752238D02*
X140887431Y-88752238D01*
X140887431Y-88752238D02*
X140696955Y-88847476D01*
X140696955Y-88847476D02*
X140601717Y-88942714D01*
X140601717Y-88942714D02*
X140506479Y-89133190D01*
X140506479Y-89133190D02*
X140506479Y-89418904D01*
X140506479Y-89418904D02*
X140601717Y-89609380D01*
X140601717Y-89609380D02*
X140696955Y-89704619D01*
X140696955Y-89704619D02*
X140887431Y-89799857D01*
X140887431Y-89799857D02*
X141649336Y-89799857D01*
X139649336Y-89704619D02*
X138982669Y-89704619D01*
X138696955Y-90752238D02*
X139649336Y-90752238D01*
X139649336Y-90752238D02*
X139649336Y-88752238D01*
X139649336Y-88752238D02*
X138696955Y-88752238D01*
X138125526Y-88752238D02*
X137458860Y-90752238D01*
X137458860Y-90752238D02*
X136792193Y-88752238D01*
X134696954Y-88942714D02*
X134601716Y-88847476D01*
X134601716Y-88847476D02*
X134411240Y-88752238D01*
X134411240Y-88752238D02*
X133935049Y-88752238D01*
X133935049Y-88752238D02*
X133744573Y-88847476D01*
X133744573Y-88847476D02*
X133649335Y-88942714D01*
X133649335Y-88942714D02*
X133554097Y-89133190D01*
X133554097Y-89133190D02*
X133554097Y-89323666D01*
X133554097Y-89323666D02*
X133649335Y-89609380D01*
X133649335Y-89609380D02*
X134792192Y-90752238D01*
X134792192Y-90752238D02*
X133554097Y-90752238D01*
M02*
