%TF.GenerationSoftware,KiCad,Pcbnew,7.0.6*%
%TF.CreationDate,2023-08-15T19:52:18+12:00*%
%TF.ProjectId,esp32c3-ev-board,65737033-3263-4332-9d65-762d626f6172,rev?*%
%TF.SameCoordinates,Original*%
%TF.FileFunction,Legend,Top*%
%TF.FilePolarity,Positive*%
%FSLAX46Y46*%
G04 Gerber Fmt 4.6, Leading zero omitted, Abs format (unit mm)*
G04 Created by KiCad (PCBNEW 7.0.6) date 2023-08-15 19:52:18*
%MOMM*%
%LPD*%
G01*
G04 APERTURE LIST*
%ADD10C,0.250000*%
G04 APERTURE END LIST*
D10*
X151500000Y-93000000D02*
X149750000Y-93000000D01*
X147875000Y-93000000D02*
X149125000Y-93000000D01*
X150000000Y-93000000D02*
G75*
G03*
X150000000Y-93000000I-250000J0D01*
G01*
X149129013Y-93000000D02*
G75*
G03*
X150225000Y-93400000I620987J0D01*
G01*
X150250025Y-92649983D02*
G75*
G03*
X149123247Y-93000000I-509025J-350017D01*
G01*
X146327568Y-92983666D02*
X147089473Y-92983666D01*
X152137093Y-92983666D02*
X152898998Y-92983666D01*
X152518045Y-93364619D02*
X152518045Y-92602714D01*
X155838095Y-93739619D02*
X155838095Y-92739619D01*
X155838095Y-93215809D02*
X156409523Y-93215809D01*
X156409523Y-93739619D02*
X156409523Y-92739619D01*
X157314285Y-93739619D02*
X157314285Y-93215809D01*
X157314285Y-93215809D02*
X157266666Y-93120571D01*
X157266666Y-93120571D02*
X157171428Y-93072952D01*
X157171428Y-93072952D02*
X156980952Y-93072952D01*
X156980952Y-93072952D02*
X156885714Y-93120571D01*
X157314285Y-93692000D02*
X157219047Y-93739619D01*
X157219047Y-93739619D02*
X156980952Y-93739619D01*
X156980952Y-93739619D02*
X156885714Y-93692000D01*
X156885714Y-93692000D02*
X156838095Y-93596761D01*
X156838095Y-93596761D02*
X156838095Y-93501523D01*
X156838095Y-93501523D02*
X156885714Y-93406285D01*
X156885714Y-93406285D02*
X156980952Y-93358666D01*
X156980952Y-93358666D02*
X157219047Y-93358666D01*
X157219047Y-93358666D02*
X157314285Y-93311047D01*
X157933333Y-93739619D02*
X157838095Y-93692000D01*
X157838095Y-93692000D02*
X157790476Y-93596761D01*
X157790476Y-93596761D02*
X157790476Y-92739619D01*
X158457143Y-93739619D02*
X158361905Y-93692000D01*
X158361905Y-93692000D02*
X158314286Y-93596761D01*
X158314286Y-93596761D02*
X158314286Y-92739619D01*
X142579380Y-77683138D02*
X142627000Y-77730757D01*
X142627000Y-77730757D02*
X142674619Y-77873614D01*
X142674619Y-77873614D02*
X142674619Y-77968852D01*
X142674619Y-77968852D02*
X142627000Y-78111709D01*
X142627000Y-78111709D02*
X142531761Y-78206947D01*
X142531761Y-78206947D02*
X142436523Y-78254566D01*
X142436523Y-78254566D02*
X142246047Y-78302185D01*
X142246047Y-78302185D02*
X142103190Y-78302185D01*
X142103190Y-78302185D02*
X141912714Y-78254566D01*
X141912714Y-78254566D02*
X141817476Y-78206947D01*
X141817476Y-78206947D02*
X141722238Y-78111709D01*
X141722238Y-78111709D02*
X141674619Y-77968852D01*
X141674619Y-77968852D02*
X141674619Y-77873614D01*
X141674619Y-77873614D02*
X141722238Y-77730757D01*
X141722238Y-77730757D02*
X141769857Y-77683138D01*
X141769857Y-77302185D02*
X141722238Y-77254566D01*
X141722238Y-77254566D02*
X141674619Y-77159328D01*
X141674619Y-77159328D02*
X141674619Y-76921233D01*
X141674619Y-76921233D02*
X141722238Y-76825995D01*
X141722238Y-76825995D02*
X141769857Y-76778376D01*
X141769857Y-76778376D02*
X141865095Y-76730757D01*
X141865095Y-76730757D02*
X141960333Y-76730757D01*
X141960333Y-76730757D02*
X142103190Y-76778376D01*
X142103190Y-76778376D02*
X142674619Y-77349804D01*
X142674619Y-77349804D02*
X142674619Y-76730757D01*
X121183333Y-67469619D02*
X120850000Y-66993428D01*
X120611905Y-67469619D02*
X120611905Y-66469619D01*
X120611905Y-66469619D02*
X120992857Y-66469619D01*
X120992857Y-66469619D02*
X121088095Y-66517238D01*
X121088095Y-66517238D02*
X121135714Y-66564857D01*
X121135714Y-66564857D02*
X121183333Y-66660095D01*
X121183333Y-66660095D02*
X121183333Y-66802952D01*
X121183333Y-66802952D02*
X121135714Y-66898190D01*
X121135714Y-66898190D02*
X121088095Y-66945809D01*
X121088095Y-66945809D02*
X120992857Y-66993428D01*
X120992857Y-66993428D02*
X120611905Y-66993428D01*
X122088095Y-66469619D02*
X121611905Y-66469619D01*
X121611905Y-66469619D02*
X121564286Y-66945809D01*
X121564286Y-66945809D02*
X121611905Y-66898190D01*
X121611905Y-66898190D02*
X121707143Y-66850571D01*
X121707143Y-66850571D02*
X121945238Y-66850571D01*
X121945238Y-66850571D02*
X122040476Y-66898190D01*
X122040476Y-66898190D02*
X122088095Y-66945809D01*
X122088095Y-66945809D02*
X122135714Y-67041047D01*
X122135714Y-67041047D02*
X122135714Y-67279142D01*
X122135714Y-67279142D02*
X122088095Y-67374380D01*
X122088095Y-67374380D02*
X122040476Y-67422000D01*
X122040476Y-67422000D02*
X121945238Y-67469619D01*
X121945238Y-67469619D02*
X121707143Y-67469619D01*
X121707143Y-67469619D02*
X121611905Y-67422000D01*
X121611905Y-67422000D02*
X121564286Y-67374380D01*
X116307142Y-102254380D02*
X116259523Y-102302000D01*
X116259523Y-102302000D02*
X116116666Y-102349619D01*
X116116666Y-102349619D02*
X116021428Y-102349619D01*
X116021428Y-102349619D02*
X115878571Y-102302000D01*
X115878571Y-102302000D02*
X115783333Y-102206761D01*
X115783333Y-102206761D02*
X115735714Y-102111523D01*
X115735714Y-102111523D02*
X115688095Y-101921047D01*
X115688095Y-101921047D02*
X115688095Y-101778190D01*
X115688095Y-101778190D02*
X115735714Y-101587714D01*
X115735714Y-101587714D02*
X115783333Y-101492476D01*
X115783333Y-101492476D02*
X115878571Y-101397238D01*
X115878571Y-101397238D02*
X116021428Y-101349619D01*
X116021428Y-101349619D02*
X116116666Y-101349619D01*
X116116666Y-101349619D02*
X116259523Y-101397238D01*
X116259523Y-101397238D02*
X116307142Y-101444857D01*
X116688095Y-101444857D02*
X116735714Y-101397238D01*
X116735714Y-101397238D02*
X116830952Y-101349619D01*
X116830952Y-101349619D02*
X117069047Y-101349619D01*
X117069047Y-101349619D02*
X117164285Y-101397238D01*
X117164285Y-101397238D02*
X117211904Y-101444857D01*
X117211904Y-101444857D02*
X117259523Y-101540095D01*
X117259523Y-101540095D02*
X117259523Y-101635333D01*
X117259523Y-101635333D02*
X117211904Y-101778190D01*
X117211904Y-101778190D02*
X116640476Y-102349619D01*
X116640476Y-102349619D02*
X117259523Y-102349619D01*
X117640476Y-101444857D02*
X117688095Y-101397238D01*
X117688095Y-101397238D02*
X117783333Y-101349619D01*
X117783333Y-101349619D02*
X118021428Y-101349619D01*
X118021428Y-101349619D02*
X118116666Y-101397238D01*
X118116666Y-101397238D02*
X118164285Y-101444857D01*
X118164285Y-101444857D02*
X118211904Y-101540095D01*
X118211904Y-101540095D02*
X118211904Y-101635333D01*
X118211904Y-101635333D02*
X118164285Y-101778190D01*
X118164285Y-101778190D02*
X117592857Y-102349619D01*
X117592857Y-102349619D02*
X118211904Y-102349619D01*
X129199619Y-68586904D02*
X130009142Y-68586904D01*
X130009142Y-68586904D02*
X130104380Y-68539285D01*
X130104380Y-68539285D02*
X130152000Y-68491666D01*
X130152000Y-68491666D02*
X130199619Y-68396428D01*
X130199619Y-68396428D02*
X130199619Y-68205952D01*
X130199619Y-68205952D02*
X130152000Y-68110714D01*
X130152000Y-68110714D02*
X130104380Y-68063095D01*
X130104380Y-68063095D02*
X130009142Y-68015476D01*
X130009142Y-68015476D02*
X129199619Y-68015476D01*
X130199619Y-67015476D02*
X130199619Y-67586904D01*
X130199619Y-67301190D02*
X129199619Y-67301190D01*
X129199619Y-67301190D02*
X129342476Y-67396428D01*
X129342476Y-67396428D02*
X129437714Y-67491666D01*
X129437714Y-67491666D02*
X129485333Y-67586904D01*
X136604380Y-93892857D02*
X136652000Y-93940476D01*
X136652000Y-93940476D02*
X136699619Y-94083333D01*
X136699619Y-94083333D02*
X136699619Y-94178571D01*
X136699619Y-94178571D02*
X136652000Y-94321428D01*
X136652000Y-94321428D02*
X136556761Y-94416666D01*
X136556761Y-94416666D02*
X136461523Y-94464285D01*
X136461523Y-94464285D02*
X136271047Y-94511904D01*
X136271047Y-94511904D02*
X136128190Y-94511904D01*
X136128190Y-94511904D02*
X135937714Y-94464285D01*
X135937714Y-94464285D02*
X135842476Y-94416666D01*
X135842476Y-94416666D02*
X135747238Y-94321428D01*
X135747238Y-94321428D02*
X135699619Y-94178571D01*
X135699619Y-94178571D02*
X135699619Y-94083333D01*
X135699619Y-94083333D02*
X135747238Y-93940476D01*
X135747238Y-93940476D02*
X135794857Y-93892857D01*
X135794857Y-93511904D02*
X135747238Y-93464285D01*
X135747238Y-93464285D02*
X135699619Y-93369047D01*
X135699619Y-93369047D02*
X135699619Y-93130952D01*
X135699619Y-93130952D02*
X135747238Y-93035714D01*
X135747238Y-93035714D02*
X135794857Y-92988095D01*
X135794857Y-92988095D02*
X135890095Y-92940476D01*
X135890095Y-92940476D02*
X135985333Y-92940476D01*
X135985333Y-92940476D02*
X136128190Y-92988095D01*
X136128190Y-92988095D02*
X136699619Y-93559523D01*
X136699619Y-93559523D02*
X136699619Y-92940476D01*
X135699619Y-92321428D02*
X135699619Y-92226190D01*
X135699619Y-92226190D02*
X135747238Y-92130952D01*
X135747238Y-92130952D02*
X135794857Y-92083333D01*
X135794857Y-92083333D02*
X135890095Y-92035714D01*
X135890095Y-92035714D02*
X136080571Y-91988095D01*
X136080571Y-91988095D02*
X136318666Y-91988095D01*
X136318666Y-91988095D02*
X136509142Y-92035714D01*
X136509142Y-92035714D02*
X136604380Y-92083333D01*
X136604380Y-92083333D02*
X136652000Y-92130952D01*
X136652000Y-92130952D02*
X136699619Y-92226190D01*
X136699619Y-92226190D02*
X136699619Y-92321428D01*
X136699619Y-92321428D02*
X136652000Y-92416666D01*
X136652000Y-92416666D02*
X136604380Y-92464285D01*
X136604380Y-92464285D02*
X136509142Y-92511904D01*
X136509142Y-92511904D02*
X136318666Y-92559523D01*
X136318666Y-92559523D02*
X136080571Y-92559523D01*
X136080571Y-92559523D02*
X135890095Y-92511904D01*
X135890095Y-92511904D02*
X135794857Y-92464285D01*
X135794857Y-92464285D02*
X135747238Y-92416666D01*
X135747238Y-92416666D02*
X135699619Y-92321428D01*
X137874619Y-80763094D02*
X136874619Y-80763094D01*
X136874619Y-80763094D02*
X136874619Y-80524999D01*
X136874619Y-80524999D02*
X136922238Y-80382142D01*
X136922238Y-80382142D02*
X137017476Y-80286904D01*
X137017476Y-80286904D02*
X137112714Y-80239285D01*
X137112714Y-80239285D02*
X137303190Y-80191666D01*
X137303190Y-80191666D02*
X137446047Y-80191666D01*
X137446047Y-80191666D02*
X137636523Y-80239285D01*
X137636523Y-80239285D02*
X137731761Y-80286904D01*
X137731761Y-80286904D02*
X137827000Y-80382142D01*
X137827000Y-80382142D02*
X137874619Y-80524999D01*
X137874619Y-80524999D02*
X137874619Y-80763094D01*
X137207952Y-79334523D02*
X137874619Y-79334523D01*
X136827000Y-79572618D02*
X137541285Y-79810713D01*
X137541285Y-79810713D02*
X137541285Y-79191666D01*
X146858333Y-77791880D02*
X146810714Y-77839500D01*
X146810714Y-77839500D02*
X146667857Y-77887119D01*
X146667857Y-77887119D02*
X146572619Y-77887119D01*
X146572619Y-77887119D02*
X146429762Y-77839500D01*
X146429762Y-77839500D02*
X146334524Y-77744261D01*
X146334524Y-77744261D02*
X146286905Y-77649023D01*
X146286905Y-77649023D02*
X146239286Y-77458547D01*
X146239286Y-77458547D02*
X146239286Y-77315690D01*
X146239286Y-77315690D02*
X146286905Y-77125214D01*
X146286905Y-77125214D02*
X146334524Y-77029976D01*
X146334524Y-77029976D02*
X146429762Y-76934738D01*
X146429762Y-76934738D02*
X146572619Y-76887119D01*
X146572619Y-76887119D02*
X146667857Y-76887119D01*
X146667857Y-76887119D02*
X146810714Y-76934738D01*
X146810714Y-76934738D02*
X146858333Y-76982357D01*
X147715476Y-77220452D02*
X147715476Y-77887119D01*
X147477381Y-76839500D02*
X147239286Y-77553785D01*
X147239286Y-77553785D02*
X147858333Y-77553785D01*
X151549619Y-97892857D02*
X151073428Y-98226190D01*
X151549619Y-98464285D02*
X150549619Y-98464285D01*
X150549619Y-98464285D02*
X150549619Y-98083333D01*
X150549619Y-98083333D02*
X150597238Y-97988095D01*
X150597238Y-97988095D02*
X150644857Y-97940476D01*
X150644857Y-97940476D02*
X150740095Y-97892857D01*
X150740095Y-97892857D02*
X150882952Y-97892857D01*
X150882952Y-97892857D02*
X150978190Y-97940476D01*
X150978190Y-97940476D02*
X151025809Y-97988095D01*
X151025809Y-97988095D02*
X151073428Y-98083333D01*
X151073428Y-98083333D02*
X151073428Y-98464285D01*
X151549619Y-96940476D02*
X151549619Y-97511904D01*
X151549619Y-97226190D02*
X150549619Y-97226190D01*
X150549619Y-97226190D02*
X150692476Y-97321428D01*
X150692476Y-97321428D02*
X150787714Y-97416666D01*
X150787714Y-97416666D02*
X150835333Y-97511904D01*
X150549619Y-96083333D02*
X150549619Y-96273809D01*
X150549619Y-96273809D02*
X150597238Y-96369047D01*
X150597238Y-96369047D02*
X150644857Y-96416666D01*
X150644857Y-96416666D02*
X150787714Y-96511904D01*
X150787714Y-96511904D02*
X150978190Y-96559523D01*
X150978190Y-96559523D02*
X151359142Y-96559523D01*
X151359142Y-96559523D02*
X151454380Y-96511904D01*
X151454380Y-96511904D02*
X151502000Y-96464285D01*
X151502000Y-96464285D02*
X151549619Y-96369047D01*
X151549619Y-96369047D02*
X151549619Y-96178571D01*
X151549619Y-96178571D02*
X151502000Y-96083333D01*
X151502000Y-96083333D02*
X151454380Y-96035714D01*
X151454380Y-96035714D02*
X151359142Y-95988095D01*
X151359142Y-95988095D02*
X151121047Y-95988095D01*
X151121047Y-95988095D02*
X151025809Y-96035714D01*
X151025809Y-96035714D02*
X150978190Y-96083333D01*
X150978190Y-96083333D02*
X150930571Y-96178571D01*
X150930571Y-96178571D02*
X150930571Y-96369047D01*
X150930571Y-96369047D02*
X150978190Y-96464285D01*
X150978190Y-96464285D02*
X151025809Y-96511904D01*
X151025809Y-96511904D02*
X151121047Y-96559523D01*
X137809566Y-98660613D02*
X137761947Y-98708233D01*
X137761947Y-98708233D02*
X137619090Y-98755852D01*
X137619090Y-98755852D02*
X137523852Y-98755852D01*
X137523852Y-98755852D02*
X137380995Y-98708233D01*
X137380995Y-98708233D02*
X137285757Y-98612994D01*
X137285757Y-98612994D02*
X137238138Y-98517756D01*
X137238138Y-98517756D02*
X137190519Y-98327280D01*
X137190519Y-98327280D02*
X137190519Y-98184423D01*
X137190519Y-98184423D02*
X137238138Y-97993947D01*
X137238138Y-97993947D02*
X137285757Y-97898709D01*
X137285757Y-97898709D02*
X137380995Y-97803471D01*
X137380995Y-97803471D02*
X137523852Y-97755852D01*
X137523852Y-97755852D02*
X137619090Y-97755852D01*
X137619090Y-97755852D02*
X137761947Y-97803471D01*
X137761947Y-97803471D02*
X137809566Y-97851090D01*
X138142900Y-97755852D02*
X138809566Y-97755852D01*
X138809566Y-97755852D02*
X138380995Y-98755852D01*
X151370833Y-79284380D02*
X151323214Y-79332000D01*
X151323214Y-79332000D02*
X151180357Y-79379619D01*
X151180357Y-79379619D02*
X151085119Y-79379619D01*
X151085119Y-79379619D02*
X150942262Y-79332000D01*
X150942262Y-79332000D02*
X150847024Y-79236761D01*
X150847024Y-79236761D02*
X150799405Y-79141523D01*
X150799405Y-79141523D02*
X150751786Y-78951047D01*
X150751786Y-78951047D02*
X150751786Y-78808190D01*
X150751786Y-78808190D02*
X150799405Y-78617714D01*
X150799405Y-78617714D02*
X150847024Y-78522476D01*
X150847024Y-78522476D02*
X150942262Y-78427238D01*
X150942262Y-78427238D02*
X151085119Y-78379619D01*
X151085119Y-78379619D02*
X151180357Y-78379619D01*
X151180357Y-78379619D02*
X151323214Y-78427238D01*
X151323214Y-78427238D02*
X151370833Y-78474857D01*
X152275595Y-78379619D02*
X151799405Y-78379619D01*
X151799405Y-78379619D02*
X151751786Y-78855809D01*
X151751786Y-78855809D02*
X151799405Y-78808190D01*
X151799405Y-78808190D02*
X151894643Y-78760571D01*
X151894643Y-78760571D02*
X152132738Y-78760571D01*
X152132738Y-78760571D02*
X152227976Y-78808190D01*
X152227976Y-78808190D02*
X152275595Y-78855809D01*
X152275595Y-78855809D02*
X152323214Y-78951047D01*
X152323214Y-78951047D02*
X152323214Y-79189142D01*
X152323214Y-79189142D02*
X152275595Y-79284380D01*
X152275595Y-79284380D02*
X152227976Y-79332000D01*
X152227976Y-79332000D02*
X152132738Y-79379619D01*
X152132738Y-79379619D02*
X151894643Y-79379619D01*
X151894643Y-79379619D02*
X151799405Y-79332000D01*
X151799405Y-79332000D02*
X151751786Y-79284380D01*
X123083333Y-71749619D02*
X122750000Y-71273428D01*
X122511905Y-71749619D02*
X122511905Y-70749619D01*
X122511905Y-70749619D02*
X122892857Y-70749619D01*
X122892857Y-70749619D02*
X122988095Y-70797238D01*
X122988095Y-70797238D02*
X123035714Y-70844857D01*
X123035714Y-70844857D02*
X123083333Y-70940095D01*
X123083333Y-70940095D02*
X123083333Y-71082952D01*
X123083333Y-71082952D02*
X123035714Y-71178190D01*
X123035714Y-71178190D02*
X122988095Y-71225809D01*
X122988095Y-71225809D02*
X122892857Y-71273428D01*
X122892857Y-71273428D02*
X122511905Y-71273428D01*
X123416667Y-70749619D02*
X124035714Y-70749619D01*
X124035714Y-70749619D02*
X123702381Y-71130571D01*
X123702381Y-71130571D02*
X123845238Y-71130571D01*
X123845238Y-71130571D02*
X123940476Y-71178190D01*
X123940476Y-71178190D02*
X123988095Y-71225809D01*
X123988095Y-71225809D02*
X124035714Y-71321047D01*
X124035714Y-71321047D02*
X124035714Y-71559142D01*
X124035714Y-71559142D02*
X123988095Y-71654380D01*
X123988095Y-71654380D02*
X123940476Y-71702000D01*
X123940476Y-71702000D02*
X123845238Y-71749619D01*
X123845238Y-71749619D02*
X123559524Y-71749619D01*
X123559524Y-71749619D02*
X123464286Y-71702000D01*
X123464286Y-71702000D02*
X123416667Y-71654380D01*
X140583333Y-101529619D02*
X140250000Y-101053428D01*
X140011905Y-101529619D02*
X140011905Y-100529619D01*
X140011905Y-100529619D02*
X140392857Y-100529619D01*
X140392857Y-100529619D02*
X140488095Y-100577238D01*
X140488095Y-100577238D02*
X140535714Y-100624857D01*
X140535714Y-100624857D02*
X140583333Y-100720095D01*
X140583333Y-100720095D02*
X140583333Y-100862952D01*
X140583333Y-100862952D02*
X140535714Y-100958190D01*
X140535714Y-100958190D02*
X140488095Y-101005809D01*
X140488095Y-101005809D02*
X140392857Y-101053428D01*
X140392857Y-101053428D02*
X140011905Y-101053428D01*
X141154762Y-100958190D02*
X141059524Y-100910571D01*
X141059524Y-100910571D02*
X141011905Y-100862952D01*
X141011905Y-100862952D02*
X140964286Y-100767714D01*
X140964286Y-100767714D02*
X140964286Y-100720095D01*
X140964286Y-100720095D02*
X141011905Y-100624857D01*
X141011905Y-100624857D02*
X141059524Y-100577238D01*
X141059524Y-100577238D02*
X141154762Y-100529619D01*
X141154762Y-100529619D02*
X141345238Y-100529619D01*
X141345238Y-100529619D02*
X141440476Y-100577238D01*
X141440476Y-100577238D02*
X141488095Y-100624857D01*
X141488095Y-100624857D02*
X141535714Y-100720095D01*
X141535714Y-100720095D02*
X141535714Y-100767714D01*
X141535714Y-100767714D02*
X141488095Y-100862952D01*
X141488095Y-100862952D02*
X141440476Y-100910571D01*
X141440476Y-100910571D02*
X141345238Y-100958190D01*
X141345238Y-100958190D02*
X141154762Y-100958190D01*
X141154762Y-100958190D02*
X141059524Y-101005809D01*
X141059524Y-101005809D02*
X141011905Y-101053428D01*
X141011905Y-101053428D02*
X140964286Y-101148666D01*
X140964286Y-101148666D02*
X140964286Y-101339142D01*
X140964286Y-101339142D02*
X141011905Y-101434380D01*
X141011905Y-101434380D02*
X141059524Y-101482000D01*
X141059524Y-101482000D02*
X141154762Y-101529619D01*
X141154762Y-101529619D02*
X141345238Y-101529619D01*
X141345238Y-101529619D02*
X141440476Y-101482000D01*
X141440476Y-101482000D02*
X141488095Y-101434380D01*
X141488095Y-101434380D02*
X141535714Y-101339142D01*
X141535714Y-101339142D02*
X141535714Y-101148666D01*
X141535714Y-101148666D02*
X141488095Y-101053428D01*
X141488095Y-101053428D02*
X141440476Y-101005809D01*
X141440476Y-101005809D02*
X141345238Y-100958190D01*
X143958333Y-70449619D02*
X143482143Y-70449619D01*
X143482143Y-70449619D02*
X143482143Y-69449619D01*
X144815476Y-70449619D02*
X144244048Y-70449619D01*
X144529762Y-70449619D02*
X144529762Y-69449619D01*
X144529762Y-69449619D02*
X144434524Y-69592476D01*
X144434524Y-69592476D02*
X144339286Y-69687714D01*
X144339286Y-69687714D02*
X144244048Y-69735333D01*
X120084619Y-75316666D02*
X119608428Y-75649999D01*
X120084619Y-75888094D02*
X119084619Y-75888094D01*
X119084619Y-75888094D02*
X119084619Y-75507142D01*
X119084619Y-75507142D02*
X119132238Y-75411904D01*
X119132238Y-75411904D02*
X119179857Y-75364285D01*
X119179857Y-75364285D02*
X119275095Y-75316666D01*
X119275095Y-75316666D02*
X119417952Y-75316666D01*
X119417952Y-75316666D02*
X119513190Y-75364285D01*
X119513190Y-75364285D02*
X119560809Y-75411904D01*
X119560809Y-75411904D02*
X119608428Y-75507142D01*
X119608428Y-75507142D02*
X119608428Y-75888094D01*
X120084619Y-74364285D02*
X120084619Y-74935713D01*
X120084619Y-74649999D02*
X119084619Y-74649999D01*
X119084619Y-74649999D02*
X119227476Y-74745237D01*
X119227476Y-74745237D02*
X119322714Y-74840475D01*
X119322714Y-74840475D02*
X119370333Y-74935713D01*
X142079619Y-63967857D02*
X141603428Y-64301190D01*
X142079619Y-64539285D02*
X141079619Y-64539285D01*
X141079619Y-64539285D02*
X141079619Y-64158333D01*
X141079619Y-64158333D02*
X141127238Y-64063095D01*
X141127238Y-64063095D02*
X141174857Y-64015476D01*
X141174857Y-64015476D02*
X141270095Y-63967857D01*
X141270095Y-63967857D02*
X141412952Y-63967857D01*
X141412952Y-63967857D02*
X141508190Y-64015476D01*
X141508190Y-64015476D02*
X141555809Y-64063095D01*
X141555809Y-64063095D02*
X141603428Y-64158333D01*
X141603428Y-64158333D02*
X141603428Y-64539285D01*
X142079619Y-63015476D02*
X142079619Y-63586904D01*
X142079619Y-63301190D02*
X141079619Y-63301190D01*
X141079619Y-63301190D02*
X141222476Y-63396428D01*
X141222476Y-63396428D02*
X141317714Y-63491666D01*
X141317714Y-63491666D02*
X141365333Y-63586904D01*
X141412952Y-62158333D02*
X142079619Y-62158333D01*
X141032000Y-62396428D02*
X141746285Y-62634523D01*
X141746285Y-62634523D02*
X141746285Y-62015476D01*
X136232142Y-108079380D02*
X136184523Y-108127000D01*
X136184523Y-108127000D02*
X136041666Y-108174619D01*
X136041666Y-108174619D02*
X135946428Y-108174619D01*
X135946428Y-108174619D02*
X135803571Y-108127000D01*
X135803571Y-108127000D02*
X135708333Y-108031761D01*
X135708333Y-108031761D02*
X135660714Y-107936523D01*
X135660714Y-107936523D02*
X135613095Y-107746047D01*
X135613095Y-107746047D02*
X135613095Y-107603190D01*
X135613095Y-107603190D02*
X135660714Y-107412714D01*
X135660714Y-107412714D02*
X135708333Y-107317476D01*
X135708333Y-107317476D02*
X135803571Y-107222238D01*
X135803571Y-107222238D02*
X135946428Y-107174619D01*
X135946428Y-107174619D02*
X136041666Y-107174619D01*
X136041666Y-107174619D02*
X136184523Y-107222238D01*
X136184523Y-107222238D02*
X136232142Y-107269857D01*
X137184523Y-108174619D02*
X136613095Y-108174619D01*
X136898809Y-108174619D02*
X136898809Y-107174619D01*
X136898809Y-107174619D02*
X136803571Y-107317476D01*
X136803571Y-107317476D02*
X136708333Y-107412714D01*
X136708333Y-107412714D02*
X136613095Y-107460333D01*
X137565476Y-107269857D02*
X137613095Y-107222238D01*
X137613095Y-107222238D02*
X137708333Y-107174619D01*
X137708333Y-107174619D02*
X137946428Y-107174619D01*
X137946428Y-107174619D02*
X138041666Y-107222238D01*
X138041666Y-107222238D02*
X138089285Y-107269857D01*
X138089285Y-107269857D02*
X138136904Y-107365095D01*
X138136904Y-107365095D02*
X138136904Y-107460333D01*
X138136904Y-107460333D02*
X138089285Y-107603190D01*
X138089285Y-107603190D02*
X137517857Y-108174619D01*
X137517857Y-108174619D02*
X138136904Y-108174619D01*
X146546428Y-112400809D02*
X146689285Y-112448428D01*
X146689285Y-112448428D02*
X146736904Y-112496047D01*
X146736904Y-112496047D02*
X146784523Y-112591285D01*
X146784523Y-112591285D02*
X146784523Y-112734142D01*
X146784523Y-112734142D02*
X146736904Y-112829380D01*
X146736904Y-112829380D02*
X146689285Y-112877000D01*
X146689285Y-112877000D02*
X146594047Y-112924619D01*
X146594047Y-112924619D02*
X146213095Y-112924619D01*
X146213095Y-112924619D02*
X146213095Y-111924619D01*
X146213095Y-111924619D02*
X146546428Y-111924619D01*
X146546428Y-111924619D02*
X146641666Y-111972238D01*
X146641666Y-111972238D02*
X146689285Y-112019857D01*
X146689285Y-112019857D02*
X146736904Y-112115095D01*
X146736904Y-112115095D02*
X146736904Y-112210333D01*
X146736904Y-112210333D02*
X146689285Y-112305571D01*
X146689285Y-112305571D02*
X146641666Y-112353190D01*
X146641666Y-112353190D02*
X146546428Y-112400809D01*
X146546428Y-112400809D02*
X146213095Y-112400809D01*
X149608333Y-116074619D02*
X149275000Y-115598428D01*
X149036905Y-116074619D02*
X149036905Y-115074619D01*
X149036905Y-115074619D02*
X149417857Y-115074619D01*
X149417857Y-115074619D02*
X149513095Y-115122238D01*
X149513095Y-115122238D02*
X149560714Y-115169857D01*
X149560714Y-115169857D02*
X149608333Y-115265095D01*
X149608333Y-115265095D02*
X149608333Y-115407952D01*
X149608333Y-115407952D02*
X149560714Y-115503190D01*
X149560714Y-115503190D02*
X149513095Y-115550809D01*
X149513095Y-115550809D02*
X149417857Y-115598428D01*
X149417857Y-115598428D02*
X149036905Y-115598428D01*
X150084524Y-116074619D02*
X150275000Y-116074619D01*
X150275000Y-116074619D02*
X150370238Y-116027000D01*
X150370238Y-116027000D02*
X150417857Y-115979380D01*
X150417857Y-115979380D02*
X150513095Y-115836523D01*
X150513095Y-115836523D02*
X150560714Y-115646047D01*
X150560714Y-115646047D02*
X150560714Y-115265095D01*
X150560714Y-115265095D02*
X150513095Y-115169857D01*
X150513095Y-115169857D02*
X150465476Y-115122238D01*
X150465476Y-115122238D02*
X150370238Y-115074619D01*
X150370238Y-115074619D02*
X150179762Y-115074619D01*
X150179762Y-115074619D02*
X150084524Y-115122238D01*
X150084524Y-115122238D02*
X150036905Y-115169857D01*
X150036905Y-115169857D02*
X149989286Y-115265095D01*
X149989286Y-115265095D02*
X149989286Y-115503190D01*
X149989286Y-115503190D02*
X150036905Y-115598428D01*
X150036905Y-115598428D02*
X150084524Y-115646047D01*
X150084524Y-115646047D02*
X150179762Y-115693666D01*
X150179762Y-115693666D02*
X150370238Y-115693666D01*
X150370238Y-115693666D02*
X150465476Y-115646047D01*
X150465476Y-115646047D02*
X150513095Y-115598428D01*
X150513095Y-115598428D02*
X150560714Y-115503190D01*
X116049619Y-98532857D02*
X115573428Y-98866190D01*
X116049619Y-99104285D02*
X115049619Y-99104285D01*
X115049619Y-99104285D02*
X115049619Y-98723333D01*
X115049619Y-98723333D02*
X115097238Y-98628095D01*
X115097238Y-98628095D02*
X115144857Y-98580476D01*
X115144857Y-98580476D02*
X115240095Y-98532857D01*
X115240095Y-98532857D02*
X115382952Y-98532857D01*
X115382952Y-98532857D02*
X115478190Y-98580476D01*
X115478190Y-98580476D02*
X115525809Y-98628095D01*
X115525809Y-98628095D02*
X115573428Y-98723333D01*
X115573428Y-98723333D02*
X115573428Y-99104285D01*
X116049619Y-97580476D02*
X116049619Y-98151904D01*
X116049619Y-97866190D02*
X115049619Y-97866190D01*
X115049619Y-97866190D02*
X115192476Y-97961428D01*
X115192476Y-97961428D02*
X115287714Y-98056666D01*
X115287714Y-98056666D02*
X115335333Y-98151904D01*
X116049619Y-96628095D02*
X116049619Y-97199523D01*
X116049619Y-96913809D02*
X115049619Y-96913809D01*
X115049619Y-96913809D02*
X115192476Y-97009047D01*
X115192476Y-97009047D02*
X115287714Y-97104285D01*
X115287714Y-97104285D02*
X115335333Y-97199523D01*
X146040714Y-62484288D02*
X146222142Y-62544764D01*
X146222142Y-62544764D02*
X146282619Y-62605240D01*
X146282619Y-62605240D02*
X146343095Y-62726192D01*
X146343095Y-62726192D02*
X146343095Y-62907621D01*
X146343095Y-62907621D02*
X146282619Y-63028573D01*
X146282619Y-63028573D02*
X146222142Y-63089050D01*
X146222142Y-63089050D02*
X146101190Y-63149526D01*
X146101190Y-63149526D02*
X145617380Y-63149526D01*
X145617380Y-63149526D02*
X145617380Y-61879526D01*
X145617380Y-61879526D02*
X146040714Y-61879526D01*
X146040714Y-61879526D02*
X146161666Y-61940002D01*
X146161666Y-61940002D02*
X146222142Y-62000478D01*
X146222142Y-62000478D02*
X146282619Y-62121430D01*
X146282619Y-62121430D02*
X146282619Y-62242383D01*
X146282619Y-62242383D02*
X146222142Y-62363335D01*
X146222142Y-62363335D02*
X146161666Y-62423811D01*
X146161666Y-62423811D02*
X146040714Y-62484288D01*
X146040714Y-62484288D02*
X145617380Y-62484288D01*
X108647619Y-88549619D02*
X108647619Y-87549619D01*
X108647619Y-87549619D02*
X109219047Y-88549619D01*
X109219047Y-88549619D02*
X109219047Y-87549619D01*
X110076190Y-88502000D02*
X109980952Y-88549619D01*
X109980952Y-88549619D02*
X109790476Y-88549619D01*
X109790476Y-88549619D02*
X109695238Y-88502000D01*
X109695238Y-88502000D02*
X109647619Y-88406761D01*
X109647619Y-88406761D02*
X109647619Y-88025809D01*
X109647619Y-88025809D02*
X109695238Y-87930571D01*
X109695238Y-87930571D02*
X109790476Y-87882952D01*
X109790476Y-87882952D02*
X109980952Y-87882952D01*
X109980952Y-87882952D02*
X110076190Y-87930571D01*
X110076190Y-87930571D02*
X110123809Y-88025809D01*
X110123809Y-88025809D02*
X110123809Y-88121047D01*
X110123809Y-88121047D02*
X109647619Y-88216285D01*
X110980952Y-87882952D02*
X110980952Y-88692476D01*
X110980952Y-88692476D02*
X110933333Y-88787714D01*
X110933333Y-88787714D02*
X110885714Y-88835333D01*
X110885714Y-88835333D02*
X110790476Y-88882952D01*
X110790476Y-88882952D02*
X110647619Y-88882952D01*
X110647619Y-88882952D02*
X110552381Y-88835333D01*
X110980952Y-88502000D02*
X110885714Y-88549619D01*
X110885714Y-88549619D02*
X110695238Y-88549619D01*
X110695238Y-88549619D02*
X110600000Y-88502000D01*
X110600000Y-88502000D02*
X110552381Y-88454380D01*
X110552381Y-88454380D02*
X110504762Y-88359142D01*
X110504762Y-88359142D02*
X110504762Y-88073428D01*
X110504762Y-88073428D02*
X110552381Y-87978190D01*
X110552381Y-87978190D02*
X110600000Y-87930571D01*
X110600000Y-87930571D02*
X110695238Y-87882952D01*
X110695238Y-87882952D02*
X110885714Y-87882952D01*
X110885714Y-87882952D02*
X110980952Y-87930571D01*
X111885714Y-88549619D02*
X111885714Y-88025809D01*
X111885714Y-88025809D02*
X111838095Y-87930571D01*
X111838095Y-87930571D02*
X111742857Y-87882952D01*
X111742857Y-87882952D02*
X111552381Y-87882952D01*
X111552381Y-87882952D02*
X111457143Y-87930571D01*
X111885714Y-88502000D02*
X111790476Y-88549619D01*
X111790476Y-88549619D02*
X111552381Y-88549619D01*
X111552381Y-88549619D02*
X111457143Y-88502000D01*
X111457143Y-88502000D02*
X111409524Y-88406761D01*
X111409524Y-88406761D02*
X111409524Y-88311523D01*
X111409524Y-88311523D02*
X111457143Y-88216285D01*
X111457143Y-88216285D02*
X111552381Y-88168666D01*
X111552381Y-88168666D02*
X111790476Y-88168666D01*
X111790476Y-88168666D02*
X111885714Y-88121047D01*
X112219048Y-87882952D02*
X112600000Y-87882952D01*
X112361905Y-87549619D02*
X112361905Y-88406761D01*
X112361905Y-88406761D02*
X112409524Y-88502000D01*
X112409524Y-88502000D02*
X112504762Y-88549619D01*
X112504762Y-88549619D02*
X112600000Y-88549619D01*
X112933334Y-88549619D02*
X112933334Y-87882952D01*
X112933334Y-87549619D02*
X112885715Y-87597238D01*
X112885715Y-87597238D02*
X112933334Y-87644857D01*
X112933334Y-87644857D02*
X112980953Y-87597238D01*
X112980953Y-87597238D02*
X112933334Y-87549619D01*
X112933334Y-87549619D02*
X112933334Y-87644857D01*
X113314286Y-87882952D02*
X113552381Y-88549619D01*
X113552381Y-88549619D02*
X113790476Y-87882952D01*
X114552381Y-88502000D02*
X114457143Y-88549619D01*
X114457143Y-88549619D02*
X114266667Y-88549619D01*
X114266667Y-88549619D02*
X114171429Y-88502000D01*
X114171429Y-88502000D02*
X114123810Y-88406761D01*
X114123810Y-88406761D02*
X114123810Y-88025809D01*
X114123810Y-88025809D02*
X114171429Y-87930571D01*
X114171429Y-87930571D02*
X114266667Y-87882952D01*
X114266667Y-87882952D02*
X114457143Y-87882952D01*
X114457143Y-87882952D02*
X114552381Y-87930571D01*
X114552381Y-87930571D02*
X114600000Y-88025809D01*
X114600000Y-88025809D02*
X114600000Y-88121047D01*
X114600000Y-88121047D02*
X114123810Y-88216285D01*
X115790477Y-88168666D02*
X116552382Y-88168666D01*
X144714333Y-106029619D02*
X144381000Y-105553428D01*
X144142905Y-106029619D02*
X144142905Y-105029619D01*
X144142905Y-105029619D02*
X144523857Y-105029619D01*
X144523857Y-105029619D02*
X144619095Y-105077238D01*
X144619095Y-105077238D02*
X144666714Y-105124857D01*
X144666714Y-105124857D02*
X144714333Y-105220095D01*
X144714333Y-105220095D02*
X144714333Y-105362952D01*
X144714333Y-105362952D02*
X144666714Y-105458190D01*
X144666714Y-105458190D02*
X144619095Y-105505809D01*
X144619095Y-105505809D02*
X144523857Y-105553428D01*
X144523857Y-105553428D02*
X144142905Y-105553428D01*
X145047667Y-105029619D02*
X145714333Y-105029619D01*
X145714333Y-105029619D02*
X145285762Y-106029619D01*
X134357142Y-95854380D02*
X134309523Y-95902000D01*
X134309523Y-95902000D02*
X134166666Y-95949619D01*
X134166666Y-95949619D02*
X134071428Y-95949619D01*
X134071428Y-95949619D02*
X133928571Y-95902000D01*
X133928571Y-95902000D02*
X133833333Y-95806761D01*
X133833333Y-95806761D02*
X133785714Y-95711523D01*
X133785714Y-95711523D02*
X133738095Y-95521047D01*
X133738095Y-95521047D02*
X133738095Y-95378190D01*
X133738095Y-95378190D02*
X133785714Y-95187714D01*
X133785714Y-95187714D02*
X133833333Y-95092476D01*
X133833333Y-95092476D02*
X133928571Y-94997238D01*
X133928571Y-94997238D02*
X134071428Y-94949619D01*
X134071428Y-94949619D02*
X134166666Y-94949619D01*
X134166666Y-94949619D02*
X134309523Y-94997238D01*
X134309523Y-94997238D02*
X134357142Y-95044857D01*
X135309523Y-95949619D02*
X134738095Y-95949619D01*
X135023809Y-95949619D02*
X135023809Y-94949619D01*
X135023809Y-94949619D02*
X134928571Y-95092476D01*
X134928571Y-95092476D02*
X134833333Y-95187714D01*
X134833333Y-95187714D02*
X134738095Y-95235333D01*
X136261904Y-95949619D02*
X135690476Y-95949619D01*
X135976190Y-95949619D02*
X135976190Y-94949619D01*
X135976190Y-94949619D02*
X135880952Y-95092476D01*
X135880952Y-95092476D02*
X135785714Y-95187714D01*
X135785714Y-95187714D02*
X135690476Y-95235333D01*
X146136905Y-67999619D02*
X146136905Y-66999619D01*
X146136905Y-66999619D02*
X146375000Y-66999619D01*
X146375000Y-66999619D02*
X146517857Y-67047238D01*
X146517857Y-67047238D02*
X146613095Y-67142476D01*
X146613095Y-67142476D02*
X146660714Y-67237714D01*
X146660714Y-67237714D02*
X146708333Y-67428190D01*
X146708333Y-67428190D02*
X146708333Y-67571047D01*
X146708333Y-67571047D02*
X146660714Y-67761523D01*
X146660714Y-67761523D02*
X146613095Y-67856761D01*
X146613095Y-67856761D02*
X146517857Y-67952000D01*
X146517857Y-67952000D02*
X146375000Y-67999619D01*
X146375000Y-67999619D02*
X146136905Y-67999619D01*
X147660714Y-67999619D02*
X147089286Y-67999619D01*
X147375000Y-67999619D02*
X147375000Y-66999619D01*
X147375000Y-66999619D02*
X147279762Y-67142476D01*
X147279762Y-67142476D02*
X147184524Y-67237714D01*
X147184524Y-67237714D02*
X147089286Y-67285333D01*
X153257142Y-67899619D02*
X152923809Y-67423428D01*
X152685714Y-67899619D02*
X152685714Y-66899619D01*
X152685714Y-66899619D02*
X153066666Y-66899619D01*
X153066666Y-66899619D02*
X153161904Y-66947238D01*
X153161904Y-66947238D02*
X153209523Y-66994857D01*
X153209523Y-66994857D02*
X153257142Y-67090095D01*
X153257142Y-67090095D02*
X153257142Y-67232952D01*
X153257142Y-67232952D02*
X153209523Y-67328190D01*
X153209523Y-67328190D02*
X153161904Y-67375809D01*
X153161904Y-67375809D02*
X153066666Y-67423428D01*
X153066666Y-67423428D02*
X152685714Y-67423428D01*
X154209523Y-67899619D02*
X153638095Y-67899619D01*
X153923809Y-67899619D02*
X153923809Y-66899619D01*
X153923809Y-66899619D02*
X153828571Y-67042476D01*
X153828571Y-67042476D02*
X153733333Y-67137714D01*
X153733333Y-67137714D02*
X153638095Y-67185333D01*
X155114285Y-66899619D02*
X154638095Y-66899619D01*
X154638095Y-66899619D02*
X154590476Y-67375809D01*
X154590476Y-67375809D02*
X154638095Y-67328190D01*
X154638095Y-67328190D02*
X154733333Y-67280571D01*
X154733333Y-67280571D02*
X154971428Y-67280571D01*
X154971428Y-67280571D02*
X155066666Y-67328190D01*
X155066666Y-67328190D02*
X155114285Y-67375809D01*
X155114285Y-67375809D02*
X155161904Y-67471047D01*
X155161904Y-67471047D02*
X155161904Y-67709142D01*
X155161904Y-67709142D02*
X155114285Y-67804380D01*
X155114285Y-67804380D02*
X155066666Y-67852000D01*
X155066666Y-67852000D02*
X154971428Y-67899619D01*
X154971428Y-67899619D02*
X154733333Y-67899619D01*
X154733333Y-67899619D02*
X154638095Y-67852000D01*
X154638095Y-67852000D02*
X154590476Y-67804380D01*
X120968095Y-63299526D02*
X120544761Y-62694764D01*
X120242380Y-63299526D02*
X120242380Y-62029526D01*
X120242380Y-62029526D02*
X120726190Y-62029526D01*
X120726190Y-62029526D02*
X120847142Y-62090002D01*
X120847142Y-62090002D02*
X120907619Y-62150478D01*
X120907619Y-62150478D02*
X120968095Y-62271430D01*
X120968095Y-62271430D02*
X120968095Y-62452859D01*
X120968095Y-62452859D02*
X120907619Y-62573811D01*
X120907619Y-62573811D02*
X120847142Y-62634288D01*
X120847142Y-62634288D02*
X120726190Y-62694764D01*
X120726190Y-62694764D02*
X120242380Y-62694764D01*
X125089619Y-64067857D02*
X124613428Y-64401190D01*
X125089619Y-64639285D02*
X124089619Y-64639285D01*
X124089619Y-64639285D02*
X124089619Y-64258333D01*
X124089619Y-64258333D02*
X124137238Y-64163095D01*
X124137238Y-64163095D02*
X124184857Y-64115476D01*
X124184857Y-64115476D02*
X124280095Y-64067857D01*
X124280095Y-64067857D02*
X124422952Y-64067857D01*
X124422952Y-64067857D02*
X124518190Y-64115476D01*
X124518190Y-64115476D02*
X124565809Y-64163095D01*
X124565809Y-64163095D02*
X124613428Y-64258333D01*
X124613428Y-64258333D02*
X124613428Y-64639285D01*
X125089619Y-63115476D02*
X125089619Y-63686904D01*
X125089619Y-63401190D02*
X124089619Y-63401190D01*
X124089619Y-63401190D02*
X124232476Y-63496428D01*
X124232476Y-63496428D02*
X124327714Y-63591666D01*
X124327714Y-63591666D02*
X124375333Y-63686904D01*
X124089619Y-62782142D02*
X124089619Y-62163095D01*
X124089619Y-62163095D02*
X124470571Y-62496428D01*
X124470571Y-62496428D02*
X124470571Y-62353571D01*
X124470571Y-62353571D02*
X124518190Y-62258333D01*
X124518190Y-62258333D02*
X124565809Y-62210714D01*
X124565809Y-62210714D02*
X124661047Y-62163095D01*
X124661047Y-62163095D02*
X124899142Y-62163095D01*
X124899142Y-62163095D02*
X124994380Y-62210714D01*
X124994380Y-62210714D02*
X125042000Y-62258333D01*
X125042000Y-62258333D02*
X125089619Y-62353571D01*
X125089619Y-62353571D02*
X125089619Y-62639285D01*
X125089619Y-62639285D02*
X125042000Y-62734523D01*
X125042000Y-62734523D02*
X124994380Y-62782142D01*
X118183333Y-71499619D02*
X117850000Y-71023428D01*
X117611905Y-71499619D02*
X117611905Y-70499619D01*
X117611905Y-70499619D02*
X117992857Y-70499619D01*
X117992857Y-70499619D02*
X118088095Y-70547238D01*
X118088095Y-70547238D02*
X118135714Y-70594857D01*
X118135714Y-70594857D02*
X118183333Y-70690095D01*
X118183333Y-70690095D02*
X118183333Y-70832952D01*
X118183333Y-70832952D02*
X118135714Y-70928190D01*
X118135714Y-70928190D02*
X118088095Y-70975809D01*
X118088095Y-70975809D02*
X117992857Y-71023428D01*
X117992857Y-71023428D02*
X117611905Y-71023428D01*
X118564286Y-70594857D02*
X118611905Y-70547238D01*
X118611905Y-70547238D02*
X118707143Y-70499619D01*
X118707143Y-70499619D02*
X118945238Y-70499619D01*
X118945238Y-70499619D02*
X119040476Y-70547238D01*
X119040476Y-70547238D02*
X119088095Y-70594857D01*
X119088095Y-70594857D02*
X119135714Y-70690095D01*
X119135714Y-70690095D02*
X119135714Y-70785333D01*
X119135714Y-70785333D02*
X119088095Y-70928190D01*
X119088095Y-70928190D02*
X118516667Y-71499619D01*
X118516667Y-71499619D02*
X119135714Y-71499619D01*
X145829380Y-75504166D02*
X145877000Y-75551785D01*
X145877000Y-75551785D02*
X145924619Y-75694642D01*
X145924619Y-75694642D02*
X145924619Y-75789880D01*
X145924619Y-75789880D02*
X145877000Y-75932737D01*
X145877000Y-75932737D02*
X145781761Y-76027975D01*
X145781761Y-76027975D02*
X145686523Y-76075594D01*
X145686523Y-76075594D02*
X145496047Y-76123213D01*
X145496047Y-76123213D02*
X145353190Y-76123213D01*
X145353190Y-76123213D02*
X145162714Y-76075594D01*
X145162714Y-76075594D02*
X145067476Y-76027975D01*
X145067476Y-76027975D02*
X144972238Y-75932737D01*
X144972238Y-75932737D02*
X144924619Y-75789880D01*
X144924619Y-75789880D02*
X144924619Y-75694642D01*
X144924619Y-75694642D02*
X144972238Y-75551785D01*
X144972238Y-75551785D02*
X145019857Y-75504166D01*
X144924619Y-75170832D02*
X144924619Y-74551785D01*
X144924619Y-74551785D02*
X145305571Y-74885118D01*
X145305571Y-74885118D02*
X145305571Y-74742261D01*
X145305571Y-74742261D02*
X145353190Y-74647023D01*
X145353190Y-74647023D02*
X145400809Y-74599404D01*
X145400809Y-74599404D02*
X145496047Y-74551785D01*
X145496047Y-74551785D02*
X145734142Y-74551785D01*
X145734142Y-74551785D02*
X145829380Y-74599404D01*
X145829380Y-74599404D02*
X145877000Y-74647023D01*
X145877000Y-74647023D02*
X145924619Y-74742261D01*
X145924619Y-74742261D02*
X145924619Y-75027975D01*
X145924619Y-75027975D02*
X145877000Y-75123213D01*
X145877000Y-75123213D02*
X145829380Y-75170832D01*
X120209380Y-79066666D02*
X120257000Y-79114285D01*
X120257000Y-79114285D02*
X120304619Y-79257142D01*
X120304619Y-79257142D02*
X120304619Y-79352380D01*
X120304619Y-79352380D02*
X120257000Y-79495237D01*
X120257000Y-79495237D02*
X120161761Y-79590475D01*
X120161761Y-79590475D02*
X120066523Y-79638094D01*
X120066523Y-79638094D02*
X119876047Y-79685713D01*
X119876047Y-79685713D02*
X119733190Y-79685713D01*
X119733190Y-79685713D02*
X119542714Y-79638094D01*
X119542714Y-79638094D02*
X119447476Y-79590475D01*
X119447476Y-79590475D02*
X119352238Y-79495237D01*
X119352238Y-79495237D02*
X119304619Y-79352380D01*
X119304619Y-79352380D02*
X119304619Y-79257142D01*
X119304619Y-79257142D02*
X119352238Y-79114285D01*
X119352238Y-79114285D02*
X119399857Y-79066666D01*
X120304619Y-78114285D02*
X120304619Y-78685713D01*
X120304619Y-78399999D02*
X119304619Y-78399999D01*
X119304619Y-78399999D02*
X119447476Y-78495237D01*
X119447476Y-78495237D02*
X119542714Y-78590475D01*
X119542714Y-78590475D02*
X119590333Y-78685713D01*
X143233333Y-67249619D02*
X142900000Y-66773428D01*
X142661905Y-67249619D02*
X142661905Y-66249619D01*
X142661905Y-66249619D02*
X143042857Y-66249619D01*
X143042857Y-66249619D02*
X143138095Y-66297238D01*
X143138095Y-66297238D02*
X143185714Y-66344857D01*
X143185714Y-66344857D02*
X143233333Y-66440095D01*
X143233333Y-66440095D02*
X143233333Y-66582952D01*
X143233333Y-66582952D02*
X143185714Y-66678190D01*
X143185714Y-66678190D02*
X143138095Y-66725809D01*
X143138095Y-66725809D02*
X143042857Y-66773428D01*
X143042857Y-66773428D02*
X142661905Y-66773428D01*
X144090476Y-66582952D02*
X144090476Y-67249619D01*
X143852381Y-66202000D02*
X143614286Y-66916285D01*
X143614286Y-66916285D02*
X144233333Y-66916285D01*
X150199286Y-72212026D02*
X149775952Y-71607264D01*
X149473571Y-72212026D02*
X149473571Y-70942026D01*
X149473571Y-70942026D02*
X149957381Y-70942026D01*
X149957381Y-70942026D02*
X150078333Y-71002502D01*
X150078333Y-71002502D02*
X150138810Y-71062978D01*
X150138810Y-71062978D02*
X150199286Y-71183930D01*
X150199286Y-71183930D02*
X150199286Y-71365359D01*
X150199286Y-71365359D02*
X150138810Y-71486311D01*
X150138810Y-71486311D02*
X150078333Y-71546788D01*
X150078333Y-71546788D02*
X149957381Y-71607264D01*
X149957381Y-71607264D02*
X149473571Y-71607264D01*
X151227381Y-72151550D02*
X151106429Y-72212026D01*
X151106429Y-72212026D02*
X150864524Y-72212026D01*
X150864524Y-72212026D02*
X150743571Y-72151550D01*
X150743571Y-72151550D02*
X150683095Y-72030597D01*
X150683095Y-72030597D02*
X150683095Y-71546788D01*
X150683095Y-71546788D02*
X150743571Y-71425835D01*
X150743571Y-71425835D02*
X150864524Y-71365359D01*
X150864524Y-71365359D02*
X151106429Y-71365359D01*
X151106429Y-71365359D02*
X151227381Y-71425835D01*
X151227381Y-71425835D02*
X151287857Y-71546788D01*
X151287857Y-71546788D02*
X151287857Y-71667740D01*
X151287857Y-71667740D02*
X150683095Y-71788692D01*
X152376428Y-71365359D02*
X152376428Y-72393454D01*
X152376428Y-72393454D02*
X152315952Y-72514407D01*
X152315952Y-72514407D02*
X152255476Y-72574883D01*
X152255476Y-72574883D02*
X152134523Y-72635359D01*
X152134523Y-72635359D02*
X151953095Y-72635359D01*
X151953095Y-72635359D02*
X151832142Y-72574883D01*
X152376428Y-72151550D02*
X152255476Y-72212026D01*
X152255476Y-72212026D02*
X152013571Y-72212026D01*
X152013571Y-72212026D02*
X151892619Y-72151550D01*
X151892619Y-72151550D02*
X151832142Y-72091073D01*
X151832142Y-72091073D02*
X151771666Y-71970121D01*
X151771666Y-71970121D02*
X151771666Y-71607264D01*
X151771666Y-71607264D02*
X151832142Y-71486311D01*
X151832142Y-71486311D02*
X151892619Y-71425835D01*
X151892619Y-71425835D02*
X152013571Y-71365359D01*
X152013571Y-71365359D02*
X152255476Y-71365359D01*
X152255476Y-71365359D02*
X152376428Y-71425835D01*
X116023810Y-75049619D02*
X116023810Y-74049619D01*
X117071428Y-74954380D02*
X117023809Y-75002000D01*
X117023809Y-75002000D02*
X116880952Y-75049619D01*
X116880952Y-75049619D02*
X116785714Y-75049619D01*
X116785714Y-75049619D02*
X116642857Y-75002000D01*
X116642857Y-75002000D02*
X116547619Y-74906761D01*
X116547619Y-74906761D02*
X116500000Y-74811523D01*
X116500000Y-74811523D02*
X116452381Y-74621047D01*
X116452381Y-74621047D02*
X116452381Y-74478190D01*
X116452381Y-74478190D02*
X116500000Y-74287714D01*
X116500000Y-74287714D02*
X116547619Y-74192476D01*
X116547619Y-74192476D02*
X116642857Y-74097238D01*
X116642857Y-74097238D02*
X116785714Y-74049619D01*
X116785714Y-74049619D02*
X116880952Y-74049619D01*
X116880952Y-74049619D02*
X117023809Y-74097238D01*
X117023809Y-74097238D02*
X117071428Y-74144857D01*
X117452381Y-74144857D02*
X117500000Y-74097238D01*
X117500000Y-74097238D02*
X117595238Y-74049619D01*
X117595238Y-74049619D02*
X117833333Y-74049619D01*
X117833333Y-74049619D02*
X117928571Y-74097238D01*
X117928571Y-74097238D02*
X117976190Y-74144857D01*
X117976190Y-74144857D02*
X118023809Y-74240095D01*
X118023809Y-74240095D02*
X118023809Y-74335333D01*
X118023809Y-74335333D02*
X117976190Y-74478190D01*
X117976190Y-74478190D02*
X117404762Y-75049619D01*
X117404762Y-75049619D02*
X118023809Y-75049619D01*
X129185714Y-90609288D02*
X128762380Y-90609288D01*
X128762380Y-91274526D02*
X128762380Y-90004526D01*
X128762380Y-90004526D02*
X129367142Y-90004526D01*
X130032380Y-91274526D02*
X129911428Y-91214050D01*
X129911428Y-91214050D02*
X129850951Y-91093097D01*
X129850951Y-91093097D02*
X129850951Y-90004526D01*
X131060475Y-91274526D02*
X131060475Y-90609288D01*
X131060475Y-90609288D02*
X130999999Y-90488335D01*
X130999999Y-90488335D02*
X130879047Y-90427859D01*
X130879047Y-90427859D02*
X130637142Y-90427859D01*
X130637142Y-90427859D02*
X130516189Y-90488335D01*
X131060475Y-91214050D02*
X130939523Y-91274526D01*
X130939523Y-91274526D02*
X130637142Y-91274526D01*
X130637142Y-91274526D02*
X130516189Y-91214050D01*
X130516189Y-91214050D02*
X130455713Y-91093097D01*
X130455713Y-91093097D02*
X130455713Y-90972145D01*
X130455713Y-90972145D02*
X130516189Y-90851192D01*
X130516189Y-90851192D02*
X130637142Y-90790716D01*
X130637142Y-90790716D02*
X130939523Y-90790716D01*
X130939523Y-90790716D02*
X131060475Y-90730240D01*
X131604761Y-91214050D02*
X131725714Y-91274526D01*
X131725714Y-91274526D02*
X131967618Y-91274526D01*
X131967618Y-91274526D02*
X132088571Y-91214050D01*
X132088571Y-91214050D02*
X132149047Y-91093097D01*
X132149047Y-91093097D02*
X132149047Y-91032621D01*
X132149047Y-91032621D02*
X132088571Y-90911669D01*
X132088571Y-90911669D02*
X131967618Y-90851192D01*
X131967618Y-90851192D02*
X131786190Y-90851192D01*
X131786190Y-90851192D02*
X131665237Y-90790716D01*
X131665237Y-90790716D02*
X131604761Y-90669764D01*
X131604761Y-90669764D02*
X131604761Y-90609288D01*
X131604761Y-90609288D02*
X131665237Y-90488335D01*
X131665237Y-90488335D02*
X131786190Y-90427859D01*
X131786190Y-90427859D02*
X131967618Y-90427859D01*
X131967618Y-90427859D02*
X132088571Y-90488335D01*
X132693332Y-91274526D02*
X132693332Y-90004526D01*
X133237618Y-91274526D02*
X133237618Y-90609288D01*
X133237618Y-90609288D02*
X133177142Y-90488335D01*
X133177142Y-90488335D02*
X133056190Y-90427859D01*
X133056190Y-90427859D02*
X132874761Y-90427859D01*
X132874761Y-90427859D02*
X132753809Y-90488335D01*
X132753809Y-90488335D02*
X132693332Y-90548811D01*
X130699619Y-78113094D02*
X129699619Y-78113094D01*
X129699619Y-78113094D02*
X129699619Y-77874999D01*
X129699619Y-77874999D02*
X129747238Y-77732142D01*
X129747238Y-77732142D02*
X129842476Y-77636904D01*
X129842476Y-77636904D02*
X129937714Y-77589285D01*
X129937714Y-77589285D02*
X130128190Y-77541666D01*
X130128190Y-77541666D02*
X130271047Y-77541666D01*
X130271047Y-77541666D02*
X130461523Y-77589285D01*
X130461523Y-77589285D02*
X130556761Y-77636904D01*
X130556761Y-77636904D02*
X130652000Y-77732142D01*
X130652000Y-77732142D02*
X130699619Y-77874999D01*
X130699619Y-77874999D02*
X130699619Y-78113094D01*
X129699619Y-76636904D02*
X129699619Y-77113094D01*
X129699619Y-77113094D02*
X130175809Y-77160713D01*
X130175809Y-77160713D02*
X130128190Y-77113094D01*
X130128190Y-77113094D02*
X130080571Y-77017856D01*
X130080571Y-77017856D02*
X130080571Y-76779761D01*
X130080571Y-76779761D02*
X130128190Y-76684523D01*
X130128190Y-76684523D02*
X130175809Y-76636904D01*
X130175809Y-76636904D02*
X130271047Y-76589285D01*
X130271047Y-76589285D02*
X130509142Y-76589285D01*
X130509142Y-76589285D02*
X130604380Y-76636904D01*
X130604380Y-76636904D02*
X130652000Y-76684523D01*
X130652000Y-76684523D02*
X130699619Y-76779761D01*
X130699619Y-76779761D02*
X130699619Y-77017856D01*
X130699619Y-77017856D02*
X130652000Y-77113094D01*
X130652000Y-77113094D02*
X130604380Y-77160713D01*
X139404380Y-113592857D02*
X139452000Y-113640476D01*
X139452000Y-113640476D02*
X139499619Y-113783333D01*
X139499619Y-113783333D02*
X139499619Y-113878571D01*
X139499619Y-113878571D02*
X139452000Y-114021428D01*
X139452000Y-114021428D02*
X139356761Y-114116666D01*
X139356761Y-114116666D02*
X139261523Y-114164285D01*
X139261523Y-114164285D02*
X139071047Y-114211904D01*
X139071047Y-114211904D02*
X138928190Y-114211904D01*
X138928190Y-114211904D02*
X138737714Y-114164285D01*
X138737714Y-114164285D02*
X138642476Y-114116666D01*
X138642476Y-114116666D02*
X138547238Y-114021428D01*
X138547238Y-114021428D02*
X138499619Y-113878571D01*
X138499619Y-113878571D02*
X138499619Y-113783333D01*
X138499619Y-113783333D02*
X138547238Y-113640476D01*
X138547238Y-113640476D02*
X138594857Y-113592857D01*
X139499619Y-112640476D02*
X139499619Y-113211904D01*
X139499619Y-112926190D02*
X138499619Y-112926190D01*
X138499619Y-112926190D02*
X138642476Y-113021428D01*
X138642476Y-113021428D02*
X138737714Y-113116666D01*
X138737714Y-113116666D02*
X138785333Y-113211904D01*
X138832952Y-111783333D02*
X139499619Y-111783333D01*
X138452000Y-112021428D02*
X139166285Y-112259523D01*
X139166285Y-112259523D02*
X139166285Y-111640476D01*
X120732142Y-101324619D02*
X120398809Y-100848428D01*
X120160714Y-101324619D02*
X120160714Y-100324619D01*
X120160714Y-100324619D02*
X120541666Y-100324619D01*
X120541666Y-100324619D02*
X120636904Y-100372238D01*
X120636904Y-100372238D02*
X120684523Y-100419857D01*
X120684523Y-100419857D02*
X120732142Y-100515095D01*
X120732142Y-100515095D02*
X120732142Y-100657952D01*
X120732142Y-100657952D02*
X120684523Y-100753190D01*
X120684523Y-100753190D02*
X120636904Y-100800809D01*
X120636904Y-100800809D02*
X120541666Y-100848428D01*
X120541666Y-100848428D02*
X120160714Y-100848428D01*
X121684523Y-101324619D02*
X121113095Y-101324619D01*
X121398809Y-101324619D02*
X121398809Y-100324619D01*
X121398809Y-100324619D02*
X121303571Y-100467476D01*
X121303571Y-100467476D02*
X121208333Y-100562714D01*
X121208333Y-100562714D02*
X121113095Y-100610333D01*
X122065476Y-100419857D02*
X122113095Y-100372238D01*
X122113095Y-100372238D02*
X122208333Y-100324619D01*
X122208333Y-100324619D02*
X122446428Y-100324619D01*
X122446428Y-100324619D02*
X122541666Y-100372238D01*
X122541666Y-100372238D02*
X122589285Y-100419857D01*
X122589285Y-100419857D02*
X122636904Y-100515095D01*
X122636904Y-100515095D02*
X122636904Y-100610333D01*
X122636904Y-100610333D02*
X122589285Y-100753190D01*
X122589285Y-100753190D02*
X122017857Y-101324619D01*
X122017857Y-101324619D02*
X122636904Y-101324619D01*
X122499619Y-98067857D02*
X122023428Y-98401190D01*
X122499619Y-98639285D02*
X121499619Y-98639285D01*
X121499619Y-98639285D02*
X121499619Y-98258333D01*
X121499619Y-98258333D02*
X121547238Y-98163095D01*
X121547238Y-98163095D02*
X121594857Y-98115476D01*
X121594857Y-98115476D02*
X121690095Y-98067857D01*
X121690095Y-98067857D02*
X121832952Y-98067857D01*
X121832952Y-98067857D02*
X121928190Y-98115476D01*
X121928190Y-98115476D02*
X121975809Y-98163095D01*
X121975809Y-98163095D02*
X122023428Y-98258333D01*
X122023428Y-98258333D02*
X122023428Y-98639285D01*
X122499619Y-97115476D02*
X122499619Y-97686904D01*
X122499619Y-97401190D02*
X121499619Y-97401190D01*
X121499619Y-97401190D02*
X121642476Y-97496428D01*
X121642476Y-97496428D02*
X121737714Y-97591666D01*
X121737714Y-97591666D02*
X121785333Y-97686904D01*
X121499619Y-96496428D02*
X121499619Y-96401190D01*
X121499619Y-96401190D02*
X121547238Y-96305952D01*
X121547238Y-96305952D02*
X121594857Y-96258333D01*
X121594857Y-96258333D02*
X121690095Y-96210714D01*
X121690095Y-96210714D02*
X121880571Y-96163095D01*
X121880571Y-96163095D02*
X122118666Y-96163095D01*
X122118666Y-96163095D02*
X122309142Y-96210714D01*
X122309142Y-96210714D02*
X122404380Y-96258333D01*
X122404380Y-96258333D02*
X122452000Y-96305952D01*
X122452000Y-96305952D02*
X122499619Y-96401190D01*
X122499619Y-96401190D02*
X122499619Y-96496428D01*
X122499619Y-96496428D02*
X122452000Y-96591666D01*
X122452000Y-96591666D02*
X122404380Y-96639285D01*
X122404380Y-96639285D02*
X122309142Y-96686904D01*
X122309142Y-96686904D02*
X122118666Y-96734523D01*
X122118666Y-96734523D02*
X121880571Y-96734523D01*
X121880571Y-96734523D02*
X121690095Y-96686904D01*
X121690095Y-96686904D02*
X121594857Y-96639285D01*
X121594857Y-96639285D02*
X121547238Y-96591666D01*
X121547238Y-96591666D02*
X121499619Y-96496428D01*
X123254380Y-111366666D02*
X123302000Y-111414285D01*
X123302000Y-111414285D02*
X123349619Y-111557142D01*
X123349619Y-111557142D02*
X123349619Y-111652380D01*
X123349619Y-111652380D02*
X123302000Y-111795237D01*
X123302000Y-111795237D02*
X123206761Y-111890475D01*
X123206761Y-111890475D02*
X123111523Y-111938094D01*
X123111523Y-111938094D02*
X122921047Y-111985713D01*
X122921047Y-111985713D02*
X122778190Y-111985713D01*
X122778190Y-111985713D02*
X122587714Y-111938094D01*
X122587714Y-111938094D02*
X122492476Y-111890475D01*
X122492476Y-111890475D02*
X122397238Y-111795237D01*
X122397238Y-111795237D02*
X122349619Y-111652380D01*
X122349619Y-111652380D02*
X122349619Y-111557142D01*
X122349619Y-111557142D02*
X122397238Y-111414285D01*
X122397238Y-111414285D02*
X122444857Y-111366666D01*
X122778190Y-110795237D02*
X122730571Y-110890475D01*
X122730571Y-110890475D02*
X122682952Y-110938094D01*
X122682952Y-110938094D02*
X122587714Y-110985713D01*
X122587714Y-110985713D02*
X122540095Y-110985713D01*
X122540095Y-110985713D02*
X122444857Y-110938094D01*
X122444857Y-110938094D02*
X122397238Y-110890475D01*
X122397238Y-110890475D02*
X122349619Y-110795237D01*
X122349619Y-110795237D02*
X122349619Y-110604761D01*
X122349619Y-110604761D02*
X122397238Y-110509523D01*
X122397238Y-110509523D02*
X122444857Y-110461904D01*
X122444857Y-110461904D02*
X122540095Y-110414285D01*
X122540095Y-110414285D02*
X122587714Y-110414285D01*
X122587714Y-110414285D02*
X122682952Y-110461904D01*
X122682952Y-110461904D02*
X122730571Y-110509523D01*
X122730571Y-110509523D02*
X122778190Y-110604761D01*
X122778190Y-110604761D02*
X122778190Y-110795237D01*
X122778190Y-110795237D02*
X122825809Y-110890475D01*
X122825809Y-110890475D02*
X122873428Y-110938094D01*
X122873428Y-110938094D02*
X122968666Y-110985713D01*
X122968666Y-110985713D02*
X123159142Y-110985713D01*
X123159142Y-110985713D02*
X123254380Y-110938094D01*
X123254380Y-110938094D02*
X123302000Y-110890475D01*
X123302000Y-110890475D02*
X123349619Y-110795237D01*
X123349619Y-110795237D02*
X123349619Y-110604761D01*
X123349619Y-110604761D02*
X123302000Y-110509523D01*
X123302000Y-110509523D02*
X123254380Y-110461904D01*
X123254380Y-110461904D02*
X123159142Y-110414285D01*
X123159142Y-110414285D02*
X122968666Y-110414285D01*
X122968666Y-110414285D02*
X122873428Y-110461904D01*
X122873428Y-110461904D02*
X122825809Y-110509523D01*
X122825809Y-110509523D02*
X122778190Y-110604761D01*
X111547576Y-105967195D02*
X111547576Y-106443386D01*
X111214243Y-105443386D02*
X111547576Y-105967195D01*
X111547576Y-105967195D02*
X111880909Y-105443386D01*
X112738052Y-106443386D02*
X112166624Y-106443386D01*
X112452338Y-106443386D02*
X112452338Y-105443386D01*
X112452338Y-105443386D02*
X112357100Y-105586243D01*
X112357100Y-105586243D02*
X112261862Y-105681481D01*
X112261862Y-105681481D02*
X112166624Y-105729100D01*
X128349619Y-110641666D02*
X128349619Y-111117856D01*
X128349619Y-111117856D02*
X127349619Y-111117856D01*
X127349619Y-110403570D02*
X127349619Y-109784523D01*
X127349619Y-109784523D02*
X127730571Y-110117856D01*
X127730571Y-110117856D02*
X127730571Y-109974999D01*
X127730571Y-109974999D02*
X127778190Y-109879761D01*
X127778190Y-109879761D02*
X127825809Y-109832142D01*
X127825809Y-109832142D02*
X127921047Y-109784523D01*
X127921047Y-109784523D02*
X128159142Y-109784523D01*
X128159142Y-109784523D02*
X128254380Y-109832142D01*
X128254380Y-109832142D02*
X128302000Y-109879761D01*
X128302000Y-109879761D02*
X128349619Y-109974999D01*
X128349619Y-109974999D02*
X128349619Y-110260713D01*
X128349619Y-110260713D02*
X128302000Y-110355951D01*
X128302000Y-110355951D02*
X128254380Y-110403570D01*
X131549619Y-110791666D02*
X131549619Y-111267856D01*
X131549619Y-111267856D02*
X130549619Y-111267856D01*
X130644857Y-110505951D02*
X130597238Y-110458332D01*
X130597238Y-110458332D02*
X130549619Y-110363094D01*
X130549619Y-110363094D02*
X130549619Y-110124999D01*
X130549619Y-110124999D02*
X130597238Y-110029761D01*
X130597238Y-110029761D02*
X130644857Y-109982142D01*
X130644857Y-109982142D02*
X130740095Y-109934523D01*
X130740095Y-109934523D02*
X130835333Y-109934523D01*
X130835333Y-109934523D02*
X130978190Y-109982142D01*
X130978190Y-109982142D02*
X131549619Y-110553570D01*
X131549619Y-110553570D02*
X131549619Y-109934523D01*
X125729380Y-107142857D02*
X125777000Y-107190476D01*
X125777000Y-107190476D02*
X125824619Y-107333333D01*
X125824619Y-107333333D02*
X125824619Y-107428571D01*
X125824619Y-107428571D02*
X125777000Y-107571428D01*
X125777000Y-107571428D02*
X125681761Y-107666666D01*
X125681761Y-107666666D02*
X125586523Y-107714285D01*
X125586523Y-107714285D02*
X125396047Y-107761904D01*
X125396047Y-107761904D02*
X125253190Y-107761904D01*
X125253190Y-107761904D02*
X125062714Y-107714285D01*
X125062714Y-107714285D02*
X124967476Y-107666666D01*
X124967476Y-107666666D02*
X124872238Y-107571428D01*
X124872238Y-107571428D02*
X124824619Y-107428571D01*
X124824619Y-107428571D02*
X124824619Y-107333333D01*
X124824619Y-107333333D02*
X124872238Y-107190476D01*
X124872238Y-107190476D02*
X124919857Y-107142857D01*
X125824619Y-106190476D02*
X125824619Y-106761904D01*
X125824619Y-106476190D02*
X124824619Y-106476190D01*
X124824619Y-106476190D02*
X124967476Y-106571428D01*
X124967476Y-106571428D02*
X125062714Y-106666666D01*
X125062714Y-106666666D02*
X125110333Y-106761904D01*
X124824619Y-105571428D02*
X124824619Y-105476190D01*
X124824619Y-105476190D02*
X124872238Y-105380952D01*
X124872238Y-105380952D02*
X124919857Y-105333333D01*
X124919857Y-105333333D02*
X125015095Y-105285714D01*
X125015095Y-105285714D02*
X125205571Y-105238095D01*
X125205571Y-105238095D02*
X125443666Y-105238095D01*
X125443666Y-105238095D02*
X125634142Y-105285714D01*
X125634142Y-105285714D02*
X125729380Y-105333333D01*
X125729380Y-105333333D02*
X125777000Y-105380952D01*
X125777000Y-105380952D02*
X125824619Y-105476190D01*
X125824619Y-105476190D02*
X125824619Y-105571428D01*
X125824619Y-105571428D02*
X125777000Y-105666666D01*
X125777000Y-105666666D02*
X125729380Y-105714285D01*
X125729380Y-105714285D02*
X125634142Y-105761904D01*
X125634142Y-105761904D02*
X125443666Y-105809523D01*
X125443666Y-105809523D02*
X125205571Y-105809523D01*
X125205571Y-105809523D02*
X125015095Y-105761904D01*
X125015095Y-105761904D02*
X124919857Y-105714285D01*
X124919857Y-105714285D02*
X124872238Y-105666666D01*
X124872238Y-105666666D02*
X124824619Y-105571428D01*
X134032142Y-116554380D02*
X133984523Y-116602000D01*
X133984523Y-116602000D02*
X133841666Y-116649619D01*
X133841666Y-116649619D02*
X133746428Y-116649619D01*
X133746428Y-116649619D02*
X133603571Y-116602000D01*
X133603571Y-116602000D02*
X133508333Y-116506761D01*
X133508333Y-116506761D02*
X133460714Y-116411523D01*
X133460714Y-116411523D02*
X133413095Y-116221047D01*
X133413095Y-116221047D02*
X133413095Y-116078190D01*
X133413095Y-116078190D02*
X133460714Y-115887714D01*
X133460714Y-115887714D02*
X133508333Y-115792476D01*
X133508333Y-115792476D02*
X133603571Y-115697238D01*
X133603571Y-115697238D02*
X133746428Y-115649619D01*
X133746428Y-115649619D02*
X133841666Y-115649619D01*
X133841666Y-115649619D02*
X133984523Y-115697238D01*
X133984523Y-115697238D02*
X134032142Y-115744857D01*
X134984523Y-116649619D02*
X134413095Y-116649619D01*
X134698809Y-116649619D02*
X134698809Y-115649619D01*
X134698809Y-115649619D02*
X134603571Y-115792476D01*
X134603571Y-115792476D02*
X134508333Y-115887714D01*
X134508333Y-115887714D02*
X134413095Y-115935333D01*
X135317857Y-115649619D02*
X135936904Y-115649619D01*
X135936904Y-115649619D02*
X135603571Y-116030571D01*
X135603571Y-116030571D02*
X135746428Y-116030571D01*
X135746428Y-116030571D02*
X135841666Y-116078190D01*
X135841666Y-116078190D02*
X135889285Y-116125809D01*
X135889285Y-116125809D02*
X135936904Y-116221047D01*
X135936904Y-116221047D02*
X135936904Y-116459142D01*
X135936904Y-116459142D02*
X135889285Y-116554380D01*
X135889285Y-116554380D02*
X135841666Y-116602000D01*
X135841666Y-116602000D02*
X135746428Y-116649619D01*
X135746428Y-116649619D02*
X135460714Y-116649619D01*
X135460714Y-116649619D02*
X135365476Y-116602000D01*
X135365476Y-116602000D02*
X135317857Y-116554380D01*
X138604380Y-93892857D02*
X138652000Y-93940476D01*
X138652000Y-93940476D02*
X138699619Y-94083333D01*
X138699619Y-94083333D02*
X138699619Y-94178571D01*
X138699619Y-94178571D02*
X138652000Y-94321428D01*
X138652000Y-94321428D02*
X138556761Y-94416666D01*
X138556761Y-94416666D02*
X138461523Y-94464285D01*
X138461523Y-94464285D02*
X138271047Y-94511904D01*
X138271047Y-94511904D02*
X138128190Y-94511904D01*
X138128190Y-94511904D02*
X137937714Y-94464285D01*
X137937714Y-94464285D02*
X137842476Y-94416666D01*
X137842476Y-94416666D02*
X137747238Y-94321428D01*
X137747238Y-94321428D02*
X137699619Y-94178571D01*
X137699619Y-94178571D02*
X137699619Y-94083333D01*
X137699619Y-94083333D02*
X137747238Y-93940476D01*
X137747238Y-93940476D02*
X137794857Y-93892857D01*
X138699619Y-92940476D02*
X138699619Y-93511904D01*
X138699619Y-93226190D02*
X137699619Y-93226190D01*
X137699619Y-93226190D02*
X137842476Y-93321428D01*
X137842476Y-93321428D02*
X137937714Y-93416666D01*
X137937714Y-93416666D02*
X137985333Y-93511904D01*
X138699619Y-92464285D02*
X138699619Y-92273809D01*
X138699619Y-92273809D02*
X138652000Y-92178571D01*
X138652000Y-92178571D02*
X138604380Y-92130952D01*
X138604380Y-92130952D02*
X138461523Y-92035714D01*
X138461523Y-92035714D02*
X138271047Y-91988095D01*
X138271047Y-91988095D02*
X137890095Y-91988095D01*
X137890095Y-91988095D02*
X137794857Y-92035714D01*
X137794857Y-92035714D02*
X137747238Y-92083333D01*
X137747238Y-92083333D02*
X137699619Y-92178571D01*
X137699619Y-92178571D02*
X137699619Y-92369047D01*
X137699619Y-92369047D02*
X137747238Y-92464285D01*
X137747238Y-92464285D02*
X137794857Y-92511904D01*
X137794857Y-92511904D02*
X137890095Y-92559523D01*
X137890095Y-92559523D02*
X138128190Y-92559523D01*
X138128190Y-92559523D02*
X138223428Y-92511904D01*
X138223428Y-92511904D02*
X138271047Y-92464285D01*
X138271047Y-92464285D02*
X138318666Y-92369047D01*
X138318666Y-92369047D02*
X138318666Y-92178571D01*
X138318666Y-92178571D02*
X138271047Y-92083333D01*
X138271047Y-92083333D02*
X138223428Y-92035714D01*
X138223428Y-92035714D02*
X138128190Y-91988095D01*
X149758333Y-109774619D02*
X149425000Y-109298428D01*
X149186905Y-109774619D02*
X149186905Y-108774619D01*
X149186905Y-108774619D02*
X149567857Y-108774619D01*
X149567857Y-108774619D02*
X149663095Y-108822238D01*
X149663095Y-108822238D02*
X149710714Y-108869857D01*
X149710714Y-108869857D02*
X149758333Y-108965095D01*
X149758333Y-108965095D02*
X149758333Y-109107952D01*
X149758333Y-109107952D02*
X149710714Y-109203190D01*
X149710714Y-109203190D02*
X149663095Y-109250809D01*
X149663095Y-109250809D02*
X149567857Y-109298428D01*
X149567857Y-109298428D02*
X149186905Y-109298428D01*
X150615476Y-108774619D02*
X150425000Y-108774619D01*
X150425000Y-108774619D02*
X150329762Y-108822238D01*
X150329762Y-108822238D02*
X150282143Y-108869857D01*
X150282143Y-108869857D02*
X150186905Y-109012714D01*
X150186905Y-109012714D02*
X150139286Y-109203190D01*
X150139286Y-109203190D02*
X150139286Y-109584142D01*
X150139286Y-109584142D02*
X150186905Y-109679380D01*
X150186905Y-109679380D02*
X150234524Y-109727000D01*
X150234524Y-109727000D02*
X150329762Y-109774619D01*
X150329762Y-109774619D02*
X150520238Y-109774619D01*
X150520238Y-109774619D02*
X150615476Y-109727000D01*
X150615476Y-109727000D02*
X150663095Y-109679380D01*
X150663095Y-109679380D02*
X150710714Y-109584142D01*
X150710714Y-109584142D02*
X150710714Y-109346047D01*
X150710714Y-109346047D02*
X150663095Y-109250809D01*
X150663095Y-109250809D02*
X150615476Y-109203190D01*
X150615476Y-109203190D02*
X150520238Y-109155571D01*
X150520238Y-109155571D02*
X150329762Y-109155571D01*
X150329762Y-109155571D02*
X150234524Y-109203190D01*
X150234524Y-109203190D02*
X150186905Y-109250809D01*
X150186905Y-109250809D02*
X150139286Y-109346047D01*
X149988392Y-66585630D02*
X149940773Y-66633250D01*
X149940773Y-66633250D02*
X149797916Y-66680869D01*
X149797916Y-66680869D02*
X149702678Y-66680869D01*
X149702678Y-66680869D02*
X149559821Y-66633250D01*
X149559821Y-66633250D02*
X149464583Y-66538011D01*
X149464583Y-66538011D02*
X149416964Y-66442773D01*
X149416964Y-66442773D02*
X149369345Y-66252297D01*
X149369345Y-66252297D02*
X149369345Y-66109440D01*
X149369345Y-66109440D02*
X149416964Y-65918964D01*
X149416964Y-65918964D02*
X149464583Y-65823726D01*
X149464583Y-65823726D02*
X149559821Y-65728488D01*
X149559821Y-65728488D02*
X149702678Y-65680869D01*
X149702678Y-65680869D02*
X149797916Y-65680869D01*
X149797916Y-65680869D02*
X149940773Y-65728488D01*
X149940773Y-65728488D02*
X149988392Y-65776107D01*
X150940773Y-66680869D02*
X150369345Y-66680869D01*
X150655059Y-66680869D02*
X150655059Y-65680869D01*
X150655059Y-65680869D02*
X150559821Y-65823726D01*
X150559821Y-65823726D02*
X150464583Y-65918964D01*
X150464583Y-65918964D02*
X150369345Y-65966583D01*
X151274107Y-65680869D02*
X151940773Y-65680869D01*
X151940773Y-65680869D02*
X151512202Y-66680869D01*
X116157142Y-64004380D02*
X116109523Y-64052000D01*
X116109523Y-64052000D02*
X115966666Y-64099619D01*
X115966666Y-64099619D02*
X115871428Y-64099619D01*
X115871428Y-64099619D02*
X115728571Y-64052000D01*
X115728571Y-64052000D02*
X115633333Y-63956761D01*
X115633333Y-63956761D02*
X115585714Y-63861523D01*
X115585714Y-63861523D02*
X115538095Y-63671047D01*
X115538095Y-63671047D02*
X115538095Y-63528190D01*
X115538095Y-63528190D02*
X115585714Y-63337714D01*
X115585714Y-63337714D02*
X115633333Y-63242476D01*
X115633333Y-63242476D02*
X115728571Y-63147238D01*
X115728571Y-63147238D02*
X115871428Y-63099619D01*
X115871428Y-63099619D02*
X115966666Y-63099619D01*
X115966666Y-63099619D02*
X116109523Y-63147238D01*
X116109523Y-63147238D02*
X116157142Y-63194857D01*
X117109523Y-64099619D02*
X116538095Y-64099619D01*
X116823809Y-64099619D02*
X116823809Y-63099619D01*
X116823809Y-63099619D02*
X116728571Y-63242476D01*
X116728571Y-63242476D02*
X116633333Y-63337714D01*
X116633333Y-63337714D02*
X116538095Y-63385333D01*
X117680952Y-63528190D02*
X117585714Y-63480571D01*
X117585714Y-63480571D02*
X117538095Y-63432952D01*
X117538095Y-63432952D02*
X117490476Y-63337714D01*
X117490476Y-63337714D02*
X117490476Y-63290095D01*
X117490476Y-63290095D02*
X117538095Y-63194857D01*
X117538095Y-63194857D02*
X117585714Y-63147238D01*
X117585714Y-63147238D02*
X117680952Y-63099619D01*
X117680952Y-63099619D02*
X117871428Y-63099619D01*
X117871428Y-63099619D02*
X117966666Y-63147238D01*
X117966666Y-63147238D02*
X118014285Y-63194857D01*
X118014285Y-63194857D02*
X118061904Y-63290095D01*
X118061904Y-63290095D02*
X118061904Y-63337714D01*
X118061904Y-63337714D02*
X118014285Y-63432952D01*
X118014285Y-63432952D02*
X117966666Y-63480571D01*
X117966666Y-63480571D02*
X117871428Y-63528190D01*
X117871428Y-63528190D02*
X117680952Y-63528190D01*
X117680952Y-63528190D02*
X117585714Y-63575809D01*
X117585714Y-63575809D02*
X117538095Y-63623428D01*
X117538095Y-63623428D02*
X117490476Y-63718666D01*
X117490476Y-63718666D02*
X117490476Y-63909142D01*
X117490476Y-63909142D02*
X117538095Y-64004380D01*
X117538095Y-64004380D02*
X117585714Y-64052000D01*
X117585714Y-64052000D02*
X117680952Y-64099619D01*
X117680952Y-64099619D02*
X117871428Y-64099619D01*
X117871428Y-64099619D02*
X117966666Y-64052000D01*
X117966666Y-64052000D02*
X118014285Y-64004380D01*
X118014285Y-64004380D02*
X118061904Y-63909142D01*
X118061904Y-63909142D02*
X118061904Y-63718666D01*
X118061904Y-63718666D02*
X118014285Y-63623428D01*
X118014285Y-63623428D02*
X117966666Y-63575809D01*
X117966666Y-63575809D02*
X117871428Y-63528190D01*
X146236905Y-109538904D02*
X146713095Y-109538904D01*
X146141667Y-109824619D02*
X146475000Y-108824619D01*
X146475000Y-108824619D02*
X146808333Y-109824619D01*
X110004762Y-101124619D02*
X110004762Y-101934142D01*
X110004762Y-101934142D02*
X110052381Y-102029380D01*
X110052381Y-102029380D02*
X110100000Y-102077000D01*
X110100000Y-102077000D02*
X110195238Y-102124619D01*
X110195238Y-102124619D02*
X110385714Y-102124619D01*
X110385714Y-102124619D02*
X110480952Y-102077000D01*
X110480952Y-102077000D02*
X110528571Y-102029380D01*
X110528571Y-102029380D02*
X110576190Y-101934142D01*
X110576190Y-101934142D02*
X110576190Y-101124619D01*
X111004762Y-101838904D02*
X111480952Y-101838904D01*
X110909524Y-102124619D02*
X111242857Y-101124619D01*
X111242857Y-101124619D02*
X111576190Y-102124619D01*
X112480952Y-102124619D02*
X112147619Y-101648428D01*
X111909524Y-102124619D02*
X111909524Y-101124619D01*
X111909524Y-101124619D02*
X112290476Y-101124619D01*
X112290476Y-101124619D02*
X112385714Y-101172238D01*
X112385714Y-101172238D02*
X112433333Y-101219857D01*
X112433333Y-101219857D02*
X112480952Y-101315095D01*
X112480952Y-101315095D02*
X112480952Y-101457952D01*
X112480952Y-101457952D02*
X112433333Y-101553190D01*
X112433333Y-101553190D02*
X112385714Y-101600809D01*
X112385714Y-101600809D02*
X112290476Y-101648428D01*
X112290476Y-101648428D02*
X111909524Y-101648428D01*
X112766667Y-101124619D02*
X113338095Y-101124619D01*
X113052381Y-102124619D02*
X113052381Y-101124619D01*
X149107142Y-105349619D02*
X148773809Y-104873428D01*
X148535714Y-105349619D02*
X148535714Y-104349619D01*
X148535714Y-104349619D02*
X148916666Y-104349619D01*
X148916666Y-104349619D02*
X149011904Y-104397238D01*
X149011904Y-104397238D02*
X149059523Y-104444857D01*
X149059523Y-104444857D02*
X149107142Y-104540095D01*
X149107142Y-104540095D02*
X149107142Y-104682952D01*
X149107142Y-104682952D02*
X149059523Y-104778190D01*
X149059523Y-104778190D02*
X149011904Y-104825809D01*
X149011904Y-104825809D02*
X148916666Y-104873428D01*
X148916666Y-104873428D02*
X148535714Y-104873428D01*
X150059523Y-105349619D02*
X149488095Y-105349619D01*
X149773809Y-105349619D02*
X149773809Y-104349619D01*
X149773809Y-104349619D02*
X149678571Y-104492476D01*
X149678571Y-104492476D02*
X149583333Y-104587714D01*
X149583333Y-104587714D02*
X149488095Y-104635333D01*
X150392857Y-104349619D02*
X151059523Y-104349619D01*
X151059523Y-104349619D02*
X150630952Y-105349619D01*
X108772619Y-67724619D02*
X108772619Y-66724619D01*
X108772619Y-66724619D02*
X109344047Y-67724619D01*
X109344047Y-67724619D02*
X109344047Y-66724619D01*
X110201190Y-67677000D02*
X110105952Y-67724619D01*
X110105952Y-67724619D02*
X109915476Y-67724619D01*
X109915476Y-67724619D02*
X109820238Y-67677000D01*
X109820238Y-67677000D02*
X109772619Y-67581761D01*
X109772619Y-67581761D02*
X109772619Y-67200809D01*
X109772619Y-67200809D02*
X109820238Y-67105571D01*
X109820238Y-67105571D02*
X109915476Y-67057952D01*
X109915476Y-67057952D02*
X110105952Y-67057952D01*
X110105952Y-67057952D02*
X110201190Y-67105571D01*
X110201190Y-67105571D02*
X110248809Y-67200809D01*
X110248809Y-67200809D02*
X110248809Y-67296047D01*
X110248809Y-67296047D02*
X109772619Y-67391285D01*
X111105952Y-67057952D02*
X111105952Y-67867476D01*
X111105952Y-67867476D02*
X111058333Y-67962714D01*
X111058333Y-67962714D02*
X111010714Y-68010333D01*
X111010714Y-68010333D02*
X110915476Y-68057952D01*
X110915476Y-68057952D02*
X110772619Y-68057952D01*
X110772619Y-68057952D02*
X110677381Y-68010333D01*
X111105952Y-67677000D02*
X111010714Y-67724619D01*
X111010714Y-67724619D02*
X110820238Y-67724619D01*
X110820238Y-67724619D02*
X110725000Y-67677000D01*
X110725000Y-67677000D02*
X110677381Y-67629380D01*
X110677381Y-67629380D02*
X110629762Y-67534142D01*
X110629762Y-67534142D02*
X110629762Y-67248428D01*
X110629762Y-67248428D02*
X110677381Y-67153190D01*
X110677381Y-67153190D02*
X110725000Y-67105571D01*
X110725000Y-67105571D02*
X110820238Y-67057952D01*
X110820238Y-67057952D02*
X111010714Y-67057952D01*
X111010714Y-67057952D02*
X111105952Y-67105571D01*
X112010714Y-67724619D02*
X112010714Y-67200809D01*
X112010714Y-67200809D02*
X111963095Y-67105571D01*
X111963095Y-67105571D02*
X111867857Y-67057952D01*
X111867857Y-67057952D02*
X111677381Y-67057952D01*
X111677381Y-67057952D02*
X111582143Y-67105571D01*
X112010714Y-67677000D02*
X111915476Y-67724619D01*
X111915476Y-67724619D02*
X111677381Y-67724619D01*
X111677381Y-67724619D02*
X111582143Y-67677000D01*
X111582143Y-67677000D02*
X111534524Y-67581761D01*
X111534524Y-67581761D02*
X111534524Y-67486523D01*
X111534524Y-67486523D02*
X111582143Y-67391285D01*
X111582143Y-67391285D02*
X111677381Y-67343666D01*
X111677381Y-67343666D02*
X111915476Y-67343666D01*
X111915476Y-67343666D02*
X112010714Y-67296047D01*
X112344048Y-67057952D02*
X112725000Y-67057952D01*
X112486905Y-66724619D02*
X112486905Y-67581761D01*
X112486905Y-67581761D02*
X112534524Y-67677000D01*
X112534524Y-67677000D02*
X112629762Y-67724619D01*
X112629762Y-67724619D02*
X112725000Y-67724619D01*
X113058334Y-67724619D02*
X113058334Y-67057952D01*
X113058334Y-66724619D02*
X113010715Y-66772238D01*
X113010715Y-66772238D02*
X113058334Y-66819857D01*
X113058334Y-66819857D02*
X113105953Y-66772238D01*
X113105953Y-66772238D02*
X113058334Y-66724619D01*
X113058334Y-66724619D02*
X113058334Y-66819857D01*
X113439286Y-67057952D02*
X113677381Y-67724619D01*
X113677381Y-67724619D02*
X113915476Y-67057952D01*
X114677381Y-67677000D02*
X114582143Y-67724619D01*
X114582143Y-67724619D02*
X114391667Y-67724619D01*
X114391667Y-67724619D02*
X114296429Y-67677000D01*
X114296429Y-67677000D02*
X114248810Y-67581761D01*
X114248810Y-67581761D02*
X114248810Y-67200809D01*
X114248810Y-67200809D02*
X114296429Y-67105571D01*
X114296429Y-67105571D02*
X114391667Y-67057952D01*
X114391667Y-67057952D02*
X114582143Y-67057952D01*
X114582143Y-67057952D02*
X114677381Y-67105571D01*
X114677381Y-67105571D02*
X114725000Y-67200809D01*
X114725000Y-67200809D02*
X114725000Y-67296047D01*
X114725000Y-67296047D02*
X114248810Y-67391285D01*
X115915477Y-67343666D02*
X116677382Y-67343666D01*
X116296429Y-67724619D02*
X116296429Y-66962714D01*
X120849619Y-94661904D02*
X121659142Y-94661904D01*
X121659142Y-94661904D02*
X121754380Y-94614285D01*
X121754380Y-94614285D02*
X121802000Y-94566666D01*
X121802000Y-94566666D02*
X121849619Y-94471428D01*
X121849619Y-94471428D02*
X121849619Y-94280952D01*
X121849619Y-94280952D02*
X121802000Y-94185714D01*
X121802000Y-94185714D02*
X121754380Y-94138095D01*
X121754380Y-94138095D02*
X121659142Y-94090476D01*
X121659142Y-94090476D02*
X120849619Y-94090476D01*
X120944857Y-93661904D02*
X120897238Y-93614285D01*
X120897238Y-93614285D02*
X120849619Y-93519047D01*
X120849619Y-93519047D02*
X120849619Y-93280952D01*
X120849619Y-93280952D02*
X120897238Y-93185714D01*
X120897238Y-93185714D02*
X120944857Y-93138095D01*
X120944857Y-93138095D02*
X121040095Y-93090476D01*
X121040095Y-93090476D02*
X121135333Y-93090476D01*
X121135333Y-93090476D02*
X121278190Y-93138095D01*
X121278190Y-93138095D02*
X121849619Y-93709523D01*
X121849619Y-93709523D02*
X121849619Y-93090476D01*
X109109524Y-65424619D02*
X109109524Y-64424619D01*
X109109524Y-64424619D02*
X109490476Y-64424619D01*
X109490476Y-64424619D02*
X109585714Y-64472238D01*
X109585714Y-64472238D02*
X109633333Y-64519857D01*
X109633333Y-64519857D02*
X109680952Y-64615095D01*
X109680952Y-64615095D02*
X109680952Y-64757952D01*
X109680952Y-64757952D02*
X109633333Y-64853190D01*
X109633333Y-64853190D02*
X109585714Y-64900809D01*
X109585714Y-64900809D02*
X109490476Y-64948428D01*
X109490476Y-64948428D02*
X109109524Y-64948428D01*
X110252381Y-65424619D02*
X110157143Y-65377000D01*
X110157143Y-65377000D02*
X110109524Y-65329380D01*
X110109524Y-65329380D02*
X110061905Y-65234142D01*
X110061905Y-65234142D02*
X110061905Y-64948428D01*
X110061905Y-64948428D02*
X110109524Y-64853190D01*
X110109524Y-64853190D02*
X110157143Y-64805571D01*
X110157143Y-64805571D02*
X110252381Y-64757952D01*
X110252381Y-64757952D02*
X110395238Y-64757952D01*
X110395238Y-64757952D02*
X110490476Y-64805571D01*
X110490476Y-64805571D02*
X110538095Y-64853190D01*
X110538095Y-64853190D02*
X110585714Y-64948428D01*
X110585714Y-64948428D02*
X110585714Y-65234142D01*
X110585714Y-65234142D02*
X110538095Y-65329380D01*
X110538095Y-65329380D02*
X110490476Y-65377000D01*
X110490476Y-65377000D02*
X110395238Y-65424619D01*
X110395238Y-65424619D02*
X110252381Y-65424619D01*
X110966667Y-65377000D02*
X111061905Y-65424619D01*
X111061905Y-65424619D02*
X111252381Y-65424619D01*
X111252381Y-65424619D02*
X111347619Y-65377000D01*
X111347619Y-65377000D02*
X111395238Y-65281761D01*
X111395238Y-65281761D02*
X111395238Y-65234142D01*
X111395238Y-65234142D02*
X111347619Y-65138904D01*
X111347619Y-65138904D02*
X111252381Y-65091285D01*
X111252381Y-65091285D02*
X111109524Y-65091285D01*
X111109524Y-65091285D02*
X111014286Y-65043666D01*
X111014286Y-65043666D02*
X110966667Y-64948428D01*
X110966667Y-64948428D02*
X110966667Y-64900809D01*
X110966667Y-64900809D02*
X111014286Y-64805571D01*
X111014286Y-64805571D02*
X111109524Y-64757952D01*
X111109524Y-64757952D02*
X111252381Y-64757952D01*
X111252381Y-64757952D02*
X111347619Y-64805571D01*
X111823810Y-65424619D02*
X111823810Y-64757952D01*
X111823810Y-64424619D02*
X111776191Y-64472238D01*
X111776191Y-64472238D02*
X111823810Y-64519857D01*
X111823810Y-64519857D02*
X111871429Y-64472238D01*
X111871429Y-64472238D02*
X111823810Y-64424619D01*
X111823810Y-64424619D02*
X111823810Y-64519857D01*
X112157143Y-64757952D02*
X112538095Y-64757952D01*
X112300000Y-64424619D02*
X112300000Y-65281761D01*
X112300000Y-65281761D02*
X112347619Y-65377000D01*
X112347619Y-65377000D02*
X112442857Y-65424619D01*
X112442857Y-65424619D02*
X112538095Y-65424619D01*
X112871429Y-65424619D02*
X112871429Y-64757952D01*
X112871429Y-64424619D02*
X112823810Y-64472238D01*
X112823810Y-64472238D02*
X112871429Y-64519857D01*
X112871429Y-64519857D02*
X112919048Y-64472238D01*
X112919048Y-64472238D02*
X112871429Y-64424619D01*
X112871429Y-64424619D02*
X112871429Y-64519857D01*
X113252381Y-64757952D02*
X113490476Y-65424619D01*
X113490476Y-65424619D02*
X113728571Y-64757952D01*
X114490476Y-65377000D02*
X114395238Y-65424619D01*
X114395238Y-65424619D02*
X114204762Y-65424619D01*
X114204762Y-65424619D02*
X114109524Y-65377000D01*
X114109524Y-65377000D02*
X114061905Y-65281761D01*
X114061905Y-65281761D02*
X114061905Y-64900809D01*
X114061905Y-64900809D02*
X114109524Y-64805571D01*
X114109524Y-64805571D02*
X114204762Y-64757952D01*
X114204762Y-64757952D02*
X114395238Y-64757952D01*
X114395238Y-64757952D02*
X114490476Y-64805571D01*
X114490476Y-64805571D02*
X114538095Y-64900809D01*
X114538095Y-64900809D02*
X114538095Y-64996047D01*
X114538095Y-64996047D02*
X114061905Y-65091285D01*
X138580613Y-105797899D02*
X138628233Y-105845518D01*
X138628233Y-105845518D02*
X138675852Y-105988375D01*
X138675852Y-105988375D02*
X138675852Y-106083613D01*
X138675852Y-106083613D02*
X138628233Y-106226470D01*
X138628233Y-106226470D02*
X138532994Y-106321708D01*
X138532994Y-106321708D02*
X138437756Y-106369327D01*
X138437756Y-106369327D02*
X138247280Y-106416946D01*
X138247280Y-106416946D02*
X138104423Y-106416946D01*
X138104423Y-106416946D02*
X137913947Y-106369327D01*
X137913947Y-106369327D02*
X137818709Y-106321708D01*
X137818709Y-106321708D02*
X137723471Y-106226470D01*
X137723471Y-106226470D02*
X137675852Y-106083613D01*
X137675852Y-106083613D02*
X137675852Y-105988375D01*
X137675852Y-105988375D02*
X137723471Y-105845518D01*
X137723471Y-105845518D02*
X137771090Y-105797899D01*
X138675852Y-105321708D02*
X138675852Y-105131232D01*
X138675852Y-105131232D02*
X138628233Y-105035994D01*
X138628233Y-105035994D02*
X138580613Y-104988375D01*
X138580613Y-104988375D02*
X138437756Y-104893137D01*
X138437756Y-104893137D02*
X138247280Y-104845518D01*
X138247280Y-104845518D02*
X137866328Y-104845518D01*
X137866328Y-104845518D02*
X137771090Y-104893137D01*
X137771090Y-104893137D02*
X137723471Y-104940756D01*
X137723471Y-104940756D02*
X137675852Y-105035994D01*
X137675852Y-105035994D02*
X137675852Y-105226470D01*
X137675852Y-105226470D02*
X137723471Y-105321708D01*
X137723471Y-105321708D02*
X137771090Y-105369327D01*
X137771090Y-105369327D02*
X137866328Y-105416946D01*
X137866328Y-105416946D02*
X138104423Y-105416946D01*
X138104423Y-105416946D02*
X138199661Y-105369327D01*
X138199661Y-105369327D02*
X138247280Y-105321708D01*
X138247280Y-105321708D02*
X138294899Y-105226470D01*
X138294899Y-105226470D02*
X138294899Y-105035994D01*
X138294899Y-105035994D02*
X138247280Y-104940756D01*
X138247280Y-104940756D02*
X138199661Y-104893137D01*
X138199661Y-104893137D02*
X138104423Y-104845518D01*
X116857142Y-110904380D02*
X116809523Y-110952000D01*
X116809523Y-110952000D02*
X116666666Y-110999619D01*
X116666666Y-110999619D02*
X116571428Y-110999619D01*
X116571428Y-110999619D02*
X116428571Y-110952000D01*
X116428571Y-110952000D02*
X116333333Y-110856761D01*
X116333333Y-110856761D02*
X116285714Y-110761523D01*
X116285714Y-110761523D02*
X116238095Y-110571047D01*
X116238095Y-110571047D02*
X116238095Y-110428190D01*
X116238095Y-110428190D02*
X116285714Y-110237714D01*
X116285714Y-110237714D02*
X116333333Y-110142476D01*
X116333333Y-110142476D02*
X116428571Y-110047238D01*
X116428571Y-110047238D02*
X116571428Y-109999619D01*
X116571428Y-109999619D02*
X116666666Y-109999619D01*
X116666666Y-109999619D02*
X116809523Y-110047238D01*
X116809523Y-110047238D02*
X116857142Y-110094857D01*
X117238095Y-110094857D02*
X117285714Y-110047238D01*
X117285714Y-110047238D02*
X117380952Y-109999619D01*
X117380952Y-109999619D02*
X117619047Y-109999619D01*
X117619047Y-109999619D02*
X117714285Y-110047238D01*
X117714285Y-110047238D02*
X117761904Y-110094857D01*
X117761904Y-110094857D02*
X117809523Y-110190095D01*
X117809523Y-110190095D02*
X117809523Y-110285333D01*
X117809523Y-110285333D02*
X117761904Y-110428190D01*
X117761904Y-110428190D02*
X117190476Y-110999619D01*
X117190476Y-110999619D02*
X117809523Y-110999619D01*
X118761904Y-110999619D02*
X118190476Y-110999619D01*
X118476190Y-110999619D02*
X118476190Y-109999619D01*
X118476190Y-109999619D02*
X118380952Y-110142476D01*
X118380952Y-110142476D02*
X118285714Y-110237714D01*
X118285714Y-110237714D02*
X118190476Y-110285333D01*
X154858333Y-77879380D02*
X154810714Y-77927000D01*
X154810714Y-77927000D02*
X154667857Y-77974619D01*
X154667857Y-77974619D02*
X154572619Y-77974619D01*
X154572619Y-77974619D02*
X154429762Y-77927000D01*
X154429762Y-77927000D02*
X154334524Y-77831761D01*
X154334524Y-77831761D02*
X154286905Y-77736523D01*
X154286905Y-77736523D02*
X154239286Y-77546047D01*
X154239286Y-77546047D02*
X154239286Y-77403190D01*
X154239286Y-77403190D02*
X154286905Y-77212714D01*
X154286905Y-77212714D02*
X154334524Y-77117476D01*
X154334524Y-77117476D02*
X154429762Y-77022238D01*
X154429762Y-77022238D02*
X154572619Y-76974619D01*
X154572619Y-76974619D02*
X154667857Y-76974619D01*
X154667857Y-76974619D02*
X154810714Y-77022238D01*
X154810714Y-77022238D02*
X154858333Y-77069857D01*
X155715476Y-76974619D02*
X155525000Y-76974619D01*
X155525000Y-76974619D02*
X155429762Y-77022238D01*
X155429762Y-77022238D02*
X155382143Y-77069857D01*
X155382143Y-77069857D02*
X155286905Y-77212714D01*
X155286905Y-77212714D02*
X155239286Y-77403190D01*
X155239286Y-77403190D02*
X155239286Y-77784142D01*
X155239286Y-77784142D02*
X155286905Y-77879380D01*
X155286905Y-77879380D02*
X155334524Y-77927000D01*
X155334524Y-77927000D02*
X155429762Y-77974619D01*
X155429762Y-77974619D02*
X155620238Y-77974619D01*
X155620238Y-77974619D02*
X155715476Y-77927000D01*
X155715476Y-77927000D02*
X155763095Y-77879380D01*
X155763095Y-77879380D02*
X155810714Y-77784142D01*
X155810714Y-77784142D02*
X155810714Y-77546047D01*
X155810714Y-77546047D02*
X155763095Y-77450809D01*
X155763095Y-77450809D02*
X155715476Y-77403190D01*
X155715476Y-77403190D02*
X155620238Y-77355571D01*
X155620238Y-77355571D02*
X155429762Y-77355571D01*
X155429762Y-77355571D02*
X155334524Y-77403190D01*
X155334524Y-77403190D02*
X155286905Y-77450809D01*
X155286905Y-77450809D02*
X155239286Y-77546047D01*
X150932143Y-107124619D02*
X151503571Y-107124619D01*
X151217857Y-108124619D02*
X151217857Y-107124619D01*
X151836905Y-108124619D02*
X151836905Y-107124619D01*
X152265476Y-108124619D02*
X152265476Y-107600809D01*
X152265476Y-107600809D02*
X152217857Y-107505571D01*
X152217857Y-107505571D02*
X152122619Y-107457952D01*
X152122619Y-107457952D02*
X151979762Y-107457952D01*
X151979762Y-107457952D02*
X151884524Y-107505571D01*
X151884524Y-107505571D02*
X151836905Y-107553190D01*
X153122619Y-108077000D02*
X153027381Y-108124619D01*
X153027381Y-108124619D02*
X152836905Y-108124619D01*
X152836905Y-108124619D02*
X152741667Y-108077000D01*
X152741667Y-108077000D02*
X152694048Y-107981761D01*
X152694048Y-107981761D02*
X152694048Y-107600809D01*
X152694048Y-107600809D02*
X152741667Y-107505571D01*
X152741667Y-107505571D02*
X152836905Y-107457952D01*
X152836905Y-107457952D02*
X153027381Y-107457952D01*
X153027381Y-107457952D02*
X153122619Y-107505571D01*
X153122619Y-107505571D02*
X153170238Y-107600809D01*
X153170238Y-107600809D02*
X153170238Y-107696047D01*
X153170238Y-107696047D02*
X152694048Y-107791285D01*
X153598810Y-108124619D02*
X153598810Y-107457952D01*
X153598810Y-107648428D02*
X153646429Y-107553190D01*
X153646429Y-107553190D02*
X153694048Y-107505571D01*
X153694048Y-107505571D02*
X153789286Y-107457952D01*
X153789286Y-107457952D02*
X153884524Y-107457952D01*
X154217858Y-108124619D02*
X154217858Y-107457952D01*
X154217858Y-107553190D02*
X154265477Y-107505571D01*
X154265477Y-107505571D02*
X154360715Y-107457952D01*
X154360715Y-107457952D02*
X154503572Y-107457952D01*
X154503572Y-107457952D02*
X154598810Y-107505571D01*
X154598810Y-107505571D02*
X154646429Y-107600809D01*
X154646429Y-107600809D02*
X154646429Y-108124619D01*
X154646429Y-107600809D02*
X154694048Y-107505571D01*
X154694048Y-107505571D02*
X154789286Y-107457952D01*
X154789286Y-107457952D02*
X154932143Y-107457952D01*
X154932143Y-107457952D02*
X155027382Y-107505571D01*
X155027382Y-107505571D02*
X155075001Y-107600809D01*
X155075001Y-107600809D02*
X155075001Y-108124619D01*
%TO.C,J5*%
X128480000Y-59020000D02*
X128480000Y-57870000D01*
X128480000Y-61120000D02*
X128480000Y-62920000D01*
X137820000Y-59020000D02*
X137820000Y-57870000D01*
X137820000Y-61120000D02*
X137820000Y-62920000D01*
%TO.C,Hall*%
X155770000Y-97330000D02*
X155770000Y-102470000D01*
X155770000Y-97330000D02*
X158430000Y-97330000D01*
X155770000Y-102470000D02*
X158430000Y-102470000D01*
X157100000Y-94730000D02*
X158430000Y-94730000D01*
X158430000Y-94730000D02*
X158430000Y-96060000D01*
X158430000Y-97330000D02*
X158430000Y-102470000D01*
%TO.C,C2*%
X142585000Y-74466233D02*
X142585000Y-74758767D01*
X141565000Y-74466233D02*
X141565000Y-74758767D01*
%TO.C,R5*%
X122077064Y-66110000D02*
X120622936Y-66110000D01*
X122077064Y-64290000D02*
X120622936Y-64290000D01*
%TO.C,C22*%
X118210000Y-104241233D02*
X118210000Y-104533767D01*
X117190000Y-104241233D02*
X117190000Y-104533767D01*
%TO.C,U1*%
X131490000Y-68187500D02*
X131490000Y-69987500D01*
X131490000Y-68187500D02*
X131490000Y-67387500D01*
X134610000Y-68187500D02*
X134610000Y-68987500D01*
X134610000Y-68187500D02*
X134610000Y-67387500D01*
%TO.C,C20*%
X134690000Y-90208767D02*
X134690000Y-89916233D01*
X135710000Y-90208767D02*
X135710000Y-89916233D01*
%TO.C,IC3*%
X128825000Y-105300000D02*
G75*
G03*
X128825000Y-105300000I-125000J0D01*
G01*
%TO.C,D4*%
X140250000Y-69490000D02*
X135950000Y-69490000D01*
X140250000Y-69490000D02*
X140250000Y-76900000D01*
X135950000Y-69490000D02*
X135950000Y-76900000D01*
%TO.C,J2*%
X158322000Y-92130000D02*
X158322000Y-83130000D01*
X158322000Y-83130000D02*
X150122000Y-83130000D01*
X143822000Y-92130000D02*
X158322000Y-92130000D01*
X143822000Y-90630000D02*
X143822000Y-92130000D01*
X143822000Y-84630000D02*
X143822000Y-83130000D01*
X143822000Y-83130000D02*
X145022000Y-83130000D01*
X142522000Y-84630000D02*
X142522000Y-84630000D01*
X142322000Y-84630000D02*
X142322000Y-84630000D01*
X142322000Y-84630000D02*
G75*
G03*
X142522000Y-84630000I100000J0D01*
G01*
X142522000Y-84630000D02*
G75*
G03*
X142322000Y-84630000I-100000J0D01*
G01*
%TO.C,C4*%
X147860000Y-74513748D02*
X147860000Y-75036252D01*
X146390000Y-74513748D02*
X146390000Y-75036252D01*
%TO.C,R16*%
X153435000Y-96822936D02*
X153435000Y-97277064D01*
X151965000Y-96822936D02*
X151965000Y-97277064D01*
%TO.C,C7*%
X135967466Y-99296233D02*
X136260000Y-99296233D01*
X135967466Y-100316233D02*
X136260000Y-100316233D01*
%TO.C,C5*%
X151683767Y-78010000D02*
X151391233Y-78010000D01*
X151683767Y-76990000D02*
X151391233Y-76990000D01*
%TO.C,R3*%
X122222936Y-68440000D02*
X123677064Y-68440000D01*
X122222936Y-70260000D02*
X123677064Y-70260000D01*
%TO.C,R8*%
X140022936Y-101990000D02*
X141477064Y-101990000D01*
X140022936Y-103810000D02*
X141477064Y-103810000D01*
%TO.C,L1*%
X142778733Y-70990000D02*
X143121267Y-70990000D01*
X142778733Y-72010000D02*
X143121267Y-72010000D01*
%TO.C,R1*%
X120550000Y-75377064D02*
X120550000Y-74922936D01*
X122020000Y-75377064D02*
X122020000Y-74922936D01*
%TO.C,R14*%
X140770000Y-62697936D02*
X140770000Y-64152064D01*
X138950000Y-62697936D02*
X138950000Y-64152064D01*
%TO.C,C12*%
X133291233Y-107115000D02*
X133583767Y-107115000D01*
X133291233Y-108135000D02*
X133583767Y-108135000D01*
%TO.C,B*%
X146860000Y-114735000D02*
X146860000Y-113265000D01*
X146860000Y-113265000D02*
X144400000Y-113265000D01*
X144400000Y-114735000D02*
X146860000Y-114735000D01*
%TO.C,R9*%
X150127064Y-113265000D02*
X149672936Y-113265000D01*
X150127064Y-114735000D02*
X149672936Y-114735000D01*
%TO.C,R11*%
X117622500Y-97647776D02*
X117622500Y-98157224D01*
X116577500Y-97647776D02*
X116577500Y-98157224D01*
%TO.C,B*%
X143425000Y-58925000D02*
X143425000Y-58925000D01*
X143425000Y-59025000D02*
X143425000Y-59025000D01*
X144125000Y-58425000D02*
X148325000Y-58425000D01*
X144125000Y-59525000D02*
X144125000Y-60525000D01*
X144125000Y-61625000D02*
X148325000Y-61625000D01*
X148325000Y-59525000D02*
X148325000Y-60525000D01*
X143425000Y-59025000D02*
G75*
G03*
X143425000Y-58925000I0J50000D01*
G01*
X143425000Y-58925000D02*
G75*
G03*
X143425000Y-59025000I0J-50000D01*
G01*
%TO.C,R7*%
X144153936Y-106490000D02*
X145608064Y-106490000D01*
X144153936Y-108310000D02*
X145608064Y-108310000D01*
%TO.C,C11*%
X134579966Y-97696233D02*
X134872500Y-97696233D01*
X134579966Y-98716233D02*
X134872500Y-98716233D01*
%TO.C,D1*%
X146865000Y-68365000D02*
X146865000Y-69835000D01*
X146865000Y-69835000D02*
X149325000Y-69835000D01*
X149325000Y-68365000D02*
X146865000Y-68365000D01*
%TO.C,R15*%
X153672936Y-68365000D02*
X154127064Y-68365000D01*
X153672936Y-69835000D02*
X154127064Y-69835000D01*
%TO.C,R*%
X117425000Y-59025000D02*
X117425000Y-59025000D01*
X117425000Y-59125000D02*
X117425000Y-59125000D01*
X118125000Y-58525000D02*
X122325000Y-58525000D01*
X118125000Y-59625000D02*
X118125000Y-60625000D01*
X118125000Y-61725000D02*
X122325000Y-61725000D01*
X122325000Y-59625000D02*
X122325000Y-60625000D01*
X117425000Y-59125000D02*
G75*
G03*
X117425000Y-59025000I0J50000D01*
G01*
X117425000Y-59025000D02*
G75*
G03*
X117425000Y-59125000I0J-50000D01*
G01*
%TO.C,R13*%
X125550000Y-64152064D02*
X125550000Y-62697936D01*
X127370000Y-64152064D02*
X127370000Y-62697936D01*
%TO.C,R2*%
X118022936Y-68615000D02*
X118477064Y-68615000D01*
X118022936Y-70085000D02*
X118477064Y-70085000D01*
%TO.C,C3*%
X144335000Y-74466233D02*
X144335000Y-74758767D01*
X143315000Y-74466233D02*
X143315000Y-74758767D01*
%TO.C,C1*%
X120775000Y-79046267D02*
X120775000Y-78753733D01*
X121795000Y-79046267D02*
X121795000Y-78753733D01*
%TO.C,R4*%
X145104186Y-63796250D02*
X146558314Y-63796250D01*
X145104186Y-65616250D02*
X146558314Y-65616250D01*
%TO.C,Reg*%
X149300000Y-73237500D02*
X150450000Y-73237500D01*
X150800000Y-73287500D02*
X151450000Y-73287500D01*
X150800000Y-76187500D02*
X150800000Y-73287500D01*
X151450000Y-73287500D02*
X151450000Y-76187500D01*
X151450000Y-76187500D02*
X150800000Y-76187500D01*
%TO.C,IC2*%
X114745000Y-75780000D02*
X114745000Y-76150000D01*
X114745000Y-75780000D02*
X116035000Y-75780000D01*
X114745000Y-76150000D02*
X114485000Y-76150000D01*
X114745000Y-78650000D02*
X114745000Y-79020000D01*
X114745000Y-79020000D02*
X116035000Y-79020000D01*
X117985000Y-75780000D02*
X117485000Y-75780000D01*
X117985000Y-75780000D02*
X117985000Y-76150000D01*
X117985000Y-78650000D02*
X117985000Y-79020000D01*
X117985000Y-79020000D02*
X117485000Y-79020000D01*
%TO.C,C23*%
X115510000Y-92816233D02*
X115510000Y-93108767D01*
X114490000Y-92816233D02*
X114490000Y-93108767D01*
%TO.C,Flash*%
X133580000Y-86275000D02*
X133580000Y-87925000D01*
X133615000Y-88275000D02*
X133615000Y-93125000D01*
X128385000Y-88275000D02*
X133615000Y-88275000D01*
X133615000Y-93125000D02*
X128385000Y-93125000D01*
X128385000Y-93125000D02*
X128385000Y-88275000D01*
%TO.C,D5*%
X130950000Y-81910000D02*
X135250000Y-81910000D01*
X130950000Y-81910000D02*
X130950000Y-74500000D01*
X135250000Y-81910000D02*
X135250000Y-74500000D01*
%TO.C,C14*%
X136065000Y-112998752D02*
X136065000Y-112476248D01*
X137535000Y-112998752D02*
X137535000Y-112476248D01*
%TO.C,R12*%
X122736233Y-103729169D02*
X122736233Y-105183297D01*
X120916233Y-103729169D02*
X120916233Y-105183297D01*
%TO.C,R10*%
X121022500Y-97635276D02*
X121022500Y-98144724D01*
X119977500Y-97635276D02*
X119977500Y-98144724D01*
%TO.C,C8*%
X126135000Y-110938748D02*
X126135000Y-111461252D01*
X124665000Y-110938748D02*
X124665000Y-111461252D01*
%TO.C,Y1*%
X113300000Y-107550000D02*
X115600000Y-107550000D01*
X115600000Y-107550000D02*
X115600000Y-104850000D01*
%TO.C,L3*%
X129015000Y-110585242D02*
X129015000Y-109764758D01*
X130135000Y-110585242D02*
X130135000Y-109764758D01*
%TO.C,L2*%
X133160616Y-110364758D02*
X133160616Y-111185242D01*
X132040616Y-110364758D02*
X132040616Y-111185242D01*
%TO.C,C10*%
X127336233Y-105322466D02*
X127336233Y-105615000D01*
X126316233Y-105322466D02*
X126316233Y-105615000D01*
%TO.C,C13*%
X133316233Y-113440000D02*
X133608767Y-113440000D01*
X133316233Y-114460000D02*
X133608767Y-114460000D01*
%TO.C,C19*%
X136990000Y-90283767D02*
X136990000Y-89991233D01*
X138010000Y-90283767D02*
X138010000Y-89991233D01*
%TO.C,R6*%
X150127064Y-111635000D02*
X149672936Y-111635000D01*
X150127064Y-110165000D02*
X149672936Y-110165000D01*
%TO.C,C17*%
X150484983Y-64196250D02*
X150777517Y-64196250D01*
X150484983Y-65216250D02*
X150777517Y-65216250D01*
%TO.C,C18*%
X116583767Y-65710000D02*
X116291233Y-65710000D01*
X116583767Y-64690000D02*
X116291233Y-64690000D01*
%TO.C,A*%
X147035000Y-111635000D02*
X147035000Y-110165000D01*
X147035000Y-110165000D02*
X144575000Y-110165000D01*
X144575000Y-111635000D02*
X147035000Y-111635000D01*
%TO.C,UART*%
X110670000Y-90030000D02*
X112000000Y-90030000D01*
X110670000Y-91360000D02*
X110670000Y-90030000D01*
X110670000Y-92630000D02*
X110670000Y-100310000D01*
X110670000Y-92630000D02*
X113330000Y-92630000D01*
X110670000Y-100310000D02*
X113330000Y-100310000D01*
X113330000Y-92630000D02*
X113330000Y-100310000D01*
%TO.C,R17*%
X153427064Y-105764000D02*
X152972936Y-105764000D01*
X153427064Y-104294000D02*
X152972936Y-104294000D01*
%TO.C,U2*%
X117240000Y-93590000D02*
X117240000Y-95390000D01*
X117240000Y-93590000D02*
X117240000Y-92790000D01*
X120360000Y-93590000D02*
X120360000Y-94390000D01*
X120360000Y-93590000D02*
X120360000Y-92790000D01*
%TO.C,C9*%
X136936233Y-104222466D02*
X136936233Y-104515000D01*
X135916233Y-104222466D02*
X135916233Y-104515000D01*
%TO.C,C21*%
X117190000Y-108058767D02*
X117190000Y-107766233D01*
X118210000Y-108058767D02*
X118210000Y-107766233D01*
%TO.C,C6*%
X155610000Y-74563748D02*
X155610000Y-75086252D01*
X154140000Y-74563748D02*
X154140000Y-75086252D01*
%TO.C,Therm*%
X155770000Y-106170000D02*
X155770000Y-108770000D01*
X155770000Y-106170000D02*
X158430000Y-106170000D01*
X155770000Y-108770000D02*
X158430000Y-108770000D01*
X157100000Y-103570000D02*
X158430000Y-103570000D01*
X158430000Y-103570000D02*
X158430000Y-104900000D01*
X158430000Y-106170000D02*
X158430000Y-108770000D01*
%TD*%
M02*
