%TF.GenerationSoftware,KiCad,Pcbnew,7.0.6*%
%TF.CreationDate,2023-08-15T19:52:17+12:00*%
%TF.ProjectId,esp32c3-ev-board,65737033-3263-4332-9d65-762d626f6172,rev?*%
%TF.SameCoordinates,Original*%
%TF.FileFunction,Copper,L2,Inr*%
%TF.FilePolarity,Positive*%
%FSLAX46Y46*%
G04 Gerber Fmt 4.6, Leading zero omitted, Abs format (unit mm)*
G04 Created by KiCad (PCBNEW 7.0.6) date 2023-08-15 19:52:17*
%MOMM*%
%LPD*%
G01*
G04 APERTURE LIST*
%TA.AperFunction,ComponentPad*%
%ADD10O,1.000000X1.800000*%
%TD*%
%TA.AperFunction,ComponentPad*%
%ADD11O,1.000000X2.100000*%
%TD*%
%TA.AperFunction,ComponentPad*%
%ADD12R,1.700000X1.700000*%
%TD*%
%TA.AperFunction,ComponentPad*%
%ADD13O,1.700000X1.700000*%
%TD*%
%TA.AperFunction,ComponentPad*%
%ADD14C,5.400000*%
%TD*%
%TA.AperFunction,ComponentPad*%
%ADD15C,5.385000*%
%TD*%
%TA.AperFunction,ComponentPad*%
%ADD16C,4.650000*%
%TD*%
%TA.AperFunction,ViaPad*%
%ADD17C,0.800000*%
%TD*%
%TA.AperFunction,ViaPad*%
%ADD18C,0.700000*%
%TD*%
G04 APERTURE END LIST*
D10*
%TO.N,unconnected-(J5-SHIELD-PadS1)*%
%TO.C,J5*%
X128830000Y-60045000D03*
D11*
X128830000Y-64225000D03*
D10*
X137470000Y-60045000D03*
D11*
X137470000Y-64225000D03*
%TD*%
D12*
%TO.N,+3.3V*%
%TO.C,Hall*%
X157100000Y-96060000D03*
D13*
%TO.N,Net-(IC3-MTDI)*%
X157100000Y-98600000D03*
%TO.N,Reg Neg*%
X157100000Y-101140000D03*
%TD*%
D14*
%TO.N,Reg Neg*%
%TO.C,H1*%
X155400000Y-60800000D03*
%TD*%
%TO.N,Reg Neg*%
%TO.C,H3*%
X155400000Y-112800000D03*
%TD*%
D15*
%TO.N,Net-(D4-A)*%
%TO.C,J2*%
X144422000Y-87630000D03*
D16*
%TO.N,Reg Neg*%
X150622000Y-87630000D03*
%TO.N,N/C*%
X147622000Y-82930000D03*
%TD*%
D14*
%TO.N,Reg Neg*%
%TO.C,Negative -*%
X112000000Y-82500000D03*
%TD*%
%TO.N,Reg Neg*%
%TO.C,H4*%
X112400000Y-112800000D03*
%TD*%
D12*
%TO.N,Net-(J4-Pin_1)*%
%TO.C,UART*%
X112000000Y-91360000D03*
D13*
%TO.N,VBUS*%
X112000000Y-93900000D03*
%TO.N,Reg Neg*%
X112000000Y-96440000D03*
%TO.N,Net-(J4-Pin_4)*%
X112000000Y-98980000D03*
%TD*%
D14*
%TO.N,UnregNeg(furthest from bat term)*%
%TO.C,Negative +*%
X112100000Y-72250000D03*
%TD*%
%TO.N,UnregPos*%
%TO.C,Positive*%
X112400000Y-60800000D03*
%TD*%
D12*
%TO.N,Net-(IC3-MTMS)*%
%TO.C,Therm*%
X157100000Y-104900000D03*
D13*
%TO.N,Reg Neg*%
X157100000Y-107440000D03*
%TD*%
D17*
%TO.N,+3.3V*%
X125400000Y-108800000D03*
X154900000Y-71100000D03*
X138950000Y-113900000D03*
X152750000Y-94250000D03*
X142650000Y-66400000D03*
X123800000Y-76100000D03*
X125300000Y-104600000D03*
X137700000Y-102500000D03*
X152250000Y-103000500D03*
X135100000Y-96600000D03*
X154900000Y-72250000D03*
X124700000Y-66550000D03*
X141900000Y-106800000D03*
%TO.N,Reg Neg*%
X129250000Y-66650000D03*
X114750000Y-86750000D03*
X142300000Y-97425000D03*
X137500000Y-87600000D03*
X153050000Y-81150000D03*
X113000000Y-86750000D03*
D18*
X111950000Y-77875000D03*
D17*
X116500000Y-105200000D03*
D18*
X115250000Y-79000000D03*
D17*
X115000000Y-104400000D03*
D18*
X115425000Y-81825000D03*
D17*
X119325000Y-106000000D03*
X144525000Y-94325000D03*
X145900000Y-99075000D03*
X110375000Y-107875000D03*
X131204977Y-102395023D03*
X110275000Y-103125000D03*
X130315196Y-70000000D03*
D18*
X110725000Y-77875000D03*
D17*
X127800000Y-108000000D03*
X130925000Y-112950000D03*
X120666226Y-114235735D03*
X127500000Y-117000000D03*
X131025000Y-114950000D03*
X116500000Y-107000000D03*
D18*
X109500000Y-77875000D03*
X110750000Y-79000000D03*
D17*
X109500000Y-86750000D03*
X137300000Y-66650000D03*
X132950000Y-116975000D03*
X127800000Y-113275000D03*
X125475000Y-114000000D03*
X120100000Y-85950000D03*
X116300000Y-80650000D03*
X116400000Y-92800000D03*
D18*
X114950000Y-77900000D03*
D17*
X118800000Y-96200000D03*
X121300000Y-81350000D03*
X128300000Y-85400000D03*
X148525000Y-94275000D03*
X131025000Y-116800000D03*
X137796210Y-98321210D03*
X134600000Y-109900000D03*
X111250000Y-86750000D03*
X135200000Y-87600000D03*
D18*
X114300000Y-79725000D03*
D17*
X149149500Y-74750000D03*
X145050000Y-78550000D03*
D18*
X109500000Y-79000000D03*
D17*
X127575000Y-115075000D03*
X156300000Y-81425000D03*
X146100000Y-69100000D03*
X113900000Y-108000000D03*
D18*
X112000000Y-79000000D03*
X113125000Y-77875000D03*
X109100000Y-80250000D03*
D17*
X134600000Y-111200000D03*
D18*
X113250000Y-79000000D03*
D17*
%TO.N,CurMeas*%
X138400000Y-99900000D03*
X118050000Y-74650000D03*
X142400000Y-69800000D03*
X138000000Y-74200000D03*
X139800000Y-73400000D03*
%TO.N,CHIPEN*%
X118750000Y-67250000D03*
D18*
X134236386Y-106600500D03*
D17*
%TO.N,VoltMeas*%
X121400000Y-71400000D03*
X135251233Y-99806233D03*
%TO.N,5vUSB*%
X135500000Y-69150000D03*
X130800000Y-66100000D03*
%TO.N,LED B*%
X139850000Y-107449500D03*
X135000000Y-102400500D03*
%TO.N,Net-(IC3-SPICS0)*%
X131092324Y-96307675D03*
X133300000Y-85300000D03*
%TO.N,Net-(IC3-SPIWP)*%
X130300000Y-85300000D03*
X131099500Y-97850000D03*
%TO.N,UnregNeg(furthest from bat term)*%
X109500000Y-68500000D03*
D18*
X109350000Y-74500000D03*
X112000000Y-75750000D03*
X109500000Y-75750000D03*
X114475000Y-74750000D03*
X115250000Y-73575000D03*
X110725000Y-76925000D03*
D17*
X111250000Y-68500000D03*
D18*
X114950000Y-76900000D03*
D17*
X113000000Y-68500000D03*
X114750000Y-68500000D03*
D18*
X115250000Y-75750000D03*
X113250000Y-75750000D03*
X109425000Y-76900000D03*
X110750000Y-75750000D03*
X113300000Y-76900000D03*
X111975000Y-76925000D03*
%TO.N,Net-(IC3-MTDI)*%
X135050000Y-104300000D03*
D17*
X152700000Y-99750000D03*
%TO.N,Net-(IC3-GPIO2)*%
X148500000Y-107250000D03*
D18*
X133004718Y-106434892D03*
%TO.N,Net-(IC3-MTMS)*%
X135201464Y-105573536D03*
D17*
X154200000Y-103300000D03*
%TD*%
%TA.AperFunction,Conductor*%
%TO.N,Reg Neg*%
G36*
X115485000Y-87500000D02*
G01*
X108600500Y-87500000D01*
X108600500Y-77617000D01*
X108620185Y-77549961D01*
X108664665Y-77511418D01*
X115685000Y-77500000D01*
X115485000Y-87500000D01*
G37*
%TD.AperFunction*%
%TD*%
%TA.AperFunction,Conductor*%
%TO.N,UnregNeg(furthest from bat term)*%
G36*
X115642852Y-67319685D02*
G01*
X115688607Y-67372489D01*
X115699813Y-67424186D01*
X115685186Y-77163686D01*
X115665401Y-77230696D01*
X115612528Y-77276372D01*
X115561186Y-77287500D01*
X108724500Y-77287500D01*
X108657461Y-77267815D01*
X108611706Y-77215011D01*
X108600500Y-77163500D01*
X108600500Y-67424000D01*
X108620185Y-67356961D01*
X108672989Y-67311206D01*
X108724500Y-67300000D01*
X115575813Y-67300000D01*
X115642852Y-67319685D01*
G37*
%TD.AperFunction*%
%TD*%
%TA.AperFunction,Conductor*%
%TO.N,Reg Neg*%
G36*
X155401512Y-57000575D02*
G01*
X155769375Y-57018647D01*
X155775422Y-57019241D01*
X156138234Y-57073059D01*
X156144181Y-57074241D01*
X156499987Y-57163366D01*
X156505793Y-57165127D01*
X156851149Y-57288698D01*
X156856752Y-57291019D01*
X157188321Y-57447839D01*
X157193679Y-57450702D01*
X157508270Y-57639261D01*
X157513332Y-57642643D01*
X157807933Y-57861135D01*
X157812637Y-57864995D01*
X158084409Y-58111315D01*
X158088684Y-58115590D01*
X158335002Y-58387360D01*
X158338864Y-58392066D01*
X158557356Y-58686667D01*
X158560738Y-58691729D01*
X158577921Y-58720397D01*
X158661375Y-58859632D01*
X158749290Y-59006308D01*
X158752160Y-59011678D01*
X158908980Y-59343247D01*
X158911305Y-59348860D01*
X159034866Y-59694186D01*
X159036633Y-59700012D01*
X159125754Y-60055799D01*
X159126941Y-60061771D01*
X159180756Y-60424566D01*
X159181352Y-60430624D01*
X159199425Y-60798487D01*
X159199500Y-60801530D01*
X159199500Y-112798469D01*
X159199425Y-112801512D01*
X159181352Y-113169375D01*
X159180756Y-113175433D01*
X159126941Y-113538228D01*
X159125754Y-113544200D01*
X159036633Y-113899987D01*
X159034866Y-113905812D01*
X158932963Y-114190613D01*
X158911310Y-114251128D01*
X158908980Y-114256752D01*
X158752160Y-114588321D01*
X158749290Y-114593691D01*
X158560738Y-114908270D01*
X158557356Y-114913332D01*
X158338864Y-115207933D01*
X158335002Y-115212639D01*
X158088699Y-115484394D01*
X158084399Y-115488693D01*
X157987317Y-115576683D01*
X157812639Y-115735002D01*
X157807933Y-115738864D01*
X157513332Y-115957356D01*
X157508270Y-115960738D01*
X157193691Y-116149290D01*
X157188321Y-116152160D01*
X156856752Y-116308980D01*
X156851132Y-116311308D01*
X156505813Y-116434866D01*
X156499987Y-116436633D01*
X156144200Y-116525754D01*
X156138228Y-116526941D01*
X155775433Y-116580756D01*
X155769375Y-116581352D01*
X155401513Y-116599425D01*
X155398470Y-116599500D01*
X143600000Y-116599500D01*
X143460198Y-116599425D01*
X143460197Y-116599425D01*
X143460192Y-116599425D01*
X143182955Y-116635623D01*
X143182939Y-116635626D01*
X142931072Y-116702537D01*
X142912714Y-116707415D01*
X142795010Y-116755727D01*
X142654054Y-116813584D01*
X142411314Y-116952350D01*
X142188580Y-117121377D01*
X141989607Y-117317815D01*
X141989601Y-117317822D01*
X141817738Y-117538365D01*
X141817736Y-117538368D01*
X141784330Y-117595104D01*
X141743812Y-117663917D01*
X141692837Y-117711697D01*
X141636961Y-117725000D01*
X126295917Y-117725000D01*
X126228878Y-117705315D01*
X126189392Y-117662194D01*
X126188524Y-117662719D01*
X126186595Y-117659529D01*
X126186589Y-117659517D01*
X126035363Y-117440430D01*
X126018294Y-117421163D01*
X125858833Y-117241168D01*
X125858831Y-117241166D01*
X125659575Y-117064641D01*
X125659572Y-117064639D01*
X125659570Y-117064637D01*
X125440483Y-116913411D01*
X125204764Y-116789697D01*
X125197661Y-116787003D01*
X124955857Y-116695298D01*
X124894045Y-116680062D01*
X124697376Y-116631588D01*
X124538813Y-116612335D01*
X124433108Y-116599500D01*
X124433106Y-116599500D01*
X124322590Y-116599500D01*
X112401530Y-116599500D01*
X112398487Y-116599425D01*
X112030624Y-116581352D01*
X112024566Y-116580756D01*
X111661771Y-116526941D01*
X111655802Y-116525754D01*
X111578735Y-116506450D01*
X111300012Y-116436633D01*
X111294193Y-116434868D01*
X110948860Y-116311305D01*
X110943247Y-116308980D01*
X110611678Y-116152160D01*
X110606313Y-116149293D01*
X110291729Y-115960738D01*
X110286667Y-115957356D01*
X109992066Y-115738864D01*
X109987360Y-115735002D01*
X109715590Y-115488684D01*
X109711315Y-115484409D01*
X109464995Y-115212637D01*
X109461135Y-115207933D01*
X109242643Y-114913332D01*
X109239261Y-114908270D01*
X109050702Y-114593679D01*
X109047839Y-114588321D01*
X108891019Y-114256752D01*
X108888698Y-114251149D01*
X108765127Y-113905793D01*
X108763366Y-113899987D01*
X108752987Y-113858552D01*
X108674241Y-113544181D01*
X108673058Y-113538228D01*
X108669345Y-113513194D01*
X108619241Y-113175422D01*
X108618647Y-113169375D01*
X108600575Y-112801511D01*
X108600538Y-112800000D01*
X109194958Y-112800000D01*
X109215110Y-113158846D01*
X109215112Y-113158858D01*
X109275314Y-113513185D01*
X109275316Y-113513194D01*
X109374812Y-113858552D01*
X109512353Y-114190609D01*
X109512355Y-114190613D01*
X109686215Y-114505189D01*
X109686218Y-114505194D01*
X109894193Y-114798306D01*
X109966843Y-114879601D01*
X111285072Y-113561371D01*
X111361890Y-113671078D01*
X111528922Y-113838110D01*
X111638626Y-113914925D01*
X110320397Y-115233155D01*
X110320396Y-115233155D01*
X110401693Y-115305806D01*
X110694805Y-115513781D01*
X110694810Y-115513784D01*
X111009386Y-115687644D01*
X111009390Y-115687646D01*
X111341447Y-115825187D01*
X111686805Y-115924683D01*
X111686814Y-115924685D01*
X112041141Y-115984887D01*
X112041153Y-115984889D01*
X112400000Y-116005041D01*
X112758846Y-115984889D01*
X112758858Y-115984887D01*
X113113185Y-115924685D01*
X113113194Y-115924683D01*
X113458552Y-115825187D01*
X113790609Y-115687646D01*
X113790613Y-115687644D01*
X114105189Y-115513784D01*
X114105194Y-115513781D01*
X114398306Y-115305806D01*
X114479601Y-115233155D01*
X113161373Y-113914925D01*
X113271078Y-113838110D01*
X113438110Y-113671078D01*
X113514926Y-113561373D01*
X114833155Y-114879601D01*
X114905806Y-114798306D01*
X115113781Y-114505194D01*
X115113784Y-114505189D01*
X115287644Y-114190613D01*
X115287646Y-114190609D01*
X115408019Y-113899999D01*
X138244355Y-113899999D01*
X138264859Y-114068869D01*
X138264860Y-114068874D01*
X138325182Y-114227931D01*
X138387475Y-114318177D01*
X138421817Y-114367929D01*
X138527505Y-114461560D01*
X138549150Y-114480736D01*
X138699773Y-114559789D01*
X138699775Y-114559790D01*
X138864944Y-114600500D01*
X139035056Y-114600500D01*
X139200225Y-114559790D01*
X139304248Y-114505194D01*
X139350849Y-114480736D01*
X139350850Y-114480734D01*
X139350852Y-114480734D01*
X139478183Y-114367929D01*
X139574818Y-114227930D01*
X139635140Y-114068872D01*
X139655645Y-113900000D01*
X139635140Y-113731128D01*
X139574818Y-113572070D01*
X139551458Y-113538228D01*
X139540476Y-113522318D01*
X139478183Y-113432071D01*
X139350852Y-113319266D01*
X139350849Y-113319263D01*
X139200226Y-113240210D01*
X139035056Y-113199500D01*
X138864944Y-113199500D01*
X138699773Y-113240210D01*
X138549150Y-113319263D01*
X138421816Y-113432072D01*
X138325182Y-113572068D01*
X138264860Y-113731125D01*
X138264859Y-113731130D01*
X138244355Y-113899999D01*
X115408019Y-113899999D01*
X115425187Y-113858552D01*
X115524683Y-113513194D01*
X115524685Y-113513185D01*
X115584887Y-113158858D01*
X115584889Y-113158846D01*
X115605041Y-112799999D01*
X152194958Y-112799999D01*
X152215110Y-113158846D01*
X152215112Y-113158858D01*
X152275314Y-113513185D01*
X152275316Y-113513194D01*
X152374812Y-113858552D01*
X152512353Y-114190609D01*
X152512355Y-114190613D01*
X152686215Y-114505189D01*
X152686218Y-114505194D01*
X152894193Y-114798306D01*
X152966843Y-114879601D01*
X154285072Y-113561371D01*
X154361890Y-113671078D01*
X154528922Y-113838110D01*
X154638626Y-113914925D01*
X153320397Y-115233155D01*
X153401693Y-115305806D01*
X153694805Y-115513781D01*
X153694810Y-115513784D01*
X154009386Y-115687644D01*
X154009390Y-115687646D01*
X154341447Y-115825187D01*
X154686805Y-115924683D01*
X154686814Y-115924685D01*
X155041141Y-115984887D01*
X155041153Y-115984889D01*
X155399999Y-116005041D01*
X155758846Y-115984889D01*
X155758858Y-115984887D01*
X156113185Y-115924685D01*
X156113194Y-115924683D01*
X156458552Y-115825187D01*
X156790609Y-115687646D01*
X156790613Y-115687644D01*
X157105189Y-115513784D01*
X157105194Y-115513781D01*
X157398306Y-115305806D01*
X157479601Y-115233155D01*
X156161373Y-113914925D01*
X156271078Y-113838110D01*
X156438110Y-113671078D01*
X156514926Y-113561373D01*
X157833155Y-114879601D01*
X157905806Y-114798306D01*
X158113781Y-114505194D01*
X158113784Y-114505189D01*
X158287644Y-114190613D01*
X158287646Y-114190609D01*
X158425187Y-113858552D01*
X158524683Y-113513194D01*
X158524685Y-113513185D01*
X158584887Y-113158858D01*
X158584889Y-113158846D01*
X158605041Y-112799999D01*
X158584889Y-112441153D01*
X158584887Y-112441141D01*
X158524685Y-112086814D01*
X158524683Y-112086805D01*
X158425187Y-111741447D01*
X158287646Y-111409390D01*
X158287644Y-111409386D01*
X158113784Y-111094810D01*
X158113781Y-111094805D01*
X157905806Y-110801693D01*
X157833155Y-110720397D01*
X156514925Y-112038626D01*
X156438110Y-111928922D01*
X156271078Y-111761890D01*
X156161372Y-111685073D01*
X157479602Y-110366843D01*
X157398306Y-110294193D01*
X157105194Y-110086218D01*
X157105189Y-110086215D01*
X156790613Y-109912355D01*
X156790609Y-109912353D01*
X156458552Y-109774812D01*
X156113194Y-109675316D01*
X156113185Y-109675314D01*
X155758858Y-109615112D01*
X155758846Y-109615110D01*
X155399999Y-109594958D01*
X155041153Y-109615110D01*
X155041141Y-109615112D01*
X154686814Y-109675314D01*
X154686805Y-109675316D01*
X154341447Y-109774812D01*
X154009390Y-109912353D01*
X154009386Y-109912355D01*
X153694810Y-110086215D01*
X153694805Y-110086218D01*
X153401693Y-110294194D01*
X153401685Y-110294199D01*
X153320397Y-110366842D01*
X153320397Y-110366843D01*
X154638627Y-111685073D01*
X154528922Y-111761890D01*
X154361890Y-111928922D01*
X154285073Y-112038626D01*
X152966843Y-110720396D01*
X152966842Y-110720397D01*
X152894199Y-110801685D01*
X152894194Y-110801693D01*
X152686218Y-111094805D01*
X152686215Y-111094810D01*
X152512355Y-111409386D01*
X152512353Y-111409390D01*
X152374812Y-111741447D01*
X152275316Y-112086805D01*
X152275314Y-112086814D01*
X152215112Y-112441141D01*
X152215110Y-112441153D01*
X152194958Y-112799999D01*
X115605041Y-112799999D01*
X115584889Y-112441153D01*
X115584887Y-112441141D01*
X115524685Y-112086814D01*
X115524683Y-112086805D01*
X115425187Y-111741447D01*
X115287646Y-111409390D01*
X115287644Y-111409386D01*
X115113784Y-111094810D01*
X115113781Y-111094805D01*
X114905806Y-110801693D01*
X114833155Y-110720397D01*
X113514925Y-112038626D01*
X113438110Y-111928922D01*
X113271078Y-111761890D01*
X113161372Y-111685073D01*
X114479602Y-110366843D01*
X114398306Y-110294193D01*
X114105194Y-110086218D01*
X114105189Y-110086215D01*
X113790613Y-109912355D01*
X113790609Y-109912353D01*
X113458552Y-109774812D01*
X113113194Y-109675316D01*
X113113185Y-109675314D01*
X112758858Y-109615112D01*
X112758846Y-109615110D01*
X112400000Y-109594958D01*
X112041153Y-109615110D01*
X112041141Y-109615112D01*
X111686814Y-109675314D01*
X111686805Y-109675316D01*
X111341447Y-109774812D01*
X111009390Y-109912353D01*
X111009386Y-109912355D01*
X110694810Y-110086215D01*
X110694805Y-110086218D01*
X110401693Y-110294194D01*
X110401685Y-110294199D01*
X110320397Y-110366842D01*
X110320397Y-110366843D01*
X111638627Y-111685073D01*
X111528922Y-111761890D01*
X111361890Y-111928922D01*
X111285073Y-112038626D01*
X109966843Y-110720396D01*
X109966842Y-110720397D01*
X109894199Y-110801685D01*
X109894194Y-110801693D01*
X109686218Y-111094805D01*
X109686215Y-111094810D01*
X109512355Y-111409386D01*
X109512353Y-111409390D01*
X109374812Y-111741447D01*
X109275316Y-112086805D01*
X109275314Y-112086814D01*
X109215112Y-112441141D01*
X109215110Y-112441153D01*
X109194958Y-112800000D01*
X108600538Y-112800000D01*
X108600500Y-112798469D01*
X108600500Y-108800000D01*
X124694355Y-108800000D01*
X124714859Y-108968869D01*
X124714860Y-108968874D01*
X124775182Y-109127931D01*
X124837475Y-109218177D01*
X124871817Y-109267929D01*
X124977505Y-109361560D01*
X124999150Y-109380736D01*
X125149773Y-109459789D01*
X125149775Y-109459790D01*
X125314944Y-109500500D01*
X125485056Y-109500500D01*
X125650225Y-109459790D01*
X125729692Y-109418081D01*
X125800849Y-109380736D01*
X125800850Y-109380734D01*
X125800852Y-109380734D01*
X125928183Y-109267929D01*
X126024818Y-109127930D01*
X126085140Y-108968872D01*
X126105645Y-108800000D01*
X126085140Y-108631128D01*
X126024818Y-108472070D01*
X125928183Y-108332071D01*
X125800852Y-108219266D01*
X125800849Y-108219263D01*
X125650226Y-108140210D01*
X125485056Y-108099500D01*
X125314944Y-108099500D01*
X125149773Y-108140210D01*
X124999150Y-108219263D01*
X124871816Y-108332072D01*
X124775182Y-108472068D01*
X124714860Y-108631125D01*
X124714859Y-108631130D01*
X124694355Y-108800000D01*
X108600500Y-108800000D01*
X108600500Y-107449500D01*
X139144355Y-107449500D01*
X139147643Y-107476580D01*
X139164859Y-107618369D01*
X139164860Y-107618374D01*
X139225182Y-107777431D01*
X139285594Y-107864952D01*
X139321817Y-107917429D01*
X139359147Y-107950500D01*
X139449150Y-108030236D01*
X139581122Y-108099500D01*
X139599775Y-108109290D01*
X139764944Y-108150000D01*
X139935056Y-108150000D01*
X140100225Y-108109290D01*
X140179692Y-108067581D01*
X140250849Y-108030236D01*
X140250850Y-108030234D01*
X140250852Y-108030234D01*
X140378183Y-107917429D01*
X140474818Y-107777430D01*
X140535140Y-107618372D01*
X140555645Y-107449500D01*
X140535140Y-107280628D01*
X140523524Y-107250000D01*
X140500769Y-107189999D01*
X140474818Y-107121570D01*
X140378183Y-106981571D01*
X140271723Y-106887256D01*
X140250849Y-106868763D01*
X140119832Y-106800000D01*
X141194355Y-106800000D01*
X141214859Y-106968869D01*
X141214860Y-106968874D01*
X141275182Y-107127931D01*
X141283364Y-107139784D01*
X141371817Y-107267929D01*
X141477505Y-107361560D01*
X141499150Y-107380736D01*
X141630167Y-107449499D01*
X141649775Y-107459790D01*
X141814944Y-107500500D01*
X141985056Y-107500500D01*
X142150225Y-107459790D01*
X142229692Y-107418081D01*
X142300849Y-107380736D01*
X142300850Y-107380734D01*
X142300852Y-107380734D01*
X142428183Y-107267929D01*
X142440559Y-107250000D01*
X147794355Y-107250000D01*
X147814859Y-107418869D01*
X147814860Y-107418874D01*
X147875182Y-107577931D01*
X147924821Y-107649844D01*
X147971817Y-107717929D01*
X148077505Y-107811560D01*
X148099150Y-107830736D01*
X148237764Y-107903486D01*
X148249775Y-107909790D01*
X148414944Y-107950500D01*
X148585056Y-107950500D01*
X148750225Y-107909790D01*
X148835656Y-107864952D01*
X148900849Y-107830736D01*
X148900850Y-107830734D01*
X148900852Y-107830734D01*
X149028183Y-107717929D01*
X149047461Y-107690000D01*
X155769364Y-107690000D01*
X155826567Y-107903486D01*
X155826570Y-107903492D01*
X155926399Y-108117578D01*
X156061894Y-108311082D01*
X156228917Y-108478105D01*
X156422421Y-108613600D01*
X156636507Y-108713429D01*
X156636516Y-108713433D01*
X156850000Y-108770634D01*
X156850000Y-107875501D01*
X156957685Y-107924680D01*
X157064237Y-107940000D01*
X157135763Y-107940000D01*
X157242315Y-107924680D01*
X157350000Y-107875501D01*
X157350000Y-108770633D01*
X157563483Y-108713433D01*
X157563492Y-108713429D01*
X157777578Y-108613600D01*
X157971082Y-108478105D01*
X158138105Y-108311082D01*
X158273600Y-108117578D01*
X158373429Y-107903492D01*
X158373432Y-107903486D01*
X158430636Y-107690000D01*
X157533686Y-107690000D01*
X157559493Y-107649844D01*
X157600000Y-107511889D01*
X157600000Y-107368111D01*
X157559493Y-107230156D01*
X157533686Y-107190000D01*
X158430636Y-107190000D01*
X158430635Y-107189999D01*
X158373432Y-106976513D01*
X158373429Y-106976507D01*
X158273600Y-106762422D01*
X158273599Y-106762420D01*
X158138113Y-106568926D01*
X158138108Y-106568920D01*
X157971082Y-106401894D01*
X157791394Y-106276074D01*
X157747769Y-106221496D01*
X157740577Y-106151998D01*
X157772099Y-106089643D01*
X157832329Y-106054230D01*
X157862517Y-106050499D01*
X157994864Y-106050499D01*
X157994879Y-106050497D01*
X157994882Y-106050497D01*
X158019987Y-106047586D01*
X158019988Y-106047585D01*
X158019991Y-106047585D01*
X158122765Y-106002206D01*
X158202206Y-105922765D01*
X158247585Y-105819991D01*
X158250500Y-105794865D01*
X158250499Y-104005136D01*
X158250497Y-104005117D01*
X158247586Y-103980012D01*
X158247585Y-103980010D01*
X158247585Y-103980009D01*
X158202206Y-103877235D01*
X158122765Y-103797794D01*
X158122764Y-103797793D01*
X158019992Y-103752415D01*
X157994865Y-103749500D01*
X156205143Y-103749500D01*
X156205117Y-103749502D01*
X156180012Y-103752413D01*
X156180008Y-103752415D01*
X156077235Y-103797793D01*
X155997794Y-103877234D01*
X155952415Y-103980006D01*
X155952415Y-103980008D01*
X155949500Y-104005131D01*
X155949500Y-105794856D01*
X155949502Y-105794882D01*
X155952413Y-105819987D01*
X155952415Y-105819991D01*
X155997793Y-105922764D01*
X155997794Y-105922765D01*
X156077235Y-106002206D01*
X156180009Y-106047585D01*
X156205135Y-106050500D01*
X156337483Y-106050499D01*
X156404520Y-106070183D01*
X156450275Y-106122987D01*
X156460219Y-106192145D01*
X156431195Y-106255701D01*
X156408605Y-106276074D01*
X156228922Y-106401890D01*
X156228920Y-106401891D01*
X156061891Y-106568920D01*
X156061886Y-106568926D01*
X155926400Y-106762420D01*
X155926399Y-106762422D01*
X155826570Y-106976507D01*
X155826567Y-106976513D01*
X155769364Y-107189999D01*
X155769364Y-107190000D01*
X156666314Y-107190000D01*
X156640507Y-107230156D01*
X156600000Y-107368111D01*
X156600000Y-107511889D01*
X156640507Y-107649844D01*
X156666314Y-107690000D01*
X155769364Y-107690000D01*
X149047461Y-107690000D01*
X149124818Y-107577930D01*
X149185140Y-107418872D01*
X149205645Y-107250000D01*
X149185140Y-107081128D01*
X149124818Y-106922070D01*
X149100787Y-106887256D01*
X149080272Y-106857534D01*
X149028183Y-106782071D01*
X148900852Y-106669266D01*
X148900849Y-106669263D01*
X148750226Y-106590210D01*
X148585056Y-106549500D01*
X148414944Y-106549500D01*
X148249773Y-106590210D01*
X148099150Y-106669263D01*
X147971816Y-106782072D01*
X147875182Y-106922068D01*
X147814860Y-107081125D01*
X147814859Y-107081130D01*
X147794355Y-107250000D01*
X142440559Y-107250000D01*
X142524818Y-107127930D01*
X142585140Y-106968872D01*
X142605645Y-106800000D01*
X142585140Y-106631128D01*
X142573524Y-106600500D01*
X142524817Y-106472068D01*
X142476379Y-106401894D01*
X142428183Y-106332071D01*
X142333316Y-106248026D01*
X142300849Y-106219263D01*
X142150226Y-106140210D01*
X141985056Y-106099500D01*
X141814944Y-106099500D01*
X141649773Y-106140210D01*
X141499150Y-106219263D01*
X141371816Y-106332072D01*
X141275182Y-106472068D01*
X141214860Y-106631125D01*
X141214859Y-106631130D01*
X141194355Y-106800000D01*
X140119832Y-106800000D01*
X140100226Y-106789710D01*
X139935056Y-106749000D01*
X139764944Y-106749000D01*
X139599773Y-106789710D01*
X139449150Y-106868763D01*
X139321816Y-106981572D01*
X139225182Y-107121568D01*
X139164860Y-107280625D01*
X139164859Y-107280630D01*
X139144355Y-107449499D01*
X139144355Y-107449500D01*
X108600500Y-107449500D01*
X108600500Y-106434892D01*
X132349440Y-106434892D01*
X132368480Y-106591710D01*
X132397894Y-106669266D01*
X132424498Y-106739415D01*
X132514235Y-106869422D01*
X132632478Y-106974175D01*
X132632480Y-106974176D01*
X132772352Y-107047588D01*
X132925732Y-107085392D01*
X132925733Y-107085392D01*
X133083703Y-107085392D01*
X133237083Y-107047588D01*
X133376956Y-106974176D01*
X133376955Y-106974176D01*
X133376958Y-106974175D01*
X133475070Y-106887255D01*
X133538303Y-106857534D01*
X133607567Y-106866718D01*
X133659346Y-106909630D01*
X133667933Y-106922070D01*
X133745901Y-107035028D01*
X133745903Y-107035030D01*
X133864146Y-107139783D01*
X133864148Y-107139784D01*
X134004020Y-107213196D01*
X134157400Y-107251000D01*
X134157401Y-107251000D01*
X134315371Y-107251000D01*
X134468751Y-107213196D01*
X134468750Y-107213195D01*
X134608626Y-107139783D01*
X134726869Y-107035030D01*
X134816606Y-106905023D01*
X134872623Y-106757318D01*
X134891664Y-106600500D01*
X134872623Y-106443682D01*
X134838747Y-106354360D01*
X134833381Y-106284700D01*
X134866528Y-106223193D01*
X134927666Y-106189372D01*
X134984362Y-106189993D01*
X135122479Y-106224036D01*
X135280449Y-106224036D01*
X135433829Y-106186232D01*
X135467284Y-106168673D01*
X135573704Y-106112819D01*
X135691947Y-106008066D01*
X135781684Y-105878059D01*
X135837701Y-105730354D01*
X135856742Y-105573536D01*
X135837701Y-105416718D01*
X135781684Y-105269013D01*
X135691947Y-105139006D01*
X135573704Y-105034253D01*
X135573702Y-105034252D01*
X135573701Y-105034251D01*
X135499454Y-104995283D01*
X135449242Y-104946699D01*
X135433267Y-104878680D01*
X135456602Y-104812822D01*
X135474851Y-104792673D01*
X135540483Y-104734530D01*
X135630220Y-104604523D01*
X135686237Y-104456818D01*
X135705278Y-104300000D01*
X135701887Y-104272068D01*
X135686237Y-104143181D01*
X135664992Y-104087164D01*
X135630220Y-103995477D01*
X135540483Y-103865470D01*
X135422240Y-103760717D01*
X135422238Y-103760716D01*
X135422237Y-103760715D01*
X135282365Y-103687303D01*
X135128986Y-103649500D01*
X135128985Y-103649500D01*
X134971015Y-103649500D01*
X134971014Y-103649500D01*
X134817634Y-103687303D01*
X134677762Y-103760715D01*
X134559516Y-103865471D01*
X134469781Y-103995475D01*
X134469780Y-103995476D01*
X134413762Y-104143181D01*
X134394722Y-104299999D01*
X134394722Y-104300000D01*
X134413762Y-104456818D01*
X134468064Y-104599999D01*
X134469780Y-104604523D01*
X134559517Y-104734530D01*
X134677760Y-104839283D01*
X134752009Y-104878252D01*
X134802221Y-104926836D01*
X134818196Y-104994855D01*
X134794861Y-105060712D01*
X134776610Y-105080863D01*
X134710982Y-105139004D01*
X134621245Y-105269011D01*
X134621244Y-105269012D01*
X134565226Y-105416717D01*
X134546186Y-105573535D01*
X134546186Y-105573536D01*
X134565227Y-105730354D01*
X134599101Y-105819673D01*
X134604468Y-105889336D01*
X134571321Y-105950842D01*
X134510182Y-105984664D01*
X134453485Y-105984041D01*
X134315372Y-105950000D01*
X134315371Y-105950000D01*
X134157401Y-105950000D01*
X134157400Y-105950000D01*
X134004020Y-105987803D01*
X133864147Y-106061215D01*
X133864145Y-106061217D01*
X133766032Y-106148136D01*
X133702799Y-106177857D01*
X133633535Y-106168673D01*
X133581757Y-106125761D01*
X133495201Y-106000362D01*
X133376958Y-105895609D01*
X133376956Y-105895608D01*
X133376955Y-105895607D01*
X133237083Y-105822195D01*
X133083704Y-105784392D01*
X133083703Y-105784392D01*
X132925733Y-105784392D01*
X132925732Y-105784392D01*
X132772352Y-105822195D01*
X132632480Y-105895607D01*
X132514234Y-106000363D01*
X132424499Y-106130367D01*
X132424498Y-106130368D01*
X132368480Y-106278073D01*
X132349440Y-106434891D01*
X132349440Y-106434892D01*
X108600500Y-106434892D01*
X108600500Y-104600000D01*
X124594355Y-104600000D01*
X124614859Y-104768869D01*
X124614860Y-104768874D01*
X124675182Y-104927931D01*
X124688137Y-104946699D01*
X124771817Y-105067929D01*
X124852047Y-105139006D01*
X124899150Y-105180736D01*
X125049773Y-105259789D01*
X125049775Y-105259790D01*
X125214944Y-105300500D01*
X125385056Y-105300500D01*
X125550225Y-105259790D01*
X125629692Y-105218081D01*
X125700849Y-105180736D01*
X125700850Y-105180734D01*
X125700852Y-105180734D01*
X125828183Y-105067929D01*
X125924818Y-104927930D01*
X125985140Y-104768872D01*
X126005645Y-104600000D01*
X125985140Y-104431128D01*
X125924818Y-104272070D01*
X125828183Y-104132071D01*
X125700852Y-104019266D01*
X125700849Y-104019263D01*
X125550226Y-103940210D01*
X125385056Y-103899500D01*
X125214944Y-103899500D01*
X125049773Y-103940210D01*
X124899150Y-104019263D01*
X124771816Y-104132072D01*
X124675182Y-104272068D01*
X124614860Y-104431125D01*
X124614859Y-104431130D01*
X124594355Y-104600000D01*
X108600500Y-104600000D01*
X108600500Y-102400500D01*
X134294355Y-102400500D01*
X134314859Y-102569369D01*
X134314860Y-102569374D01*
X134375182Y-102728431D01*
X134437475Y-102818677D01*
X134471817Y-102868429D01*
X134577505Y-102962060D01*
X134599150Y-102981236D01*
X134749773Y-103060289D01*
X134749775Y-103060290D01*
X134914944Y-103101000D01*
X135085056Y-103101000D01*
X135250225Y-103060290D01*
X135364144Y-103000500D01*
X135400849Y-102981236D01*
X135400850Y-102981234D01*
X135400852Y-102981234D01*
X135528183Y-102868429D01*
X135624818Y-102728430D01*
X135685140Y-102569372D01*
X135693564Y-102499999D01*
X136994355Y-102499999D01*
X137014859Y-102668869D01*
X137014860Y-102668874D01*
X137075182Y-102827931D01*
X137137475Y-102918177D01*
X137171817Y-102967929D01*
X137276070Y-103060289D01*
X137299150Y-103080736D01*
X137449773Y-103159789D01*
X137449775Y-103159790D01*
X137614944Y-103200500D01*
X137785056Y-103200500D01*
X137950225Y-103159790D01*
X138062239Y-103101000D01*
X138100849Y-103080736D01*
X138100850Y-103080734D01*
X138100852Y-103080734D01*
X138191418Y-103000500D01*
X151544355Y-103000500D01*
X151564859Y-103169369D01*
X151564860Y-103169374D01*
X151625182Y-103328431D01*
X151687475Y-103418677D01*
X151721817Y-103468429D01*
X151827505Y-103562060D01*
X151849150Y-103581236D01*
X151999773Y-103660289D01*
X151999775Y-103660290D01*
X152164944Y-103701000D01*
X152335056Y-103701000D01*
X152500225Y-103660290D01*
X152579692Y-103618581D01*
X152650849Y-103581236D01*
X152650850Y-103581234D01*
X152650852Y-103581234D01*
X152778183Y-103468429D01*
X152874818Y-103328430D01*
X152885600Y-103300000D01*
X153494355Y-103300000D01*
X153514859Y-103468869D01*
X153514860Y-103468874D01*
X153575182Y-103627931D01*
X153616165Y-103687304D01*
X153671817Y-103767929D01*
X153777505Y-103861560D01*
X153799150Y-103880736D01*
X153949773Y-103959789D01*
X153949775Y-103959790D01*
X154114944Y-104000500D01*
X154285056Y-104000500D01*
X154450225Y-103959790D01*
X154565097Y-103899500D01*
X154600849Y-103880736D01*
X154600850Y-103880734D01*
X154600852Y-103880734D01*
X154728183Y-103767929D01*
X154824818Y-103627930D01*
X154885140Y-103468872D01*
X154905645Y-103300000D01*
X154885140Y-103131128D01*
X154824818Y-102972070D01*
X154821958Y-102967927D01*
X154753279Y-102868429D01*
X154728183Y-102832071D01*
X154600852Y-102719266D01*
X154600849Y-102719263D01*
X154450226Y-102640210D01*
X154285056Y-102599500D01*
X154114944Y-102599500D01*
X153949773Y-102640210D01*
X153799150Y-102719263D01*
X153682638Y-102822484D01*
X153672321Y-102831625D01*
X153671816Y-102832072D01*
X153575182Y-102972068D01*
X153514860Y-103131125D01*
X153514859Y-103131130D01*
X153494355Y-103300000D01*
X152885600Y-103300000D01*
X152935140Y-103169372D01*
X152955645Y-103000500D01*
X152935140Y-102831628D01*
X152874818Y-102672570D01*
X152872265Y-102668872D01*
X152803583Y-102569369D01*
X152778183Y-102532571D01*
X152650852Y-102419766D01*
X152650849Y-102419763D01*
X152500226Y-102340710D01*
X152335056Y-102300000D01*
X152164944Y-102300000D01*
X151999773Y-102340710D01*
X151849150Y-102419763D01*
X151721816Y-102532572D01*
X151625182Y-102672568D01*
X151564860Y-102831625D01*
X151564859Y-102831630D01*
X151544355Y-103000500D01*
X138191418Y-103000500D01*
X138228183Y-102967929D01*
X138324818Y-102827930D01*
X138385140Y-102668872D01*
X138405645Y-102500000D01*
X138385140Y-102331128D01*
X138324818Y-102172070D01*
X138228183Y-102032071D01*
X138133316Y-101948026D01*
X138100849Y-101919263D01*
X137950226Y-101840210D01*
X137785056Y-101799500D01*
X137614944Y-101799500D01*
X137449773Y-101840210D01*
X137299150Y-101919263D01*
X137171816Y-102032072D01*
X137075182Y-102172068D01*
X137014860Y-102331125D01*
X137014859Y-102331130D01*
X136994355Y-102499999D01*
X135693564Y-102499999D01*
X135705645Y-102400500D01*
X135685140Y-102231628D01*
X135624818Y-102072570D01*
X135528183Y-101932571D01*
X135400852Y-101819766D01*
X135400849Y-101819763D01*
X135250226Y-101740710D01*
X135085056Y-101700000D01*
X134914944Y-101700000D01*
X134749773Y-101740710D01*
X134599150Y-101819763D01*
X134471816Y-101932572D01*
X134375182Y-102072568D01*
X134314860Y-102231625D01*
X134314859Y-102231630D01*
X134294355Y-102400500D01*
X108600500Y-102400500D01*
X108600500Y-101390000D01*
X155769364Y-101390000D01*
X155826567Y-101603486D01*
X155826570Y-101603492D01*
X155926399Y-101817578D01*
X156061894Y-102011082D01*
X156228917Y-102178105D01*
X156422421Y-102313600D01*
X156636507Y-102413429D01*
X156636516Y-102413433D01*
X156850000Y-102470634D01*
X156850000Y-101575501D01*
X156957685Y-101624680D01*
X157064237Y-101640000D01*
X157135763Y-101640000D01*
X157242315Y-101624680D01*
X157350000Y-101575501D01*
X157350000Y-102470633D01*
X157563483Y-102413433D01*
X157563492Y-102413429D01*
X157777578Y-102313600D01*
X157971082Y-102178105D01*
X158138105Y-102011082D01*
X158273600Y-101817578D01*
X158373429Y-101603492D01*
X158373432Y-101603486D01*
X158430636Y-101390000D01*
X157533686Y-101390000D01*
X157559493Y-101349844D01*
X157600000Y-101211889D01*
X157600000Y-101068111D01*
X157559493Y-100930156D01*
X157533686Y-100890000D01*
X158430636Y-100890000D01*
X158430635Y-100889999D01*
X158373432Y-100676513D01*
X158373429Y-100676507D01*
X158273600Y-100462422D01*
X158273599Y-100462420D01*
X158138113Y-100268926D01*
X158138108Y-100268920D01*
X157971082Y-100101894D01*
X157777578Y-99966399D01*
X157578426Y-99873533D01*
X157525987Y-99827360D01*
X157506835Y-99760167D01*
X157527051Y-99693286D01*
X157580216Y-99647951D01*
X157586005Y-99645537D01*
X157615019Y-99634298D01*
X157796302Y-99522052D01*
X157953872Y-99378407D01*
X158082366Y-99208255D01*
X158101782Y-99169263D01*
X158177403Y-99017394D01*
X158177403Y-99017393D01*
X158177405Y-99017389D01*
X158235756Y-98812310D01*
X158255429Y-98600000D01*
X158235756Y-98387690D01*
X158177405Y-98182611D01*
X158177403Y-98182606D01*
X158177403Y-98182605D01*
X158082367Y-97991746D01*
X157953872Y-97821593D01*
X157951940Y-97819832D01*
X157796302Y-97677948D01*
X157615019Y-97565702D01*
X157615017Y-97565701D01*
X157502386Y-97522068D01*
X157416198Y-97488679D01*
X157243456Y-97456387D01*
X157181176Y-97424719D01*
X157145903Y-97364407D01*
X157148837Y-97294599D01*
X157189046Y-97237459D01*
X157253764Y-97211128D01*
X157266233Y-97210499D01*
X157994864Y-97210499D01*
X157994879Y-97210497D01*
X157994882Y-97210497D01*
X158019987Y-97207586D01*
X158019988Y-97207585D01*
X158019991Y-97207585D01*
X158122765Y-97162206D01*
X158202206Y-97082765D01*
X158247585Y-96979991D01*
X158250500Y-96954865D01*
X158250499Y-95165136D01*
X158250497Y-95165117D01*
X158247586Y-95140012D01*
X158247585Y-95140010D01*
X158247585Y-95140009D01*
X158202206Y-95037235D01*
X158122765Y-94957794D01*
X158069554Y-94934299D01*
X158019992Y-94912415D01*
X157994865Y-94909500D01*
X156205143Y-94909500D01*
X156205117Y-94909502D01*
X156180012Y-94912413D01*
X156180008Y-94912415D01*
X156077235Y-94957793D01*
X155997794Y-95037234D01*
X155952415Y-95140006D01*
X155952415Y-95140008D01*
X155949500Y-95165131D01*
X155949500Y-96954856D01*
X155949502Y-96954882D01*
X155952413Y-96979987D01*
X155952415Y-96979991D01*
X155997793Y-97082764D01*
X155997794Y-97082765D01*
X156077235Y-97162206D01*
X156180009Y-97207585D01*
X156205135Y-97210500D01*
X156933758Y-97210499D01*
X157000795Y-97230183D01*
X157046550Y-97282987D01*
X157056494Y-97352146D01*
X157027469Y-97415702D01*
X156968691Y-97453476D01*
X156956542Y-97456388D01*
X156900116Y-97466935D01*
X156783802Y-97488679D01*
X156783800Y-97488679D01*
X156783798Y-97488680D01*
X156584982Y-97565701D01*
X156584980Y-97565702D01*
X156403699Y-97677947D01*
X156246127Y-97821593D01*
X156117632Y-97991746D01*
X156022596Y-98182605D01*
X156022596Y-98182607D01*
X155964244Y-98387689D01*
X155948036Y-98562611D01*
X155944571Y-98600000D01*
X155964244Y-98812310D01*
X156011956Y-98979999D01*
X156022596Y-99017392D01*
X156022596Y-99017394D01*
X156117632Y-99208253D01*
X156201464Y-99319263D01*
X156246128Y-99378407D01*
X156403698Y-99522052D01*
X156584981Y-99634298D01*
X156613961Y-99645525D01*
X156669362Y-99688095D01*
X156692954Y-99753861D01*
X156677244Y-99821942D01*
X156627222Y-99870722D01*
X156621573Y-99873533D01*
X156422422Y-99966399D01*
X156422420Y-99966400D01*
X156228926Y-100101886D01*
X156228920Y-100101891D01*
X156061891Y-100268920D01*
X156061886Y-100268926D01*
X155926400Y-100462420D01*
X155926399Y-100462422D01*
X155826570Y-100676507D01*
X155826567Y-100676513D01*
X155769364Y-100889999D01*
X155769364Y-100890000D01*
X156666314Y-100890000D01*
X156640507Y-100930156D01*
X156600000Y-101068111D01*
X156600000Y-101211889D01*
X156640507Y-101349844D01*
X156666314Y-101390000D01*
X155769364Y-101390000D01*
X108600500Y-101390000D01*
X108600500Y-96690000D01*
X110669364Y-96690000D01*
X110726567Y-96903486D01*
X110726570Y-96903492D01*
X110826399Y-97117578D01*
X110961894Y-97311082D01*
X111128917Y-97478105D01*
X111322421Y-97613600D01*
X111521573Y-97706466D01*
X111574012Y-97752638D01*
X111593164Y-97819832D01*
X111572948Y-97886713D01*
X111519783Y-97932048D01*
X111513968Y-97934472D01*
X111506771Y-97937260D01*
X111484982Y-97945701D01*
X111484980Y-97945702D01*
X111303699Y-98057947D01*
X111146127Y-98201593D01*
X111017632Y-98371746D01*
X110922596Y-98562605D01*
X110922596Y-98562607D01*
X110864244Y-98767689D01*
X110844570Y-98979999D01*
X110844570Y-98980000D01*
X110864244Y-99192310D01*
X110922596Y-99397392D01*
X110922596Y-99397394D01*
X111017632Y-99588253D01*
X111139779Y-99750000D01*
X111146128Y-99758407D01*
X111303698Y-99902052D01*
X111484981Y-100014298D01*
X111683802Y-100091321D01*
X111893390Y-100130500D01*
X111893392Y-100130500D01*
X112106608Y-100130500D01*
X112106610Y-100130500D01*
X112316198Y-100091321D01*
X112515019Y-100014298D01*
X112696302Y-99902052D01*
X112801410Y-99806233D01*
X134545588Y-99806233D01*
X134566092Y-99975102D01*
X134566093Y-99975107D01*
X134626415Y-100134164D01*
X134684235Y-100217929D01*
X134723050Y-100274162D01*
X134828738Y-100367793D01*
X134850383Y-100386969D01*
X134994143Y-100462420D01*
X135001008Y-100466023D01*
X135166177Y-100506733D01*
X135336289Y-100506733D01*
X135501458Y-100466023D01*
X135608602Y-100409789D01*
X135652082Y-100386969D01*
X135652083Y-100386967D01*
X135652085Y-100386967D01*
X135779416Y-100274162D01*
X135876051Y-100134163D01*
X135936373Y-99975105D01*
X135945493Y-99899999D01*
X137694355Y-99899999D01*
X137714859Y-100068869D01*
X137714860Y-100068874D01*
X137775182Y-100227931D01*
X137807092Y-100274160D01*
X137871817Y-100367929D01*
X137965021Y-100450500D01*
X137999150Y-100480736D01*
X138149773Y-100559789D01*
X138149775Y-100559790D01*
X138314944Y-100600500D01*
X138485056Y-100600500D01*
X138650225Y-100559790D01*
X138751316Y-100506733D01*
X138800849Y-100480736D01*
X138800850Y-100480734D01*
X138800852Y-100480734D01*
X138928183Y-100367929D01*
X139024818Y-100227930D01*
X139085140Y-100068872D01*
X139105645Y-99900000D01*
X139087431Y-99749999D01*
X151994355Y-99749999D01*
X152014859Y-99918869D01*
X152014860Y-99918874D01*
X152075182Y-100077931D01*
X152113997Y-100134163D01*
X152171817Y-100217929D01*
X152277505Y-100311560D01*
X152299150Y-100330736D01*
X152449773Y-100409789D01*
X152449775Y-100409790D01*
X152614944Y-100450500D01*
X152785056Y-100450500D01*
X152950225Y-100409790D01*
X153029987Y-100367927D01*
X153100849Y-100330736D01*
X153100850Y-100330734D01*
X153100852Y-100330734D01*
X153228183Y-100217929D01*
X153324818Y-100077930D01*
X153385140Y-99918872D01*
X153405645Y-99750000D01*
X153385140Y-99581128D01*
X153324818Y-99422070D01*
X153228183Y-99282071D01*
X153100852Y-99169266D01*
X153100849Y-99169263D01*
X152950226Y-99090210D01*
X152785056Y-99049500D01*
X152614944Y-99049500D01*
X152449773Y-99090210D01*
X152299150Y-99169263D01*
X152171816Y-99282072D01*
X152075182Y-99422068D01*
X152014860Y-99581125D01*
X152014859Y-99581130D01*
X151994355Y-99749999D01*
X139087431Y-99749999D01*
X139085140Y-99731128D01*
X139024818Y-99572070D01*
X138928183Y-99432071D01*
X138800852Y-99319266D01*
X138800849Y-99319263D01*
X138650226Y-99240210D01*
X138485056Y-99199500D01*
X138314944Y-99199500D01*
X138149773Y-99240210D01*
X137999150Y-99319263D01*
X137871816Y-99432072D01*
X137775182Y-99572068D01*
X137714860Y-99731125D01*
X137714859Y-99731130D01*
X137694355Y-99899999D01*
X135945493Y-99899999D01*
X135956878Y-99806233D01*
X135936373Y-99637361D01*
X135935211Y-99634298D01*
X135911611Y-99572068D01*
X135876051Y-99478303D01*
X135779416Y-99338304D01*
X135684549Y-99254259D01*
X135652082Y-99225496D01*
X135501459Y-99146443D01*
X135336289Y-99105733D01*
X135166177Y-99105733D01*
X135001006Y-99146443D01*
X134850383Y-99225496D01*
X134723049Y-99338305D01*
X134626415Y-99478301D01*
X134566093Y-99637358D01*
X134566092Y-99637363D01*
X134545588Y-99806233D01*
X112801410Y-99806233D01*
X112853872Y-99758407D01*
X112982366Y-99588255D01*
X113060136Y-99432071D01*
X113077403Y-99397394D01*
X113077403Y-99397393D01*
X113077405Y-99397389D01*
X113135756Y-99192310D01*
X113155429Y-98980000D01*
X113135756Y-98767690D01*
X113077405Y-98562611D01*
X113077403Y-98562606D01*
X113077403Y-98562605D01*
X112982367Y-98371746D01*
X112853872Y-98201593D01*
X112827915Y-98177930D01*
X112696302Y-98057948D01*
X112515019Y-97945702D01*
X112515014Y-97945700D01*
X112508129Y-97943032D01*
X112486037Y-97934474D01*
X112430636Y-97891903D01*
X112407045Y-97826136D01*
X112422756Y-97758056D01*
X112472779Y-97709276D01*
X112478426Y-97706466D01*
X112677578Y-97613599D01*
X112871082Y-97478105D01*
X113038105Y-97311082D01*
X113173600Y-97117578D01*
X113273429Y-96903492D01*
X113273432Y-96903486D01*
X113330636Y-96690000D01*
X112433686Y-96690000D01*
X112459493Y-96649844D01*
X112500000Y-96511889D01*
X112500000Y-96368111D01*
X112482254Y-96307674D01*
X130386679Y-96307674D01*
X130407183Y-96476544D01*
X130407184Y-96476549D01*
X130467506Y-96635606D01*
X130505052Y-96690000D01*
X130564141Y-96775604D01*
X130664994Y-96864952D01*
X130691474Y-96888411D01*
X130848689Y-96970924D01*
X130898901Y-97019508D01*
X130914876Y-97087527D01*
X130891541Y-97153385D01*
X130848690Y-97190516D01*
X130698649Y-97269265D01*
X130698647Y-97269266D01*
X130698648Y-97269266D01*
X130605096Y-97352146D01*
X130571316Y-97382072D01*
X130474682Y-97522068D01*
X130414360Y-97681125D01*
X130414359Y-97681130D01*
X130393855Y-97850000D01*
X130414359Y-98018869D01*
X130414360Y-98018874D01*
X130474682Y-98177931D01*
X130536975Y-98268177D01*
X130571317Y-98317929D01*
X130677005Y-98411560D01*
X130698650Y-98430736D01*
X130849273Y-98509789D01*
X130849275Y-98509790D01*
X131014444Y-98550500D01*
X131184556Y-98550500D01*
X131349725Y-98509790D01*
X131429192Y-98468081D01*
X131500349Y-98430736D01*
X131500350Y-98430734D01*
X131500352Y-98430734D01*
X131627683Y-98317929D01*
X131724318Y-98177930D01*
X131784640Y-98018872D01*
X131805145Y-97850000D01*
X131784640Y-97681128D01*
X131724318Y-97522070D01*
X131701270Y-97488680D01*
X131650897Y-97415702D01*
X131627683Y-97382071D01*
X131500352Y-97269266D01*
X131500349Y-97269263D01*
X131343134Y-97186750D01*
X131292921Y-97138165D01*
X131276947Y-97070146D01*
X131300282Y-97004289D01*
X131343134Y-96967158D01*
X131366573Y-96954856D01*
X131493176Y-96888409D01*
X131620507Y-96775604D01*
X131717142Y-96635605D01*
X131730645Y-96599999D01*
X134394355Y-96599999D01*
X134414859Y-96768869D01*
X134414860Y-96768874D01*
X134475182Y-96927931D01*
X134537475Y-97018177D01*
X134571817Y-97067929D01*
X134663892Y-97149500D01*
X134699150Y-97180736D01*
X134807227Y-97237459D01*
X134849775Y-97259790D01*
X135014944Y-97300500D01*
X135185056Y-97300500D01*
X135350225Y-97259790D01*
X135444144Y-97210497D01*
X135500849Y-97180736D01*
X135500850Y-97180734D01*
X135500852Y-97180734D01*
X135628183Y-97067929D01*
X135724818Y-96927930D01*
X135785140Y-96768872D01*
X135805645Y-96600000D01*
X135785140Y-96431128D01*
X135724818Y-96272070D01*
X135628183Y-96132071D01*
X135500852Y-96019266D01*
X135500849Y-96019263D01*
X135350226Y-95940210D01*
X135185056Y-95899500D01*
X135014944Y-95899500D01*
X134849773Y-95940210D01*
X134699150Y-96019263D01*
X134571816Y-96132072D01*
X134475182Y-96272068D01*
X134414860Y-96431125D01*
X134414859Y-96431130D01*
X134394355Y-96599999D01*
X131730645Y-96599999D01*
X131777464Y-96476547D01*
X131797969Y-96307675D01*
X131777464Y-96138803D01*
X131717142Y-95979745D01*
X131620507Y-95839746D01*
X131493176Y-95726941D01*
X131493173Y-95726938D01*
X131342550Y-95647885D01*
X131177380Y-95607175D01*
X131007268Y-95607175D01*
X130842097Y-95647885D01*
X130691474Y-95726938D01*
X130564140Y-95839747D01*
X130467506Y-95979743D01*
X130407184Y-96138800D01*
X130407183Y-96138805D01*
X130386679Y-96307674D01*
X112482254Y-96307674D01*
X112459493Y-96230156D01*
X112433686Y-96190000D01*
X113330636Y-96190000D01*
X113330635Y-96189999D01*
X113273432Y-95976513D01*
X113273429Y-95976507D01*
X113173600Y-95762422D01*
X113173599Y-95762420D01*
X113038113Y-95568926D01*
X113038108Y-95568920D01*
X112871082Y-95401894D01*
X112677578Y-95266399D01*
X112478426Y-95173533D01*
X112425987Y-95127360D01*
X112406835Y-95060167D01*
X112427051Y-94993286D01*
X112480216Y-94947951D01*
X112486005Y-94945537D01*
X112515019Y-94934298D01*
X112696302Y-94822052D01*
X112853872Y-94678407D01*
X112982366Y-94508255D01*
X113026873Y-94418872D01*
X113077403Y-94317394D01*
X113077403Y-94317393D01*
X113077405Y-94317389D01*
X113096579Y-94249999D01*
X152044355Y-94249999D01*
X152064859Y-94418869D01*
X152064860Y-94418874D01*
X152125182Y-94577931D01*
X152187475Y-94668177D01*
X152221817Y-94717929D01*
X152327505Y-94811560D01*
X152349150Y-94830736D01*
X152499222Y-94909500D01*
X152499775Y-94909790D01*
X152664944Y-94950500D01*
X152835056Y-94950500D01*
X153000225Y-94909790D01*
X153079692Y-94868081D01*
X153150849Y-94830736D01*
X153150850Y-94830734D01*
X153150852Y-94830734D01*
X153278183Y-94717929D01*
X153374818Y-94577930D01*
X153435140Y-94418872D01*
X153455645Y-94250000D01*
X153435140Y-94081128D01*
X153374818Y-93922070D01*
X153359583Y-93899999D01*
X153340476Y-93872318D01*
X153278183Y-93782071D01*
X153183316Y-93698026D01*
X153150849Y-93669263D01*
X153000226Y-93590210D01*
X152835056Y-93549500D01*
X152664944Y-93549500D01*
X152499773Y-93590210D01*
X152349150Y-93669263D01*
X152221816Y-93782072D01*
X152125182Y-93922068D01*
X152064860Y-94081125D01*
X152064859Y-94081130D01*
X152044355Y-94249999D01*
X113096579Y-94249999D01*
X113135756Y-94112310D01*
X113155429Y-93900000D01*
X113135756Y-93687690D01*
X113077405Y-93482611D01*
X113077403Y-93482606D01*
X113077403Y-93482605D01*
X112982367Y-93291746D01*
X112853872Y-93121593D01*
X112696302Y-92977948D01*
X112515019Y-92865702D01*
X112515017Y-92865701D01*
X112415608Y-92827190D01*
X112316198Y-92788679D01*
X112143456Y-92756387D01*
X112081176Y-92724719D01*
X112045903Y-92664407D01*
X112048837Y-92594599D01*
X112089046Y-92537459D01*
X112153764Y-92511128D01*
X112166233Y-92510499D01*
X112894864Y-92510499D01*
X112894879Y-92510497D01*
X112894882Y-92510497D01*
X112919987Y-92507586D01*
X112919988Y-92507585D01*
X112919991Y-92507585D01*
X113022765Y-92462206D01*
X113102206Y-92382765D01*
X113147585Y-92279991D01*
X113150500Y-92254865D01*
X113150499Y-90465136D01*
X113149324Y-90455000D01*
X113147586Y-90440012D01*
X113147585Y-90440010D01*
X113147585Y-90440009D01*
X113102206Y-90337235D01*
X113022765Y-90257794D01*
X113022764Y-90257793D01*
X112919992Y-90212415D01*
X112894865Y-90209500D01*
X111105143Y-90209500D01*
X111105117Y-90209502D01*
X111080012Y-90212413D01*
X111080008Y-90212415D01*
X110977235Y-90257793D01*
X110897794Y-90337234D01*
X110852415Y-90440006D01*
X110852415Y-90440008D01*
X110849500Y-90465131D01*
X110849500Y-92254856D01*
X110849502Y-92254882D01*
X110852413Y-92279987D01*
X110852415Y-92279991D01*
X110897793Y-92382764D01*
X110897794Y-92382765D01*
X110977235Y-92462206D01*
X111080009Y-92507585D01*
X111105135Y-92510500D01*
X111833758Y-92510499D01*
X111900795Y-92530183D01*
X111946550Y-92582987D01*
X111956494Y-92652146D01*
X111927469Y-92715702D01*
X111868691Y-92753476D01*
X111856542Y-92756388D01*
X111800116Y-92766935D01*
X111683802Y-92788679D01*
X111683800Y-92788679D01*
X111683798Y-92788680D01*
X111484982Y-92865701D01*
X111484980Y-92865702D01*
X111303699Y-92977947D01*
X111146127Y-93121593D01*
X111017632Y-93291746D01*
X110922596Y-93482605D01*
X110922596Y-93482607D01*
X110864244Y-93687689D01*
X110844570Y-93899999D01*
X110844570Y-93900000D01*
X110864244Y-94112310D01*
X110922596Y-94317392D01*
X110922596Y-94317394D01*
X111017632Y-94508253D01*
X111070251Y-94577931D01*
X111146128Y-94678407D01*
X111303698Y-94822052D01*
X111484981Y-94934298D01*
X111513961Y-94945525D01*
X111569362Y-94988095D01*
X111592954Y-95053861D01*
X111577244Y-95121942D01*
X111527222Y-95170722D01*
X111521573Y-95173533D01*
X111322422Y-95266399D01*
X111322420Y-95266400D01*
X111128926Y-95401886D01*
X111128920Y-95401891D01*
X110961891Y-95568920D01*
X110961886Y-95568926D01*
X110826400Y-95762420D01*
X110826399Y-95762422D01*
X110726570Y-95976507D01*
X110726567Y-95976513D01*
X110669364Y-96189999D01*
X110669364Y-96190000D01*
X111566314Y-96190000D01*
X111540507Y-96230156D01*
X111500000Y-96368111D01*
X111500000Y-96511889D01*
X111540507Y-96649844D01*
X111566314Y-96690000D01*
X110669364Y-96690000D01*
X108600500Y-96690000D01*
X108600500Y-87630003D01*
X141423928Y-87630003D01*
X141444200Y-87978055D01*
X141444201Y-87978066D01*
X141504737Y-88321385D01*
X141504739Y-88321394D01*
X141504741Y-88321403D01*
X141562211Y-88513365D01*
X141604734Y-88655402D01*
X141742821Y-88975523D01*
X141742827Y-88975536D01*
X141917147Y-89277468D01*
X142125340Y-89557120D01*
X142125345Y-89557126D01*
X142248909Y-89688096D01*
X142364598Y-89810719D01*
X142470808Y-89899839D01*
X142631673Y-90034821D01*
X142631681Y-90034827D01*
X142922960Y-90226405D01*
X143234516Y-90382874D01*
X143234517Y-90382875D01*
X143234520Y-90382876D01*
X143234524Y-90382878D01*
X143562143Y-90502122D01*
X143742208Y-90544798D01*
X143901374Y-90582522D01*
X143901381Y-90582523D01*
X143901390Y-90582525D01*
X144247678Y-90623000D01*
X144247685Y-90623000D01*
X144596315Y-90623000D01*
X144596322Y-90623000D01*
X144942610Y-90582525D01*
X144942619Y-90582522D01*
X144942625Y-90582522D01*
X145054164Y-90556086D01*
X145281857Y-90502122D01*
X145609476Y-90382878D01*
X145921036Y-90226407D01*
X146212324Y-90034823D01*
X146479402Y-89810719D01*
X146718656Y-89557124D01*
X146926853Y-89277467D01*
X147101175Y-88975532D01*
X147239266Y-88655401D01*
X147339259Y-88321403D01*
X147399800Y-87978055D01*
X147420072Y-87630000D01*
X147399800Y-87281945D01*
X147398830Y-87276446D01*
X147339262Y-86938614D01*
X147339260Y-86938605D01*
X147339259Y-86938597D01*
X147239266Y-86604599D01*
X147101175Y-86284468D01*
X146926853Y-85982533D01*
X146926852Y-85982531D01*
X146718659Y-85702879D01*
X146718654Y-85702873D01*
X146636780Y-85616092D01*
X146605092Y-85553821D01*
X146612102Y-85484304D01*
X146655582Y-85429612D01*
X146721729Y-85407109D01*
X146763864Y-85412613D01*
X146921931Y-85461868D01*
X146992528Y-85483867D01*
X147304952Y-85541121D01*
X147622000Y-85560299D01*
X147939048Y-85541121D01*
X148251472Y-85483867D01*
X148554717Y-85389372D01*
X148633882Y-85353742D01*
X148703091Y-85344179D01*
X148766486Y-85373552D01*
X148803938Y-85432536D01*
X148807422Y-85461868D01*
X149715121Y-86369567D01*
X149687820Y-86386832D01*
X149500499Y-86552784D01*
X149361488Y-86723041D01*
X148452223Y-85813777D01*
X148257744Y-86075010D01*
X148093211Y-86359988D01*
X148093205Y-86360001D01*
X147962869Y-86662154D01*
X147868487Y-86977414D01*
X147868485Y-86977423D01*
X147811347Y-87301470D01*
X147811346Y-87301481D01*
X147792212Y-87629996D01*
X147792212Y-87630003D01*
X147811346Y-87958518D01*
X147811347Y-87958529D01*
X147868485Y-88282576D01*
X147868487Y-88282585D01*
X147962869Y-88597845D01*
X148093205Y-88899998D01*
X148093211Y-88900011D01*
X148257744Y-89184989D01*
X148257751Y-89185001D01*
X148452222Y-89446221D01*
X148452223Y-89446222D01*
X149363350Y-88535094D01*
X149417456Y-88613480D01*
X149590816Y-88793966D01*
X149716865Y-88888686D01*
X148809034Y-89796517D01*
X148809035Y-89796518D01*
X148932160Y-89899833D01*
X149207109Y-90080669D01*
X149501170Y-90228354D01*
X149501176Y-90228356D01*
X149810395Y-90340902D01*
X149810416Y-90340909D01*
X150130596Y-90416794D01*
X150130611Y-90416796D01*
X150457468Y-90454999D01*
X150457469Y-90455000D01*
X150786531Y-90455000D01*
X150786531Y-90454999D01*
X151113388Y-90416796D01*
X151113403Y-90416794D01*
X151433583Y-90340909D01*
X151433604Y-90340902D01*
X151742823Y-90228356D01*
X151742829Y-90228354D01*
X152036890Y-90080669D01*
X152311829Y-89899840D01*
X152311831Y-89899839D01*
X152434963Y-89796518D01*
X152434964Y-89796517D01*
X151528879Y-88890431D01*
X151556180Y-88873168D01*
X151743501Y-88707216D01*
X151882511Y-88536958D01*
X152791776Y-89446222D01*
X152986252Y-89184995D01*
X153150788Y-88900011D01*
X153150794Y-88899998D01*
X153281130Y-88597845D01*
X153375512Y-88282585D01*
X153375514Y-88282576D01*
X153432652Y-87958529D01*
X153432653Y-87958518D01*
X153451788Y-87630003D01*
X153451788Y-87629996D01*
X153432653Y-87301481D01*
X153432652Y-87301470D01*
X153375514Y-86977423D01*
X153375512Y-86977414D01*
X153281130Y-86662154D01*
X153150794Y-86360001D01*
X153150788Y-86359988D01*
X152986255Y-86075010D01*
X152986248Y-86074998D01*
X152791776Y-85813777D01*
X152791775Y-85813777D01*
X151880648Y-86724904D01*
X151826544Y-86646520D01*
X151653184Y-86466034D01*
X151527133Y-86371312D01*
X152434964Y-85463481D01*
X152434963Y-85463480D01*
X152311839Y-85360166D01*
X152036890Y-85179330D01*
X151742829Y-85031645D01*
X151742823Y-85031643D01*
X151433604Y-84919097D01*
X151433583Y-84919090D01*
X151113403Y-84843205D01*
X151113388Y-84843203D01*
X150786531Y-84805000D01*
X150457469Y-84805000D01*
X150130611Y-84843203D01*
X150130596Y-84843205D01*
X149810416Y-84919090D01*
X149810395Y-84919097D01*
X149605720Y-84993592D01*
X149535991Y-84998023D01*
X149474935Y-84964052D01*
X149441938Y-84902465D01*
X149447476Y-84832816D01*
X149475627Y-84789390D01*
X149590807Y-84674211D01*
X149786694Y-84424180D01*
X149951014Y-84152361D01*
X150081372Y-83862717D01*
X150175867Y-83559472D01*
X150233121Y-83247048D01*
X150252299Y-82930000D01*
X150233121Y-82612952D01*
X150175867Y-82300528D01*
X150098492Y-82052222D01*
X150081378Y-81997301D01*
X150081374Y-81997290D01*
X150081372Y-81997283D01*
X149951014Y-81707639D01*
X149786694Y-81435820D01*
X149705247Y-81331861D01*
X149590804Y-81185785D01*
X149366214Y-80961195D01*
X149116186Y-80765310D01*
X149116178Y-80765304D01*
X148929306Y-80652337D01*
X148844361Y-80600986D01*
X148554717Y-80470628D01*
X148554712Y-80470626D01*
X148554709Y-80470625D01*
X148554698Y-80470621D01*
X148251480Y-80376135D01*
X148251476Y-80376134D01*
X148251472Y-80376133D01*
X147939048Y-80318879D01*
X147939047Y-80318878D01*
X147939042Y-80318878D01*
X147622000Y-80299701D01*
X147304957Y-80318878D01*
X147304951Y-80318879D01*
X147304952Y-80318879D01*
X146992528Y-80376133D01*
X146992525Y-80376133D01*
X146992519Y-80376135D01*
X146689301Y-80470621D01*
X146689290Y-80470625D01*
X146399643Y-80600984D01*
X146399641Y-80600985D01*
X146127821Y-80765304D01*
X146127813Y-80765310D01*
X145877785Y-80961195D01*
X145653195Y-81185785D01*
X145457310Y-81435813D01*
X145457304Y-81435821D01*
X145292985Y-81707641D01*
X145292984Y-81707643D01*
X145162625Y-81997290D01*
X145162621Y-81997301D01*
X145068135Y-82300519D01*
X145068133Y-82300525D01*
X145068133Y-82300528D01*
X145031578Y-82500000D01*
X145010878Y-82612957D01*
X144991701Y-82929999D01*
X145010878Y-83247042D01*
X145010878Y-83247047D01*
X145010879Y-83247048D01*
X145068133Y-83559472D01*
X145068134Y-83559476D01*
X145068135Y-83559480D01*
X145162621Y-83862698D01*
X145162625Y-83862709D01*
X145162626Y-83862712D01*
X145162628Y-83862717D01*
X145292986Y-84152361D01*
X145324922Y-84205189D01*
X145457304Y-84424178D01*
X145457310Y-84424186D01*
X145625644Y-84639047D01*
X145651493Y-84703959D01*
X145638145Y-84772541D01*
X145589837Y-84823020D01*
X145521906Y-84839369D01*
X145485623Y-84832042D01*
X145281869Y-84757882D01*
X145281864Y-84757880D01*
X145281857Y-84757878D01*
X145255113Y-84751539D01*
X144942625Y-84677477D01*
X144942610Y-84677475D01*
X144942609Y-84677474D01*
X144596322Y-84637000D01*
X144247678Y-84637000D01*
X143944675Y-84672415D01*
X143901389Y-84677475D01*
X143901374Y-84677477D01*
X143562151Y-84757876D01*
X143562143Y-84757878D01*
X143562141Y-84757878D01*
X143562136Y-84757880D01*
X143234517Y-84877124D01*
X143234516Y-84877125D01*
X142922960Y-85033594D01*
X142631681Y-85225172D01*
X142631673Y-85225178D01*
X142364598Y-85449281D01*
X142364596Y-85449283D01*
X142125345Y-85702873D01*
X142125340Y-85702879D01*
X141917147Y-85982531D01*
X141742827Y-86284463D01*
X141742821Y-86284476D01*
X141604734Y-86604597D01*
X141504739Y-86938605D01*
X141504737Y-86938614D01*
X141444201Y-87281933D01*
X141444200Y-87281944D01*
X141423928Y-87629996D01*
X141423928Y-87630003D01*
X108600500Y-87630003D01*
X108600500Y-87500000D01*
X115485000Y-87500000D01*
X115529000Y-85300000D01*
X129594355Y-85300000D01*
X129614859Y-85468869D01*
X129614860Y-85468874D01*
X129675182Y-85627931D01*
X129714497Y-85684887D01*
X129771817Y-85767929D01*
X129877505Y-85861560D01*
X129899150Y-85880736D01*
X130049773Y-85959789D01*
X130049775Y-85959790D01*
X130214944Y-86000500D01*
X130385056Y-86000500D01*
X130550225Y-85959790D01*
X130629692Y-85918081D01*
X130700849Y-85880736D01*
X130700850Y-85880734D01*
X130700852Y-85880734D01*
X130828183Y-85767929D01*
X130924818Y-85627930D01*
X130985140Y-85468872D01*
X131005645Y-85300000D01*
X131005645Y-85299999D01*
X132594355Y-85299999D01*
X132614859Y-85468869D01*
X132614860Y-85468874D01*
X132675182Y-85627931D01*
X132714497Y-85684887D01*
X132771817Y-85767929D01*
X132877505Y-85861560D01*
X132899150Y-85880736D01*
X133049773Y-85959789D01*
X133049775Y-85959790D01*
X133214944Y-86000500D01*
X133385056Y-86000500D01*
X133550225Y-85959790D01*
X133629692Y-85918081D01*
X133700849Y-85880736D01*
X133700850Y-85880734D01*
X133700852Y-85880734D01*
X133828183Y-85767929D01*
X133924818Y-85627930D01*
X133985140Y-85468872D01*
X134005645Y-85300000D01*
X133985140Y-85131128D01*
X133924818Y-84972070D01*
X133828183Y-84832071D01*
X133700852Y-84719266D01*
X133700849Y-84719263D01*
X133550226Y-84640210D01*
X133385056Y-84599500D01*
X133214944Y-84599500D01*
X133049773Y-84640210D01*
X132899150Y-84719263D01*
X132771816Y-84832072D01*
X132675182Y-84972068D01*
X132614860Y-85131125D01*
X132614859Y-85131130D01*
X132594355Y-85299999D01*
X131005645Y-85299999D01*
X130985140Y-85131128D01*
X130924818Y-84972070D01*
X130828183Y-84832071D01*
X130700852Y-84719266D01*
X130700849Y-84719263D01*
X130550226Y-84640210D01*
X130385056Y-84599500D01*
X130214944Y-84599500D01*
X130049773Y-84640210D01*
X129899150Y-84719263D01*
X129771816Y-84832072D01*
X129675182Y-84972068D01*
X129614860Y-85131125D01*
X129614859Y-85131130D01*
X129594355Y-85300000D01*
X115529000Y-85300000D01*
X115619654Y-80767306D01*
X126716828Y-80767306D01*
X126726613Y-80997662D01*
X126726614Y-80997670D01*
X126775190Y-81223062D01*
X126775190Y-81223063D01*
X126861157Y-81437002D01*
X126861159Y-81437006D01*
X126876481Y-81461890D01*
X126982048Y-81633342D01*
X127134380Y-81806425D01*
X127134384Y-81806429D01*
X127313765Y-81951269D01*
X127313766Y-81951270D01*
X127313769Y-81951271D01*
X127313772Y-81951274D01*
X127515063Y-82063721D01*
X127732462Y-82140533D01*
X127859272Y-82162277D01*
X127959706Y-82179499D01*
X127959715Y-82179500D01*
X128132540Y-82179500D01*
X128304734Y-82164844D01*
X128304737Y-82164843D01*
X128304739Y-82164843D01*
X128527869Y-82106745D01*
X128683249Y-82036509D01*
X128737965Y-82011776D01*
X128737967Y-82011775D01*
X128737967Y-82011774D01*
X128737971Y-82011773D01*
X128929000Y-81882659D01*
X129095462Y-81723119D01*
X129232566Y-81537742D01*
X129336370Y-81331860D01*
X129403886Y-81111397D01*
X129433172Y-80882694D01*
X129423386Y-80652332D01*
X129374810Y-80426938D01*
X129288841Y-80212994D01*
X129167951Y-80016657D01*
X129015620Y-79843575D01*
X129015619Y-79843574D01*
X129015615Y-79843570D01*
X128836234Y-79698730D01*
X128836233Y-79698729D01*
X128634938Y-79586279D01*
X128417541Y-79509468D01*
X128417540Y-79509467D01*
X128417538Y-79509467D01*
X128417534Y-79509466D01*
X128417533Y-79509466D01*
X128190293Y-79470500D01*
X128190285Y-79470500D01*
X128017465Y-79470500D01*
X128017460Y-79470500D01*
X127845265Y-79485155D01*
X127622131Y-79543254D01*
X127412034Y-79638223D01*
X127412032Y-79638224D01*
X127220999Y-79767342D01*
X127054540Y-79926878D01*
X126917434Y-80112257D01*
X126813630Y-80318138D01*
X126746113Y-80538606D01*
X126716828Y-80767306D01*
X115619654Y-80767306D01*
X115683537Y-77573141D01*
X115715240Y-77564088D01*
X115715240Y-77564087D01*
X115715243Y-77564087D01*
X115812241Y-77507553D01*
X115833390Y-77489282D01*
X115865108Y-77461883D01*
X115865114Y-77461877D01*
X115907361Y-77417205D01*
X115958397Y-77317204D01*
X115978182Y-77250194D01*
X115990686Y-77164145D01*
X115992284Y-76100000D01*
X123094355Y-76100000D01*
X123114859Y-76268869D01*
X123114860Y-76268874D01*
X123175182Y-76427931D01*
X123237475Y-76518177D01*
X123271817Y-76567929D01*
X123377505Y-76661560D01*
X123399150Y-76680736D01*
X123549773Y-76759789D01*
X123549775Y-76759790D01*
X123714944Y-76800500D01*
X123885056Y-76800500D01*
X124050225Y-76759790D01*
X124129692Y-76718081D01*
X124200849Y-76680736D01*
X124200850Y-76680734D01*
X124200852Y-76680734D01*
X124328183Y-76567929D01*
X124424818Y-76427930D01*
X124485140Y-76268872D01*
X124505645Y-76100000D01*
X124485140Y-75931128D01*
X124424818Y-75772070D01*
X124328183Y-75632071D01*
X124200852Y-75519266D01*
X124200849Y-75519263D01*
X124050226Y-75440210D01*
X123885056Y-75399500D01*
X123714944Y-75399500D01*
X123549773Y-75440210D01*
X123399150Y-75519263D01*
X123271816Y-75632072D01*
X123175182Y-75772068D01*
X123114860Y-75931125D01*
X123114859Y-75931130D01*
X123094355Y-76100000D01*
X115992284Y-76100000D01*
X115994462Y-74649999D01*
X117344355Y-74649999D01*
X117364859Y-74818869D01*
X117364860Y-74818874D01*
X117425182Y-74977931D01*
X117487475Y-75068177D01*
X117521817Y-75117929D01*
X117627505Y-75211560D01*
X117649150Y-75230736D01*
X117799773Y-75309789D01*
X117799775Y-75309790D01*
X117964944Y-75350500D01*
X118135056Y-75350500D01*
X118300225Y-75309790D01*
X118379692Y-75268081D01*
X118450849Y-75230736D01*
X118450850Y-75230734D01*
X118450852Y-75230734D01*
X118578183Y-75117929D01*
X118674818Y-74977930D01*
X118735140Y-74818872D01*
X118755645Y-74650000D01*
X118735140Y-74481128D01*
X118674818Y-74322070D01*
X118590558Y-74199999D01*
X137294355Y-74199999D01*
X137314859Y-74368869D01*
X137314860Y-74368874D01*
X137375182Y-74527931D01*
X137437475Y-74618177D01*
X137471817Y-74667929D01*
X137577505Y-74761560D01*
X137599150Y-74780736D01*
X137749773Y-74859789D01*
X137749775Y-74859790D01*
X137914944Y-74900500D01*
X138085056Y-74900500D01*
X138250225Y-74859790D01*
X138329692Y-74818081D01*
X138400849Y-74780736D01*
X138400850Y-74780734D01*
X138400852Y-74780734D01*
X138528183Y-74667929D01*
X138624818Y-74527930D01*
X138685140Y-74368872D01*
X138705645Y-74200000D01*
X138685140Y-74031128D01*
X138624818Y-73872070D01*
X138621958Y-73867927D01*
X138590476Y-73822318D01*
X138528183Y-73732071D01*
X138400852Y-73619266D01*
X138400849Y-73619263D01*
X138250226Y-73540210D01*
X138085056Y-73499500D01*
X137914944Y-73499500D01*
X137749773Y-73540210D01*
X137599150Y-73619263D01*
X137471816Y-73732072D01*
X137375182Y-73872068D01*
X137314860Y-74031125D01*
X137314859Y-74031130D01*
X137294355Y-74199999D01*
X118590558Y-74199999D01*
X118578183Y-74182071D01*
X118450852Y-74069266D01*
X118450849Y-74069263D01*
X118300226Y-73990210D01*
X118135056Y-73949500D01*
X117964944Y-73949500D01*
X117799773Y-73990210D01*
X117649150Y-74069263D01*
X117521816Y-74182072D01*
X117425182Y-74322068D01*
X117364860Y-74481125D01*
X117364859Y-74481130D01*
X117344355Y-74649999D01*
X115994462Y-74649999D01*
X115996339Y-73400000D01*
X139094355Y-73400000D01*
X139114859Y-73568869D01*
X139114860Y-73568874D01*
X139175182Y-73727931D01*
X139237475Y-73818177D01*
X139271817Y-73867929D01*
X139363892Y-73949500D01*
X139399150Y-73980736D01*
X139549773Y-74059789D01*
X139549775Y-74059790D01*
X139714944Y-74100500D01*
X139885056Y-74100500D01*
X140050225Y-74059790D01*
X140129692Y-74018081D01*
X140200849Y-73980736D01*
X140200850Y-73980734D01*
X140200852Y-73980734D01*
X140328183Y-73867929D01*
X140424818Y-73727930D01*
X140485140Y-73568872D01*
X140505645Y-73400000D01*
X140485140Y-73231128D01*
X140424818Y-73072070D01*
X140328183Y-72932071D01*
X140200852Y-72819266D01*
X140200849Y-72819263D01*
X140050226Y-72740210D01*
X139885056Y-72699500D01*
X139714944Y-72699500D01*
X139549773Y-72740210D01*
X139399150Y-72819263D01*
X139271816Y-72932072D01*
X139175182Y-73072068D01*
X139114860Y-73231125D01*
X139114859Y-73231130D01*
X139094355Y-73400000D01*
X115996339Y-73400000D01*
X115998066Y-72249999D01*
X154194355Y-72249999D01*
X154214859Y-72418869D01*
X154214860Y-72418874D01*
X154275182Y-72577931D01*
X154337475Y-72668177D01*
X154371817Y-72717929D01*
X154477505Y-72811560D01*
X154499150Y-72830736D01*
X154649773Y-72909789D01*
X154649775Y-72909790D01*
X154814944Y-72950500D01*
X154985056Y-72950500D01*
X155150225Y-72909790D01*
X155229692Y-72868081D01*
X155300849Y-72830736D01*
X155300850Y-72830734D01*
X155300852Y-72830734D01*
X155428183Y-72717929D01*
X155524818Y-72577930D01*
X155585140Y-72418872D01*
X155605645Y-72250000D01*
X155585140Y-72081128D01*
X155524818Y-71922070D01*
X155428183Y-71782071D01*
X155412092Y-71767816D01*
X155374965Y-71708628D01*
X155375731Y-71638763D01*
X155412093Y-71582183D01*
X155428183Y-71567929D01*
X155524818Y-71427930D01*
X155585140Y-71268872D01*
X155605645Y-71100000D01*
X155585140Y-70931128D01*
X155524818Y-70772070D01*
X155502826Y-70740210D01*
X155474726Y-70699500D01*
X155428183Y-70632071D01*
X155300852Y-70519266D01*
X155300849Y-70519263D01*
X155150226Y-70440210D01*
X154985056Y-70399500D01*
X154814944Y-70399500D01*
X154649773Y-70440210D01*
X154499150Y-70519263D01*
X154371816Y-70632072D01*
X154275182Y-70772068D01*
X154214860Y-70931125D01*
X154214859Y-70931130D01*
X154194355Y-71099999D01*
X154214859Y-71268869D01*
X154214860Y-71268874D01*
X154275182Y-71427931D01*
X154371817Y-71567928D01*
X154371817Y-71567929D01*
X154387906Y-71582183D01*
X154425034Y-71641370D01*
X154424268Y-71711236D01*
X154387911Y-71767812D01*
X154371819Y-71782068D01*
X154371815Y-71782073D01*
X154275182Y-71922068D01*
X154214860Y-72081125D01*
X154214859Y-72081130D01*
X154194355Y-72249999D01*
X115998066Y-72249999D01*
X115999343Y-71399999D01*
X120694355Y-71399999D01*
X120714859Y-71568869D01*
X120714860Y-71568874D01*
X120775182Y-71727931D01*
X120802714Y-71767817D01*
X120871817Y-71867929D01*
X120932928Y-71922068D01*
X120999150Y-71980736D01*
X121149773Y-72059789D01*
X121149775Y-72059790D01*
X121314944Y-72100500D01*
X121485056Y-72100500D01*
X121650225Y-72059790D01*
X121729692Y-72018081D01*
X121800849Y-71980736D01*
X121800850Y-71980734D01*
X121800852Y-71980734D01*
X121928183Y-71867929D01*
X122024818Y-71727930D01*
X122085140Y-71568872D01*
X122105645Y-71400000D01*
X122085140Y-71231128D01*
X122024818Y-71072070D01*
X121928183Y-70932071D01*
X121800852Y-70819266D01*
X121800849Y-70819263D01*
X121650226Y-70740210D01*
X121485056Y-70699500D01*
X121314944Y-70699500D01*
X121149773Y-70740210D01*
X120999150Y-70819263D01*
X120882638Y-70922484D01*
X120872882Y-70931128D01*
X120871816Y-70932072D01*
X120775182Y-71072068D01*
X120714860Y-71231125D01*
X120714859Y-71231130D01*
X120694355Y-71399999D01*
X115999343Y-71399999D01*
X116002722Y-69150000D01*
X134794355Y-69150000D01*
X134814859Y-69318869D01*
X134814860Y-69318874D01*
X134875182Y-69477931D01*
X134937475Y-69568177D01*
X134971817Y-69617929D01*
X135077505Y-69711560D01*
X135099150Y-69730736D01*
X135231122Y-69800000D01*
X135249775Y-69809790D01*
X135414944Y-69850500D01*
X135585056Y-69850500D01*
X135750225Y-69809790D01*
X135768878Y-69800000D01*
X141694355Y-69800000D01*
X141714859Y-69968869D01*
X141714860Y-69968874D01*
X141775182Y-70127931D01*
X141837475Y-70218177D01*
X141871817Y-70267929D01*
X141977505Y-70361560D01*
X141999150Y-70380736D01*
X142149773Y-70459789D01*
X142149775Y-70459790D01*
X142314944Y-70500500D01*
X142485056Y-70500500D01*
X142650225Y-70459790D01*
X142765097Y-70399500D01*
X142800849Y-70380736D01*
X142800850Y-70380734D01*
X142800852Y-70380734D01*
X142928183Y-70267929D01*
X143024818Y-70127930D01*
X143085140Y-69968872D01*
X143105645Y-69800000D01*
X143085140Y-69631128D01*
X143024818Y-69472070D01*
X142928183Y-69332071D01*
X142800852Y-69219266D01*
X142800849Y-69219263D01*
X142650226Y-69140210D01*
X142485056Y-69099500D01*
X142314944Y-69099500D01*
X142149773Y-69140210D01*
X141999150Y-69219263D01*
X141871816Y-69332072D01*
X141775182Y-69472068D01*
X141714860Y-69631125D01*
X141714859Y-69631130D01*
X141694355Y-69800000D01*
X135768878Y-69800000D01*
X135829692Y-69768081D01*
X135900849Y-69730736D01*
X135900850Y-69730734D01*
X135900852Y-69730734D01*
X136028183Y-69617929D01*
X136124818Y-69477930D01*
X136185140Y-69318872D01*
X136205645Y-69150000D01*
X136185140Y-68981128D01*
X136124818Y-68822070D01*
X136028183Y-68682071D01*
X135900852Y-68569266D01*
X135900849Y-68569263D01*
X135750226Y-68490210D01*
X135585056Y-68449500D01*
X135414944Y-68449500D01*
X135249773Y-68490210D01*
X135099150Y-68569263D01*
X134971816Y-68682072D01*
X134875182Y-68822068D01*
X134814860Y-68981125D01*
X134814859Y-68981130D01*
X134794355Y-69150000D01*
X116002722Y-69150000D01*
X116005313Y-67424645D01*
X115998379Y-67359468D01*
X115987173Y-67307771D01*
X115976167Y-67269342D01*
X115964854Y-67249999D01*
X118044355Y-67249999D01*
X118064859Y-67418869D01*
X118064860Y-67418874D01*
X118125182Y-67577931D01*
X118187475Y-67668177D01*
X118221817Y-67717929D01*
X118327505Y-67811560D01*
X118349150Y-67830736D01*
X118499773Y-67909789D01*
X118499775Y-67909790D01*
X118664944Y-67950500D01*
X118835056Y-67950500D01*
X119000225Y-67909790D01*
X119079692Y-67868081D01*
X119150849Y-67830736D01*
X119150850Y-67830734D01*
X119150852Y-67830734D01*
X119278183Y-67717929D01*
X119374818Y-67577930D01*
X119435140Y-67418872D01*
X119455645Y-67250000D01*
X119435140Y-67081128D01*
X119374818Y-66922070D01*
X119374777Y-66922011D01*
X119337447Y-66867929D01*
X119278183Y-66782071D01*
X119150852Y-66669266D01*
X119150849Y-66669263D01*
X119000226Y-66590210D01*
X118837081Y-66549999D01*
X123994355Y-66549999D01*
X124014859Y-66718869D01*
X124014860Y-66718874D01*
X124075182Y-66877931D01*
X124137475Y-66968177D01*
X124171817Y-67017929D01*
X124265021Y-67100500D01*
X124299150Y-67130736D01*
X124449773Y-67209789D01*
X124449775Y-67209790D01*
X124614944Y-67250500D01*
X124785056Y-67250500D01*
X124950225Y-67209790D01*
X125029692Y-67168081D01*
X125100849Y-67130736D01*
X125100850Y-67130734D01*
X125100852Y-67130734D01*
X125228183Y-67017929D01*
X125324818Y-66877930D01*
X125385140Y-66718872D01*
X125405645Y-66550000D01*
X125385140Y-66381128D01*
X125324818Y-66222070D01*
X125240558Y-66099999D01*
X130094355Y-66099999D01*
X130114859Y-66268869D01*
X130114860Y-66268874D01*
X130175182Y-66427931D01*
X130237475Y-66518177D01*
X130271817Y-66567929D01*
X130377505Y-66661560D01*
X130399150Y-66680736D01*
X130489071Y-66727930D01*
X130549775Y-66759790D01*
X130714944Y-66800500D01*
X130885056Y-66800500D01*
X131050225Y-66759790D01*
X131129692Y-66718081D01*
X131200849Y-66680736D01*
X131200850Y-66680734D01*
X131200852Y-66680734D01*
X131328183Y-66567929D01*
X131424818Y-66427930D01*
X131435410Y-66400000D01*
X141944355Y-66400000D01*
X141964859Y-66568869D01*
X141964860Y-66568874D01*
X142025182Y-66727931D01*
X142062553Y-66782071D01*
X142121817Y-66867929D01*
X142182928Y-66922068D01*
X142249150Y-66980736D01*
X142399773Y-67059789D01*
X142399775Y-67059790D01*
X142564944Y-67100500D01*
X142735056Y-67100500D01*
X142900225Y-67059790D01*
X142985846Y-67014852D01*
X143050849Y-66980736D01*
X143050850Y-66980734D01*
X143050852Y-66980734D01*
X143178183Y-66867929D01*
X143274818Y-66727930D01*
X143335140Y-66568872D01*
X143355645Y-66400000D01*
X143335140Y-66231128D01*
X143274818Y-66072070D01*
X143178183Y-65932071D01*
X143050852Y-65819266D01*
X143050849Y-65819263D01*
X142900226Y-65740210D01*
X142735056Y-65699500D01*
X142564944Y-65699500D01*
X142399773Y-65740210D01*
X142249150Y-65819263D01*
X142169068Y-65890210D01*
X142122882Y-65931128D01*
X142121816Y-65932072D01*
X142025182Y-66072068D01*
X141964860Y-66231125D01*
X141964859Y-66231130D01*
X141944355Y-66400000D01*
X131435410Y-66400000D01*
X131485140Y-66268872D01*
X131505645Y-66100000D01*
X131485140Y-65931128D01*
X131424818Y-65772070D01*
X131402826Y-65740210D01*
X131374726Y-65699500D01*
X131328183Y-65632071D01*
X131200852Y-65519266D01*
X131200849Y-65519263D01*
X131050226Y-65440210D01*
X130885056Y-65399500D01*
X130714944Y-65399500D01*
X130549773Y-65440210D01*
X130399150Y-65519263D01*
X130271816Y-65632072D01*
X130175182Y-65772068D01*
X130114860Y-65931125D01*
X130114859Y-65931130D01*
X130094355Y-66099999D01*
X125240558Y-66099999D01*
X125228183Y-66082071D01*
X125100852Y-65969266D01*
X125100849Y-65969263D01*
X124950226Y-65890210D01*
X124785056Y-65849500D01*
X124614944Y-65849500D01*
X124449773Y-65890210D01*
X124299150Y-65969263D01*
X124171816Y-66082072D01*
X124075182Y-66222068D01*
X124014860Y-66381125D01*
X124014859Y-66381130D01*
X123994355Y-66549999D01*
X118837081Y-66549999D01*
X118835056Y-66549500D01*
X118664944Y-66549500D01*
X118499773Y-66590210D01*
X118349150Y-66669263D01*
X118221816Y-66782072D01*
X118125182Y-66922068D01*
X118064860Y-67081125D01*
X118064859Y-67081130D01*
X118044355Y-67249999D01*
X115964854Y-67249999D01*
X115919488Y-67172429D01*
X115873733Y-67119625D01*
X115873731Y-67119623D01*
X115873721Y-67119612D01*
X115829005Y-67077451D01*
X115829002Y-67077449D01*
X115829000Y-67077447D01*
X115728924Y-67026561D01*
X115728923Y-67026560D01*
X115728922Y-67026560D01*
X115661891Y-67006877D01*
X115661885Y-67006876D01*
X115575813Y-66994500D01*
X108724500Y-66994500D01*
X108657461Y-66974815D01*
X108611706Y-66922011D01*
X108600500Y-66870500D01*
X108600500Y-64819960D01*
X128029500Y-64819960D01*
X128044630Y-64954249D01*
X128044631Y-64954254D01*
X128104211Y-65124523D01*
X128200184Y-65277262D01*
X128327738Y-65404816D01*
X128480478Y-65500789D01*
X128650745Y-65560367D01*
X128650745Y-65560368D01*
X128650750Y-65560369D01*
X128829996Y-65580565D01*
X128830000Y-65580565D01*
X128830004Y-65580565D01*
X129009249Y-65560369D01*
X129009252Y-65560368D01*
X129009255Y-65560368D01*
X129179522Y-65500789D01*
X129332262Y-65404816D01*
X129459816Y-65277262D01*
X129555789Y-65124522D01*
X129615368Y-64954255D01*
X129630500Y-64819954D01*
X129630500Y-64221468D01*
X129650185Y-64154430D01*
X129702989Y-64108675D01*
X129772147Y-64098731D01*
X129835703Y-64127756D01*
X129842186Y-64133792D01*
X129846689Y-64138295D01*
X129846696Y-64138304D01*
X129967750Y-64231192D01*
X130108720Y-64289584D01*
X130165370Y-64297042D01*
X130222019Y-64304500D01*
X130222020Y-64304500D01*
X130297981Y-64304500D01*
X130335746Y-64299528D01*
X130411280Y-64289584D01*
X130552250Y-64231192D01*
X130673304Y-64138304D01*
X130766192Y-64017250D01*
X130824584Y-63876280D01*
X130844500Y-63725001D01*
X135455500Y-63725001D01*
X135475415Y-63876278D01*
X135475416Y-63876280D01*
X135533806Y-64017247D01*
X135533807Y-64017249D01*
X135533808Y-64017250D01*
X135626696Y-64138304D01*
X135747750Y-64231192D01*
X135888720Y-64289584D01*
X135945370Y-64297042D01*
X136002019Y-64304500D01*
X136002020Y-64304500D01*
X136077981Y-64304500D01*
X136115746Y-64299528D01*
X136191280Y-64289584D01*
X136332250Y-64231192D01*
X136453304Y-64138304D01*
X136453307Y-64138299D01*
X136457819Y-64133789D01*
X136519142Y-64100304D01*
X136588834Y-64105288D01*
X136644767Y-64147160D01*
X136669184Y-64212624D01*
X136669500Y-64221470D01*
X136669500Y-64819960D01*
X136684630Y-64954249D01*
X136684631Y-64954254D01*
X136744211Y-65124523D01*
X136840184Y-65277262D01*
X136967738Y-65404816D01*
X137120478Y-65500789D01*
X137290745Y-65560367D01*
X137290745Y-65560368D01*
X137290750Y-65560369D01*
X137469996Y-65580565D01*
X137470000Y-65580565D01*
X137470004Y-65580565D01*
X137649249Y-65560369D01*
X137649252Y-65560368D01*
X137649255Y-65560368D01*
X137819522Y-65500789D01*
X137972262Y-65404816D01*
X138099816Y-65277262D01*
X138195789Y-65124522D01*
X138255368Y-64954255D01*
X138270500Y-64819954D01*
X138270500Y-63630046D01*
X138262582Y-63559773D01*
X138255369Y-63495750D01*
X138255368Y-63495745D01*
X138227688Y-63416641D01*
X138195789Y-63325478D01*
X138187130Y-63311698D01*
X138156582Y-63263080D01*
X138099816Y-63172738D01*
X137972262Y-63045184D01*
X137878363Y-62986183D01*
X137819523Y-62949211D01*
X137649254Y-62889631D01*
X137649249Y-62889630D01*
X137470004Y-62869435D01*
X137469996Y-62869435D01*
X137290750Y-62889630D01*
X137290745Y-62889631D01*
X137120476Y-62949211D01*
X136967737Y-63045184D01*
X136840184Y-63172737D01*
X136744208Y-63325481D01*
X136732176Y-63359866D01*
X136691453Y-63416641D01*
X136626500Y-63442386D01*
X136557939Y-63428928D01*
X136516760Y-63394394D01*
X136453305Y-63311697D01*
X136332247Y-63218806D01*
X136191280Y-63160416D01*
X136191278Y-63160415D01*
X136077981Y-63145500D01*
X136077980Y-63145500D01*
X136002020Y-63145500D01*
X136002019Y-63145500D01*
X135888721Y-63160415D01*
X135888719Y-63160416D01*
X135747752Y-63218806D01*
X135626696Y-63311696D01*
X135533806Y-63432752D01*
X135475416Y-63573719D01*
X135475415Y-63573721D01*
X135455500Y-63724998D01*
X135455500Y-63725001D01*
X130844500Y-63725001D01*
X130844500Y-63725000D01*
X130839582Y-63687646D01*
X130824584Y-63573721D01*
X130824584Y-63573720D01*
X130779420Y-63464686D01*
X130766193Y-63432752D01*
X130766192Y-63432751D01*
X130766192Y-63432750D01*
X130673304Y-63311696D01*
X130552250Y-63218808D01*
X130552249Y-63218807D01*
X130552247Y-63218806D01*
X130411280Y-63160416D01*
X130411278Y-63160415D01*
X130297981Y-63145500D01*
X130297980Y-63145500D01*
X130222020Y-63145500D01*
X130222019Y-63145500D01*
X130108721Y-63160415D01*
X130108719Y-63160416D01*
X129967752Y-63218806D01*
X129907222Y-63265252D01*
X129846696Y-63311696D01*
X129846695Y-63311697D01*
X129846694Y-63311698D01*
X129783238Y-63394395D01*
X129726810Y-63435597D01*
X129657064Y-63439752D01*
X129596144Y-63405539D01*
X129567822Y-63359863D01*
X129555790Y-63325480D01*
X129555789Y-63325478D01*
X129459816Y-63172738D01*
X129332262Y-63045184D01*
X129238363Y-62986183D01*
X129179523Y-62949211D01*
X129009254Y-62889631D01*
X129009249Y-62889630D01*
X128830004Y-62869435D01*
X128829996Y-62869435D01*
X128650750Y-62889630D01*
X128650745Y-62889631D01*
X128480476Y-62949211D01*
X128327737Y-63045184D01*
X128200184Y-63172737D01*
X128104211Y-63325476D01*
X128044631Y-63495745D01*
X128044630Y-63495750D01*
X128029500Y-63630039D01*
X128029500Y-64819960D01*
X108600500Y-64819960D01*
X108600500Y-60801530D01*
X108600538Y-60800003D01*
X109394415Y-60800003D01*
X109414738Y-61148927D01*
X109414739Y-61148938D01*
X109475428Y-61493127D01*
X109475430Y-61493134D01*
X109575674Y-61827972D01*
X109714107Y-62148895D01*
X109714113Y-62148908D01*
X109888870Y-62451597D01*
X110097584Y-62731949D01*
X110097589Y-62731955D01*
X110221463Y-62863253D01*
X110337442Y-62986183D01*
X110407757Y-63045184D01*
X110605186Y-63210847D01*
X110605194Y-63210853D01*
X110897203Y-63402911D01*
X110970559Y-63439752D01*
X111209549Y-63559777D01*
X111537989Y-63679319D01*
X111878086Y-63759923D01*
X112225241Y-63800500D01*
X112225248Y-63800500D01*
X112574752Y-63800500D01*
X112574759Y-63800500D01*
X112921914Y-63759923D01*
X113262011Y-63679319D01*
X113590451Y-63559777D01*
X113902793Y-63402913D01*
X114194811Y-63210849D01*
X114462558Y-62986183D01*
X114702412Y-62731953D01*
X114911130Y-62451596D01*
X115085889Y-62148904D01*
X115224326Y-61827971D01*
X115324569Y-61493136D01*
X115327313Y-61477578D01*
X115385260Y-61148938D01*
X115385259Y-61148938D01*
X115385262Y-61148927D01*
X115405585Y-60800000D01*
X115387527Y-60489960D01*
X128029500Y-60489960D01*
X128044630Y-60624249D01*
X128044631Y-60624254D01*
X128104211Y-60794523D01*
X128108614Y-60801530D01*
X128200184Y-60947262D01*
X128327738Y-61074816D01*
X128480478Y-61170789D01*
X128650745Y-61230368D01*
X128650750Y-61230369D01*
X128829996Y-61250565D01*
X128830000Y-61250565D01*
X128830004Y-61250565D01*
X129009249Y-61230369D01*
X129009252Y-61230368D01*
X129009255Y-61230368D01*
X129179522Y-61170789D01*
X129332262Y-61074816D01*
X129459816Y-60947262D01*
X129555789Y-60794522D01*
X129615368Y-60624255D01*
X129617448Y-60605799D01*
X129630499Y-60489960D01*
X136669500Y-60489960D01*
X136684630Y-60624249D01*
X136684631Y-60624254D01*
X136744211Y-60794523D01*
X136748614Y-60801530D01*
X136840184Y-60947262D01*
X136967738Y-61074816D01*
X137120478Y-61170789D01*
X137290745Y-61230368D01*
X137290750Y-61230369D01*
X137469996Y-61250565D01*
X137470000Y-61250565D01*
X137470004Y-61250565D01*
X137649249Y-61230369D01*
X137649252Y-61230368D01*
X137649255Y-61230368D01*
X137819522Y-61170789D01*
X137972262Y-61074816D01*
X138099816Y-60947262D01*
X138192347Y-60800000D01*
X152194958Y-60800000D01*
X152215110Y-61158846D01*
X152215112Y-61158858D01*
X152275314Y-61513185D01*
X152275316Y-61513194D01*
X152374812Y-61858552D01*
X152512353Y-62190609D01*
X152512355Y-62190613D01*
X152686215Y-62505189D01*
X152686218Y-62505194D01*
X152894193Y-62798306D01*
X152966843Y-62879601D01*
X154285072Y-61561371D01*
X154361890Y-61671078D01*
X154528922Y-61838110D01*
X154638626Y-61914925D01*
X153320397Y-63233155D01*
X153401693Y-63305806D01*
X153694805Y-63513781D01*
X153694810Y-63513784D01*
X154009386Y-63687644D01*
X154009390Y-63687646D01*
X154341447Y-63825187D01*
X154686805Y-63924683D01*
X154686814Y-63924685D01*
X155041141Y-63984887D01*
X155041153Y-63984889D01*
X155399999Y-64005041D01*
X155758846Y-63984889D01*
X155758858Y-63984887D01*
X156113185Y-63924685D01*
X156113194Y-63924683D01*
X156458552Y-63825187D01*
X156790609Y-63687646D01*
X156790613Y-63687644D01*
X157105189Y-63513784D01*
X157105194Y-63513781D01*
X157398306Y-63305806D01*
X157479601Y-63233155D01*
X156161373Y-61914925D01*
X156271078Y-61838110D01*
X156438110Y-61671078D01*
X156514926Y-61561373D01*
X157833155Y-62879601D01*
X157905806Y-62798306D01*
X158113781Y-62505194D01*
X158113784Y-62505189D01*
X158287644Y-62190613D01*
X158287646Y-62190609D01*
X158425187Y-61858552D01*
X158524683Y-61513194D01*
X158524685Y-61513185D01*
X158584887Y-61158858D01*
X158584889Y-61158846D01*
X158605041Y-60800000D01*
X158584889Y-60441153D01*
X158584887Y-60441141D01*
X158524685Y-60086814D01*
X158524683Y-60086805D01*
X158425187Y-59741447D01*
X158287646Y-59409390D01*
X158287644Y-59409386D01*
X158113784Y-59094810D01*
X158113781Y-59094805D01*
X157905806Y-58801693D01*
X157833155Y-58720397D01*
X156514925Y-60038626D01*
X156438110Y-59928922D01*
X156271078Y-59761890D01*
X156161372Y-59685073D01*
X157479602Y-58366843D01*
X157398306Y-58294193D01*
X157105194Y-58086218D01*
X157105189Y-58086215D01*
X156790613Y-57912355D01*
X156790609Y-57912353D01*
X156458552Y-57774812D01*
X156113194Y-57675316D01*
X156113185Y-57675314D01*
X155758858Y-57615112D01*
X155758846Y-57615110D01*
X155399999Y-57594958D01*
X155041153Y-57615110D01*
X155041141Y-57615112D01*
X154686814Y-57675314D01*
X154686805Y-57675316D01*
X154341447Y-57774812D01*
X154009390Y-57912353D01*
X154009386Y-57912355D01*
X153694810Y-58086215D01*
X153694805Y-58086218D01*
X153401693Y-58294194D01*
X153401685Y-58294199D01*
X153320397Y-58366842D01*
X153320397Y-58366843D01*
X154638627Y-59685073D01*
X154528922Y-59761890D01*
X154361890Y-59928922D01*
X154285073Y-60038626D01*
X152966843Y-58720396D01*
X152966842Y-58720397D01*
X152894199Y-58801685D01*
X152894194Y-58801693D01*
X152686218Y-59094805D01*
X152686215Y-59094810D01*
X152512355Y-59409386D01*
X152512353Y-59409390D01*
X152374812Y-59741447D01*
X152275316Y-60086805D01*
X152275314Y-60086814D01*
X152215112Y-60441141D01*
X152215110Y-60441153D01*
X152194958Y-60800000D01*
X138192347Y-60800000D01*
X138195789Y-60794522D01*
X138255368Y-60624255D01*
X138257448Y-60605799D01*
X138270499Y-60489960D01*
X138270500Y-60489956D01*
X138270500Y-59600043D01*
X138270499Y-59600039D01*
X138255369Y-59465750D01*
X138255368Y-59465745D01*
X138249859Y-59450000D01*
X138195789Y-59295478D01*
X138099816Y-59142738D01*
X137972262Y-59015184D01*
X137958136Y-59006308D01*
X137819523Y-58919211D01*
X137649254Y-58859631D01*
X137649249Y-58859630D01*
X137470004Y-58839435D01*
X137469996Y-58839435D01*
X137290750Y-58859630D01*
X137290745Y-58859631D01*
X137120476Y-58919211D01*
X136967737Y-59015184D01*
X136840184Y-59142737D01*
X136744211Y-59295476D01*
X136684631Y-59465745D01*
X136684630Y-59465750D01*
X136669500Y-59600039D01*
X136669500Y-60489960D01*
X129630499Y-60489960D01*
X129630500Y-60489956D01*
X129630500Y-59600043D01*
X129630499Y-59600039D01*
X129615369Y-59465750D01*
X129615368Y-59465745D01*
X129609859Y-59450000D01*
X129555789Y-59295478D01*
X129459816Y-59142738D01*
X129332262Y-59015184D01*
X129318136Y-59006308D01*
X129179523Y-58919211D01*
X129009254Y-58859631D01*
X129009249Y-58859630D01*
X128830004Y-58839435D01*
X128829996Y-58839435D01*
X128650750Y-58859630D01*
X128650745Y-58859631D01*
X128480476Y-58919211D01*
X128327737Y-59015184D01*
X128200184Y-59142737D01*
X128104211Y-59295476D01*
X128044631Y-59465745D01*
X128044630Y-59465750D01*
X128029500Y-59600039D01*
X128029500Y-60489960D01*
X115387527Y-60489960D01*
X115385262Y-60451073D01*
X115380588Y-60424566D01*
X115324571Y-60106872D01*
X115324569Y-60106865D01*
X115318566Y-60086814D01*
X115224326Y-59772029D01*
X115085889Y-59451096D01*
X114911130Y-59148404D01*
X114906912Y-59142738D01*
X114702415Y-58868050D01*
X114702410Y-58868044D01*
X114533594Y-58689111D01*
X114462558Y-58613817D01*
X114235877Y-58423609D01*
X114194813Y-58389152D01*
X114194805Y-58389146D01*
X113902796Y-58197088D01*
X113590458Y-58040226D01*
X113590452Y-58040223D01*
X113262012Y-57920681D01*
X113262009Y-57920680D01*
X112921915Y-57840077D01*
X112878519Y-57835004D01*
X112574759Y-57799500D01*
X112225241Y-57799500D01*
X111921480Y-57835004D01*
X111878085Y-57840077D01*
X111878083Y-57840077D01*
X111537990Y-57920680D01*
X111537987Y-57920681D01*
X111209547Y-58040223D01*
X111209541Y-58040226D01*
X110897203Y-58197088D01*
X110605194Y-58389146D01*
X110605186Y-58389152D01*
X110337442Y-58613817D01*
X110337440Y-58613819D01*
X110097589Y-58868044D01*
X110097584Y-58868050D01*
X109888870Y-59148402D01*
X109714113Y-59451091D01*
X109714107Y-59451104D01*
X109575674Y-59772027D01*
X109475430Y-60106865D01*
X109475428Y-60106872D01*
X109414739Y-60451061D01*
X109414738Y-60451072D01*
X109394415Y-60799996D01*
X109394415Y-60800003D01*
X108600538Y-60800003D01*
X108600575Y-60798488D01*
X108618647Y-60430624D01*
X108619241Y-60424579D01*
X108673059Y-60061761D01*
X108674240Y-60055822D01*
X108763367Y-59700006D01*
X108765125Y-59694211D01*
X108888700Y-59348842D01*
X108891019Y-59343247D01*
X108983174Y-59148402D01*
X109047842Y-59011672D01*
X109050697Y-59006329D01*
X109239269Y-58691716D01*
X109242637Y-58686675D01*
X109461136Y-58392064D01*
X109464986Y-58387372D01*
X109711325Y-58115579D01*
X109715579Y-58111325D01*
X109987372Y-57864986D01*
X109992066Y-57861135D01*
X110286675Y-57642637D01*
X110291716Y-57639269D01*
X110606329Y-57450697D01*
X110611672Y-57447842D01*
X110943250Y-57291017D01*
X110948842Y-57288700D01*
X111294211Y-57165125D01*
X111300006Y-57163367D01*
X111655822Y-57074240D01*
X111661761Y-57073059D01*
X112024579Y-57019241D01*
X112030624Y-57018647D01*
X112398488Y-57000575D01*
X112401530Y-57000500D01*
X112439882Y-57000500D01*
X155360118Y-57000500D01*
X155398470Y-57000500D01*
X155401512Y-57000575D01*
G37*
%TD.AperFunction*%
%TD*%
M02*
