%TF.GenerationSoftware,KiCad,Pcbnew,7.0.6*%
%TF.CreationDate,2023-08-15T21:41:44+12:00*%
%TF.ProjectId,esp32c3-ev-board,65737033-3263-4332-9d65-762d626f6172,rev?*%
%TF.SameCoordinates,Original*%
%TF.FileFunction,Soldermask,Bot*%
%TF.FilePolarity,Negative*%
%FSLAX46Y46*%
G04 Gerber Fmt 4.6, Leading zero omitted, Abs format (unit mm)*
G04 Created by KiCad (PCBNEW 7.0.6) date 2023-08-15 21:41:44*
%MOMM*%
%LPD*%
G01*
G04 APERTURE LIST*
%ADD10O,1.000000X1.800000*%
%ADD11O,1.000000X2.100000*%
%ADD12C,0.650000*%
%ADD13R,1.700000X1.700000*%
%ADD14O,1.700000X1.700000*%
%ADD15C,5.400000*%
%ADD16C,2.200000*%
%ADD17C,5.385000*%
%ADD18C,4.650000*%
G04 APERTURE END LIST*
D10*
%TO.C,J5*%
X128830000Y-60045000D03*
D11*
X128830000Y-64225000D03*
D10*
X137470000Y-60045000D03*
D11*
X137470000Y-64225000D03*
D12*
X130260000Y-63725000D03*
X136040000Y-63725000D03*
%TD*%
D13*
%TO.C,Hall*%
X157100000Y-96060000D03*
D14*
X157100000Y-98600000D03*
X157100000Y-101140000D03*
%TD*%
D15*
%TO.C,H1*%
X155400000Y-60800000D03*
%TD*%
%TO.C,H3*%
X155400000Y-112800000D03*
%TD*%
D16*
%TO.C,H7*%
X128075000Y-80825000D03*
%TD*%
D17*
%TO.C,J2*%
X144422000Y-87630000D03*
D18*
X150622000Y-87630000D03*
X147622000Y-82930000D03*
%TD*%
D15*
%TO.C,Negative -*%
X112000000Y-82500000D03*
%TD*%
%TO.C,H4*%
X112400000Y-112800000D03*
%TD*%
D13*
%TO.C,UART*%
X112000000Y-91360000D03*
D14*
X112000000Y-93900000D03*
X112000000Y-96440000D03*
X112000000Y-98980000D03*
%TD*%
D15*
%TO.C,Negative +*%
X112100000Y-72250000D03*
%TD*%
%TO.C,Positive*%
X112400000Y-60800000D03*
%TD*%
D13*
%TO.C,Therm*%
X157100000Y-104900000D03*
D14*
X157100000Y-107440000D03*
%TD*%
G36*
X141693039Y-117769685D02*
G01*
X141738794Y-117822489D01*
X141750000Y-117874000D01*
X141750000Y-118118607D01*
X141741747Y-118163088D01*
X141734857Y-118181015D01*
X141734853Y-118181029D01*
X141673212Y-118450011D01*
X141650000Y-118725003D01*
X141650000Y-118725002D01*
X141649999Y-123230814D01*
X141644200Y-123268290D01*
X141630757Y-123310690D01*
X141607421Y-123353068D01*
X141582306Y-123382904D01*
X141544525Y-123413129D01*
X141509901Y-123431084D01*
X141463432Y-123444550D01*
X141402649Y-123449772D01*
X141397339Y-123450000D01*
X126512211Y-123450000D01*
X126488019Y-123447617D01*
X126447656Y-123439588D01*
X126402956Y-123421072D01*
X126379086Y-123405122D01*
X126344877Y-123370913D01*
X126328927Y-123347043D01*
X126310410Y-123302341D01*
X126302382Y-123261979D01*
X126300000Y-123237789D01*
X126300000Y-118800000D01*
X126279642Y-118515364D01*
X126218987Y-118236541D01*
X126119263Y-117969169D01*
X126099747Y-117933428D01*
X126084895Y-117865155D01*
X126109311Y-117799690D01*
X126165245Y-117757819D01*
X126208579Y-117750000D01*
X141626000Y-117750000D01*
X141693039Y-117769685D01*
G37*
M02*
