%TF.GenerationSoftware,KiCad,Pcbnew,7.0.6*%
%TF.CreationDate,2023-08-15T21:41:43+12:00*%
%TF.ProjectId,esp32c3-ev-board,65737033-3263-4332-9d65-762d626f6172,rev?*%
%TF.SameCoordinates,Original*%
%TF.FileFunction,Copper,L4,Bot*%
%TF.FilePolarity,Positive*%
%FSLAX46Y46*%
G04 Gerber Fmt 4.6, Leading zero omitted, Abs format (unit mm)*
G04 Created by KiCad (PCBNEW 7.0.6) date 2023-08-15 21:41:43*
%MOMM*%
%LPD*%
G01*
G04 APERTURE LIST*
%TA.AperFunction,ComponentPad*%
%ADD10O,1.000000X1.800000*%
%TD*%
%TA.AperFunction,ComponentPad*%
%ADD11O,1.000000X2.100000*%
%TD*%
%TA.AperFunction,ComponentPad*%
%ADD12R,1.700000X1.700000*%
%TD*%
%TA.AperFunction,ComponentPad*%
%ADD13O,1.700000X1.700000*%
%TD*%
%TA.AperFunction,ComponentPad*%
%ADD14C,5.400000*%
%TD*%
%TA.AperFunction,ComponentPad*%
%ADD15C,5.385000*%
%TD*%
%TA.AperFunction,ComponentPad*%
%ADD16C,4.650000*%
%TD*%
%TA.AperFunction,ViaPad*%
%ADD17C,0.800000*%
%TD*%
%TA.AperFunction,ViaPad*%
%ADD18C,0.700000*%
%TD*%
%TA.AperFunction,Conductor*%
%ADD19C,0.500000*%
%TD*%
G04 APERTURE END LIST*
D10*
%TO.P,J5,S1,SHIELD*%
%TO.N,unconnected-(J5-SHIELD-PadS1)*%
X128830000Y-60045000D03*
D11*
X128830000Y-64225000D03*
D10*
X137470000Y-60045000D03*
D11*
X137470000Y-64225000D03*
%TD*%
D12*
%TO.P,Hall,1,Pin_1*%
%TO.N,+3.3V*%
X157100000Y-96060000D03*
D13*
%TO.P,Hall,2,Pin_2*%
%TO.N,Net-(IC3-MTDI)*%
X157100000Y-98600000D03*
%TO.P,Hall,3,Pin_3*%
%TO.N,Reg Neg*%
X157100000Y-101140000D03*
%TD*%
D14*
%TO.P,H1,1,1*%
%TO.N,Reg Neg*%
X155400000Y-60800000D03*
%TD*%
%TO.P,H3,1,1*%
%TO.N,Reg Neg*%
X155400000Y-112800000D03*
%TD*%
D15*
%TO.P,J2,1*%
%TO.N,Net-(D4-A)*%
X144422000Y-87630000D03*
D16*
%TO.P,J2,2*%
%TO.N,Reg Neg*%
X150622000Y-87630000D03*
%TO.P,J2,3*%
X147622000Y-82930000D03*
%TD*%
D14*
%TO.P,Negative -,1,1*%
%TO.N,Reg Neg*%
X112000000Y-82500000D03*
%TD*%
%TO.P,H4,1,1*%
%TO.N,Reg Neg*%
X112400000Y-112800000D03*
%TD*%
D12*
%TO.P,UART,1,Pin_1*%
%TO.N,Net-(J4-Pin_1)*%
X112000000Y-91360000D03*
D13*
%TO.P,UART,2,Pin_2*%
%TO.N,VBUS*%
X112000000Y-93900000D03*
%TO.P,UART,3,Pin_3*%
%TO.N,Reg Neg*%
X112000000Y-96440000D03*
%TO.P,UART,4,Pin_4*%
%TO.N,Net-(J4-Pin_4)*%
X112000000Y-98980000D03*
%TD*%
D14*
%TO.P,Negative +,1,1*%
%TO.N,UnregNeg(furthest from bat term)*%
X112100000Y-72250000D03*
%TD*%
%TO.P,Positive,1,1*%
%TO.N,UnregPos*%
X112400000Y-60800000D03*
%TD*%
D12*
%TO.P,Therm,1,Pin_1*%
%TO.N,Net-(IC3-MTMS)*%
X157100000Y-104900000D03*
D13*
%TO.P,Therm,2,Pin_2*%
%TO.N,Reg Neg*%
X157100000Y-107440000D03*
%TD*%
D17*
%TO.N,Reg Neg*%
X156960000Y-86380000D03*
X157010000Y-87570000D03*
X131200000Y-110200000D03*
%TO.N,+3.3V*%
X125400000Y-108800000D03*
X154900000Y-71100000D03*
X138950000Y-113900000D03*
X152750000Y-94250000D03*
X142650000Y-66400000D03*
X123800000Y-76100000D03*
X125300000Y-104600000D03*
X137700000Y-102500000D03*
X152250000Y-103000500D03*
X135100000Y-96600000D03*
X154900000Y-72250000D03*
X124700000Y-66550000D03*
X141900000Y-106800000D03*
%TO.N,Reg Neg*%
X129250000Y-66650000D03*
X114750000Y-86750000D03*
X142300000Y-97425000D03*
X137500000Y-87600000D03*
X153050000Y-81150000D03*
X113000000Y-86750000D03*
D18*
X111950000Y-77875000D03*
D17*
X116500000Y-105200000D03*
D18*
X115250000Y-79000000D03*
D17*
X115000000Y-104400000D03*
D18*
X115425000Y-81825000D03*
D17*
X119325000Y-106000000D03*
X144525000Y-94325000D03*
X145900000Y-99075000D03*
X110375000Y-107875000D03*
X131204977Y-102395023D03*
X110275000Y-103125000D03*
X130315196Y-70000000D03*
D18*
X110725000Y-77875000D03*
D17*
X127800000Y-108000000D03*
X130925000Y-112950000D03*
X120666226Y-114235735D03*
X127500000Y-117200000D03*
X131025000Y-114950000D03*
X116500000Y-107000000D03*
D18*
X109500000Y-77875000D03*
X110750000Y-79000000D03*
D17*
X109500000Y-86750000D03*
X137300000Y-66650000D03*
X132950000Y-116975000D03*
X127800000Y-113275000D03*
X125475000Y-114000000D03*
X120100000Y-85950000D03*
X116300000Y-80650000D03*
X116400000Y-92800000D03*
D18*
X114950000Y-77900000D03*
D17*
X118800000Y-96200000D03*
X121300000Y-81350000D03*
X128300000Y-85400000D03*
X148525000Y-94275000D03*
X131025000Y-116800000D03*
X137796210Y-98321210D03*
X134600000Y-109900000D03*
X111250000Y-86750000D03*
X135200000Y-87600000D03*
D18*
X114300000Y-79725000D03*
D17*
X149149500Y-74750000D03*
X145050000Y-78550000D03*
D18*
X109500000Y-79000000D03*
D17*
X127575000Y-115075000D03*
X156300000Y-81425000D03*
X146100000Y-69100000D03*
X113900000Y-108000000D03*
D18*
X112000000Y-79000000D03*
X113125000Y-77875000D03*
X109100000Y-80250000D03*
D17*
X134600000Y-111200000D03*
D18*
X113250000Y-79000000D03*
D17*
%TO.N,CurMeas*%
X138400000Y-99900000D03*
X118050000Y-74650000D03*
X142400000Y-69800000D03*
X138000000Y-74200000D03*
X139800000Y-73400000D03*
%TO.N,CHIPEN*%
X118750000Y-67250000D03*
D18*
X134236386Y-106600500D03*
D17*
%TO.N,VoltMeas*%
X121400000Y-71400000D03*
X135251233Y-99806233D03*
%TO.N,5vUSB*%
X135500000Y-69150000D03*
X130800000Y-66100000D03*
%TO.N,LED B*%
X139850000Y-107449500D03*
X135000000Y-102400500D03*
%TO.N,Net-(IC3-SPICS0)*%
X131092324Y-96307675D03*
X133300000Y-85300000D03*
%TO.N,Net-(IC3-SPIWP)*%
X130300000Y-85300000D03*
X131099500Y-97850000D03*
%TO.N,UnregNeg(furthest from bat term)*%
X109500000Y-68500000D03*
D18*
X109350000Y-74500000D03*
X112000000Y-75750000D03*
X109500000Y-75750000D03*
X114475000Y-74750000D03*
X115250000Y-73575000D03*
X110725000Y-76925000D03*
D17*
X111250000Y-68500000D03*
D18*
X114950000Y-76900000D03*
D17*
X113000000Y-68500000D03*
X114750000Y-68500000D03*
D18*
X115250000Y-75750000D03*
X113250000Y-75750000D03*
X109425000Y-76900000D03*
X110750000Y-75750000D03*
X113300000Y-76900000D03*
X111975000Y-76925000D03*
%TO.N,Net-(IC3-MTDI)*%
X135050000Y-104300000D03*
D17*
X152700000Y-99750000D03*
%TO.N,Net-(IC3-GPIO2)*%
X148500000Y-107250000D03*
D18*
X133004718Y-106434892D03*
%TO.N,Net-(IC3-MTMS)*%
X135201464Y-105573536D03*
D17*
X154200000Y-103300000D03*
%TD*%
D19*
%TO.N,+3.3V*%
X135100000Y-96600000D02*
X136450000Y-95250000D01*
X136450000Y-95250000D02*
X142475000Y-95250000D01*
X143600000Y-95875000D02*
X144475000Y-96750000D01*
X142475000Y-95250000D02*
X143100000Y-95875000D01*
X143100000Y-95875000D02*
X143600000Y-95875000D01*
X144475000Y-96750000D02*
X148350000Y-96750000D01*
X148350000Y-96750000D02*
X154700000Y-90400000D01*
X151650000Y-93850000D02*
X153850000Y-91650000D01*
X144250000Y-69850000D02*
X144250000Y-68000000D01*
X154750000Y-72400000D02*
X154750000Y-92250000D01*
X124700000Y-66550000D02*
X129700000Y-71550000D01*
X145950000Y-71550000D02*
X144250000Y-69850000D01*
X132190743Y-106751582D02*
X132688661Y-107249500D01*
X154450000Y-71550000D02*
X145950000Y-71550000D01*
X138950000Y-112806675D02*
X138950000Y-113900000D01*
X151650000Y-98050000D02*
X151650000Y-93850000D01*
X154900000Y-71550000D02*
X150350000Y-76100000D01*
X150450000Y-99250000D02*
X151650000Y-98050000D01*
X125400000Y-106500000D02*
X128525000Y-103375000D01*
X154900000Y-72250000D02*
X154750000Y-72400000D01*
X132688661Y-107249500D02*
X133392825Y-107249500D01*
X150350000Y-76100000D02*
X123800000Y-76100000D01*
X141900000Y-106800000D02*
X151100000Y-97600000D01*
X154900000Y-71100000D02*
X154900000Y-71550000D01*
X132190743Y-103375000D02*
X132190743Y-106751582D01*
X128525000Y-103375000D02*
X132190743Y-103375000D01*
X154900000Y-71100000D02*
X154450000Y-71550000D01*
X125400000Y-104700000D02*
X125300000Y-104600000D01*
X153850000Y-91650000D02*
X154650000Y-91650000D01*
X125400000Y-108800000D02*
X125400000Y-106500000D01*
X133392825Y-107249500D02*
X138950000Y-112806675D01*
X129700000Y-71550000D02*
X147300000Y-71550000D01*
X125400000Y-106500000D02*
X125400000Y-104700000D01*
X150450000Y-101200500D02*
X150450000Y-99250000D01*
X152250000Y-103000500D02*
X150450000Y-101200500D01*
X144250000Y-68000000D02*
X142650000Y-66400000D01*
X151100000Y-97600000D02*
X151650000Y-97600000D01*
X154750000Y-92250000D02*
X152750000Y-94250000D01*
%TO.N,5vUSB*%
X133150000Y-66100000D02*
X130800000Y-66100000D01*
X135500000Y-68450000D02*
X133150000Y-66100000D01*
X135500000Y-69150000D02*
X135500000Y-68450000D01*
%TD*%
%TA.AperFunction,Conductor*%
%TO.N,Reg Neg*%
G36*
X115181873Y-77520502D02*
G01*
X115227713Y-77573231D01*
X115237410Y-77605114D01*
X115251524Y-77692320D01*
X115251528Y-77692337D01*
X115288247Y-77829381D01*
X115292000Y-77850664D01*
X115295371Y-77889189D01*
X115295371Y-77910806D01*
X115286840Y-78008315D01*
X115285067Y-78040215D01*
X115284315Y-78071899D01*
X115291576Y-78218701D01*
X115291577Y-78218710D01*
X115336748Y-78417059D01*
X115336754Y-78417080D01*
X115359079Y-78483277D01*
X115384708Y-78550002D01*
X115388965Y-78561086D01*
X115488198Y-78738693D01*
X115488205Y-78738704D01*
X115543697Y-78817954D01*
X115554504Y-78836673D01*
X115570848Y-78871723D01*
X115578241Y-78892034D01*
X115588247Y-78929378D01*
X115592000Y-78950660D01*
X115595372Y-78989188D01*
X115595372Y-79010807D01*
X115587120Y-79105124D01*
X115585213Y-79151580D01*
X115585213Y-79151591D01*
X115585213Y-79151593D01*
X115585213Y-79151594D01*
X115585453Y-79197738D01*
X115601795Y-79373127D01*
X115601796Y-79373133D01*
X115639334Y-79502722D01*
X115644205Y-79539701D01*
X115594116Y-82044178D01*
X115573095Y-82110811D01*
X115519387Y-82155501D01*
X115502235Y-82161474D01*
X115456030Y-82173855D01*
X115452215Y-82174900D01*
X115369118Y-82201594D01*
X115186423Y-82291108D01*
X115186422Y-82291109D01*
X115150483Y-82313488D01*
X115127113Y-82328040D01*
X114993515Y-82427475D01*
X114855332Y-82576788D01*
X114855330Y-82576790D01*
X114750028Y-82750864D01*
X114750021Y-82750879D01*
X114720097Y-82814002D01*
X114687530Y-82890773D01*
X114669625Y-82958521D01*
X114665286Y-82965694D01*
X114567452Y-83330808D01*
X114565446Y-83336985D01*
X114466548Y-83594619D01*
X114463907Y-83600551D01*
X114338611Y-83846462D01*
X114335364Y-83852086D01*
X114185069Y-84083520D01*
X114181251Y-84088773D01*
X114007571Y-84303251D01*
X114003226Y-84308076D01*
X113871812Y-84439493D01*
X113853566Y-84459089D01*
X113853567Y-84459089D01*
X113777616Y-84551032D01*
X113777613Y-84551035D01*
X113674814Y-84726591D01*
X113645784Y-84790159D01*
X113645784Y-84790160D01*
X113589383Y-84946865D01*
X113589381Y-84946871D01*
X113556723Y-85147681D01*
X113556723Y-85147694D01*
X113565156Y-85350954D01*
X113572209Y-85400002D01*
X113575101Y-85420117D01*
X113575101Y-85420118D01*
X113612376Y-85582443D01*
X113693465Y-85769024D01*
X113693469Y-85769031D01*
X113774816Y-85884764D01*
X113810459Y-85935474D01*
X113823048Y-85950002D01*
X113856214Y-85988278D01*
X113856216Y-85988280D01*
X113856215Y-85988280D01*
X113975328Y-86104680D01*
X114144420Y-86217806D01*
X114144423Y-86217808D01*
X114307846Y-86284402D01*
X114332830Y-86294583D01*
X114332836Y-86294585D01*
X114399868Y-86314268D01*
X114420089Y-86319305D01*
X114480753Y-86334417D01*
X114584823Y-86345000D01*
X114683158Y-86355000D01*
X114683159Y-86355000D01*
X114772455Y-86355000D01*
X114792862Y-86356691D01*
X114815049Y-86360392D01*
X114837171Y-86364084D01*
X114857025Y-86369112D01*
X114899489Y-86383691D01*
X114918241Y-86391916D01*
X114957752Y-86413298D01*
X114974898Y-86424500D01*
X115010326Y-86452075D01*
X115025391Y-86465943D01*
X115055820Y-86498996D01*
X115068402Y-86515162D01*
X115092961Y-86552754D01*
X115102706Y-86570762D01*
X115120749Y-86611895D01*
X115127400Y-86631267D01*
X115138426Y-86674809D01*
X115141796Y-86695006D01*
X115145504Y-86739747D01*
X115145505Y-86760227D01*
X115141796Y-86804997D01*
X115138425Y-86825199D01*
X115127400Y-86868736D01*
X115120750Y-86888106D01*
X115102712Y-86929229D01*
X115092964Y-86947241D01*
X115068397Y-86984843D01*
X115055820Y-87001002D01*
X115025401Y-87034047D01*
X115010332Y-87047919D01*
X114974896Y-87075500D01*
X114957749Y-87086703D01*
X114918244Y-87108081D01*
X114899493Y-87116306D01*
X114857018Y-87130888D01*
X114837165Y-87135916D01*
X114792865Y-87143309D01*
X114772454Y-87145000D01*
X114727545Y-87145000D01*
X114707134Y-87143309D01*
X114662833Y-87135916D01*
X114642980Y-87130888D01*
X114600503Y-87116305D01*
X114581751Y-87108079D01*
X114550997Y-87091436D01*
X114529105Y-87079589D01*
X114522777Y-87075655D01*
X114513857Y-87069337D01*
X114513859Y-87069339D01*
X114513855Y-87069336D01*
X114475989Y-87045001D01*
X114475987Y-87045000D01*
X114475984Y-87044998D01*
X114322162Y-86964006D01*
X114322161Y-86964005D01*
X114322158Y-86964004D01*
X114127600Y-86904514D01*
X114127593Y-86904512D01*
X114097418Y-86898540D01*
X114059060Y-86890948D01*
X114059051Y-86890947D01*
X114059052Y-86890947D01*
X113893566Y-86872252D01*
X113690636Y-86886841D01*
X113494818Y-86941973D01*
X113494810Y-86941976D01*
X113481466Y-86947241D01*
X113429811Y-86967621D01*
X113395590Y-86982790D01*
X113353606Y-87001400D01*
X113281113Y-87046855D01*
X113277685Y-87048854D01*
X113168243Y-87108081D01*
X113149490Y-87116307D01*
X113107018Y-87130888D01*
X113087165Y-87135916D01*
X113042865Y-87143309D01*
X113022454Y-87145000D01*
X112977545Y-87145000D01*
X112957134Y-87143309D01*
X112912833Y-87135916D01*
X112892980Y-87130888D01*
X112850503Y-87116305D01*
X112831751Y-87108079D01*
X112800997Y-87091436D01*
X112779105Y-87079589D01*
X112772777Y-87075655D01*
X112763857Y-87069337D01*
X112763859Y-87069339D01*
X112763855Y-87069336D01*
X112725989Y-87045001D01*
X112725987Y-87045000D01*
X112725984Y-87044998D01*
X112572162Y-86964006D01*
X112572161Y-86964005D01*
X112572158Y-86964004D01*
X112377600Y-86904514D01*
X112377593Y-86904512D01*
X112347418Y-86898540D01*
X112309060Y-86890948D01*
X112309051Y-86890947D01*
X112309052Y-86890947D01*
X112143566Y-86872252D01*
X111940636Y-86886841D01*
X111744818Y-86941973D01*
X111744810Y-86941976D01*
X111731466Y-86947241D01*
X111679811Y-86967621D01*
X111645590Y-86982790D01*
X111603606Y-87001400D01*
X111531113Y-87046855D01*
X111527685Y-87048854D01*
X111418243Y-87108081D01*
X111399490Y-87116307D01*
X111357018Y-87130888D01*
X111337165Y-87135916D01*
X111292865Y-87143309D01*
X111272454Y-87145000D01*
X111227545Y-87145000D01*
X111207134Y-87143309D01*
X111162833Y-87135916D01*
X111142980Y-87130888D01*
X111100503Y-87116305D01*
X111081751Y-87108079D01*
X111050997Y-87091436D01*
X111029105Y-87079589D01*
X111022777Y-87075655D01*
X111013857Y-87069337D01*
X111013859Y-87069339D01*
X111013855Y-87069336D01*
X110975989Y-87045001D01*
X110975987Y-87045000D01*
X110975984Y-87044998D01*
X110822162Y-86964006D01*
X110822161Y-86964005D01*
X110822158Y-86964004D01*
X110627600Y-86904514D01*
X110627593Y-86904512D01*
X110597418Y-86898540D01*
X110559060Y-86890948D01*
X110559051Y-86890947D01*
X110559052Y-86890947D01*
X110393566Y-86872252D01*
X110190636Y-86886841D01*
X109994818Y-86941973D01*
X109994810Y-86941976D01*
X109981466Y-86947241D01*
X109929811Y-86967621D01*
X109895590Y-86982790D01*
X109853606Y-87001400D01*
X109781113Y-87046855D01*
X109777685Y-87048854D01*
X109668243Y-87108081D01*
X109649490Y-87116307D01*
X109607018Y-87130888D01*
X109587165Y-87135916D01*
X109542865Y-87143309D01*
X109522454Y-87145000D01*
X109477545Y-87145000D01*
X109457134Y-87143309D01*
X109412833Y-87135916D01*
X109392981Y-87130888D01*
X109350503Y-87116305D01*
X109331748Y-87108079D01*
X109262084Y-87070378D01*
X109160809Y-87026633D01*
X109099276Y-87000054D01*
X109057905Y-86986370D01*
X109052806Y-86984843D01*
X109003129Y-86969965D01*
X108802320Y-86937307D01*
X108802304Y-86937307D01*
X108729639Y-86940321D01*
X108661841Y-86923432D01*
X108613937Y-86872570D01*
X108600500Y-86816428D01*
X108600500Y-86689368D01*
X108620185Y-86622329D01*
X108672989Y-86576574D01*
X108716824Y-86566861D01*
X108716737Y-86566061D01*
X108925228Y-86543224D01*
X108993556Y-86528629D01*
X109074277Y-86507854D01*
X109262084Y-86429621D01*
X109331749Y-86391919D01*
X109350494Y-86383697D01*
X109392984Y-86369109D01*
X109412837Y-86364081D01*
X109510878Y-86347722D01*
X109546420Y-86341133D01*
X109740623Y-86280496D01*
X109794523Y-86257454D01*
X109901349Y-86204074D01*
X110066438Y-86085175D01*
X110204215Y-85935478D01*
X110242180Y-85884764D01*
X110246088Y-85879544D01*
X110334523Y-85738388D01*
X110409120Y-85549108D01*
X110444089Y-85348686D01*
X110449073Y-85278994D01*
X110447154Y-85112457D01*
X110407578Y-84912894D01*
X110328640Y-84725383D01*
X110295155Y-84664059D01*
X110252218Y-84592634D01*
X110252210Y-84592623D01*
X110210969Y-84542044D01*
X110123645Y-84434950D01*
X109996778Y-84308083D01*
X109992432Y-84303257D01*
X109818748Y-84088775D01*
X109814940Y-84083535D01*
X109733258Y-83957756D01*
X109652553Y-83833479D01*
X109652552Y-83833479D01*
X109652548Y-83833473D01*
X109634635Y-83809721D01*
X109610033Y-83777098D01*
X109610027Y-83777091D01*
X109564050Y-83724283D01*
X109550243Y-83708752D01*
X109398967Y-83572711D01*
X109255262Y-83488562D01*
X109223401Y-83469905D01*
X109181630Y-83450829D01*
X109159846Y-83440881D01*
X109159843Y-83440879D01*
X109159841Y-83440879D01*
X109159840Y-83440879D01*
X109003134Y-83384478D01*
X109003128Y-83384476D01*
X108802318Y-83351818D01*
X108802304Y-83351818D01*
X108729639Y-83354832D01*
X108661841Y-83337943D01*
X108613937Y-83287081D01*
X108600500Y-83230939D01*
X108600500Y-77635320D01*
X108620185Y-77568281D01*
X108672989Y-77522526D01*
X108724290Y-77511321D01*
X115114805Y-77500927D01*
X115181873Y-77520502D01*
G37*
%TD.AperFunction*%
%TD*%
%TA.AperFunction,Conductor*%
%TO.N,UnregNeg(furthest from bat term)*%
G36*
X109542863Y-68106691D02*
G01*
X109587170Y-68114084D01*
X109607025Y-68119112D01*
X109649486Y-68133689D01*
X109668240Y-68141915D01*
X109720897Y-68170411D01*
X109727223Y-68174344D01*
X109736157Y-68180672D01*
X109767665Y-68200920D01*
X109774023Y-68205006D01*
X109927825Y-68285987D01*
X110108588Y-68341263D01*
X110122384Y-68345482D01*
X110167690Y-68354449D01*
X110190920Y-68359048D01*
X110356403Y-68377745D01*
X110559329Y-68363163D01*
X110755166Y-68308030D01*
X110820161Y-68282389D01*
X110896399Y-68248596D01*
X110968919Y-68203121D01*
X110972303Y-68201148D01*
X111081758Y-68141914D01*
X111100497Y-68133694D01*
X111142983Y-68119108D01*
X111162826Y-68114084D01*
X111190824Y-68109412D01*
X111207136Y-68106691D01*
X111227543Y-68105000D01*
X111272455Y-68105000D01*
X111292863Y-68106691D01*
X111337170Y-68114084D01*
X111357025Y-68119112D01*
X111399486Y-68133689D01*
X111418240Y-68141915D01*
X111470897Y-68170411D01*
X111477223Y-68174344D01*
X111486157Y-68180672D01*
X111517665Y-68200920D01*
X111524023Y-68205006D01*
X111677825Y-68285987D01*
X111858588Y-68341263D01*
X111872384Y-68345482D01*
X111917690Y-68354449D01*
X111940920Y-68359048D01*
X112106403Y-68377745D01*
X112309329Y-68363163D01*
X112505166Y-68308030D01*
X112570161Y-68282389D01*
X112646399Y-68248596D01*
X112718919Y-68203121D01*
X112722303Y-68201148D01*
X112831758Y-68141914D01*
X112850497Y-68133694D01*
X112892983Y-68119108D01*
X112912826Y-68114084D01*
X112940824Y-68109412D01*
X112957136Y-68106691D01*
X112977543Y-68105000D01*
X113022455Y-68105000D01*
X113042863Y-68106691D01*
X113087170Y-68114084D01*
X113107025Y-68119112D01*
X113149486Y-68133689D01*
X113168240Y-68141915D01*
X113220897Y-68170411D01*
X113227223Y-68174344D01*
X113236157Y-68180672D01*
X113267665Y-68200920D01*
X113274023Y-68205006D01*
X113427825Y-68285987D01*
X113608588Y-68341263D01*
X113622384Y-68345482D01*
X113667690Y-68354449D01*
X113690920Y-68359048D01*
X113856403Y-68377745D01*
X114059329Y-68363163D01*
X114255166Y-68308030D01*
X114320161Y-68282389D01*
X114396399Y-68248596D01*
X114468919Y-68203121D01*
X114472303Y-68201148D01*
X114581758Y-68141914D01*
X114600497Y-68133694D01*
X114642983Y-68119108D01*
X114662826Y-68114084D01*
X114690824Y-68109412D01*
X114707136Y-68106691D01*
X114727543Y-68105000D01*
X114772455Y-68105000D01*
X114792863Y-68106691D01*
X114837170Y-68114084D01*
X114857020Y-68119110D01*
X114899496Y-68133692D01*
X114918245Y-68141916D01*
X114957750Y-68163295D01*
X114974892Y-68174494D01*
X115010327Y-68202075D01*
X115025392Y-68215943D01*
X115055822Y-68248999D01*
X115068400Y-68265160D01*
X115092959Y-68302750D01*
X115102707Y-68320762D01*
X115120750Y-68361896D01*
X115127400Y-68381267D01*
X115138426Y-68424809D01*
X115141796Y-68445005D01*
X115145505Y-68489753D01*
X115145505Y-68510237D01*
X115141796Y-68554993D01*
X115138426Y-68575190D01*
X115127400Y-68618734D01*
X115120750Y-68638106D01*
X115102712Y-68679229D01*
X115092964Y-68697241D01*
X115068397Y-68734843D01*
X115055820Y-68751002D01*
X115025401Y-68784047D01*
X115010332Y-68797919D01*
X114974896Y-68825500D01*
X114957749Y-68836703D01*
X114918242Y-68858082D01*
X114899490Y-68866307D01*
X114780967Y-68906997D01*
X114780965Y-68906998D01*
X114732641Y-68926439D01*
X114706029Y-68938781D01*
X114685750Y-68948187D01*
X114523937Y-69042461D01*
X114523931Y-69042466D01*
X114371274Y-69176934D01*
X114323782Y-69228189D01*
X114221088Y-69359311D01*
X114127110Y-69539761D01*
X114127109Y-69539763D01*
X114071389Y-69735405D01*
X114071384Y-69735427D01*
X114059142Y-69804216D01*
X114059141Y-69804223D01*
X114059141Y-69804225D01*
X114043640Y-69970044D01*
X114043640Y-69970047D01*
X114046376Y-70000002D01*
X114062138Y-70172647D01*
X114062139Y-70172651D01*
X114121042Y-70367378D01*
X114121047Y-70367392D01*
X114147935Y-70431871D01*
X114183182Y-70507417D01*
X114226825Y-70574125D01*
X114228334Y-70579115D01*
X114254592Y-70619550D01*
X114254593Y-70619550D01*
X114435368Y-70897920D01*
X114438607Y-70903529D01*
X114490309Y-71005000D01*
X114563907Y-71149447D01*
X114566548Y-71155379D01*
X114660451Y-71400004D01*
X114665448Y-71413022D01*
X114667454Y-71419196D01*
X114707711Y-71569432D01*
X114732045Y-71660247D01*
X114738884Y-71685773D01*
X114740229Y-71692103D01*
X114741682Y-71701272D01*
X114783403Y-71964696D01*
X114784082Y-71971155D01*
X114801511Y-72303694D01*
X114802307Y-72339023D01*
X114802308Y-72339029D01*
X114837994Y-72539316D01*
X114837996Y-72539323D01*
X114857147Y-72606511D01*
X114915907Y-72762345D01*
X115021342Y-72936328D01*
X115021344Y-72936330D01*
X115021348Y-72936336D01*
X115159656Y-73085542D01*
X115212095Y-73131715D01*
X115276888Y-73184162D01*
X115276895Y-73184166D01*
X115276899Y-73184169D01*
X115385612Y-73248990D01*
X115389412Y-73251448D01*
X115463729Y-73303486D01*
X115480273Y-73317369D01*
X115497669Y-73334764D01*
X115507623Y-73344718D01*
X115521516Y-73361274D01*
X115543478Y-73392639D01*
X115543698Y-73392954D01*
X115554504Y-73411671D01*
X115570847Y-73446718D01*
X115578240Y-73467031D01*
X115588247Y-73504379D01*
X115592000Y-73525663D01*
X115595371Y-73564193D01*
X115595371Y-73585808D01*
X115592001Y-73624328D01*
X115588247Y-73645616D01*
X115578237Y-73682972D01*
X115570845Y-73703281D01*
X115554501Y-73738331D01*
X115543694Y-73757051D01*
X115521519Y-73788720D01*
X115507626Y-73805276D01*
X115449078Y-73863825D01*
X115440933Y-73872063D01*
X115314197Y-74031202D01*
X115314182Y-74031223D01*
X115298599Y-74055472D01*
X115285691Y-74075558D01*
X115238209Y-74157726D01*
X115238207Y-74157730D01*
X115221547Y-74200001D01*
X115163609Y-74347003D01*
X115163609Y-74347004D01*
X115128638Y-74547423D01*
X115126432Y-74578281D01*
X115123653Y-74617134D01*
X115124032Y-74650003D01*
X115125572Y-74783670D01*
X115165147Y-74983230D01*
X115244085Y-75170742D01*
X115277571Y-75232067D01*
X115320507Y-75303491D01*
X115320515Y-75303502D01*
X115449083Y-75461178D01*
X115507622Y-75519717D01*
X115521516Y-75536275D01*
X115543697Y-75567953D01*
X115554504Y-75586671D01*
X115570847Y-75621718D01*
X115578240Y-75642031D01*
X115588247Y-75679379D01*
X115592000Y-75700663D01*
X115595371Y-75739191D01*
X115595371Y-75760808D01*
X115592000Y-75799334D01*
X115588247Y-75820618D01*
X115578240Y-75857965D01*
X115570847Y-75878276D01*
X115554503Y-75913326D01*
X115543696Y-75932045D01*
X115475160Y-76029926D01*
X115457695Y-76056634D01*
X115449760Y-76069651D01*
X115441207Y-76083684D01*
X115441203Y-76083690D01*
X115441204Y-76083690D01*
X115441203Y-76083691D01*
X115374059Y-76214506D01*
X115374056Y-76214514D01*
X115374055Y-76214517D01*
X115313995Y-76408900D01*
X115313993Y-76408905D01*
X115313994Y-76408905D01*
X115313993Y-76408909D01*
X115300229Y-76477397D01*
X115287207Y-76559717D01*
X115284345Y-76763155D01*
X115284345Y-76763156D01*
X115295371Y-76889188D01*
X115295371Y-76910802D01*
X115292000Y-76949333D01*
X115288247Y-76970618D01*
X115251527Y-77107666D01*
X115237850Y-77165495D01*
X115237849Y-77165502D01*
X115236777Y-77176045D01*
X115210411Y-77240749D01*
X115153249Y-77280927D01*
X115113413Y-77287500D01*
X108724500Y-77287500D01*
X108657461Y-77267815D01*
X108611706Y-77215011D01*
X108600500Y-77163500D01*
X108600500Y-71701272D01*
X108620185Y-71634233D01*
X108672989Y-71588478D01*
X108732092Y-71577505D01*
X108759469Y-71579185D01*
X108960887Y-71550510D01*
X109028708Y-71533715D01*
X109186506Y-71480428D01*
X109364073Y-71381122D01*
X109518015Y-71248105D01*
X109565990Y-71197309D01*
X109620664Y-71134387D01*
X109730893Y-70963386D01*
X109761387Y-70903536D01*
X109764622Y-70897931D01*
X109914950Y-70666447D01*
X109918735Y-70661238D01*
X109929062Y-70648485D01*
X109932713Y-70643979D01*
X109963359Y-70601847D01*
X109963358Y-70601848D01*
X109991558Y-70558529D01*
X109991560Y-70558526D01*
X109991562Y-70558523D01*
X110078662Y-70392769D01*
X110136690Y-70197771D01*
X110147655Y-70140097D01*
X110149741Y-70129132D01*
X110149741Y-70129133D01*
X110164543Y-69988641D01*
X110167194Y-69963484D01*
X110151079Y-69760673D01*
X110149886Y-69756556D01*
X110115260Y-69637027D01*
X110094469Y-69565258D01*
X110068338Y-69500459D01*
X110068338Y-69500458D01*
X109993468Y-69351682D01*
X109870265Y-69189781D01*
X109870258Y-69189774D01*
X109716991Y-69055992D01*
X109659975Y-69015607D01*
X109590036Y-68970301D01*
X109590031Y-68970298D01*
X109590029Y-68970297D01*
X109590025Y-68970295D01*
X109590021Y-68970293D01*
X109405281Y-68885111D01*
X109350504Y-68866306D01*
X109331751Y-68858080D01*
X109262077Y-68820375D01*
X109195478Y-68791608D01*
X109099276Y-68750054D01*
X109057905Y-68736370D01*
X109052806Y-68734843D01*
X109003129Y-68719965D01*
X108802320Y-68687307D01*
X108802304Y-68687307D01*
X108729639Y-68690321D01*
X108661841Y-68673432D01*
X108613937Y-68622570D01*
X108600500Y-68566428D01*
X108600500Y-68439368D01*
X108620185Y-68372329D01*
X108672989Y-68326574D01*
X108716823Y-68316862D01*
X108716736Y-68316061D01*
X108925227Y-68293224D01*
X108993555Y-68278629D01*
X109074273Y-68257855D01*
X109262080Y-68179622D01*
X109331742Y-68141922D01*
X109350494Y-68133697D01*
X109392985Y-68119109D01*
X109412833Y-68114083D01*
X109430895Y-68111069D01*
X109457138Y-68106691D01*
X109477544Y-68105000D01*
X109522455Y-68105000D01*
X109542863Y-68106691D01*
G37*
%TD.AperFunction*%
%TD*%
%TA.AperFunction,Conductor*%
%TO.N,+3.3V*%
G36*
X154407461Y-57020185D02*
G01*
X154453216Y-57072989D01*
X154463160Y-57142147D01*
X154434135Y-57205703D01*
X154375357Y-57243477D01*
X154372558Y-57244262D01*
X154279093Y-57269306D01*
X154254905Y-57275788D01*
X153892802Y-57414787D01*
X153547206Y-57590877D01*
X153221917Y-57802122D01*
X152920488Y-58046215D01*
X152920480Y-58046222D01*
X152646222Y-58320480D01*
X152646215Y-58320488D01*
X152402122Y-58621917D01*
X152190877Y-58947206D01*
X152014787Y-59292802D01*
X151875788Y-59654905D01*
X151775397Y-60029570D01*
X151775397Y-60029572D01*
X151714722Y-60412660D01*
X151700039Y-60692821D01*
X151694422Y-60800000D01*
X151714722Y-61187338D01*
X151775398Y-61570433D01*
X151844274Y-61827484D01*
X151875788Y-61945094D01*
X152014787Y-62307197D01*
X152190877Y-62652793D01*
X152402122Y-62978082D01*
X152597057Y-63218806D01*
X152646219Y-63279516D01*
X152920484Y-63553781D01*
X152945107Y-63573720D01*
X153221917Y-63797877D01*
X153547206Y-64009122D01*
X153547211Y-64009125D01*
X153892806Y-64185214D01*
X154254913Y-64324214D01*
X154629567Y-64424602D01*
X155012662Y-64485278D01*
X155378576Y-64504455D01*
X155399999Y-64505578D01*
X155400000Y-64505578D01*
X155400001Y-64505578D01*
X155420301Y-64504514D01*
X155787338Y-64485278D01*
X156170433Y-64424602D01*
X156545087Y-64324214D01*
X156907194Y-64185214D01*
X157252789Y-64009125D01*
X157578084Y-63797876D01*
X157879516Y-63553781D01*
X158153781Y-63279516D01*
X158397876Y-62978084D01*
X158609125Y-62652789D01*
X158785214Y-62307194D01*
X158924214Y-61945087D01*
X158955725Y-61827482D01*
X158992090Y-61767823D01*
X159054937Y-61737294D01*
X159124312Y-61745589D01*
X159178190Y-61790074D01*
X159199465Y-61856626D01*
X159199500Y-61859577D01*
X159199500Y-98543462D01*
X159181950Y-98603229D01*
X159196666Y-98630179D01*
X159199500Y-98656537D01*
X159199500Y-101083462D01*
X159181950Y-101143229D01*
X159196666Y-101170179D01*
X159199500Y-101196537D01*
X159199500Y-107383462D01*
X159181950Y-107443229D01*
X159196666Y-107470179D01*
X159199500Y-107496537D01*
X159199500Y-111740422D01*
X159179815Y-111807461D01*
X159127011Y-111853216D01*
X159057853Y-111863160D01*
X158994297Y-111834135D01*
X158956523Y-111775357D01*
X158955737Y-111772558D01*
X158924214Y-111654913D01*
X158785214Y-111292806D01*
X158609125Y-110947211D01*
X158558236Y-110868849D01*
X158397877Y-110621917D01*
X158289737Y-110488375D01*
X158153781Y-110320484D01*
X157879516Y-110046219D01*
X157578084Y-109802124D01*
X157578082Y-109802122D01*
X157252793Y-109590877D01*
X157122333Y-109524404D01*
X157071537Y-109476429D01*
X157054742Y-109408608D01*
X157077279Y-109342473D01*
X157131995Y-109299022D01*
X157169776Y-109290236D01*
X157364026Y-109276343D01*
X157622678Y-109220077D01*
X157870689Y-109127574D01*
X158103011Y-109000716D01*
X158314915Y-108842087D01*
X158502087Y-108654915D01*
X158660716Y-108443011D01*
X158787574Y-108210689D01*
X158880077Y-107962678D01*
X158936343Y-107704026D01*
X158951815Y-107487691D01*
X158969898Y-107439209D01*
X158956523Y-107418397D01*
X158951816Y-107392308D01*
X158945663Y-107306287D01*
X158936343Y-107175974D01*
X158890685Y-106966087D01*
X158880078Y-106917326D01*
X158873077Y-106898556D01*
X158787574Y-106669311D01*
X158756295Y-106612029D01*
X158708717Y-106524896D01*
X158693865Y-106456624D01*
X158718282Y-106391159D01*
X158721426Y-106387134D01*
X158789698Y-106303407D01*
X158883909Y-106123049D01*
X158939886Y-105927418D01*
X158950500Y-105808037D01*
X158950499Y-103991964D01*
X158939886Y-103872582D01*
X158883909Y-103676951D01*
X158789698Y-103496593D01*
X158734256Y-103428599D01*
X158661109Y-103338890D01*
X158503409Y-103210304D01*
X158503410Y-103210304D01*
X158503407Y-103210302D01*
X158323049Y-103116091D01*
X158323048Y-103116090D01*
X158323045Y-103116089D01*
X158205829Y-103082550D01*
X158127418Y-103060114D01*
X158127415Y-103060113D01*
X158127413Y-103060113D01*
X158036983Y-103052073D01*
X158008037Y-103049500D01*
X158008035Y-103049500D01*
X157950089Y-103049500D01*
X157883050Y-103029815D01*
X157837295Y-102977011D01*
X157827351Y-102907853D01*
X157856376Y-102844297D01*
X157890662Y-102816668D01*
X157959973Y-102778820D01*
X158103011Y-102700716D01*
X158314915Y-102542087D01*
X158502087Y-102354915D01*
X158660716Y-102143011D01*
X158787574Y-101910689D01*
X158880077Y-101662678D01*
X158936343Y-101404026D01*
X158951815Y-101187691D01*
X158969898Y-101139209D01*
X158956523Y-101118397D01*
X158951816Y-101092308D01*
X158950331Y-101071544D01*
X158936343Y-100875974D01*
X158891403Y-100669386D01*
X158880078Y-100617326D01*
X158878519Y-100613147D01*
X158787574Y-100369311D01*
X158783546Y-100361935D01*
X158660719Y-100136994D01*
X158660714Y-100136986D01*
X158516479Y-99944309D01*
X158492062Y-99878845D01*
X158506914Y-99810572D01*
X158516472Y-99795698D01*
X158660716Y-99603011D01*
X158787574Y-99370689D01*
X158880077Y-99122678D01*
X158936343Y-98864026D01*
X158951815Y-98647691D01*
X158969898Y-98599209D01*
X158956523Y-98578397D01*
X158951816Y-98552308D01*
X158945433Y-98463064D01*
X158936343Y-98335974D01*
X158882814Y-98089905D01*
X158880078Y-98077326D01*
X158866559Y-98041081D01*
X158787574Y-97829311D01*
X158765051Y-97788064D01*
X158660719Y-97596994D01*
X158660714Y-97596986D01*
X158502093Y-97385092D01*
X158502077Y-97385074D01*
X158314925Y-97197922D01*
X158314907Y-97197906D01*
X158103013Y-97039285D01*
X158103005Y-97039280D01*
X157870694Y-96912428D01*
X157870690Y-96912426D01*
X157622673Y-96819921D01*
X157364034Y-96763658D01*
X157364027Y-96763657D01*
X157100001Y-96744773D01*
X157099999Y-96744773D01*
X156835972Y-96763657D01*
X156835965Y-96763658D01*
X156577326Y-96819921D01*
X156329309Y-96912426D01*
X156329305Y-96912428D01*
X156096994Y-97039280D01*
X156096986Y-97039285D01*
X155885092Y-97197906D01*
X155885074Y-97197922D01*
X155697922Y-97385074D01*
X155697906Y-97385092D01*
X155539285Y-97596986D01*
X155539280Y-97596994D01*
X155412428Y-97829305D01*
X155412426Y-97829309D01*
X155319921Y-98077326D01*
X155263658Y-98335965D01*
X155263657Y-98335972D01*
X155244773Y-98599998D01*
X155244773Y-98600001D01*
X155263657Y-98864027D01*
X155263658Y-98864034D01*
X155319921Y-99122673D01*
X155412426Y-99370690D01*
X155412428Y-99370694D01*
X155539280Y-99603005D01*
X155539285Y-99603013D01*
X155683520Y-99795690D01*
X155707937Y-99861155D01*
X155693085Y-99929427D01*
X155683520Y-99944310D01*
X155539285Y-100136986D01*
X155539280Y-100136994D01*
X155412428Y-100369305D01*
X155412426Y-100369309D01*
X155319921Y-100617326D01*
X155263658Y-100875965D01*
X155263657Y-100875972D01*
X155244773Y-101139998D01*
X155244773Y-101140001D01*
X155263657Y-101404027D01*
X155263658Y-101404034D01*
X155319921Y-101662673D01*
X155412426Y-101910690D01*
X155412428Y-101910694D01*
X155539280Y-102143005D01*
X155539285Y-102143013D01*
X155697906Y-102354907D01*
X155697922Y-102354925D01*
X155885074Y-102542077D01*
X155885092Y-102542093D01*
X156096986Y-102700714D01*
X156096989Y-102700716D01*
X156309339Y-102816668D01*
X156358744Y-102866073D01*
X156373596Y-102934346D01*
X156349179Y-102999810D01*
X156293246Y-103041682D01*
X156249914Y-103049500D01*
X156191969Y-103049500D01*
X156191964Y-103049501D01*
X156162727Y-103052100D01*
X156072584Y-103060113D01*
X155876952Y-103116090D01*
X155767526Y-103173249D01*
X155698991Y-103186840D01*
X155633988Y-103161221D01*
X155593154Y-103104525D01*
X155586538Y-103073576D01*
X155586134Y-103068695D01*
X155552112Y-102934346D01*
X155529157Y-102843699D01*
X155435924Y-102631151D01*
X155308983Y-102436852D01*
X155308980Y-102436849D01*
X155308979Y-102436847D01*
X155151784Y-102266087D01*
X155151779Y-102266083D01*
X155151777Y-102266081D01*
X154968634Y-102123535D01*
X154968628Y-102123531D01*
X154764504Y-102013064D01*
X154764495Y-102013061D01*
X154544984Y-101937702D01*
X154373282Y-101909050D01*
X154316049Y-101899500D01*
X154083951Y-101899500D01*
X154038164Y-101907140D01*
X153855015Y-101937702D01*
X153635504Y-102013061D01*
X153635495Y-102013064D01*
X153431371Y-102123531D01*
X153431365Y-102123535D01*
X153248222Y-102266081D01*
X153248219Y-102266084D01*
X153091016Y-102436852D01*
X152964075Y-102631151D01*
X152870842Y-102843699D01*
X152813866Y-103068691D01*
X152813864Y-103068702D01*
X152794700Y-103299993D01*
X152794700Y-103300006D01*
X152813864Y-103531297D01*
X152813866Y-103531308D01*
X152870842Y-103756300D01*
X152964075Y-103968848D01*
X153091016Y-104163147D01*
X153091019Y-104163151D01*
X153091021Y-104163153D01*
X153248216Y-104333913D01*
X153248219Y-104333915D01*
X153248222Y-104333918D01*
X153431365Y-104476464D01*
X153431371Y-104476468D01*
X153431374Y-104476470D01*
X153635497Y-104586936D01*
X153672095Y-104599500D01*
X153855015Y-104662297D01*
X153855017Y-104662297D01*
X153855019Y-104662298D01*
X154083951Y-104700500D01*
X154083952Y-104700500D01*
X154316048Y-104700500D01*
X154316049Y-104700500D01*
X154544981Y-104662298D01*
X154764503Y-104586936D01*
X154968626Y-104476470D01*
X155049337Y-104413649D01*
X155114331Y-104388007D01*
X155182871Y-104401573D01*
X155233196Y-104450042D01*
X155249500Y-104511503D01*
X155249501Y-105160986D01*
X155249501Y-105808036D01*
X155249582Y-105808944D01*
X155260113Y-105927415D01*
X155316089Y-106123045D01*
X155316090Y-106123047D01*
X155316091Y-106123049D01*
X155410302Y-106303407D01*
X155410304Y-106303409D01*
X155478551Y-106387108D01*
X155505660Y-106451505D01*
X155493651Y-106520334D01*
X155491282Y-106524895D01*
X155412426Y-106669309D01*
X155319921Y-106917326D01*
X155263658Y-107175965D01*
X155263657Y-107175972D01*
X155244773Y-107439998D01*
X155244773Y-107440001D01*
X155263657Y-107704027D01*
X155263658Y-107704034D01*
X155319921Y-107962673D01*
X155412426Y-108210690D01*
X155412428Y-108210694D01*
X155539280Y-108443005D01*
X155539285Y-108443013D01*
X155697906Y-108654907D01*
X155697922Y-108654925D01*
X155885074Y-108842077D01*
X155885080Y-108842082D01*
X155885085Y-108842087D01*
X155953680Y-108893436D01*
X155972401Y-108907451D01*
X156014272Y-108963385D01*
X156019256Y-109033076D01*
X155985771Y-109094399D01*
X155924448Y-109127884D01*
X155878692Y-109129191D01*
X155787339Y-109114722D01*
X155400001Y-109094422D01*
X155399999Y-109094422D01*
X155012660Y-109114722D01*
X154629572Y-109175397D01*
X154629570Y-109175397D01*
X154254905Y-109275788D01*
X153892802Y-109414787D01*
X153547206Y-109590877D01*
X153221917Y-109802122D01*
X152920488Y-110046215D01*
X152920480Y-110046222D01*
X152646222Y-110320480D01*
X152646215Y-110320488D01*
X152402122Y-110621917D01*
X152190877Y-110947206D01*
X152014787Y-111292802D01*
X151875788Y-111654905D01*
X151775397Y-112029570D01*
X151775397Y-112029572D01*
X151714722Y-112412660D01*
X151694422Y-112799999D01*
X151694422Y-112800000D01*
X151714722Y-113187339D01*
X151717016Y-113201822D01*
X151775398Y-113570433D01*
X151868015Y-113916087D01*
X151875788Y-113945094D01*
X152014787Y-114307197D01*
X152190877Y-114652793D01*
X152402122Y-114978082D01*
X152480599Y-115074993D01*
X152646219Y-115279516D01*
X152920484Y-115553781D01*
X152975131Y-115598033D01*
X153221917Y-115797877D01*
X153442697Y-115941253D01*
X153547211Y-116009125D01*
X153892806Y-116185214D01*
X154254913Y-116324214D01*
X154372517Y-116355725D01*
X154432176Y-116392090D01*
X154462705Y-116454937D01*
X154454410Y-116524313D01*
X154409925Y-116578191D01*
X154343373Y-116599465D01*
X154340422Y-116599500D01*
X143600000Y-116599500D01*
X143460198Y-116599425D01*
X143460197Y-116599425D01*
X143460192Y-116599425D01*
X143182955Y-116635623D01*
X143182939Y-116635626D01*
X142931072Y-116702537D01*
X142912714Y-116707415D01*
X142795010Y-116755727D01*
X142654054Y-116813584D01*
X142411314Y-116952350D01*
X142188580Y-117121377D01*
X142035163Y-117272839D01*
X141973626Y-117305930D01*
X141949044Y-117308593D01*
X134455267Y-117368918D01*
X134388071Y-117349774D01*
X134341893Y-117297340D01*
X134331393Y-117228264D01*
X134334064Y-117214478D01*
X134336134Y-117206305D01*
X134336656Y-117200006D01*
X134355300Y-116975006D01*
X134355300Y-116974993D01*
X134336135Y-116743702D01*
X134336133Y-116743691D01*
X134279157Y-116518699D01*
X134185924Y-116306151D01*
X134058983Y-116111852D01*
X134058980Y-116111849D01*
X134058979Y-116111847D01*
X133901784Y-115941087D01*
X133901779Y-115941083D01*
X133901777Y-115941081D01*
X133718634Y-115798535D01*
X133718628Y-115798531D01*
X133514504Y-115688064D01*
X133514495Y-115688061D01*
X133294984Y-115612702D01*
X133123282Y-115584050D01*
X133066049Y-115574500D01*
X132833951Y-115574500D01*
X132801246Y-115579957D01*
X132605013Y-115612702D01*
X132470471Y-115658891D01*
X132400673Y-115662041D01*
X132340252Y-115626954D01*
X132308391Y-115564772D01*
X132315207Y-115495235D01*
X132316640Y-115491827D01*
X132354157Y-115406300D01*
X132411134Y-115181305D01*
X132411535Y-115176464D01*
X132430300Y-114950006D01*
X132430300Y-114949993D01*
X132411135Y-114718702D01*
X132411133Y-114718691D01*
X132354157Y-114493699D01*
X132260924Y-114281151D01*
X132133980Y-114086849D01*
X132133979Y-114086847D01*
X132058109Y-114004430D01*
X132035314Y-113979667D01*
X132004392Y-113917013D01*
X132012253Y-113847586D01*
X132031461Y-113817700D01*
X132030825Y-113817205D01*
X132033970Y-113813162D01*
X132033979Y-113813153D01*
X132160924Y-113618849D01*
X132254157Y-113406300D01*
X132311134Y-113181305D01*
X132311871Y-113172416D01*
X132330300Y-112950006D01*
X132330300Y-112949993D01*
X132311135Y-112718702D01*
X132311133Y-112718691D01*
X132254157Y-112493699D01*
X132160924Y-112281151D01*
X132033983Y-112086852D01*
X132033980Y-112086849D01*
X132033979Y-112086847D01*
X131876784Y-111916087D01*
X131876779Y-111916083D01*
X131876777Y-111916081D01*
X131693634Y-111773535D01*
X131693628Y-111773531D01*
X131645728Y-111747609D01*
X131596138Y-111698389D01*
X131581030Y-111630172D01*
X131605201Y-111564617D01*
X131660977Y-111522536D01*
X131664484Y-111521273D01*
X131764492Y-111486940D01*
X131764495Y-111486938D01*
X131764503Y-111486936D01*
X131968626Y-111376470D01*
X132151784Y-111233913D01*
X132182997Y-111200006D01*
X133194700Y-111200006D01*
X133213864Y-111431297D01*
X133213866Y-111431308D01*
X133270842Y-111656300D01*
X133364075Y-111868848D01*
X133491016Y-112063147D01*
X133491019Y-112063151D01*
X133491021Y-112063153D01*
X133648216Y-112233913D01*
X133648219Y-112233915D01*
X133648222Y-112233918D01*
X133831365Y-112376464D01*
X133831371Y-112376468D01*
X133831374Y-112376470D01*
X134035497Y-112486936D01*
X134149487Y-112526068D01*
X134255015Y-112562297D01*
X134255017Y-112562297D01*
X134255019Y-112562298D01*
X134483951Y-112600500D01*
X134483952Y-112600500D01*
X134716048Y-112600500D01*
X134716049Y-112600500D01*
X134944981Y-112562298D01*
X135164503Y-112486936D01*
X135368626Y-112376470D01*
X135551784Y-112233913D01*
X135708979Y-112063153D01*
X135835924Y-111868849D01*
X135929157Y-111656300D01*
X135986134Y-111431305D01*
X135990678Y-111376468D01*
X136005300Y-111200006D01*
X136005300Y-111199993D01*
X135986135Y-110968702D01*
X135986133Y-110968691D01*
X135960849Y-110868848D01*
X135929157Y-110743700D01*
X135866039Y-110599809D01*
X135857137Y-110530511D01*
X135866040Y-110500189D01*
X135929157Y-110356300D01*
X135986134Y-110131305D01*
X135993184Y-110046222D01*
X136005300Y-109900006D01*
X136005300Y-109899993D01*
X135986135Y-109668702D01*
X135986133Y-109668691D01*
X135929157Y-109443699D01*
X135835924Y-109231151D01*
X135708983Y-109036852D01*
X135708980Y-109036849D01*
X135708979Y-109036847D01*
X135551784Y-108866087D01*
X135551779Y-108866083D01*
X135551777Y-108866081D01*
X135368634Y-108723535D01*
X135368628Y-108723531D01*
X135164504Y-108613064D01*
X135164495Y-108613061D01*
X134944984Y-108537702D01*
X134773282Y-108509050D01*
X134716049Y-108499500D01*
X134483951Y-108499500D01*
X134438164Y-108507140D01*
X134255015Y-108537702D01*
X134035504Y-108613061D01*
X134035495Y-108613064D01*
X133831371Y-108723531D01*
X133831365Y-108723535D01*
X133648222Y-108866081D01*
X133648219Y-108866084D01*
X133648216Y-108866086D01*
X133648216Y-108866087D01*
X133604974Y-108913061D01*
X133491016Y-109036852D01*
X133364075Y-109231151D01*
X133270842Y-109443699D01*
X133213866Y-109668691D01*
X133213864Y-109668702D01*
X133194700Y-109899993D01*
X133194700Y-109900006D01*
X133213864Y-110131297D01*
X133213866Y-110131308D01*
X133270842Y-110356297D01*
X133333959Y-110500188D01*
X133342862Y-110569489D01*
X133333959Y-110599809D01*
X133270842Y-110743699D01*
X133213866Y-110968691D01*
X133213864Y-110968702D01*
X133194700Y-111199993D01*
X133194700Y-111200006D01*
X132182997Y-111200006D01*
X132308979Y-111063153D01*
X132435924Y-110868849D01*
X132529157Y-110656300D01*
X132586134Y-110431305D01*
X132592349Y-110356300D01*
X132605300Y-110200006D01*
X132605300Y-110199993D01*
X132586135Y-109968702D01*
X132586133Y-109968691D01*
X132529157Y-109743699D01*
X132435924Y-109531151D01*
X132308983Y-109336852D01*
X132308980Y-109336849D01*
X132308979Y-109336847D01*
X132151784Y-109166087D01*
X132151779Y-109166083D01*
X132151777Y-109166081D01*
X131968634Y-109023535D01*
X131968628Y-109023531D01*
X131764504Y-108913064D01*
X131764495Y-108913061D01*
X131544984Y-108837702D01*
X131373281Y-108809050D01*
X131316049Y-108799500D01*
X131083951Y-108799500D01*
X131038164Y-108807140D01*
X130855015Y-108837702D01*
X130635504Y-108913061D01*
X130635495Y-108913064D01*
X130431371Y-109023531D01*
X130431365Y-109023535D01*
X130248222Y-109166081D01*
X130248219Y-109166084D01*
X130248216Y-109166086D01*
X130248216Y-109166087D01*
X130198515Y-109220077D01*
X130091016Y-109336852D01*
X129964075Y-109531151D01*
X129870842Y-109743699D01*
X129813866Y-109968691D01*
X129813864Y-109968702D01*
X129794700Y-110199993D01*
X129794700Y-110200006D01*
X129813864Y-110431297D01*
X129813866Y-110431308D01*
X129870842Y-110656300D01*
X129964075Y-110868848D01*
X130091016Y-111063147D01*
X130091019Y-111063151D01*
X130091021Y-111063153D01*
X130248216Y-111233913D01*
X130248219Y-111233915D01*
X130248222Y-111233918D01*
X130431365Y-111376464D01*
X130431376Y-111376471D01*
X130479270Y-111402390D01*
X130528861Y-111451609D01*
X130543969Y-111519826D01*
X130519799Y-111585382D01*
X130464023Y-111627463D01*
X130460517Y-111628726D01*
X130360501Y-111663062D01*
X130360495Y-111663064D01*
X130156371Y-111773531D01*
X130156365Y-111773535D01*
X129973222Y-111916081D01*
X129973219Y-111916084D01*
X129816016Y-112086852D01*
X129689075Y-112281151D01*
X129595842Y-112493699D01*
X129538866Y-112718691D01*
X129538864Y-112718702D01*
X129519700Y-112949993D01*
X129519700Y-112950006D01*
X129538864Y-113181297D01*
X129538866Y-113181308D01*
X129595842Y-113406300D01*
X129689075Y-113618848D01*
X129786975Y-113768695D01*
X129816021Y-113813153D01*
X129820207Y-113817700D01*
X129914685Y-113920332D01*
X129945607Y-113982987D01*
X129937746Y-114052413D01*
X129918538Y-114082311D01*
X129919169Y-114082802D01*
X129916020Y-114086846D01*
X129789075Y-114281151D01*
X129695842Y-114493699D01*
X129638866Y-114718691D01*
X129638864Y-114718702D01*
X129619700Y-114949993D01*
X129619700Y-114950006D01*
X129638864Y-115181297D01*
X129638866Y-115181308D01*
X129695842Y-115406300D01*
X129789075Y-115618848D01*
X129912117Y-115807178D01*
X129932304Y-115874067D01*
X129913124Y-115941253D01*
X129912117Y-115942820D01*
X129789075Y-116131151D01*
X129695842Y-116343699D01*
X129638866Y-116568691D01*
X129638864Y-116568702D01*
X129619700Y-116799993D01*
X129619700Y-116800006D01*
X129638864Y-117031297D01*
X129638866Y-117031305D01*
X129683182Y-117206305D01*
X129695200Y-117253760D01*
X129692575Y-117323581D01*
X129652619Y-117380898D01*
X129588018Y-117407515D01*
X129575992Y-117408197D01*
X129023377Y-117412645D01*
X128956181Y-117393501D01*
X128910003Y-117341067D01*
X128898803Y-117278409D01*
X128899182Y-117273834D01*
X128905300Y-117200000D01*
X128886134Y-116968695D01*
X128843414Y-116800000D01*
X128829157Y-116743699D01*
X128735924Y-116531151D01*
X128608981Y-116336849D01*
X128540278Y-116262218D01*
X128509356Y-116199563D01*
X128517216Y-116130137D01*
X128540272Y-116094260D01*
X128683979Y-115938153D01*
X128810924Y-115743849D01*
X128904157Y-115531300D01*
X128961134Y-115306305D01*
X128962877Y-115285271D01*
X128980300Y-115075006D01*
X128980300Y-115074993D01*
X128961135Y-114843702D01*
X128961133Y-114843691D01*
X128904157Y-114618699D01*
X128810925Y-114406153D01*
X128802005Y-114392500D01*
X128781817Y-114325610D01*
X128800996Y-114258425D01*
X128814579Y-114240698D01*
X128908979Y-114138153D01*
X129035924Y-113943849D01*
X129129157Y-113731300D01*
X129186134Y-113506305D01*
X129186135Y-113506297D01*
X129205300Y-113275006D01*
X129205300Y-113274993D01*
X129186135Y-113043702D01*
X129186133Y-113043691D01*
X129129157Y-112818699D01*
X129035924Y-112606151D01*
X128908983Y-112411852D01*
X128908980Y-112411849D01*
X128908979Y-112411847D01*
X128751784Y-112241087D01*
X128751779Y-112241083D01*
X128751777Y-112241081D01*
X128568634Y-112098535D01*
X128568628Y-112098531D01*
X128364504Y-111988064D01*
X128364495Y-111988061D01*
X128144984Y-111912702D01*
X127973282Y-111884050D01*
X127916049Y-111874500D01*
X127683951Y-111874500D01*
X127638164Y-111882140D01*
X127455015Y-111912702D01*
X127235504Y-111988061D01*
X127235495Y-111988064D01*
X127031371Y-112098531D01*
X127031365Y-112098535D01*
X126848222Y-112241081D01*
X126848219Y-112241084D01*
X126691016Y-112411852D01*
X126564076Y-112606149D01*
X126475429Y-112808243D01*
X126430472Y-112861728D01*
X126363736Y-112882418D01*
X126296408Y-112863743D01*
X126285711Y-112856285D01*
X126243634Y-112823535D01*
X126243628Y-112823531D01*
X126039504Y-112713064D01*
X126039495Y-112713061D01*
X125819984Y-112637702D01*
X125630894Y-112606149D01*
X125591049Y-112599500D01*
X125358951Y-112599500D01*
X125319106Y-112606149D01*
X125130015Y-112637702D01*
X124910504Y-112713061D01*
X124910495Y-112713064D01*
X124706371Y-112823531D01*
X124706365Y-112823535D01*
X124523222Y-112966081D01*
X124523219Y-112966084D01*
X124366016Y-113136852D01*
X124239075Y-113331151D01*
X124145842Y-113543699D01*
X124088866Y-113768691D01*
X124088864Y-113768702D01*
X124069700Y-113999993D01*
X124069700Y-114000006D01*
X124088864Y-114231297D01*
X124088866Y-114231308D01*
X124145842Y-114456300D01*
X124239075Y-114668848D01*
X124366016Y-114863147D01*
X124366019Y-114863151D01*
X124366021Y-114863153D01*
X124523216Y-115033913D01*
X124523219Y-115033915D01*
X124523222Y-115033918D01*
X124706365Y-115176464D01*
X124706371Y-115176468D01*
X124706374Y-115176470D01*
X124910497Y-115286936D01*
X125024487Y-115326068D01*
X125130015Y-115362297D01*
X125130017Y-115362297D01*
X125130019Y-115362298D01*
X125358951Y-115400500D01*
X125358952Y-115400500D01*
X125591048Y-115400500D01*
X125591049Y-115400500D01*
X125819981Y-115362298D01*
X125819984Y-115362297D01*
X126044354Y-115285271D01*
X126045121Y-115287506D01*
X126104578Y-115279787D01*
X126167730Y-115309679D01*
X126204697Y-115368968D01*
X126205458Y-115371831D01*
X126245841Y-115531295D01*
X126245841Y-115531296D01*
X126339075Y-115743848D01*
X126466018Y-115938150D01*
X126503392Y-115978748D01*
X126531352Y-116009122D01*
X126534721Y-116012781D01*
X126565643Y-116075436D01*
X126557783Y-116144862D01*
X126534721Y-116180746D01*
X126391018Y-116336849D01*
X126264075Y-116531151D01*
X126170842Y-116743699D01*
X126113866Y-116968691D01*
X126113864Y-116968702D01*
X126095369Y-117191920D01*
X126070216Y-117257105D01*
X126013814Y-117298343D01*
X125944071Y-117302541D01*
X125883129Y-117268367D01*
X125878978Y-117263907D01*
X125858833Y-117241168D01*
X125858831Y-117241166D01*
X125659575Y-117064641D01*
X125659572Y-117064639D01*
X125659570Y-117064637D01*
X125440483Y-116913411D01*
X125204764Y-116789697D01*
X125197661Y-116787003D01*
X124955857Y-116695298D01*
X124894045Y-116680062D01*
X124697376Y-116631588D01*
X124538813Y-116612335D01*
X124433108Y-116599500D01*
X124433106Y-116599500D01*
X124322590Y-116599500D01*
X113459578Y-116599500D01*
X113392539Y-116579815D01*
X113346784Y-116527011D01*
X113336840Y-116457853D01*
X113365865Y-116394297D01*
X113424643Y-116356523D01*
X113427441Y-116355737D01*
X113545087Y-116324214D01*
X113907194Y-116185214D01*
X114252789Y-116009125D01*
X114578084Y-115797876D01*
X114879516Y-115553781D01*
X115153781Y-115279516D01*
X115397876Y-114978084D01*
X115609125Y-114652789D01*
X115785214Y-114307194D01*
X115812642Y-114235741D01*
X119260926Y-114235741D01*
X119280090Y-114467032D01*
X119280092Y-114467043D01*
X119337068Y-114692035D01*
X119430301Y-114904583D01*
X119557242Y-115098882D01*
X119557245Y-115098886D01*
X119557247Y-115098888D01*
X119714442Y-115269648D01*
X119714445Y-115269650D01*
X119714448Y-115269653D01*
X119897591Y-115412199D01*
X119897597Y-115412203D01*
X119897600Y-115412205D01*
X120101723Y-115522671D01*
X120192352Y-115553784D01*
X120321241Y-115598032D01*
X120321243Y-115598032D01*
X120321245Y-115598033D01*
X120550177Y-115636235D01*
X120550178Y-115636235D01*
X120782274Y-115636235D01*
X120782275Y-115636235D01*
X121011207Y-115598033D01*
X121230729Y-115522671D01*
X121434852Y-115412205D01*
X121618010Y-115269648D01*
X121775205Y-115098888D01*
X121902150Y-114904584D01*
X121995383Y-114692035D01*
X122052360Y-114467040D01*
X122057405Y-114406153D01*
X122071526Y-114235741D01*
X122071526Y-114235728D01*
X122052361Y-114004437D01*
X122052359Y-114004426D01*
X121995383Y-113779434D01*
X121902150Y-113566886D01*
X121775209Y-113372587D01*
X121775206Y-113372584D01*
X121775205Y-113372582D01*
X121618010Y-113201822D01*
X121618005Y-113201818D01*
X121618003Y-113201816D01*
X121434860Y-113059270D01*
X121434854Y-113059266D01*
X121230730Y-112948799D01*
X121230721Y-112948796D01*
X121011210Y-112873437D01*
X120839507Y-112844785D01*
X120782275Y-112835235D01*
X120550177Y-112835235D01*
X120504390Y-112842875D01*
X120321241Y-112873437D01*
X120101730Y-112948796D01*
X120101721Y-112948799D01*
X119897597Y-113059266D01*
X119897591Y-113059270D01*
X119714448Y-113201816D01*
X119714445Y-113201819D01*
X119557242Y-113372587D01*
X119430301Y-113566886D01*
X119337068Y-113779434D01*
X119280092Y-114004426D01*
X119280090Y-114004437D01*
X119260926Y-114235728D01*
X119260926Y-114235741D01*
X115812642Y-114235741D01*
X115924214Y-113945087D01*
X116024602Y-113570433D01*
X116085278Y-113187338D01*
X116105578Y-112800000D01*
X116085278Y-112412662D01*
X116024602Y-112029567D01*
X115924214Y-111654913D01*
X115785214Y-111292806D01*
X115609125Y-110947211D01*
X115558236Y-110868849D01*
X115397877Y-110621917D01*
X115289737Y-110488375D01*
X115153781Y-110320484D01*
X114879516Y-110046219D01*
X114578084Y-109802124D01*
X114578082Y-109802122D01*
X114252793Y-109590877D01*
X114242242Y-109585501D01*
X114191446Y-109537527D01*
X114174651Y-109469706D01*
X114197188Y-109403571D01*
X114251903Y-109360119D01*
X114258274Y-109357735D01*
X114340282Y-109329580D01*
X114464503Y-109286936D01*
X114668626Y-109176470D01*
X114670004Y-109175398D01*
X114774071Y-109094399D01*
X114851784Y-109033913D01*
X115008979Y-108863153D01*
X115135924Y-108668849D01*
X115229157Y-108456300D01*
X115286134Y-108231305D01*
X115299437Y-108070749D01*
X115324591Y-108005566D01*
X115380993Y-107964328D01*
X115450736Y-107960130D01*
X115511678Y-107994304D01*
X115514198Y-107996960D01*
X115548216Y-108033913D01*
X115548219Y-108033915D01*
X115548220Y-108033916D01*
X115548222Y-108033918D01*
X115731365Y-108176464D01*
X115731371Y-108176468D01*
X115731374Y-108176470D01*
X115935497Y-108286936D01*
X116010391Y-108312647D01*
X116155015Y-108362297D01*
X116155017Y-108362297D01*
X116155019Y-108362298D01*
X116383951Y-108400500D01*
X116383952Y-108400500D01*
X116616048Y-108400500D01*
X116616049Y-108400500D01*
X116844981Y-108362298D01*
X117064503Y-108286936D01*
X117268626Y-108176470D01*
X117451784Y-108033913D01*
X117482997Y-108000006D01*
X126394700Y-108000006D01*
X126413864Y-108231297D01*
X126413866Y-108231308D01*
X126470842Y-108456300D01*
X126564075Y-108668848D01*
X126691016Y-108863147D01*
X126691019Y-108863150D01*
X126691021Y-108863153D01*
X126848216Y-109033913D01*
X126848219Y-109033915D01*
X126848222Y-109033918D01*
X127031365Y-109176464D01*
X127031371Y-109176468D01*
X127031374Y-109176470D01*
X127235497Y-109286936D01*
X127349487Y-109326068D01*
X127455015Y-109362297D01*
X127455017Y-109362297D01*
X127455019Y-109362298D01*
X127683951Y-109400500D01*
X127683952Y-109400500D01*
X127916048Y-109400500D01*
X127916049Y-109400500D01*
X128144981Y-109362298D01*
X128364503Y-109286936D01*
X128568626Y-109176470D01*
X128570004Y-109175398D01*
X128674071Y-109094399D01*
X128751784Y-109033913D01*
X128908979Y-108863153D01*
X129035924Y-108668849D01*
X129129157Y-108456300D01*
X129186134Y-108231305D01*
X129187842Y-108210694D01*
X129205300Y-108000006D01*
X129205300Y-107999993D01*
X129186135Y-107768702D01*
X129186133Y-107768691D01*
X129129157Y-107543699D01*
X129035924Y-107331151D01*
X128908983Y-107136852D01*
X128908980Y-107136849D01*
X128908979Y-107136847D01*
X128751784Y-106966087D01*
X128751779Y-106966083D01*
X128751777Y-106966081D01*
X128568634Y-106823535D01*
X128568628Y-106823531D01*
X128364504Y-106713064D01*
X128364495Y-106713061D01*
X128144984Y-106637702D01*
X127973282Y-106609050D01*
X127916049Y-106599500D01*
X127683951Y-106599500D01*
X127638164Y-106607140D01*
X127455015Y-106637702D01*
X127235504Y-106713061D01*
X127235495Y-106713064D01*
X127031371Y-106823531D01*
X127031365Y-106823535D01*
X126848222Y-106966081D01*
X126848219Y-106966084D01*
X126848216Y-106966086D01*
X126848216Y-106966087D01*
X126806091Y-107011847D01*
X126691016Y-107136852D01*
X126564075Y-107331151D01*
X126470842Y-107543699D01*
X126413866Y-107768691D01*
X126413864Y-107768702D01*
X126394700Y-107999993D01*
X126394700Y-108000006D01*
X117482997Y-108000006D01*
X117608979Y-107863153D01*
X117735924Y-107668849D01*
X117829157Y-107456300D01*
X117886134Y-107231305D01*
X117887220Y-107218202D01*
X117905300Y-107000006D01*
X117905300Y-106999994D01*
X117887617Y-106786594D01*
X117901698Y-106718158D01*
X117950543Y-106668199D01*
X118018644Y-106652578D01*
X118084380Y-106676255D01*
X118115002Y-106708532D01*
X118205756Y-106847442D01*
X118216021Y-106863153D01*
X118373216Y-107033913D01*
X118373219Y-107033915D01*
X118373222Y-107033918D01*
X118556365Y-107176464D01*
X118556371Y-107176468D01*
X118556374Y-107176470D01*
X118723860Y-107267109D01*
X118744594Y-107278330D01*
X118760497Y-107286936D01*
X118874487Y-107326068D01*
X118980015Y-107362297D01*
X118980017Y-107362297D01*
X118980019Y-107362298D01*
X119208951Y-107400500D01*
X119208952Y-107400500D01*
X119441048Y-107400500D01*
X119441049Y-107400500D01*
X119669981Y-107362298D01*
X119889503Y-107286936D01*
X120093626Y-107176470D01*
X120094264Y-107175974D01*
X120237917Y-107064164D01*
X120276784Y-107033913D01*
X120433979Y-106863153D01*
X120444244Y-106847442D01*
X120479355Y-106793700D01*
X120560924Y-106668849D01*
X120654157Y-106456300D01*
X120659578Y-106434892D01*
X131649059Y-106434892D01*
X131669654Y-106670295D01*
X131669656Y-106670305D01*
X131730812Y-106898547D01*
X131730814Y-106898551D01*
X131730815Y-106898555D01*
X131796711Y-107039869D01*
X131830683Y-107112722D01*
X131830685Y-107112726D01*
X131904533Y-107218191D01*
X131966223Y-107306293D01*
X132133317Y-107473387D01*
X132166379Y-107496537D01*
X132326883Y-107608924D01*
X132326885Y-107608925D01*
X132326888Y-107608927D01*
X132541055Y-107708795D01*
X132769310Y-107769955D01*
X132957636Y-107786431D01*
X133004717Y-107790551D01*
X133004718Y-107790551D01*
X133004719Y-107790551D01*
X133043952Y-107787118D01*
X133240126Y-107769955D01*
X133409845Y-107724479D01*
X133479694Y-107726142D01*
X133513060Y-107742678D01*
X133558556Y-107774535D01*
X133772723Y-107874403D01*
X133772729Y-107874404D01*
X133772730Y-107874405D01*
X133774951Y-107875000D01*
X134000978Y-107935563D01*
X134189304Y-107952039D01*
X134236385Y-107956159D01*
X134236386Y-107956159D01*
X134236387Y-107956159D01*
X134275620Y-107952726D01*
X134471794Y-107935563D01*
X134700049Y-107874403D01*
X134914216Y-107774535D01*
X135107787Y-107638995D01*
X135274881Y-107471901D01*
X135290562Y-107449506D01*
X138444700Y-107449506D01*
X138463864Y-107680797D01*
X138463866Y-107680808D01*
X138520842Y-107905800D01*
X138614075Y-108118348D01*
X138741016Y-108312647D01*
X138741019Y-108312651D01*
X138741021Y-108312653D01*
X138898216Y-108483413D01*
X138898219Y-108483415D01*
X138898222Y-108483418D01*
X139081365Y-108625964D01*
X139081371Y-108625968D01*
X139081374Y-108625970D01*
X139285497Y-108736436D01*
X139399487Y-108775568D01*
X139505015Y-108811797D01*
X139505017Y-108811797D01*
X139505019Y-108811798D01*
X139733951Y-108850000D01*
X139733952Y-108850000D01*
X139966048Y-108850000D01*
X139966049Y-108850000D01*
X140194981Y-108811798D01*
X140414503Y-108736436D01*
X140618626Y-108625970D01*
X140801784Y-108483413D01*
X140958979Y-108312653D01*
X141085924Y-108118349D01*
X141179157Y-107905800D01*
X141236134Y-107680805D01*
X141238567Y-107651445D01*
X141255300Y-107449506D01*
X141255300Y-107449493D01*
X141238770Y-107250006D01*
X147094700Y-107250006D01*
X147113864Y-107481297D01*
X147113866Y-107481308D01*
X147170842Y-107706300D01*
X147264075Y-107918848D01*
X147391016Y-108113147D01*
X147391019Y-108113151D01*
X147391021Y-108113153D01*
X147548216Y-108283913D01*
X147548219Y-108283915D01*
X147548222Y-108283918D01*
X147731365Y-108426464D01*
X147731371Y-108426468D01*
X147731374Y-108426470D01*
X147935497Y-108536936D01*
X148049487Y-108576068D01*
X148155015Y-108612297D01*
X148155017Y-108612297D01*
X148155019Y-108612298D01*
X148383951Y-108650500D01*
X148383952Y-108650500D01*
X148616048Y-108650500D01*
X148616049Y-108650500D01*
X148844981Y-108612298D01*
X149064503Y-108536936D01*
X149268626Y-108426470D01*
X149301993Y-108400500D01*
X149330129Y-108378600D01*
X149451784Y-108283913D01*
X149608979Y-108113153D01*
X149735924Y-107918849D01*
X149829157Y-107706300D01*
X149886134Y-107481305D01*
X149886790Y-107473387D01*
X149905300Y-107250006D01*
X149905300Y-107249993D01*
X149886135Y-107018702D01*
X149886133Y-107018691D01*
X149829157Y-106793699D01*
X149735924Y-106581151D01*
X149608983Y-106386852D01*
X149608980Y-106386849D01*
X149608979Y-106386847D01*
X149451784Y-106216087D01*
X149451779Y-106216083D01*
X149451777Y-106216081D01*
X149268634Y-106073535D01*
X149268628Y-106073531D01*
X149064504Y-105963064D01*
X149064495Y-105963061D01*
X148844984Y-105887702D01*
X148673282Y-105859050D01*
X148616049Y-105849500D01*
X148383951Y-105849500D01*
X148338164Y-105857140D01*
X148155015Y-105887702D01*
X147935504Y-105963061D01*
X147935495Y-105963064D01*
X147731371Y-106073531D01*
X147731365Y-106073535D01*
X147548222Y-106216081D01*
X147548219Y-106216084D01*
X147548216Y-106216086D01*
X147548216Y-106216087D01*
X147495796Y-106273031D01*
X147391016Y-106386852D01*
X147264075Y-106581151D01*
X147170842Y-106793699D01*
X147113866Y-107018691D01*
X147113864Y-107018702D01*
X147094700Y-107249993D01*
X147094700Y-107250006D01*
X141238770Y-107250006D01*
X141236135Y-107218202D01*
X141236133Y-107218191D01*
X141179157Y-106993199D01*
X141085924Y-106780651D01*
X140958983Y-106586352D01*
X140958980Y-106586349D01*
X140958979Y-106586347D01*
X140801784Y-106415587D01*
X140801779Y-106415583D01*
X140801777Y-106415581D01*
X140618634Y-106273035D01*
X140618628Y-106273031D01*
X140414504Y-106162564D01*
X140414495Y-106162561D01*
X140194984Y-106087202D01*
X140023282Y-106058550D01*
X139966049Y-106049000D01*
X139733951Y-106049000D01*
X139688164Y-106056640D01*
X139505015Y-106087202D01*
X139285504Y-106162561D01*
X139285495Y-106162564D01*
X139081371Y-106273031D01*
X139081365Y-106273035D01*
X138898222Y-106415581D01*
X138898219Y-106415584D01*
X138898216Y-106415586D01*
X138898216Y-106415587D01*
X138880445Y-106434892D01*
X138741016Y-106586352D01*
X138614075Y-106780651D01*
X138520842Y-106993199D01*
X138463866Y-107218191D01*
X138463864Y-107218202D01*
X138444700Y-107449493D01*
X138444700Y-107449506D01*
X135290562Y-107449506D01*
X135410421Y-107278330D01*
X135510289Y-107064163D01*
X135542344Y-106944526D01*
X135578709Y-106884866D01*
X135630028Y-106856844D01*
X135665117Y-106847442D01*
X135665118Y-106847441D01*
X135665127Y-106847439D01*
X135879294Y-106747571D01*
X136072865Y-106612031D01*
X136239959Y-106444937D01*
X136375499Y-106251366D01*
X136475367Y-106037199D01*
X136536527Y-105808944D01*
X136557123Y-105573536D01*
X136536527Y-105338128D01*
X136489063Y-105160986D01*
X136475369Y-105109880D01*
X136475368Y-105109879D01*
X136475367Y-105109873D01*
X136375499Y-104895707D01*
X136375497Y-104895703D01*
X136345760Y-104853235D01*
X136323432Y-104787029D01*
X136327559Y-104750018D01*
X136337461Y-104713064D01*
X136385063Y-104535408D01*
X136405659Y-104300000D01*
X136385063Y-104064592D01*
X136323903Y-103836337D01*
X136224035Y-103622171D01*
X136088960Y-103429264D01*
X136066634Y-103363059D01*
X136083644Y-103295292D01*
X136099305Y-103274161D01*
X136108979Y-103263653D01*
X136235924Y-103069349D01*
X136329157Y-102856800D01*
X136386134Y-102631805D01*
X136386135Y-102631797D01*
X136405300Y-102400506D01*
X136405300Y-102400493D01*
X136386135Y-102169202D01*
X136386133Y-102169191D01*
X136329157Y-101944199D01*
X136235924Y-101731651D01*
X136108983Y-101537352D01*
X136108980Y-101537349D01*
X136108979Y-101537347D01*
X135951784Y-101366587D01*
X135951779Y-101366583D01*
X135951777Y-101366581D01*
X135838549Y-101278452D01*
X135797736Y-101221742D01*
X135794061Y-101151969D01*
X135828693Y-101091286D01*
X135855689Y-101071547D01*
X136019859Y-100982703D01*
X136203017Y-100840146D01*
X136360212Y-100669386D01*
X136361397Y-100667573D01*
X136425896Y-100568849D01*
X136487157Y-100475082D01*
X136580390Y-100262533D01*
X136637367Y-100037538D01*
X136641886Y-99983005D01*
X136656533Y-99806239D01*
X136656533Y-99806226D01*
X136637368Y-99574935D01*
X136637367Y-99574932D01*
X136637367Y-99574928D01*
X136602214Y-99436113D01*
X136604839Y-99366293D01*
X136644795Y-99308976D01*
X136709396Y-99282359D01*
X136778132Y-99294893D01*
X136813650Y-99321691D01*
X136844423Y-99355120D01*
X136844432Y-99355128D01*
X136988369Y-99467159D01*
X137029182Y-99523869D01*
X137032857Y-99593642D01*
X137032413Y-99595451D01*
X137013865Y-99668696D01*
X136994700Y-99899993D01*
X136994700Y-99900006D01*
X137013864Y-100131297D01*
X137013866Y-100131308D01*
X137070842Y-100356300D01*
X137164075Y-100568848D01*
X137291016Y-100763147D01*
X137291019Y-100763151D01*
X137291021Y-100763153D01*
X137448216Y-100933913D01*
X137448219Y-100933915D01*
X137448222Y-100933918D01*
X137631365Y-101076464D01*
X137631371Y-101076468D01*
X137631374Y-101076470D01*
X137835497Y-101186936D01*
X137943548Y-101224030D01*
X138055015Y-101262297D01*
X138055017Y-101262297D01*
X138055019Y-101262298D01*
X138283951Y-101300500D01*
X138283952Y-101300500D01*
X138516048Y-101300500D01*
X138516049Y-101300500D01*
X138744981Y-101262298D01*
X138964503Y-101186936D01*
X139168626Y-101076470D01*
X139219420Y-101036936D01*
X139289106Y-100982697D01*
X139351784Y-100933913D01*
X139508979Y-100763153D01*
X139635924Y-100568849D01*
X139729157Y-100356300D01*
X139786134Y-100131305D01*
X139787989Y-100108918D01*
X139805300Y-99900006D01*
X139805300Y-99899993D01*
X139786135Y-99668702D01*
X139786133Y-99668691D01*
X139729157Y-99443699D01*
X139635924Y-99231151D01*
X139533910Y-99075006D01*
X144494700Y-99075006D01*
X144513864Y-99306297D01*
X144513866Y-99306308D01*
X144570842Y-99531300D01*
X144664075Y-99743848D01*
X144791016Y-99938147D01*
X144791019Y-99938151D01*
X144791021Y-99938153D01*
X144948216Y-100108913D01*
X144948219Y-100108915D01*
X144948222Y-100108918D01*
X145131365Y-100251464D01*
X145131371Y-100251468D01*
X145131374Y-100251470D01*
X145151817Y-100262533D01*
X145325082Y-100356300D01*
X145335497Y-100361936D01*
X145449487Y-100401068D01*
X145555015Y-100437297D01*
X145555017Y-100437297D01*
X145555019Y-100437298D01*
X145783951Y-100475500D01*
X145783952Y-100475500D01*
X146016048Y-100475500D01*
X146016049Y-100475500D01*
X146244981Y-100437298D01*
X146464503Y-100361936D01*
X146668626Y-100251470D01*
X146851784Y-100108913D01*
X147008979Y-99938153D01*
X147131901Y-99750006D01*
X151294700Y-99750006D01*
X151313864Y-99981297D01*
X151313866Y-99981308D01*
X151370842Y-100206300D01*
X151464075Y-100418848D01*
X151591016Y-100613147D01*
X151591019Y-100613151D01*
X151591021Y-100613153D01*
X151748216Y-100783913D01*
X151748219Y-100783915D01*
X151748222Y-100783918D01*
X151931365Y-100926464D01*
X151931371Y-100926468D01*
X151931374Y-100926470D01*
X152135497Y-101036936D01*
X152236307Y-101071544D01*
X152355015Y-101112297D01*
X152355017Y-101112297D01*
X152355019Y-101112298D01*
X152583951Y-101150500D01*
X152583952Y-101150500D01*
X152816048Y-101150500D01*
X152816049Y-101150500D01*
X153044981Y-101112298D01*
X153264503Y-101036936D01*
X153468626Y-100926470D01*
X153651784Y-100783913D01*
X153808979Y-100613153D01*
X153935924Y-100418849D01*
X154029157Y-100206300D01*
X154086134Y-99981305D01*
X154086135Y-99981297D01*
X154105300Y-99750006D01*
X154105300Y-99749993D01*
X154086135Y-99518702D01*
X154086133Y-99518691D01*
X154029157Y-99293699D01*
X153935924Y-99081151D01*
X153808983Y-98886852D01*
X153808980Y-98886849D01*
X153808979Y-98886847D01*
X153651784Y-98716087D01*
X153651779Y-98716083D01*
X153651777Y-98716081D01*
X153468634Y-98573535D01*
X153468628Y-98573531D01*
X153264504Y-98463064D01*
X153264495Y-98463061D01*
X153044984Y-98387702D01*
X152873282Y-98359050D01*
X152816049Y-98349500D01*
X152583951Y-98349500D01*
X152538164Y-98357140D01*
X152355015Y-98387702D01*
X152135504Y-98463061D01*
X152135495Y-98463064D01*
X151931371Y-98573531D01*
X151931365Y-98573535D01*
X151748222Y-98716081D01*
X151748219Y-98716084D01*
X151591016Y-98886852D01*
X151464075Y-99081151D01*
X151370842Y-99293699D01*
X151313866Y-99518691D01*
X151313864Y-99518702D01*
X151294700Y-99749993D01*
X151294700Y-99750006D01*
X147131901Y-99750006D01*
X147135924Y-99743849D01*
X147229157Y-99531300D01*
X147286134Y-99306305D01*
X147287080Y-99294893D01*
X147305300Y-99075006D01*
X147305300Y-99074993D01*
X147286135Y-98843702D01*
X147286133Y-98843691D01*
X147229157Y-98618699D01*
X147135924Y-98406151D01*
X147008983Y-98211852D01*
X147008980Y-98211849D01*
X147008979Y-98211847D01*
X146851784Y-98041087D01*
X146851779Y-98041083D01*
X146851777Y-98041081D01*
X146668634Y-97898535D01*
X146668628Y-97898531D01*
X146464504Y-97788064D01*
X146464495Y-97788061D01*
X146244984Y-97712702D01*
X146073281Y-97684050D01*
X146016049Y-97674500D01*
X145783951Y-97674500D01*
X145738164Y-97682140D01*
X145555015Y-97712702D01*
X145335504Y-97788061D01*
X145335495Y-97788064D01*
X145131371Y-97898531D01*
X145131365Y-97898535D01*
X144948222Y-98041081D01*
X144948219Y-98041084D01*
X144948216Y-98041086D01*
X144948216Y-98041087D01*
X144914856Y-98077326D01*
X144791016Y-98211852D01*
X144664075Y-98406151D01*
X144570842Y-98618699D01*
X144513866Y-98843691D01*
X144513864Y-98843702D01*
X144494700Y-99074993D01*
X144494700Y-99075006D01*
X139533910Y-99075006D01*
X139508983Y-99036852D01*
X139508980Y-99036849D01*
X139508979Y-99036847D01*
X139351784Y-98866087D01*
X139351779Y-98866083D01*
X139351777Y-98866081D01*
X139207840Y-98754050D01*
X139167027Y-98697340D01*
X139163352Y-98627567D01*
X139163797Y-98625756D01*
X139182341Y-98552526D01*
X139182344Y-98552515D01*
X139183094Y-98543462D01*
X139201510Y-98321216D01*
X139201510Y-98321203D01*
X139182345Y-98089912D01*
X139182343Y-98089901D01*
X139125367Y-97864909D01*
X139032134Y-97652361D01*
X138905193Y-97458062D01*
X138905190Y-97458059D01*
X138905189Y-97458057D01*
X138874764Y-97425006D01*
X140894700Y-97425006D01*
X140913864Y-97656297D01*
X140913866Y-97656308D01*
X140970842Y-97881300D01*
X141064075Y-98093848D01*
X141191016Y-98288147D01*
X141191019Y-98288151D01*
X141191021Y-98288153D01*
X141348216Y-98458913D01*
X141348219Y-98458915D01*
X141348222Y-98458918D01*
X141531365Y-98601464D01*
X141531371Y-98601468D01*
X141531374Y-98601470D01*
X141735497Y-98711936D01*
X141849487Y-98751068D01*
X141955015Y-98787297D01*
X141955017Y-98787297D01*
X141955019Y-98787298D01*
X142183951Y-98825500D01*
X142183952Y-98825500D01*
X142416048Y-98825500D01*
X142416049Y-98825500D01*
X142644981Y-98787298D01*
X142864503Y-98711936D01*
X143068626Y-98601470D01*
X143070514Y-98600001D01*
X143174779Y-98518848D01*
X143251784Y-98458913D01*
X143408979Y-98288153D01*
X143535924Y-98093849D01*
X143629157Y-97881300D01*
X143686134Y-97656305D01*
X143686135Y-97656297D01*
X143705300Y-97425006D01*
X143705300Y-97424993D01*
X143686135Y-97193702D01*
X143686133Y-97193691D01*
X143629157Y-96968699D01*
X143535924Y-96756151D01*
X143408983Y-96561852D01*
X143408980Y-96561849D01*
X143408979Y-96561847D01*
X143251784Y-96391087D01*
X143251779Y-96391083D01*
X143251777Y-96391081D01*
X143068634Y-96248535D01*
X143068628Y-96248531D01*
X142864504Y-96138064D01*
X142864495Y-96138061D01*
X142644984Y-96062702D01*
X142473282Y-96034050D01*
X142416049Y-96024500D01*
X142183951Y-96024500D01*
X142138164Y-96032140D01*
X141955015Y-96062702D01*
X141735504Y-96138061D01*
X141735495Y-96138064D01*
X141531371Y-96248531D01*
X141531365Y-96248535D01*
X141348222Y-96391081D01*
X141348219Y-96391084D01*
X141191016Y-96561852D01*
X141064075Y-96756151D01*
X140970842Y-96968699D01*
X140913866Y-97193691D01*
X140913864Y-97193702D01*
X140894700Y-97424993D01*
X140894700Y-97425006D01*
X138874764Y-97425006D01*
X138747994Y-97287297D01*
X138747989Y-97287293D01*
X138747987Y-97287291D01*
X138564844Y-97144745D01*
X138564838Y-97144741D01*
X138360714Y-97034274D01*
X138360705Y-97034271D01*
X138141194Y-96958912D01*
X137969491Y-96930260D01*
X137912259Y-96920710D01*
X137680161Y-96920710D01*
X137634374Y-96928350D01*
X137451225Y-96958912D01*
X137231714Y-97034271D01*
X137231705Y-97034274D01*
X137027581Y-97144741D01*
X137027575Y-97144745D01*
X136844432Y-97287291D01*
X136844429Y-97287294D01*
X136687226Y-97458062D01*
X136560285Y-97652361D01*
X136467052Y-97864909D01*
X136410076Y-98089901D01*
X136410074Y-98089912D01*
X136390910Y-98321203D01*
X136390910Y-98321216D01*
X136410074Y-98552507D01*
X136410076Y-98552519D01*
X136445228Y-98691329D01*
X136442603Y-98761149D01*
X136402646Y-98818467D01*
X136338045Y-98845083D01*
X136269309Y-98832548D01*
X136233795Y-98805754D01*
X136203017Y-98772320D01*
X136203015Y-98772319D01*
X136203013Y-98772316D01*
X136203010Y-98772314D01*
X136019867Y-98629768D01*
X136019861Y-98629764D01*
X135815737Y-98519297D01*
X135815728Y-98519294D01*
X135596217Y-98443935D01*
X135424514Y-98415283D01*
X135367282Y-98405733D01*
X135135184Y-98405733D01*
X135089397Y-98413373D01*
X134906248Y-98443935D01*
X134686737Y-98519294D01*
X134686728Y-98519297D01*
X134482604Y-98629764D01*
X134482598Y-98629768D01*
X134299455Y-98772314D01*
X134299452Y-98772317D01*
X134299449Y-98772319D01*
X134299449Y-98772320D01*
X134285662Y-98787297D01*
X134142249Y-98943085D01*
X134015308Y-99137384D01*
X133922075Y-99349932D01*
X133865099Y-99574924D01*
X133865097Y-99574935D01*
X133845932Y-99806226D01*
X133845932Y-99806239D01*
X133865097Y-100037530D01*
X133865099Y-100037541D01*
X133922075Y-100262533D01*
X134015308Y-100475081D01*
X134142249Y-100669380D01*
X134142252Y-100669384D01*
X134142254Y-100669386D01*
X134299449Y-100840146D01*
X134410351Y-100926464D01*
X134412683Y-100928279D01*
X134453496Y-100984990D01*
X134457171Y-101054763D01*
X134422539Y-101115446D01*
X134395539Y-101135188D01*
X134231371Y-101224031D01*
X134231365Y-101224035D01*
X134048222Y-101366581D01*
X134048219Y-101366584D01*
X133891016Y-101537352D01*
X133764075Y-101731651D01*
X133670842Y-101944199D01*
X133613866Y-102169191D01*
X133613864Y-102169202D01*
X133594700Y-102400493D01*
X133594700Y-102400506D01*
X133613864Y-102631797D01*
X133613866Y-102631808D01*
X133670842Y-102856800D01*
X133764075Y-103069348D01*
X133856165Y-103210302D01*
X133891021Y-103263653D01*
X133957491Y-103335859D01*
X133988413Y-103398514D01*
X133980553Y-103467940D01*
X133967836Y-103490965D01*
X133875965Y-103622169D01*
X133875964Y-103622171D01*
X133776098Y-103836335D01*
X133776094Y-103836344D01*
X133714938Y-104064586D01*
X133714936Y-104064596D01*
X133694341Y-104299999D01*
X133694341Y-104300000D01*
X133714936Y-104535403D01*
X133714938Y-104535413D01*
X133776094Y-104763655D01*
X133776096Y-104763659D01*
X133776097Y-104763663D01*
X133875965Y-104977830D01*
X133905704Y-105020301D01*
X133928031Y-105086508D01*
X133923904Y-105123519D01*
X133900623Y-105210405D01*
X133864258Y-105270065D01*
X133801411Y-105300594D01*
X133732035Y-105292299D01*
X133709727Y-105279887D01*
X133682552Y-105260860D01*
X133682546Y-105260856D01*
X133616311Y-105229970D01*
X133468381Y-105160989D01*
X133468377Y-105160988D01*
X133468373Y-105160986D01*
X133240131Y-105099830D01*
X133240121Y-105099828D01*
X133004719Y-105079233D01*
X133004717Y-105079233D01*
X132769314Y-105099828D01*
X132769304Y-105099830D01*
X132541062Y-105160986D01*
X132541053Y-105160990D01*
X132326889Y-105260856D01*
X132326887Y-105260857D01*
X132133315Y-105396397D01*
X131966223Y-105563489D01*
X131830683Y-105757061D01*
X131830682Y-105757063D01*
X131730816Y-105971227D01*
X131730812Y-105971236D01*
X131669656Y-106199478D01*
X131669654Y-106199488D01*
X131649059Y-106434891D01*
X131649059Y-106434892D01*
X120659578Y-106434892D01*
X120711134Y-106231305D01*
X120712395Y-106216087D01*
X120730300Y-106000006D01*
X120730300Y-105999993D01*
X120711135Y-105768702D01*
X120711133Y-105768691D01*
X120654157Y-105543699D01*
X120560924Y-105331151D01*
X120433983Y-105136852D01*
X120433980Y-105136849D01*
X120433979Y-105136847D01*
X120276784Y-104966087D01*
X120276779Y-104966083D01*
X120276777Y-104966081D01*
X120093634Y-104823535D01*
X120093628Y-104823531D01*
X119889504Y-104713064D01*
X119889495Y-104713061D01*
X119669984Y-104637702D01*
X119498281Y-104609050D01*
X119441049Y-104599500D01*
X119208951Y-104599500D01*
X119163164Y-104607140D01*
X118980015Y-104637702D01*
X118760504Y-104713061D01*
X118760495Y-104713064D01*
X118556371Y-104823531D01*
X118556365Y-104823535D01*
X118373222Y-104966081D01*
X118373219Y-104966084D01*
X118373216Y-104966086D01*
X118373216Y-104966087D01*
X118228291Y-105123519D01*
X118216015Y-105136854D01*
X118133108Y-105263753D01*
X118079962Y-105309109D01*
X118010731Y-105318533D01*
X117947395Y-105289031D01*
X117910064Y-105229970D01*
X117906574Y-105205040D01*
X117905724Y-105205111D01*
X117886135Y-104968702D01*
X117886133Y-104968691D01*
X117829157Y-104743699D01*
X117735924Y-104531151D01*
X117608983Y-104336852D01*
X117608980Y-104336849D01*
X117608979Y-104336847D01*
X117451784Y-104166087D01*
X117451779Y-104166083D01*
X117451777Y-104166081D01*
X117268634Y-104023535D01*
X117268628Y-104023531D01*
X117064504Y-103913064D01*
X117064495Y-103913061D01*
X116844984Y-103837702D01*
X116673282Y-103809050D01*
X116616049Y-103799500D01*
X116383951Y-103799500D01*
X116369148Y-103801970D01*
X116299784Y-103793585D01*
X116245963Y-103749031D01*
X116238544Y-103735565D01*
X116238366Y-103735662D01*
X116235927Y-103731155D01*
X116108983Y-103536852D01*
X116108980Y-103536849D01*
X116108979Y-103536847D01*
X115951784Y-103366087D01*
X115951779Y-103366083D01*
X115951777Y-103366081D01*
X115768634Y-103223535D01*
X115768628Y-103223531D01*
X115564504Y-103113064D01*
X115564495Y-103113061D01*
X115344984Y-103037702D01*
X115173282Y-103009050D01*
X115116049Y-102999500D01*
X114883951Y-102999500D01*
X114838164Y-103007140D01*
X114655015Y-103037702D01*
X114435504Y-103113061D01*
X114435495Y-103113064D01*
X114231371Y-103223531D01*
X114231365Y-103223535D01*
X114048222Y-103366081D01*
X114048219Y-103366084D01*
X113891016Y-103536852D01*
X113764075Y-103731151D01*
X113670842Y-103943699D01*
X113613866Y-104168691D01*
X113613864Y-104168702D01*
X113594700Y-104399993D01*
X113594700Y-104400006D01*
X113613864Y-104631297D01*
X113613866Y-104631308D01*
X113670842Y-104856300D01*
X113764075Y-105068848D01*
X113891015Y-105263145D01*
X113891017Y-105263147D01*
X113891021Y-105263153D01*
X114048216Y-105433913D01*
X114048219Y-105433915D01*
X114048222Y-105433918D01*
X114231365Y-105576464D01*
X114231371Y-105576468D01*
X114231374Y-105576470D01*
X114435497Y-105686936D01*
X114549487Y-105726068D01*
X114655015Y-105762297D01*
X114655017Y-105762297D01*
X114655019Y-105762298D01*
X114883951Y-105800500D01*
X114883952Y-105800500D01*
X115116051Y-105800500D01*
X115130845Y-105798031D01*
X115200210Y-105806411D01*
X115254033Y-105850962D01*
X115261458Y-105864440D01*
X115261638Y-105864343D01*
X115264079Y-105868854D01*
X115370784Y-106032179D01*
X115390972Y-106099068D01*
X115371791Y-106166254D01*
X115370784Y-106167821D01*
X115264075Y-106331151D01*
X115170842Y-106543699D01*
X115113866Y-106768691D01*
X115113864Y-106768703D01*
X115100561Y-106929248D01*
X115075408Y-106994433D01*
X115019006Y-107035671D01*
X114949262Y-107039869D01*
X114888321Y-107005695D01*
X114885802Y-107003041D01*
X114851784Y-106966087D01*
X114851779Y-106966083D01*
X114851777Y-106966081D01*
X114668634Y-106823535D01*
X114668628Y-106823531D01*
X114464504Y-106713064D01*
X114464495Y-106713061D01*
X114244984Y-106637702D01*
X114073282Y-106609050D01*
X114016049Y-106599500D01*
X113783951Y-106599500D01*
X113738164Y-106607140D01*
X113555015Y-106637702D01*
X113335504Y-106713061D01*
X113335495Y-106713064D01*
X113131371Y-106823531D01*
X113131365Y-106823535D01*
X112948222Y-106966081D01*
X112948219Y-106966084D01*
X112948216Y-106966086D01*
X112948216Y-106966087D01*
X112906091Y-107011847D01*
X112791016Y-107136852D01*
X112664075Y-107331151D01*
X112570842Y-107543699D01*
X112513866Y-107768691D01*
X112513864Y-107768702D01*
X112494700Y-107999993D01*
X112494700Y-108000006D01*
X112513864Y-108231297D01*
X112513866Y-108231308D01*
X112570842Y-108456300D01*
X112664075Y-108668848D01*
X112749434Y-108799500D01*
X112791021Y-108863153D01*
X112828576Y-108903949D01*
X112859499Y-108966602D01*
X112851639Y-109036028D01*
X112807492Y-109090184D01*
X112741075Y-109111875D01*
X112730858Y-109111761D01*
X112400002Y-109094422D01*
X112399999Y-109094422D01*
X112012660Y-109114722D01*
X111629572Y-109175397D01*
X111629570Y-109175397D01*
X111487326Y-109213511D01*
X111254913Y-109275786D01*
X111254910Y-109275787D01*
X111254903Y-109275789D01*
X111231165Y-109284901D01*
X111161524Y-109290547D01*
X111099885Y-109257646D01*
X111065820Y-109196644D01*
X111070142Y-109126908D01*
X111111480Y-109070579D01*
X111127705Y-109060085D01*
X111143626Y-109051470D01*
X111166184Y-109033913D01*
X111256798Y-108963385D01*
X111326784Y-108908913D01*
X111483979Y-108738153D01*
X111485100Y-108736438D01*
X111497832Y-108716948D01*
X111610924Y-108543849D01*
X111704157Y-108331300D01*
X111761134Y-108106305D01*
X111767132Y-108033918D01*
X111780300Y-107875006D01*
X111780300Y-107874993D01*
X111761135Y-107643702D01*
X111761133Y-107643691D01*
X111704157Y-107418699D01*
X111610924Y-107206151D01*
X111483983Y-107011852D01*
X111483980Y-107011849D01*
X111483979Y-107011847D01*
X111326784Y-106841087D01*
X111326779Y-106841083D01*
X111326777Y-106841081D01*
X111143634Y-106698535D01*
X111143628Y-106698531D01*
X110939504Y-106588064D01*
X110939495Y-106588061D01*
X110719984Y-106512702D01*
X110548281Y-106484050D01*
X110491049Y-106474500D01*
X110258951Y-106474500D01*
X110213164Y-106482140D01*
X110030015Y-106512702D01*
X109810504Y-106588061D01*
X109810495Y-106588064D01*
X109606371Y-106698531D01*
X109606365Y-106698535D01*
X109423222Y-106841081D01*
X109423219Y-106841084D01*
X109423216Y-106841086D01*
X109423216Y-106841087D01*
X109402907Y-106863149D01*
X109266016Y-107011852D01*
X109139075Y-107206151D01*
X109045842Y-107418699D01*
X108988866Y-107643691D01*
X108988864Y-107643702D01*
X108969700Y-107874993D01*
X108969700Y-107875006D01*
X108988864Y-108106297D01*
X108988866Y-108106308D01*
X109045842Y-108331300D01*
X109139075Y-108543848D01*
X109266016Y-108738147D01*
X109266019Y-108738151D01*
X109266021Y-108738153D01*
X109423216Y-108908913D01*
X109423219Y-108908915D01*
X109423222Y-108908918D01*
X109606365Y-109051464D01*
X109606371Y-109051468D01*
X109606374Y-109051470D01*
X109810497Y-109161936D01*
X109911598Y-109196644D01*
X110030015Y-109237297D01*
X110030017Y-109237297D01*
X110030019Y-109237298D01*
X110258951Y-109275500D01*
X110258952Y-109275500D01*
X110491048Y-109275500D01*
X110491049Y-109275500D01*
X110701508Y-109240380D01*
X110770870Y-109248762D01*
X110824692Y-109293314D01*
X110845883Y-109359893D01*
X110827716Y-109427359D01*
X110778210Y-109473174D01*
X110547206Y-109590877D01*
X110221917Y-109802122D01*
X109920488Y-110046215D01*
X109920480Y-110046222D01*
X109646222Y-110320480D01*
X109646215Y-110320488D01*
X109402122Y-110621917D01*
X109190877Y-110947206D01*
X109014787Y-111292802D01*
X108875788Y-111654905D01*
X108875786Y-111654913D01*
X108844274Y-111772517D01*
X108807910Y-111832176D01*
X108745063Y-111862705D01*
X108675687Y-111854410D01*
X108621809Y-111809925D01*
X108600535Y-111743373D01*
X108600500Y-111740422D01*
X108600500Y-103125006D01*
X108869700Y-103125006D01*
X108888864Y-103356297D01*
X108888866Y-103356308D01*
X108945842Y-103581300D01*
X109039075Y-103793848D01*
X109166016Y-103988147D01*
X109166019Y-103988151D01*
X109166021Y-103988153D01*
X109323216Y-104158913D01*
X109323219Y-104158915D01*
X109323222Y-104158918D01*
X109506365Y-104301464D01*
X109506371Y-104301468D01*
X109506374Y-104301470D01*
X109710497Y-104411936D01*
X109821496Y-104450042D01*
X109930015Y-104487297D01*
X109930017Y-104487297D01*
X109930019Y-104487298D01*
X110158951Y-104525500D01*
X110158952Y-104525500D01*
X110391048Y-104525500D01*
X110391049Y-104525500D01*
X110619981Y-104487298D01*
X110839503Y-104411936D01*
X111043626Y-104301470D01*
X111226784Y-104158913D01*
X111383979Y-103988153D01*
X111510924Y-103793849D01*
X111604157Y-103581300D01*
X111661134Y-103356305D01*
X111662577Y-103338890D01*
X111680300Y-103125006D01*
X111680300Y-103124993D01*
X111661135Y-102893702D01*
X111661133Y-102893691D01*
X111604157Y-102668699D01*
X111510924Y-102456151D01*
X111470991Y-102395029D01*
X129799676Y-102395029D01*
X129818841Y-102626320D01*
X129818843Y-102626331D01*
X129875819Y-102851323D01*
X129969052Y-103063871D01*
X130095993Y-103258170D01*
X130095996Y-103258174D01*
X130095998Y-103258176D01*
X130253193Y-103428936D01*
X130253196Y-103428938D01*
X130253199Y-103428941D01*
X130436342Y-103571487D01*
X130436348Y-103571491D01*
X130436351Y-103571493D01*
X130454473Y-103581300D01*
X130631225Y-103676954D01*
X130640474Y-103681959D01*
X130754464Y-103721091D01*
X130859992Y-103757320D01*
X130859994Y-103757320D01*
X130859996Y-103757321D01*
X131088928Y-103795523D01*
X131088929Y-103795523D01*
X131321025Y-103795523D01*
X131321026Y-103795523D01*
X131549958Y-103757321D01*
X131769480Y-103681959D01*
X131973603Y-103571493D01*
X132156761Y-103428936D01*
X132313956Y-103258176D01*
X132440901Y-103063872D01*
X132534134Y-102851323D01*
X132591111Y-102626328D01*
X132610277Y-102395023D01*
X132599242Y-102261847D01*
X132591112Y-102163725D01*
X132591110Y-102163714D01*
X132534134Y-101938722D01*
X132440901Y-101726174D01*
X132313960Y-101531875D01*
X132313957Y-101531872D01*
X132313956Y-101531870D01*
X132156761Y-101361110D01*
X132156756Y-101361106D01*
X132156754Y-101361104D01*
X131973611Y-101218558D01*
X131973605Y-101218554D01*
X131769481Y-101108087D01*
X131769472Y-101108084D01*
X131549961Y-101032725D01*
X131378258Y-101004073D01*
X131321026Y-100994523D01*
X131088928Y-100994523D01*
X131043141Y-101002163D01*
X130859992Y-101032725D01*
X130640481Y-101108084D01*
X130640472Y-101108087D01*
X130436348Y-101218554D01*
X130436342Y-101218558D01*
X130253199Y-101361104D01*
X130253196Y-101361107D01*
X130095993Y-101531875D01*
X129969052Y-101726174D01*
X129875819Y-101938722D01*
X129818843Y-102163714D01*
X129818841Y-102163725D01*
X129799676Y-102395016D01*
X129799676Y-102395029D01*
X111470991Y-102395029D01*
X111383983Y-102261852D01*
X111383980Y-102261849D01*
X111383979Y-102261847D01*
X111226784Y-102091087D01*
X111226779Y-102091083D01*
X111226777Y-102091081D01*
X111043634Y-101948535D01*
X111043628Y-101948531D01*
X110839504Y-101838064D01*
X110839495Y-101838061D01*
X110619984Y-101762702D01*
X110448282Y-101734050D01*
X110391049Y-101724500D01*
X110158951Y-101724500D01*
X110116097Y-101731651D01*
X109930015Y-101762702D01*
X109710504Y-101838061D01*
X109710495Y-101838064D01*
X109506371Y-101948531D01*
X109506365Y-101948535D01*
X109323222Y-102091081D01*
X109323219Y-102091084D01*
X109166016Y-102261852D01*
X109039075Y-102456151D01*
X108945842Y-102668699D01*
X108888866Y-102893691D01*
X108888864Y-102893702D01*
X108869700Y-103124993D01*
X108869700Y-103125006D01*
X108600500Y-103125006D01*
X108600500Y-98980001D01*
X110144773Y-98980001D01*
X110163657Y-99244027D01*
X110163658Y-99244034D01*
X110219921Y-99502673D01*
X110312426Y-99750690D01*
X110312428Y-99750694D01*
X110439280Y-99983005D01*
X110439285Y-99983013D01*
X110597906Y-100194907D01*
X110597922Y-100194925D01*
X110785074Y-100382077D01*
X110785092Y-100382093D01*
X110996986Y-100540714D01*
X110996994Y-100540719D01*
X111229305Y-100667571D01*
X111229309Y-100667573D01*
X111229311Y-100667574D01*
X111477322Y-100760077D01*
X111477325Y-100760077D01*
X111477326Y-100760078D01*
X111491462Y-100763153D01*
X111735974Y-100816343D01*
X111979660Y-100833772D01*
X111999999Y-100835227D01*
X112000000Y-100835227D01*
X112000001Y-100835227D01*
X112018885Y-100833876D01*
X112264026Y-100816343D01*
X112522678Y-100760077D01*
X112770689Y-100667574D01*
X113003011Y-100540716D01*
X113214915Y-100382087D01*
X113402087Y-100194915D01*
X113560716Y-99983011D01*
X113687574Y-99750689D01*
X113780077Y-99502678D01*
X113836343Y-99244026D01*
X113855227Y-98980000D01*
X113836343Y-98715974D01*
X113806415Y-98578397D01*
X113780078Y-98457326D01*
X113775083Y-98443935D01*
X113687574Y-98209311D01*
X113615504Y-98077326D01*
X113560719Y-97976994D01*
X113560714Y-97976986D01*
X113416479Y-97784310D01*
X113392062Y-97718846D01*
X113406914Y-97650573D01*
X113416479Y-97635690D01*
X113478263Y-97553155D01*
X113560716Y-97443011D01*
X113687574Y-97210689D01*
X113780077Y-96962678D01*
X113836343Y-96704026D01*
X113855227Y-96440000D01*
X113838062Y-96200006D01*
X117394700Y-96200006D01*
X117413864Y-96431297D01*
X117413866Y-96431308D01*
X117470842Y-96656300D01*
X117564075Y-96868848D01*
X117691016Y-97063147D01*
X117691019Y-97063151D01*
X117691021Y-97063153D01*
X117848216Y-97233913D01*
X117848219Y-97233915D01*
X117848222Y-97233918D01*
X118031365Y-97376464D01*
X118031371Y-97376468D01*
X118031374Y-97376470D01*
X118235497Y-97486936D01*
X118349487Y-97526068D01*
X118455015Y-97562297D01*
X118455017Y-97562297D01*
X118455019Y-97562298D01*
X118683951Y-97600500D01*
X118683952Y-97600500D01*
X118916048Y-97600500D01*
X118916049Y-97600500D01*
X119144981Y-97562298D01*
X119364503Y-97486936D01*
X119568626Y-97376470D01*
X119751784Y-97233913D01*
X119908979Y-97063153D01*
X120035924Y-96868849D01*
X120129157Y-96656300D01*
X120186134Y-96431305D01*
X120186135Y-96431297D01*
X120196378Y-96307681D01*
X129687024Y-96307681D01*
X129706188Y-96538972D01*
X129706190Y-96538983D01*
X129763166Y-96763973D01*
X129856399Y-96976524D01*
X129882522Y-97016508D01*
X129902710Y-97083398D01*
X129883529Y-97150584D01*
X129882524Y-97152147D01*
X129863576Y-97181150D01*
X129863573Y-97181156D01*
X129770342Y-97393699D01*
X129713366Y-97618691D01*
X129713364Y-97618702D01*
X129694200Y-97849993D01*
X129694200Y-97850006D01*
X129713364Y-98081297D01*
X129713366Y-98081308D01*
X129770342Y-98306300D01*
X129863575Y-98518848D01*
X129990516Y-98713147D01*
X129990519Y-98713151D01*
X129990521Y-98713153D01*
X130147716Y-98883913D01*
X130147719Y-98883915D01*
X130147722Y-98883918D01*
X130330865Y-99026464D01*
X130330871Y-99026468D01*
X130330874Y-99026470D01*
X130534997Y-99136936D01*
X130648987Y-99176068D01*
X130754515Y-99212297D01*
X130754517Y-99212297D01*
X130754519Y-99212298D01*
X130983451Y-99250500D01*
X130983452Y-99250500D01*
X131215548Y-99250500D01*
X131215549Y-99250500D01*
X131444481Y-99212298D01*
X131664003Y-99136936D01*
X131868126Y-99026470D01*
X132051284Y-98883913D01*
X132208479Y-98713153D01*
X132335424Y-98518849D01*
X132428657Y-98306300D01*
X132485634Y-98081305D01*
X132485964Y-98077322D01*
X132504800Y-97850006D01*
X132504800Y-97849993D01*
X132485635Y-97618702D01*
X132485633Y-97618691D01*
X132428657Y-97393699D01*
X132335425Y-97181153D01*
X132335423Y-97181150D01*
X132309300Y-97141165D01*
X132289113Y-97074278D01*
X132308292Y-97007093D01*
X132309256Y-97005591D01*
X132328248Y-96976524D01*
X132421481Y-96763975D01*
X132421562Y-96763658D01*
X132478457Y-96538983D01*
X132478459Y-96538972D01*
X132497624Y-96307681D01*
X132497624Y-96307668D01*
X132478459Y-96076377D01*
X132478457Y-96076366D01*
X132421481Y-95851374D01*
X132328248Y-95638826D01*
X132201307Y-95444527D01*
X132201304Y-95444524D01*
X132201303Y-95444522D01*
X132044108Y-95273762D01*
X132044103Y-95273758D01*
X132044101Y-95273756D01*
X131860958Y-95131210D01*
X131860952Y-95131206D01*
X131656828Y-95020739D01*
X131656819Y-95020736D01*
X131437308Y-94945377D01*
X131265605Y-94916725D01*
X131208373Y-94907175D01*
X130976275Y-94907175D01*
X130941002Y-94913061D01*
X130747339Y-94945377D01*
X130527828Y-95020736D01*
X130527819Y-95020739D01*
X130323695Y-95131206D01*
X130323689Y-95131210D01*
X130140546Y-95273756D01*
X130140543Y-95273759D01*
X129983340Y-95444527D01*
X129856399Y-95638826D01*
X129763166Y-95851374D01*
X129706190Y-96076366D01*
X129706188Y-96076377D01*
X129687024Y-96307668D01*
X129687024Y-96307681D01*
X120196378Y-96307681D01*
X120205300Y-96200006D01*
X120205300Y-96199993D01*
X120186135Y-95968702D01*
X120186133Y-95968691D01*
X120129157Y-95743699D01*
X120035924Y-95531151D01*
X119908983Y-95336852D01*
X119908980Y-95336849D01*
X119908979Y-95336847D01*
X119751784Y-95166087D01*
X119751779Y-95166083D01*
X119751777Y-95166081D01*
X119568634Y-95023535D01*
X119568628Y-95023531D01*
X119364504Y-94913064D01*
X119364495Y-94913061D01*
X119144984Y-94837702D01*
X118973281Y-94809050D01*
X118916049Y-94799500D01*
X118683951Y-94799500D01*
X118638164Y-94807140D01*
X118455015Y-94837702D01*
X118235504Y-94913061D01*
X118235495Y-94913064D01*
X118031371Y-95023531D01*
X118031365Y-95023535D01*
X117848222Y-95166081D01*
X117848219Y-95166084D01*
X117848216Y-95166086D01*
X117848216Y-95166087D01*
X117827903Y-95188153D01*
X117691016Y-95336852D01*
X117564075Y-95531151D01*
X117470842Y-95743699D01*
X117413866Y-95968691D01*
X117413864Y-95968702D01*
X117394700Y-96199993D01*
X117394700Y-96200006D01*
X113838062Y-96200006D01*
X113836343Y-96175974D01*
X113791254Y-95968702D01*
X113780078Y-95917326D01*
X113755479Y-95851374D01*
X113687574Y-95669311D01*
X113670093Y-95637298D01*
X113560719Y-95436994D01*
X113560714Y-95436986D01*
X113416479Y-95244310D01*
X113392062Y-95178846D01*
X113406914Y-95110573D01*
X113416479Y-95095690D01*
X113553190Y-94913064D01*
X113560716Y-94903011D01*
X113687574Y-94670689D01*
X113780077Y-94422678D01*
X113801324Y-94325006D01*
X143119700Y-94325006D01*
X143138864Y-94556297D01*
X143138866Y-94556308D01*
X143195842Y-94781300D01*
X143289075Y-94993848D01*
X143416016Y-95188147D01*
X143416019Y-95188151D01*
X143416021Y-95188153D01*
X143573216Y-95358913D01*
X143573219Y-95358915D01*
X143573222Y-95358918D01*
X143756365Y-95501464D01*
X143756371Y-95501468D01*
X143756374Y-95501470D01*
X143960497Y-95611936D01*
X144034371Y-95637297D01*
X144180015Y-95687297D01*
X144180017Y-95687297D01*
X144180019Y-95687298D01*
X144408951Y-95725500D01*
X144408952Y-95725500D01*
X144641048Y-95725500D01*
X144641049Y-95725500D01*
X144869981Y-95687298D01*
X145089503Y-95611936D01*
X145293626Y-95501470D01*
X145476784Y-95358913D01*
X145633979Y-95188153D01*
X145760924Y-94993849D01*
X145854157Y-94781300D01*
X145911134Y-94556305D01*
X145915278Y-94506297D01*
X145930300Y-94325006D01*
X145930300Y-94324993D01*
X145926158Y-94275006D01*
X147119700Y-94275006D01*
X147138864Y-94506297D01*
X147138866Y-94506308D01*
X147195842Y-94731300D01*
X147289075Y-94943848D01*
X147416016Y-95138147D01*
X147416019Y-95138151D01*
X147416021Y-95138153D01*
X147573216Y-95308913D01*
X147573219Y-95308915D01*
X147573222Y-95308918D01*
X147756365Y-95451464D01*
X147756371Y-95451468D01*
X147756374Y-95451470D01*
X147960497Y-95561936D01*
X148074487Y-95601068D01*
X148180015Y-95637297D01*
X148180017Y-95637297D01*
X148180019Y-95637298D01*
X148408951Y-95675500D01*
X148408952Y-95675500D01*
X148641048Y-95675500D01*
X148641049Y-95675500D01*
X148869981Y-95637298D01*
X149089503Y-95561936D01*
X149293626Y-95451470D01*
X149302547Y-95444527D01*
X149412541Y-95358915D01*
X149476784Y-95308913D01*
X149633979Y-95138153D01*
X149760924Y-94943849D01*
X149854157Y-94731300D01*
X149911134Y-94506305D01*
X149911135Y-94506297D01*
X149930300Y-94275006D01*
X149930300Y-94274993D01*
X149911135Y-94043702D01*
X149911133Y-94043691D01*
X149854157Y-93818699D01*
X149760924Y-93606151D01*
X149633983Y-93411852D01*
X149633980Y-93411849D01*
X149633979Y-93411847D01*
X149476784Y-93241087D01*
X149476779Y-93241083D01*
X149476777Y-93241081D01*
X149293634Y-93098535D01*
X149293628Y-93098531D01*
X149089504Y-92988064D01*
X149089495Y-92988061D01*
X148869984Y-92912702D01*
X148698281Y-92884050D01*
X148641049Y-92874500D01*
X148408951Y-92874500D01*
X148363164Y-92882140D01*
X148180015Y-92912702D01*
X147960504Y-92988061D01*
X147960495Y-92988064D01*
X147756371Y-93098531D01*
X147756365Y-93098535D01*
X147573222Y-93241081D01*
X147573219Y-93241084D01*
X147573216Y-93241086D01*
X147573216Y-93241087D01*
X147527191Y-93291084D01*
X147416016Y-93411852D01*
X147289075Y-93606151D01*
X147195842Y-93818699D01*
X147138866Y-94043691D01*
X147138864Y-94043702D01*
X147119700Y-94274993D01*
X147119700Y-94275006D01*
X145926158Y-94275006D01*
X145911135Y-94093702D01*
X145911133Y-94093691D01*
X145854157Y-93868699D01*
X145760924Y-93656151D01*
X145633983Y-93461852D01*
X145633980Y-93461849D01*
X145633979Y-93461847D01*
X145476784Y-93291087D01*
X145476779Y-93291083D01*
X145476777Y-93291081D01*
X145293634Y-93148535D01*
X145293628Y-93148531D01*
X145089504Y-93038064D01*
X145089495Y-93038061D01*
X144869984Y-92962702D01*
X144698281Y-92934050D01*
X144641049Y-92924500D01*
X144408951Y-92924500D01*
X144363164Y-92932140D01*
X144180015Y-92962702D01*
X143960504Y-93038061D01*
X143960495Y-93038064D01*
X143756371Y-93148531D01*
X143756365Y-93148535D01*
X143573222Y-93291081D01*
X143573219Y-93291084D01*
X143416016Y-93461852D01*
X143289075Y-93656151D01*
X143195842Y-93868699D01*
X143138866Y-94093691D01*
X143138864Y-94093702D01*
X143119700Y-94324993D01*
X143119700Y-94325006D01*
X113801324Y-94325006D01*
X113836343Y-94164026D01*
X113855227Y-93900000D01*
X113836343Y-93635974D01*
X113787589Y-93411852D01*
X113780078Y-93377326D01*
X113747910Y-93291081D01*
X113687574Y-93129311D01*
X113637747Y-93038061D01*
X113608717Y-92984896D01*
X113593865Y-92916624D01*
X113618282Y-92851159D01*
X113621426Y-92847134D01*
X113659855Y-92800006D01*
X114994700Y-92800006D01*
X115013864Y-93031297D01*
X115013866Y-93031308D01*
X115070842Y-93256300D01*
X115164075Y-93468848D01*
X115291016Y-93663147D01*
X115291019Y-93663151D01*
X115291021Y-93663153D01*
X115448216Y-93833913D01*
X115448219Y-93833915D01*
X115448222Y-93833918D01*
X115631365Y-93976464D01*
X115631371Y-93976468D01*
X115631374Y-93976470D01*
X115835497Y-94086936D01*
X115949487Y-94126068D01*
X116055015Y-94162297D01*
X116055017Y-94162297D01*
X116055019Y-94162298D01*
X116283951Y-94200500D01*
X116283952Y-94200500D01*
X116516048Y-94200500D01*
X116516049Y-94200500D01*
X116744981Y-94162298D01*
X116964503Y-94086936D01*
X117168626Y-93976470D01*
X117351784Y-93833913D01*
X117508979Y-93663153D01*
X117635924Y-93468849D01*
X117729157Y-93256300D01*
X117786134Y-93031305D01*
X117789717Y-92988064D01*
X117805300Y-92800006D01*
X117805300Y-92799993D01*
X117786135Y-92568702D01*
X117786133Y-92568691D01*
X117729157Y-92343699D01*
X117635924Y-92131151D01*
X117508983Y-91936852D01*
X117508980Y-91936849D01*
X117508979Y-91936847D01*
X117351784Y-91766087D01*
X117351779Y-91766083D01*
X117351777Y-91766081D01*
X117168634Y-91623535D01*
X117168628Y-91623531D01*
X116964504Y-91513064D01*
X116964495Y-91513061D01*
X116744984Y-91437702D01*
X116573281Y-91409050D01*
X116516049Y-91399500D01*
X116283951Y-91399500D01*
X116238164Y-91407140D01*
X116055015Y-91437702D01*
X115835504Y-91513061D01*
X115835495Y-91513064D01*
X115631371Y-91623531D01*
X115631365Y-91623535D01*
X115448222Y-91766081D01*
X115448219Y-91766084D01*
X115291016Y-91936852D01*
X115164075Y-92131151D01*
X115070842Y-92343699D01*
X115013866Y-92568691D01*
X115013864Y-92568702D01*
X114994700Y-92799993D01*
X114994700Y-92800006D01*
X113659855Y-92800006D01*
X113689698Y-92763407D01*
X113783909Y-92583049D01*
X113839886Y-92387418D01*
X113850500Y-92268037D01*
X113850499Y-90451964D01*
X113839886Y-90332582D01*
X113792877Y-90168292D01*
X113783910Y-90136954D01*
X113783909Y-90136953D01*
X113783909Y-90136951D01*
X113689698Y-89956593D01*
X113637684Y-89892803D01*
X113561109Y-89798890D01*
X113403409Y-89670304D01*
X113403410Y-89670304D01*
X113403407Y-89670302D01*
X113223049Y-89576091D01*
X113223048Y-89576090D01*
X113223045Y-89576089D01*
X113105829Y-89542550D01*
X113027418Y-89520114D01*
X113027415Y-89520113D01*
X113027413Y-89520113D01*
X112936983Y-89512073D01*
X112908037Y-89509500D01*
X112908035Y-89509500D01*
X112908034Y-89509500D01*
X112132096Y-89509500D01*
X111091964Y-89509501D01*
X111062727Y-89512100D01*
X110972584Y-89520113D01*
X110776954Y-89576089D01*
X110686772Y-89623196D01*
X110596593Y-89670302D01*
X110596591Y-89670303D01*
X110596590Y-89670304D01*
X110438890Y-89798890D01*
X110310304Y-89956590D01*
X110216089Y-90136954D01*
X110160114Y-90332583D01*
X110160113Y-90332586D01*
X110149500Y-90451965D01*
X110149500Y-90451966D01*
X110149501Y-92268032D01*
X110149501Y-92268033D01*
X110160113Y-92387415D01*
X110216089Y-92583045D01*
X110216090Y-92583047D01*
X110216091Y-92583049D01*
X110310302Y-92763407D01*
X110310304Y-92763409D01*
X110378551Y-92847108D01*
X110405660Y-92911505D01*
X110393651Y-92980334D01*
X110391282Y-92984895D01*
X110312426Y-93129309D01*
X110219921Y-93377326D01*
X110163658Y-93635965D01*
X110163657Y-93635972D01*
X110144773Y-93899998D01*
X110144773Y-93900001D01*
X110163657Y-94164027D01*
X110163658Y-94164034D01*
X110219921Y-94422673D01*
X110312426Y-94670690D01*
X110312428Y-94670694D01*
X110439280Y-94903005D01*
X110439285Y-94903013D01*
X110583520Y-95095690D01*
X110607937Y-95161155D01*
X110593085Y-95229427D01*
X110583520Y-95244310D01*
X110439285Y-95436986D01*
X110439280Y-95436994D01*
X110312428Y-95669305D01*
X110312426Y-95669309D01*
X110219921Y-95917326D01*
X110163658Y-96175965D01*
X110163657Y-96175972D01*
X110144773Y-96439998D01*
X110144773Y-96440001D01*
X110163657Y-96704027D01*
X110163658Y-96704034D01*
X110219921Y-96962673D01*
X110312426Y-97210690D01*
X110312428Y-97210694D01*
X110439280Y-97443005D01*
X110439285Y-97443013D01*
X110583520Y-97635690D01*
X110607937Y-97701155D01*
X110593085Y-97769427D01*
X110583520Y-97784310D01*
X110439285Y-97976986D01*
X110439280Y-97976994D01*
X110312428Y-98209305D01*
X110312426Y-98209309D01*
X110219921Y-98457326D01*
X110163658Y-98715965D01*
X110163657Y-98715972D01*
X110144773Y-98979998D01*
X110144773Y-98980001D01*
X108600500Y-98980001D01*
X108600500Y-88063743D01*
X108620185Y-87996704D01*
X108672989Y-87950949D01*
X108742147Y-87941005D01*
X108783518Y-87954689D01*
X108935486Y-88036931D01*
X108935492Y-88036933D01*
X108935497Y-88036936D01*
X109013583Y-88063743D01*
X109155015Y-88112297D01*
X109155017Y-88112297D01*
X109155019Y-88112298D01*
X109383951Y-88150500D01*
X109383952Y-88150500D01*
X109616048Y-88150500D01*
X109616049Y-88150500D01*
X109844981Y-88112298D01*
X110064503Y-88036936D01*
X110268626Y-87926470D01*
X110298836Y-87902956D01*
X110363831Y-87877313D01*
X110432371Y-87890879D01*
X110451163Y-87902956D01*
X110481374Y-87926470D01*
X110685497Y-88036936D01*
X110763583Y-88063743D01*
X110905015Y-88112297D01*
X110905017Y-88112297D01*
X110905019Y-88112298D01*
X111133951Y-88150500D01*
X111133952Y-88150500D01*
X111366048Y-88150500D01*
X111366049Y-88150500D01*
X111594981Y-88112298D01*
X111814503Y-88036936D01*
X112018626Y-87926470D01*
X112048836Y-87902956D01*
X112113831Y-87877313D01*
X112182371Y-87890879D01*
X112201163Y-87902956D01*
X112231374Y-87926470D01*
X112435497Y-88036936D01*
X112513583Y-88063743D01*
X112655015Y-88112297D01*
X112655017Y-88112297D01*
X112655019Y-88112298D01*
X112883951Y-88150500D01*
X112883952Y-88150500D01*
X113116048Y-88150500D01*
X113116049Y-88150500D01*
X113344981Y-88112298D01*
X113564503Y-88036936D01*
X113768626Y-87926470D01*
X113798836Y-87902956D01*
X113863831Y-87877313D01*
X113932371Y-87890879D01*
X113951163Y-87902956D01*
X113981374Y-87926470D01*
X114185497Y-88036936D01*
X114263583Y-88063743D01*
X114405015Y-88112297D01*
X114405017Y-88112297D01*
X114405019Y-88112298D01*
X114633951Y-88150500D01*
X114633952Y-88150500D01*
X114866048Y-88150500D01*
X114866049Y-88150500D01*
X115094981Y-88112298D01*
X115314503Y-88036936D01*
X115518626Y-87926470D01*
X115701784Y-87783913D01*
X115858979Y-87613153D01*
X115985924Y-87418849D01*
X116079157Y-87206300D01*
X116136134Y-86981305D01*
X116141379Y-86918005D01*
X116155300Y-86750006D01*
X116155300Y-86749993D01*
X116136135Y-86518702D01*
X116136133Y-86518691D01*
X116079157Y-86293699D01*
X115985924Y-86081151D01*
X115900243Y-85950006D01*
X118694700Y-85950006D01*
X118713864Y-86181297D01*
X118713866Y-86181308D01*
X118770842Y-86406300D01*
X118864075Y-86618848D01*
X118991016Y-86813147D01*
X118991019Y-86813151D01*
X118991021Y-86813153D01*
X119148216Y-86983913D01*
X119148219Y-86983915D01*
X119148222Y-86983918D01*
X119331365Y-87126464D01*
X119331371Y-87126468D01*
X119331374Y-87126470D01*
X119535497Y-87236936D01*
X119631538Y-87269907D01*
X119755015Y-87312297D01*
X119755017Y-87312297D01*
X119755019Y-87312298D01*
X119983951Y-87350500D01*
X119983952Y-87350500D01*
X120216048Y-87350500D01*
X120216049Y-87350500D01*
X120444981Y-87312298D01*
X120664503Y-87236936D01*
X120868626Y-87126470D01*
X120885031Y-87113702D01*
X120990009Y-87031994D01*
X121051784Y-86983913D01*
X121208979Y-86813153D01*
X121335924Y-86618849D01*
X121429157Y-86406300D01*
X121486134Y-86181305D01*
X121486135Y-86181297D01*
X121505300Y-85950006D01*
X121505300Y-85949993D01*
X121486135Y-85718702D01*
X121486133Y-85718691D01*
X121429157Y-85493699D01*
X121388059Y-85400006D01*
X126894700Y-85400006D01*
X126913864Y-85631297D01*
X126913866Y-85631308D01*
X126970842Y-85856300D01*
X127064075Y-86068848D01*
X127191016Y-86263147D01*
X127191019Y-86263151D01*
X127191021Y-86263153D01*
X127348216Y-86433913D01*
X127348219Y-86433915D01*
X127348222Y-86433918D01*
X127531365Y-86576464D01*
X127531371Y-86576468D01*
X127531374Y-86576470D01*
X127735497Y-86686936D01*
X127775008Y-86700500D01*
X127955015Y-86762297D01*
X127955017Y-86762297D01*
X127955019Y-86762298D01*
X128183951Y-86800500D01*
X128183952Y-86800500D01*
X128416048Y-86800500D01*
X128416049Y-86800500D01*
X128644981Y-86762298D01*
X128864503Y-86686936D01*
X129068626Y-86576470D01*
X129081291Y-86566613D01*
X129183283Y-86487229D01*
X129251784Y-86433913D01*
X129268354Y-86415912D01*
X129328237Y-86379922D01*
X129398076Y-86382019D01*
X129435745Y-86402039D01*
X129531374Y-86476470D01*
X129735497Y-86586936D01*
X129849487Y-86626068D01*
X129955015Y-86662297D01*
X129955017Y-86662297D01*
X129955019Y-86662298D01*
X130183951Y-86700500D01*
X130183952Y-86700500D01*
X130416048Y-86700500D01*
X130416049Y-86700500D01*
X130644981Y-86662298D01*
X130864503Y-86586936D01*
X131068626Y-86476470D01*
X131251784Y-86333913D01*
X131408979Y-86163153D01*
X131418428Y-86148691D01*
X131433346Y-86125856D01*
X131535924Y-85968849D01*
X131629157Y-85756300D01*
X131679794Y-85556338D01*
X131715333Y-85496185D01*
X131777753Y-85464793D01*
X131847236Y-85472131D01*
X131901722Y-85515869D01*
X131920204Y-85556340D01*
X131970841Y-85756295D01*
X131970841Y-85756296D01*
X132064075Y-85968848D01*
X132191016Y-86163147D01*
X132191019Y-86163151D01*
X132191021Y-86163153D01*
X132348216Y-86333913D01*
X132348219Y-86333915D01*
X132348222Y-86333918D01*
X132531365Y-86476464D01*
X132531371Y-86476468D01*
X132531374Y-86476470D01*
X132609399Y-86518695D01*
X132716157Y-86576470D01*
X132735497Y-86586936D01*
X132849487Y-86626068D01*
X132955015Y-86662297D01*
X132955017Y-86662297D01*
X132955019Y-86662298D01*
X133183951Y-86700500D01*
X133183952Y-86700500D01*
X133416048Y-86700500D01*
X133416049Y-86700500D01*
X133644981Y-86662298D01*
X133864503Y-86586936D01*
X133937380Y-86547496D01*
X134005707Y-86532902D01*
X134071080Y-86557565D01*
X134112741Y-86613655D01*
X134117463Y-86683365D01*
X134092405Y-86731440D01*
X134094164Y-86732809D01*
X134091021Y-86736846D01*
X133964075Y-86931151D01*
X133870842Y-87143699D01*
X133813866Y-87368691D01*
X133813864Y-87368702D01*
X133794700Y-87599993D01*
X133794700Y-87600006D01*
X133813864Y-87831297D01*
X133813866Y-87831308D01*
X133870842Y-88056300D01*
X133964075Y-88268848D01*
X134091016Y-88463147D01*
X134091019Y-88463151D01*
X134091021Y-88463153D01*
X134248216Y-88633913D01*
X134248219Y-88633915D01*
X134248222Y-88633918D01*
X134431365Y-88776464D01*
X134431371Y-88776468D01*
X134431374Y-88776470D01*
X134635497Y-88886936D01*
X134749487Y-88926068D01*
X134855015Y-88962297D01*
X134855017Y-88962297D01*
X134855019Y-88962298D01*
X135083951Y-89000500D01*
X135083952Y-89000500D01*
X135316048Y-89000500D01*
X135316049Y-89000500D01*
X135544981Y-88962298D01*
X135764503Y-88886936D01*
X135968626Y-88776470D01*
X136151784Y-88633913D01*
X136258771Y-88517693D01*
X136318657Y-88481704D01*
X136388495Y-88483804D01*
X136441228Y-88517692D01*
X136548216Y-88633913D01*
X136548219Y-88633915D01*
X136548222Y-88633918D01*
X136731365Y-88776464D01*
X136731371Y-88776468D01*
X136731374Y-88776470D01*
X136935497Y-88886936D01*
X137049487Y-88926068D01*
X137155015Y-88962297D01*
X137155017Y-88962297D01*
X137155019Y-88962298D01*
X137383951Y-89000500D01*
X137383952Y-89000500D01*
X137616048Y-89000500D01*
X137616049Y-89000500D01*
X137844981Y-88962298D01*
X138064503Y-88886936D01*
X138268626Y-88776470D01*
X138451784Y-88633913D01*
X138608979Y-88463153D01*
X138735924Y-88268849D01*
X138829157Y-88056300D01*
X138886134Y-87831305D01*
X138888620Y-87801305D01*
X138902815Y-87630000D01*
X140723932Y-87630000D01*
X140744190Y-88016554D01*
X140804743Y-88398866D01*
X140804744Y-88398873D01*
X140904929Y-88772770D01*
X141043648Y-89134143D01*
X141219381Y-89479038D01*
X141430194Y-89803662D01*
X141430198Y-89803667D01*
X141430200Y-89803670D01*
X141673800Y-90104490D01*
X141947510Y-90378200D01*
X142248330Y-90621800D01*
X142248334Y-90621802D01*
X142248337Y-90621805D01*
X142572961Y-90832618D01*
X142572966Y-90832621D01*
X142917860Y-91008353D01*
X143279234Y-91147072D01*
X143653128Y-91247256D01*
X144035447Y-91307810D01*
X144400620Y-91326947D01*
X144421999Y-91328068D01*
X144422000Y-91328068D01*
X144422001Y-91328068D01*
X144442258Y-91327006D01*
X144808553Y-91307810D01*
X145190872Y-91247256D01*
X145564766Y-91147072D01*
X145926140Y-91008353D01*
X146271034Y-90832621D01*
X146595670Y-90621800D01*
X146896490Y-90378200D01*
X147170200Y-90104490D01*
X147413800Y-89803670D01*
X147516541Y-89645463D01*
X147624620Y-89479036D01*
X147624621Y-89479034D01*
X147629386Y-89469682D01*
X147677358Y-89418884D01*
X147745178Y-89402086D01*
X147811314Y-89424620D01*
X147842506Y-89456384D01*
X147878520Y-89509501D01*
X147970706Y-89645466D01*
X148204155Y-89920302D01*
X148465953Y-90168291D01*
X148465954Y-90168292D01*
X148587134Y-90260410D01*
X148753032Y-90386522D01*
X148753040Y-90386527D01*
X148753052Y-90386535D01*
X149062015Y-90572431D01*
X149062020Y-90572434D01*
X149062024Y-90572435D01*
X149062028Y-90572438D01*
X149389287Y-90723844D01*
X149389298Y-90723849D01*
X149731028Y-90838991D01*
X150083204Y-90916511D01*
X150441697Y-90955500D01*
X150441702Y-90955500D01*
X150802298Y-90955500D01*
X150802303Y-90955500D01*
X151160796Y-90916511D01*
X151512972Y-90838991D01*
X151854702Y-90723849D01*
X152181980Y-90572434D01*
X152382204Y-90451963D01*
X152490947Y-90386535D01*
X152490951Y-90386532D01*
X152490968Y-90386522D01*
X152778045Y-90168292D01*
X153039844Y-89920303D01*
X153273296Y-89645463D01*
X153475663Y-89346992D01*
X153644575Y-89028392D01*
X153778049Y-88693397D01*
X153874521Y-88345934D01*
X153920784Y-88063743D01*
X153932859Y-87990092D01*
X153932859Y-87990089D01*
X153932861Y-87990078D01*
X153952384Y-87630000D01*
X153932861Y-87269922D01*
X153928520Y-87243445D01*
X153874523Y-86914078D01*
X153874522Y-86914077D01*
X153874521Y-86914066D01*
X153824196Y-86732809D01*
X153778052Y-86566613D01*
X153778050Y-86566606D01*
X153758963Y-86518702D01*
X153703702Y-86380006D01*
X155554700Y-86380006D01*
X155573864Y-86611297D01*
X155573866Y-86611308D01*
X155630842Y-86836298D01*
X155694833Y-86982184D01*
X155703736Y-87051485D01*
X155694834Y-87081801D01*
X155680843Y-87113697D01*
X155680842Y-87113701D01*
X155623866Y-87338691D01*
X155623864Y-87338702D01*
X155604700Y-87569993D01*
X155604700Y-87570006D01*
X155623864Y-87801297D01*
X155623866Y-87801308D01*
X155680842Y-88026300D01*
X155774075Y-88238848D01*
X155901016Y-88433147D01*
X155901019Y-88433151D01*
X155901021Y-88433153D01*
X156058216Y-88603913D01*
X156058219Y-88603915D01*
X156058222Y-88603918D01*
X156241365Y-88746464D01*
X156241371Y-88746468D01*
X156241374Y-88746470D01*
X156445497Y-88856936D01*
X156532881Y-88886935D01*
X156665015Y-88932297D01*
X156665017Y-88932297D01*
X156665019Y-88932298D01*
X156893951Y-88970500D01*
X156893952Y-88970500D01*
X157126048Y-88970500D01*
X157126049Y-88970500D01*
X157354981Y-88932298D01*
X157574503Y-88856936D01*
X157778626Y-88746470D01*
X157961784Y-88603913D01*
X158118979Y-88433153D01*
X158245924Y-88238849D01*
X158339157Y-88026300D01*
X158396134Y-87801305D01*
X158397575Y-87783913D01*
X158415300Y-87570006D01*
X158415300Y-87569993D01*
X158396135Y-87338702D01*
X158396133Y-87338691D01*
X158370365Y-87236936D01*
X158339157Y-87113700D01*
X158275164Y-86967812D01*
X158266262Y-86898516D01*
X158275164Y-86868199D01*
X158289157Y-86836300D01*
X158346134Y-86611305D01*
X158348153Y-86586938D01*
X158365300Y-86380006D01*
X158365300Y-86379993D01*
X158346135Y-86148702D01*
X158346133Y-86148691D01*
X158289157Y-85923699D01*
X158195924Y-85711151D01*
X158068983Y-85516852D01*
X158068980Y-85516849D01*
X158068979Y-85516847D01*
X157911784Y-85346087D01*
X157911779Y-85346083D01*
X157911777Y-85346081D01*
X157728634Y-85203535D01*
X157728628Y-85203531D01*
X157524504Y-85093064D01*
X157524495Y-85093061D01*
X157304984Y-85017702D01*
X157133281Y-84989050D01*
X157076049Y-84979500D01*
X156843951Y-84979500D01*
X156798164Y-84987140D01*
X156615015Y-85017702D01*
X156395504Y-85093061D01*
X156395495Y-85093064D01*
X156191371Y-85203531D01*
X156191365Y-85203535D01*
X156008222Y-85346081D01*
X156008219Y-85346084D01*
X156008216Y-85346086D01*
X156008216Y-85346087D01*
X155969907Y-85387702D01*
X155851016Y-85516852D01*
X155724075Y-85711151D01*
X155630842Y-85923699D01*
X155573866Y-86148691D01*
X155573864Y-86148702D01*
X155554700Y-86379993D01*
X155554700Y-86380006D01*
X153703702Y-86380006D01*
X153684390Y-86331536D01*
X153644579Y-86231617D01*
X153644570Y-86231599D01*
X153475665Y-85913010D01*
X153273293Y-85614533D01*
X153039844Y-85339697D01*
X152778046Y-85091708D01*
X152778045Y-85091707D01*
X152618634Y-84970527D01*
X152490968Y-84873478D01*
X152490962Y-84873474D01*
X152490947Y-84873464D01*
X152181984Y-84687568D01*
X152181971Y-84687561D01*
X151854712Y-84536155D01*
X151854707Y-84536153D01*
X151854702Y-84536151D01*
X151688127Y-84480025D01*
X151512971Y-84421008D01*
X151160794Y-84343488D01*
X150822412Y-84306687D01*
X150757894Y-84279870D01*
X150718116Y-84222428D01*
X150715709Y-84152600D01*
X150720626Y-84137517D01*
X150726197Y-84123535D01*
X150778049Y-83993397D01*
X150874521Y-83645934D01*
X150932861Y-83290078D01*
X150952384Y-82930000D01*
X150932861Y-82569922D01*
X150925737Y-82526470D01*
X150874523Y-82214078D01*
X150874522Y-82214077D01*
X150874521Y-82214066D01*
X150818738Y-82013153D01*
X150778052Y-81866613D01*
X150778050Y-81866606D01*
X150762058Y-81826470D01*
X150685110Y-81633343D01*
X150644579Y-81531617D01*
X150644570Y-81531599D01*
X150634787Y-81513147D01*
X150564885Y-81381297D01*
X150475665Y-81213010D01*
X150432947Y-81150006D01*
X151644700Y-81150006D01*
X151663864Y-81381297D01*
X151663866Y-81381308D01*
X151720842Y-81606300D01*
X151814075Y-81818848D01*
X151941016Y-82013147D01*
X151941019Y-82013151D01*
X151941021Y-82013153D01*
X152098216Y-82183913D01*
X152098219Y-82183915D01*
X152098222Y-82183918D01*
X152281365Y-82326464D01*
X152281371Y-82326468D01*
X152281374Y-82326470D01*
X152485497Y-82436936D01*
X152599487Y-82476068D01*
X152705015Y-82512297D01*
X152705017Y-82512297D01*
X152705019Y-82512298D01*
X152933951Y-82550500D01*
X152933952Y-82550500D01*
X153166048Y-82550500D01*
X153166049Y-82550500D01*
X153394981Y-82512298D01*
X153614503Y-82436936D01*
X153818626Y-82326470D01*
X154001784Y-82183913D01*
X154158979Y-82013153D01*
X154285924Y-81818849D01*
X154379157Y-81606300D01*
X154425067Y-81425006D01*
X154894700Y-81425006D01*
X154913864Y-81656297D01*
X154913866Y-81656308D01*
X154970842Y-81881300D01*
X155064075Y-82093848D01*
X155191016Y-82288147D01*
X155191019Y-82288151D01*
X155191021Y-82288153D01*
X155348216Y-82458913D01*
X155348219Y-82458915D01*
X155348222Y-82458918D01*
X155531365Y-82601464D01*
X155531371Y-82601468D01*
X155531374Y-82601470D01*
X155735497Y-82711936D01*
X155847830Y-82750500D01*
X155955015Y-82787297D01*
X155955017Y-82787297D01*
X155955019Y-82787298D01*
X156183951Y-82825500D01*
X156183952Y-82825500D01*
X156416048Y-82825500D01*
X156416049Y-82825500D01*
X156644981Y-82787298D01*
X156864503Y-82711936D01*
X157068626Y-82601470D01*
X157109157Y-82569924D01*
X157164994Y-82526464D01*
X157251784Y-82458913D01*
X157408979Y-82288153D01*
X157535924Y-82093849D01*
X157629157Y-81881300D01*
X157686134Y-81656305D01*
X157688037Y-81633342D01*
X157705300Y-81425006D01*
X157705300Y-81424993D01*
X157686135Y-81193702D01*
X157686133Y-81193691D01*
X157629157Y-80968699D01*
X157535924Y-80756151D01*
X157408983Y-80561852D01*
X157408980Y-80561849D01*
X157408979Y-80561847D01*
X157251784Y-80391087D01*
X157251779Y-80391083D01*
X157251777Y-80391081D01*
X157068634Y-80248535D01*
X157068628Y-80248531D01*
X156864504Y-80138064D01*
X156864495Y-80138061D01*
X156644984Y-80062702D01*
X156473282Y-80034050D01*
X156416049Y-80024500D01*
X156183951Y-80024500D01*
X156138164Y-80032140D01*
X155955015Y-80062702D01*
X155735504Y-80138061D01*
X155735495Y-80138064D01*
X155531371Y-80248531D01*
X155531365Y-80248535D01*
X155348222Y-80391081D01*
X155348219Y-80391084D01*
X155348216Y-80391086D01*
X155348216Y-80391087D01*
X155322805Y-80418691D01*
X155191016Y-80561852D01*
X155064075Y-80756151D01*
X154970842Y-80968699D01*
X154913866Y-81193691D01*
X154913864Y-81193702D01*
X154894700Y-81424993D01*
X154894700Y-81425006D01*
X154425067Y-81425006D01*
X154436134Y-81381305D01*
X154436135Y-81381297D01*
X154455300Y-81150006D01*
X154455300Y-81149993D01*
X154436135Y-80918702D01*
X154436133Y-80918691D01*
X154379157Y-80693699D01*
X154285924Y-80481151D01*
X154158983Y-80286852D01*
X154158980Y-80286849D01*
X154158979Y-80286847D01*
X154001784Y-80116087D01*
X154001779Y-80116083D01*
X154001777Y-80116081D01*
X153818634Y-79973535D01*
X153818628Y-79973531D01*
X153614504Y-79863064D01*
X153614495Y-79863061D01*
X153394984Y-79787702D01*
X153223281Y-79759050D01*
X153166049Y-79749500D01*
X152933951Y-79749500D01*
X152888164Y-79757140D01*
X152705015Y-79787702D01*
X152485504Y-79863061D01*
X152485495Y-79863064D01*
X152281371Y-79973531D01*
X152281365Y-79973535D01*
X152098222Y-80116081D01*
X152098219Y-80116084D01*
X151941016Y-80286852D01*
X151814075Y-80481151D01*
X151720842Y-80693699D01*
X151663866Y-80918691D01*
X151663864Y-80918702D01*
X151644700Y-81149993D01*
X151644700Y-81150006D01*
X150432947Y-81150006D01*
X150310019Y-80968700D01*
X150273296Y-80914537D01*
X150246248Y-80882694D01*
X150039844Y-80639697D01*
X149778046Y-80391708D01*
X149778045Y-80391707D01*
X149589704Y-80248535D01*
X149490968Y-80173478D01*
X149490962Y-80173474D01*
X149490947Y-80173464D01*
X149181984Y-79987568D01*
X149181971Y-79987561D01*
X148854712Y-79836155D01*
X148854707Y-79836153D01*
X148854702Y-79836151D01*
X148650481Y-79767341D01*
X148512971Y-79721008D01*
X148160794Y-79643488D01*
X147802304Y-79604500D01*
X147802303Y-79604500D01*
X147441697Y-79604500D01*
X147441695Y-79604500D01*
X147083205Y-79643488D01*
X146731028Y-79721008D01*
X146466865Y-79810015D01*
X146389298Y-79836151D01*
X146389295Y-79836152D01*
X146389287Y-79836155D01*
X146062028Y-79987561D01*
X146062015Y-79987568D01*
X145753052Y-80173464D01*
X145753036Y-80173475D01*
X145465954Y-80391707D01*
X145465953Y-80391708D01*
X145204155Y-80639697D01*
X144970706Y-80914533D01*
X144768334Y-81213010D01*
X144599429Y-81531599D01*
X144599420Y-81531617D01*
X144465949Y-81866606D01*
X144465947Y-81866613D01*
X144369482Y-82214052D01*
X144369476Y-82214078D01*
X144311140Y-82569907D01*
X144311139Y-82569920D01*
X144311139Y-82569922D01*
X144304282Y-82696395D01*
X144291616Y-82929997D01*
X144291616Y-82930002D01*
X144311139Y-83290075D01*
X144311140Y-83290092D01*
X144369476Y-83645921D01*
X144369482Y-83645947D01*
X144407153Y-83781628D01*
X144406121Y-83851490D01*
X144367482Y-83909704D01*
X144303504Y-83937786D01*
X144294163Y-83938631D01*
X144035445Y-83952190D01*
X143653133Y-84012743D01*
X143653126Y-84012744D01*
X143279229Y-84112929D01*
X142917856Y-84251648D01*
X142572961Y-84427381D01*
X142248337Y-84638194D01*
X141947514Y-84881796D01*
X141947506Y-84881803D01*
X141673803Y-85155506D01*
X141673796Y-85155514D01*
X141430194Y-85456337D01*
X141219381Y-85780961D01*
X141043648Y-86125856D01*
X140904929Y-86487229D01*
X140804744Y-86861126D01*
X140804743Y-86861133D01*
X140744190Y-87243445D01*
X140723932Y-87629999D01*
X140723932Y-87630000D01*
X138902815Y-87630000D01*
X138905300Y-87600006D01*
X138905300Y-87599993D01*
X138886135Y-87368702D01*
X138886133Y-87368691D01*
X138829157Y-87143699D01*
X138735924Y-86931151D01*
X138608983Y-86736852D01*
X138608980Y-86736849D01*
X138608979Y-86736847D01*
X138451784Y-86566087D01*
X138451779Y-86566083D01*
X138451777Y-86566081D01*
X138268634Y-86423535D01*
X138268628Y-86423531D01*
X138064504Y-86313064D01*
X138064495Y-86313061D01*
X137844984Y-86237702D01*
X137673282Y-86209050D01*
X137616049Y-86199500D01*
X137383951Y-86199500D01*
X137338164Y-86207140D01*
X137155015Y-86237702D01*
X136935504Y-86313061D01*
X136935495Y-86313064D01*
X136731371Y-86423531D01*
X136731365Y-86423535D01*
X136548222Y-86566081D01*
X136548218Y-86566084D01*
X136441230Y-86682305D01*
X136381342Y-86718296D01*
X136311504Y-86716195D01*
X136258770Y-86682305D01*
X136193403Y-86611297D01*
X136151784Y-86566087D01*
X136151783Y-86566086D01*
X136151781Y-86566084D01*
X136151777Y-86566081D01*
X135968634Y-86423535D01*
X135968628Y-86423531D01*
X135764504Y-86313064D01*
X135764495Y-86313061D01*
X135544984Y-86237702D01*
X135373281Y-86209050D01*
X135316049Y-86199500D01*
X135083951Y-86199500D01*
X135038164Y-86207140D01*
X134855015Y-86237702D01*
X134635504Y-86313061D01*
X134635494Y-86313065D01*
X134562618Y-86352503D01*
X134494290Y-86367097D01*
X134428918Y-86342433D01*
X134387258Y-86286342D01*
X134382536Y-86216632D01*
X134407856Y-86168763D01*
X134405836Y-86167191D01*
X134408972Y-86163160D01*
X134408979Y-86163153D01*
X134535924Y-85968849D01*
X134629157Y-85756300D01*
X134686134Y-85531305D01*
X134689250Y-85493699D01*
X134705300Y-85300006D01*
X134705300Y-85299993D01*
X134686135Y-85068702D01*
X134686133Y-85068691D01*
X134629157Y-84843699D01*
X134535924Y-84631151D01*
X134408983Y-84436852D01*
X134408980Y-84436849D01*
X134408979Y-84436847D01*
X134251784Y-84266087D01*
X134251779Y-84266083D01*
X134251777Y-84266081D01*
X134068634Y-84123535D01*
X134068628Y-84123531D01*
X133864504Y-84013064D01*
X133864495Y-84013061D01*
X133644984Y-83937702D01*
X133473282Y-83909050D01*
X133416049Y-83899500D01*
X133183951Y-83899500D01*
X133138164Y-83907140D01*
X132955015Y-83937702D01*
X132735504Y-84013061D01*
X132735495Y-84013064D01*
X132531371Y-84123531D01*
X132531365Y-84123535D01*
X132348222Y-84266081D01*
X132348219Y-84266084D01*
X132348216Y-84266086D01*
X132348216Y-84266087D01*
X132310841Y-84306687D01*
X132191016Y-84436852D01*
X132064075Y-84631151D01*
X131970841Y-84843703D01*
X131970841Y-84843704D01*
X131920204Y-85043659D01*
X131884665Y-85103815D01*
X131822244Y-85135206D01*
X131752761Y-85127868D01*
X131698275Y-85084128D01*
X131679794Y-85043661D01*
X131629157Y-84843700D01*
X131535924Y-84631151D01*
X131535923Y-84631151D01*
X131408983Y-84436852D01*
X131408980Y-84436849D01*
X131408979Y-84436847D01*
X131251784Y-84266087D01*
X131251779Y-84266083D01*
X131251777Y-84266081D01*
X131068634Y-84123535D01*
X131068628Y-84123531D01*
X130864504Y-84013064D01*
X130864495Y-84013061D01*
X130644984Y-83937702D01*
X130473282Y-83909050D01*
X130416049Y-83899500D01*
X130183951Y-83899500D01*
X130138164Y-83907140D01*
X129955015Y-83937702D01*
X129735504Y-84013061D01*
X129735495Y-84013064D01*
X129531372Y-84123531D01*
X129348216Y-84266086D01*
X129348211Y-84266091D01*
X129331642Y-84284090D01*
X129271755Y-84320079D01*
X129201917Y-84317978D01*
X129164251Y-84297958D01*
X129068628Y-84223531D01*
X128864504Y-84113064D01*
X128864495Y-84113061D01*
X128644984Y-84037702D01*
X128473282Y-84009050D01*
X128416049Y-83999500D01*
X128183951Y-83999500D01*
X128138164Y-84007140D01*
X127955015Y-84037702D01*
X127735504Y-84113061D01*
X127735495Y-84113064D01*
X127531371Y-84223531D01*
X127531365Y-84223535D01*
X127348222Y-84366081D01*
X127348219Y-84366084D01*
X127191016Y-84536852D01*
X127064075Y-84731151D01*
X126970842Y-84943699D01*
X126913866Y-85168691D01*
X126913864Y-85168702D01*
X126894700Y-85399993D01*
X126894700Y-85400006D01*
X121388059Y-85400006D01*
X121335924Y-85281151D01*
X121208983Y-85086852D01*
X121208980Y-85086849D01*
X121208979Y-85086847D01*
X121051784Y-84916087D01*
X121051779Y-84916083D01*
X121051777Y-84916081D01*
X120868634Y-84773535D01*
X120868628Y-84773531D01*
X120664504Y-84663064D01*
X120664495Y-84663061D01*
X120444984Y-84587702D01*
X120273282Y-84559050D01*
X120216049Y-84549500D01*
X119983951Y-84549500D01*
X119938164Y-84557140D01*
X119755015Y-84587702D01*
X119535504Y-84663061D01*
X119535495Y-84663064D01*
X119331371Y-84773531D01*
X119331365Y-84773535D01*
X119148222Y-84916081D01*
X119148219Y-84916084D01*
X119148216Y-84916086D01*
X119148216Y-84916087D01*
X119122797Y-84943700D01*
X118991016Y-85086852D01*
X118864075Y-85281151D01*
X118770842Y-85493699D01*
X118713866Y-85718691D01*
X118713864Y-85718702D01*
X118694700Y-85949993D01*
X118694700Y-85950006D01*
X115900243Y-85950006D01*
X115858983Y-85886852D01*
X115858980Y-85886849D01*
X115858979Y-85886847D01*
X115701784Y-85716087D01*
X115701779Y-85716083D01*
X115701777Y-85716081D01*
X115518634Y-85573535D01*
X115518628Y-85573531D01*
X115314504Y-85463064D01*
X115314495Y-85463061D01*
X115094984Y-85387702D01*
X114894562Y-85354258D01*
X114866049Y-85349500D01*
X114683159Y-85349500D01*
X114616120Y-85329815D01*
X114570365Y-85277011D01*
X114560421Y-85207853D01*
X114589446Y-85144297D01*
X114595478Y-85137819D01*
X114664606Y-85068691D01*
X114753781Y-84979516D01*
X114997876Y-84678084D01*
X115209125Y-84352789D01*
X115385214Y-84007194D01*
X115524214Y-83645087D01*
X115624602Y-83270433D01*
X115628673Y-83244724D01*
X115658601Y-83181593D01*
X115717912Y-83144661D01*
X115718996Y-83144364D01*
X115888663Y-83098903D01*
X116102830Y-82999035D01*
X116296401Y-82863495D01*
X116463495Y-82696401D01*
X116599035Y-82502830D01*
X116698903Y-82288663D01*
X116760063Y-82060408D01*
X116760940Y-82050380D01*
X116786390Y-81985312D01*
X116842980Y-81944331D01*
X116844101Y-81943939D01*
X116864503Y-81936936D01*
X117068626Y-81826470D01*
X117251784Y-81683913D01*
X117408979Y-81513153D01*
X117515568Y-81350006D01*
X119894700Y-81350006D01*
X119913864Y-81581297D01*
X119913866Y-81581308D01*
X119970842Y-81806300D01*
X120064075Y-82018848D01*
X120191016Y-82213147D01*
X120191019Y-82213151D01*
X120191021Y-82213153D01*
X120348216Y-82383913D01*
X120348219Y-82383915D01*
X120348222Y-82383918D01*
X120531365Y-82526464D01*
X120531371Y-82526468D01*
X120531374Y-82526470D01*
X120735497Y-82636936D01*
X120849487Y-82676068D01*
X120955015Y-82712297D01*
X120955017Y-82712297D01*
X120955019Y-82712298D01*
X121183951Y-82750500D01*
X121183952Y-82750500D01*
X121416048Y-82750500D01*
X121416049Y-82750500D01*
X121644981Y-82712298D01*
X121646036Y-82711936D01*
X121691287Y-82696401D01*
X121864503Y-82636936D01*
X122068626Y-82526470D01*
X122251784Y-82383913D01*
X122408979Y-82213153D01*
X122535924Y-82018849D01*
X122629157Y-81806300D01*
X122686134Y-81581305D01*
X122689744Y-81537742D01*
X122705300Y-81350006D01*
X122705300Y-81349993D01*
X122686135Y-81118702D01*
X122686133Y-81118691D01*
X122629157Y-80893699D01*
X122573715Y-80767306D01*
X126716828Y-80767306D01*
X126726613Y-80997662D01*
X126726614Y-80997670D01*
X126775190Y-81223062D01*
X126775190Y-81223063D01*
X126856337Y-81425006D01*
X126861159Y-81437006D01*
X126919408Y-81531608D01*
X126982048Y-81633342D01*
X127134380Y-81806425D01*
X127134384Y-81806429D01*
X127313765Y-81951269D01*
X127313766Y-81951270D01*
X127313769Y-81951271D01*
X127313772Y-81951274D01*
X127515063Y-82063721D01*
X127732462Y-82140533D01*
X127859272Y-82162277D01*
X127959706Y-82179499D01*
X127959715Y-82179500D01*
X128132540Y-82179500D01*
X128304734Y-82164844D01*
X128304737Y-82164843D01*
X128304739Y-82164843D01*
X128527869Y-82106745D01*
X128656229Y-82048722D01*
X128737965Y-82011776D01*
X128737967Y-82011775D01*
X128737967Y-82011774D01*
X128737971Y-82011773D01*
X128929000Y-81882659D01*
X129095462Y-81723119D01*
X129232566Y-81537742D01*
X129336370Y-81331860D01*
X129403886Y-81111397D01*
X129433172Y-80882694D01*
X129423386Y-80652332D01*
X129374810Y-80426938D01*
X129288841Y-80212994D01*
X129167951Y-80016657D01*
X129015620Y-79843575D01*
X129015619Y-79843574D01*
X129015615Y-79843570D01*
X128836234Y-79698730D01*
X128836233Y-79698729D01*
X128634938Y-79586279D01*
X128417541Y-79509468D01*
X128417540Y-79509467D01*
X128417538Y-79509467D01*
X128417534Y-79509466D01*
X128417533Y-79509466D01*
X128190293Y-79470500D01*
X128190285Y-79470500D01*
X128017465Y-79470500D01*
X128017460Y-79470500D01*
X127845265Y-79485155D01*
X127622131Y-79543254D01*
X127412034Y-79638223D01*
X127412032Y-79638224D01*
X127289551Y-79721008D01*
X127247397Y-79749500D01*
X127220999Y-79767342D01*
X127054540Y-79926878D01*
X126917434Y-80112257D01*
X126813630Y-80318138D01*
X126746113Y-80538606D01*
X126716828Y-80767306D01*
X122573715Y-80767306D01*
X122535924Y-80681151D01*
X122408983Y-80486852D01*
X122408980Y-80486849D01*
X122408979Y-80486847D01*
X122251784Y-80316087D01*
X122251779Y-80316083D01*
X122251777Y-80316081D01*
X122068634Y-80173535D01*
X122068628Y-80173531D01*
X121864504Y-80063064D01*
X121864495Y-80063061D01*
X121644984Y-79987702D01*
X121473282Y-79959050D01*
X121416049Y-79949500D01*
X121183951Y-79949500D01*
X121138164Y-79957140D01*
X120955015Y-79987702D01*
X120735504Y-80063061D01*
X120735495Y-80063064D01*
X120531371Y-80173531D01*
X120531365Y-80173535D01*
X120348222Y-80316081D01*
X120348219Y-80316084D01*
X120191016Y-80486852D01*
X120064075Y-80681151D01*
X119970842Y-80893699D01*
X119913866Y-81118691D01*
X119913864Y-81118702D01*
X119894700Y-81349993D01*
X119894700Y-81350006D01*
X117515568Y-81350006D01*
X117535924Y-81318849D01*
X117629157Y-81106300D01*
X117686134Y-80881305D01*
X117695580Y-80767306D01*
X117705300Y-80650006D01*
X117705300Y-80649993D01*
X117686135Y-80418702D01*
X117686133Y-80418691D01*
X117629157Y-80193699D01*
X117535924Y-79981151D01*
X117408983Y-79786852D01*
X117408980Y-79786849D01*
X117408979Y-79786847D01*
X117251784Y-79616087D01*
X117251779Y-79616083D01*
X117251777Y-79616081D01*
X117068634Y-79473535D01*
X117068628Y-79473531D01*
X116864504Y-79363064D01*
X116864495Y-79363061D01*
X116674085Y-79297692D01*
X116617069Y-79257306D01*
X116590939Y-79192507D01*
X116590820Y-79169603D01*
X116605659Y-79000000D01*
X116605659Y-78999999D01*
X116586525Y-78781305D01*
X116585063Y-78764592D01*
X116527566Y-78550006D01*
X143644700Y-78550006D01*
X143663864Y-78781297D01*
X143663866Y-78781308D01*
X143720842Y-79006300D01*
X143814075Y-79218848D01*
X143941016Y-79413147D01*
X143941019Y-79413151D01*
X143941021Y-79413153D01*
X144098216Y-79583913D01*
X144098219Y-79583915D01*
X144098222Y-79583918D01*
X144281365Y-79726464D01*
X144281371Y-79726468D01*
X144281374Y-79726470D01*
X144485497Y-79836936D01*
X144599487Y-79876068D01*
X144705015Y-79912297D01*
X144705017Y-79912297D01*
X144705019Y-79912298D01*
X144933951Y-79950500D01*
X144933952Y-79950500D01*
X145166048Y-79950500D01*
X145166049Y-79950500D01*
X145394981Y-79912298D01*
X145614503Y-79836936D01*
X145818626Y-79726470D01*
X145825643Y-79721009D01*
X145932006Y-79638223D01*
X146001784Y-79583913D01*
X146158979Y-79413153D01*
X146285924Y-79218849D01*
X146379157Y-79006300D01*
X146436134Y-78781305D01*
X146437519Y-78764592D01*
X146455300Y-78550006D01*
X146455300Y-78549993D01*
X146436135Y-78318702D01*
X146436133Y-78318691D01*
X146379157Y-78093699D01*
X146285924Y-77881151D01*
X146158983Y-77686852D01*
X146158980Y-77686849D01*
X146158979Y-77686847D01*
X146001784Y-77516087D01*
X146001779Y-77516083D01*
X146001777Y-77516081D01*
X145818634Y-77373535D01*
X145818628Y-77373531D01*
X145614504Y-77263064D01*
X145614495Y-77263061D01*
X145394984Y-77187702D01*
X145223281Y-77159050D01*
X145166049Y-77149500D01*
X144933951Y-77149500D01*
X144888164Y-77157140D01*
X144705015Y-77187702D01*
X144485504Y-77263061D01*
X144485495Y-77263064D01*
X144281371Y-77373531D01*
X144281365Y-77373535D01*
X144098222Y-77516081D01*
X144098219Y-77516084D01*
X143941016Y-77686852D01*
X143814075Y-77881151D01*
X143720842Y-78093699D01*
X143663866Y-78318691D01*
X143663864Y-78318702D01*
X143644700Y-78549993D01*
X143644700Y-78550006D01*
X116527566Y-78550006D01*
X116523903Y-78536337D01*
X116424035Y-78322171D01*
X116421598Y-78318691D01*
X116311859Y-78161966D01*
X116289532Y-78095760D01*
X116289905Y-78080048D01*
X116305659Y-77900000D01*
X116285063Y-77664592D01*
X116223903Y-77436337D01*
X116222766Y-77432092D01*
X116222766Y-77367906D01*
X116250859Y-77263061D01*
X116285063Y-77135408D01*
X116305659Y-76900000D01*
X116286018Y-76675513D01*
X116299784Y-76607016D01*
X116307967Y-76593591D01*
X116424035Y-76427830D01*
X116523903Y-76213663D01*
X116585063Y-75985408D01*
X116605659Y-75750000D01*
X116585063Y-75514592D01*
X116538626Y-75341285D01*
X116523905Y-75286344D01*
X116523904Y-75286343D01*
X116523903Y-75286337D01*
X116424035Y-75072171D01*
X116417717Y-75063147D01*
X116288494Y-74878597D01*
X116160077Y-74750180D01*
X116126592Y-74688857D01*
X116129370Y-74650006D01*
X116644700Y-74650006D01*
X116663864Y-74881297D01*
X116663866Y-74881308D01*
X116720842Y-75106300D01*
X116814075Y-75318848D01*
X116941016Y-75513147D01*
X116941019Y-75513151D01*
X116941021Y-75513153D01*
X117098216Y-75683913D01*
X117098219Y-75683915D01*
X117098222Y-75683918D01*
X117281365Y-75826464D01*
X117281371Y-75826468D01*
X117281374Y-75826470D01*
X117448860Y-75917109D01*
X117466157Y-75926470D01*
X117485497Y-75936936D01*
X117599487Y-75976068D01*
X117705015Y-76012297D01*
X117705017Y-76012297D01*
X117705019Y-76012298D01*
X117933951Y-76050500D01*
X117933952Y-76050500D01*
X118166048Y-76050500D01*
X118166049Y-76050500D01*
X118394981Y-76012298D01*
X118614503Y-75936936D01*
X118818626Y-75826470D01*
X119001784Y-75683913D01*
X119158979Y-75513153D01*
X119285924Y-75318849D01*
X119379157Y-75106300D01*
X119436134Y-74881305D01*
X119436135Y-74881297D01*
X119455300Y-74650006D01*
X119455300Y-74649993D01*
X119436135Y-74418702D01*
X119436133Y-74418691D01*
X119380754Y-74200006D01*
X136594700Y-74200006D01*
X136613864Y-74431297D01*
X136613866Y-74431308D01*
X136670842Y-74656300D01*
X136764075Y-74868848D01*
X136891016Y-75063147D01*
X136891019Y-75063151D01*
X136891021Y-75063153D01*
X137048216Y-75233913D01*
X137048219Y-75233915D01*
X137048222Y-75233918D01*
X137231365Y-75376464D01*
X137231371Y-75376468D01*
X137231374Y-75376470D01*
X137435497Y-75486936D01*
X137516068Y-75514596D01*
X137655015Y-75562297D01*
X137655017Y-75562297D01*
X137655019Y-75562298D01*
X137883951Y-75600500D01*
X137883952Y-75600500D01*
X138116048Y-75600500D01*
X138116049Y-75600500D01*
X138344981Y-75562298D01*
X138564503Y-75486936D01*
X138768626Y-75376470D01*
X138951784Y-75233913D01*
X139108979Y-75063153D01*
X139235924Y-74868849D01*
X139259365Y-74815407D01*
X139304319Y-74761922D01*
X139371055Y-74741231D01*
X139413183Y-74747935D01*
X139419197Y-74750000D01*
X139455018Y-74762298D01*
X139569485Y-74781399D01*
X139683951Y-74800500D01*
X139683952Y-74800500D01*
X139916048Y-74800500D01*
X139916049Y-74800500D01*
X140144981Y-74762298D01*
X140180786Y-74750006D01*
X147744200Y-74750006D01*
X147763364Y-74981297D01*
X147763366Y-74981308D01*
X147820342Y-75206300D01*
X147913575Y-75418848D01*
X148040516Y-75613147D01*
X148040519Y-75613151D01*
X148040521Y-75613153D01*
X148197716Y-75783913D01*
X148197719Y-75783915D01*
X148197722Y-75783918D01*
X148380865Y-75926464D01*
X148380871Y-75926468D01*
X148380874Y-75926470D01*
X148584997Y-76036936D01*
X148624508Y-76050500D01*
X148804515Y-76112297D01*
X148804517Y-76112297D01*
X148804519Y-76112298D01*
X149033451Y-76150500D01*
X149033452Y-76150500D01*
X149265548Y-76150500D01*
X149265549Y-76150500D01*
X149494481Y-76112298D01*
X149714003Y-76036936D01*
X149918126Y-75926470D01*
X150101284Y-75783913D01*
X150258479Y-75613153D01*
X150385424Y-75418849D01*
X150478657Y-75206300D01*
X150535634Y-74981305D01*
X150543921Y-74881297D01*
X150554800Y-74750006D01*
X150554800Y-74749993D01*
X150535635Y-74518702D01*
X150535633Y-74518691D01*
X150478657Y-74293699D01*
X150385424Y-74081151D01*
X150258483Y-73886852D01*
X150258480Y-73886849D01*
X150258479Y-73886847D01*
X150101284Y-73716087D01*
X150101279Y-73716083D01*
X150101277Y-73716081D01*
X149918134Y-73573535D01*
X149918128Y-73573531D01*
X149714004Y-73463064D01*
X149713995Y-73463061D01*
X149494484Y-73387702D01*
X149322781Y-73359050D01*
X149265549Y-73349500D01*
X149033451Y-73349500D01*
X148987664Y-73357140D01*
X148804515Y-73387702D01*
X148585004Y-73463061D01*
X148584995Y-73463064D01*
X148380871Y-73573531D01*
X148380865Y-73573535D01*
X148197722Y-73716081D01*
X148197719Y-73716084D01*
X148197716Y-73716086D01*
X148197716Y-73716087D01*
X148172297Y-73743700D01*
X148040516Y-73886852D01*
X147913575Y-74081151D01*
X147820342Y-74293699D01*
X147763366Y-74518691D01*
X147763364Y-74518702D01*
X147744200Y-74749993D01*
X147744200Y-74750006D01*
X140180786Y-74750006D01*
X140364503Y-74686936D01*
X140568626Y-74576470D01*
X140751784Y-74433913D01*
X140908979Y-74263153D01*
X141035924Y-74068849D01*
X141129157Y-73856300D01*
X141186134Y-73631305D01*
X141187395Y-73616087D01*
X141205300Y-73400006D01*
X141205300Y-73399993D01*
X141186135Y-73168702D01*
X141186133Y-73168691D01*
X141129157Y-72943699D01*
X141035924Y-72731151D01*
X140908983Y-72536852D01*
X140908980Y-72536849D01*
X140908979Y-72536847D01*
X140751784Y-72366087D01*
X140751779Y-72366083D01*
X140751777Y-72366081D01*
X140568634Y-72223535D01*
X140568628Y-72223531D01*
X140364504Y-72113064D01*
X140364495Y-72113061D01*
X140144984Y-72037702D01*
X139973282Y-72009050D01*
X139916049Y-71999500D01*
X139683951Y-71999500D01*
X139638164Y-72007140D01*
X139455015Y-72037702D01*
X139235504Y-72113061D01*
X139235495Y-72113064D01*
X139031371Y-72223531D01*
X139031365Y-72223535D01*
X138848222Y-72366081D01*
X138848219Y-72366084D01*
X138691016Y-72536852D01*
X138564074Y-72731152D01*
X138540632Y-72784594D01*
X138495675Y-72838079D01*
X138428939Y-72858768D01*
X138386813Y-72852063D01*
X138344982Y-72837702D01*
X138230514Y-72818600D01*
X138116049Y-72799500D01*
X137883951Y-72799500D01*
X137838164Y-72807140D01*
X137655015Y-72837702D01*
X137435504Y-72913061D01*
X137435495Y-72913064D01*
X137231371Y-73023531D01*
X137231365Y-73023535D01*
X137048222Y-73166081D01*
X137048219Y-73166084D01*
X136891016Y-73336852D01*
X136764075Y-73531151D01*
X136670842Y-73743699D01*
X136613866Y-73968691D01*
X136613864Y-73968702D01*
X136594700Y-74199993D01*
X136594700Y-74200006D01*
X119380754Y-74200006D01*
X119379157Y-74193699D01*
X119285924Y-73981151D01*
X119158983Y-73786852D01*
X119158980Y-73786849D01*
X119158979Y-73786847D01*
X119001784Y-73616087D01*
X119001779Y-73616083D01*
X119001777Y-73616081D01*
X118818634Y-73473535D01*
X118818628Y-73473531D01*
X118614504Y-73363064D01*
X118614495Y-73363061D01*
X118394984Y-73287702D01*
X118223281Y-73259050D01*
X118166049Y-73249500D01*
X117933951Y-73249500D01*
X117888164Y-73257140D01*
X117705015Y-73287702D01*
X117485504Y-73363061D01*
X117485495Y-73363064D01*
X117281371Y-73473531D01*
X117281365Y-73473535D01*
X117098222Y-73616081D01*
X117098219Y-73616084D01*
X116941016Y-73786852D01*
X116814073Y-73981154D01*
X116764001Y-74095306D01*
X116719045Y-74148792D01*
X116715277Y-74149960D01*
X116720872Y-74191191D01*
X116718484Y-74203011D01*
X116663866Y-74418690D01*
X116663864Y-74418702D01*
X116644700Y-74649993D01*
X116644700Y-74650006D01*
X116129370Y-74650006D01*
X116131576Y-74619165D01*
X116160073Y-74574822D01*
X116288495Y-74446401D01*
X116424035Y-74252830D01*
X116485898Y-74120164D01*
X116532068Y-74067727D01*
X116533447Y-74067333D01*
X116527457Y-74029694D01*
X116530669Y-74013410D01*
X116585063Y-73810408D01*
X116605659Y-73575000D01*
X116605530Y-73573531D01*
X116595865Y-73463061D01*
X116585063Y-73339592D01*
X116523903Y-73111337D01*
X116424035Y-72897171D01*
X116418404Y-72889128D01*
X116288494Y-72703597D01*
X116121402Y-72536506D01*
X116121395Y-72536501D01*
X115927831Y-72400965D01*
X115927829Y-72400964D01*
X115876573Y-72377063D01*
X115824134Y-72330890D01*
X115804982Y-72263697D01*
X115805146Y-72258232D01*
X115805578Y-72250000D01*
X115785278Y-71862662D01*
X115724602Y-71479567D01*
X115703284Y-71400006D01*
X119994700Y-71400006D01*
X120013864Y-71631297D01*
X120013866Y-71631308D01*
X120070842Y-71856300D01*
X120164075Y-72068848D01*
X120291016Y-72263147D01*
X120291019Y-72263151D01*
X120291021Y-72263153D01*
X120448216Y-72433913D01*
X120448219Y-72433915D01*
X120448222Y-72433918D01*
X120631365Y-72576464D01*
X120631371Y-72576468D01*
X120631374Y-72576470D01*
X120835497Y-72686936D01*
X120884035Y-72703599D01*
X121055015Y-72762297D01*
X121055017Y-72762297D01*
X121055019Y-72762298D01*
X121283951Y-72800500D01*
X121283952Y-72800500D01*
X121516048Y-72800500D01*
X121516049Y-72800500D01*
X121744981Y-72762298D01*
X121964503Y-72686936D01*
X122168626Y-72576470D01*
X122351784Y-72433913D01*
X122508979Y-72263153D01*
X122635924Y-72068849D01*
X122729157Y-71856300D01*
X122786134Y-71631305D01*
X122805300Y-71400000D01*
X122805300Y-71399993D01*
X122786135Y-71168702D01*
X122786133Y-71168691D01*
X122729157Y-70943699D01*
X122635924Y-70731151D01*
X122508983Y-70536852D01*
X122508980Y-70536849D01*
X122508979Y-70536847D01*
X122351784Y-70366087D01*
X122351779Y-70366083D01*
X122351777Y-70366081D01*
X122168634Y-70223535D01*
X122168628Y-70223531D01*
X121964504Y-70113064D01*
X121964495Y-70113061D01*
X121744984Y-70037702D01*
X121573282Y-70009050D01*
X121519081Y-70000006D01*
X128909896Y-70000006D01*
X128929060Y-70231297D01*
X128929062Y-70231308D01*
X128986038Y-70456300D01*
X129079271Y-70668848D01*
X129206212Y-70863147D01*
X129206215Y-70863151D01*
X129206217Y-70863153D01*
X129363412Y-71033913D01*
X129363415Y-71033915D01*
X129363418Y-71033918D01*
X129546561Y-71176464D01*
X129546567Y-71176468D01*
X129546570Y-71176470D01*
X129750693Y-71286936D01*
X129864683Y-71326068D01*
X129970211Y-71362297D01*
X129970213Y-71362297D01*
X129970215Y-71362298D01*
X130199147Y-71400500D01*
X130199148Y-71400500D01*
X130431244Y-71400500D01*
X130431245Y-71400500D01*
X130660177Y-71362298D01*
X130879699Y-71286936D01*
X131083822Y-71176470D01*
X131093803Y-71168702D01*
X131258478Y-71040530D01*
X131266980Y-71033913D01*
X131424175Y-70863153D01*
X131551120Y-70668849D01*
X131644353Y-70456300D01*
X131701330Y-70231305D01*
X131701974Y-70223531D01*
X131720496Y-70000006D01*
X131720496Y-69999993D01*
X131701331Y-69768702D01*
X131701329Y-69768691D01*
X131644353Y-69543699D01*
X131551120Y-69331151D01*
X131424179Y-69136852D01*
X131424176Y-69136849D01*
X131424175Y-69136847D01*
X131266980Y-68966087D01*
X131266975Y-68966083D01*
X131266973Y-68966081D01*
X131083830Y-68823535D01*
X131083824Y-68823531D01*
X130879700Y-68713064D01*
X130879691Y-68713061D01*
X130660180Y-68637702D01*
X130487384Y-68608868D01*
X130431245Y-68599500D01*
X130199147Y-68599500D01*
X130153360Y-68607140D01*
X129970211Y-68637702D01*
X129750700Y-68713061D01*
X129750691Y-68713064D01*
X129546567Y-68823531D01*
X129546561Y-68823535D01*
X129363418Y-68966081D01*
X129363415Y-68966084D01*
X129206212Y-69136852D01*
X129079271Y-69331151D01*
X128986038Y-69543699D01*
X128929062Y-69768691D01*
X128929060Y-69768702D01*
X128909896Y-69999993D01*
X128909896Y-70000006D01*
X121519081Y-70000006D01*
X121516049Y-69999500D01*
X121283951Y-69999500D01*
X121238164Y-70007140D01*
X121055015Y-70037702D01*
X120835504Y-70113061D01*
X120835495Y-70113064D01*
X120631371Y-70223531D01*
X120631365Y-70223535D01*
X120448222Y-70366081D01*
X120448219Y-70366084D01*
X120448216Y-70366086D01*
X120448216Y-70366087D01*
X120389267Y-70430121D01*
X120291016Y-70536852D01*
X120164075Y-70731151D01*
X120070842Y-70943699D01*
X120013866Y-71168691D01*
X120013864Y-71168702D01*
X119994700Y-71399993D01*
X119994700Y-71400006D01*
X115703284Y-71400006D01*
X115624214Y-71104913D01*
X115485214Y-70742806D01*
X115479275Y-70731151D01*
X115380273Y-70536847D01*
X115309125Y-70397211D01*
X115302454Y-70386938D01*
X115097881Y-70071923D01*
X115097877Y-70071918D01*
X115097876Y-70071916D01*
X115075978Y-70044875D01*
X115049088Y-69980391D01*
X115061330Y-69911602D01*
X115108819Y-69860351D01*
X115132083Y-69849561D01*
X115171209Y-69836129D01*
X115314503Y-69786936D01*
X115518626Y-69676470D01*
X115701784Y-69533913D01*
X115858979Y-69363153D01*
X115985924Y-69168849D01*
X116079157Y-68956300D01*
X116136134Y-68731305D01*
X116136135Y-68731297D01*
X116155300Y-68500006D01*
X116155300Y-68499993D01*
X116136135Y-68268702D01*
X116136133Y-68268691D01*
X116079157Y-68043699D01*
X115985924Y-67831151D01*
X115858983Y-67636852D01*
X115858980Y-67636849D01*
X115858979Y-67636847D01*
X115701784Y-67466087D01*
X115701779Y-67466083D01*
X115701777Y-67466081D01*
X115518634Y-67323535D01*
X115518628Y-67323531D01*
X115382766Y-67250006D01*
X117344700Y-67250006D01*
X117363864Y-67481297D01*
X117363866Y-67481308D01*
X117420842Y-67706300D01*
X117514075Y-67918848D01*
X117641016Y-68113147D01*
X117641019Y-68113151D01*
X117641021Y-68113153D01*
X117798216Y-68283913D01*
X117798219Y-68283915D01*
X117798222Y-68283918D01*
X117981365Y-68426464D01*
X117981371Y-68426468D01*
X117981374Y-68426470D01*
X118185497Y-68536936D01*
X118299487Y-68576068D01*
X118405015Y-68612297D01*
X118405017Y-68612297D01*
X118405019Y-68612298D01*
X118633951Y-68650500D01*
X118633952Y-68650500D01*
X118866048Y-68650500D01*
X118866049Y-68650500D01*
X119094981Y-68612298D01*
X119314503Y-68536936D01*
X119518626Y-68426470D01*
X119701784Y-68283913D01*
X119858979Y-68113153D01*
X119985924Y-67918849D01*
X120079157Y-67706300D01*
X120136134Y-67481305D01*
X120137395Y-67466087D01*
X120155300Y-67250006D01*
X120155300Y-67249993D01*
X120136135Y-67018702D01*
X120136133Y-67018691D01*
X120079157Y-66793699D01*
X119985924Y-66581151D01*
X119858983Y-66386852D01*
X119858980Y-66386849D01*
X119858979Y-66386847D01*
X119701784Y-66216087D01*
X119701779Y-66216083D01*
X119701777Y-66216081D01*
X119518634Y-66073535D01*
X119518628Y-66073531D01*
X119314504Y-65963064D01*
X119314495Y-65963061D01*
X119094984Y-65887702D01*
X118923281Y-65859050D01*
X118866049Y-65849500D01*
X118633951Y-65849500D01*
X118588164Y-65857140D01*
X118405015Y-65887702D01*
X118185504Y-65963061D01*
X118185495Y-65963064D01*
X117981371Y-66073531D01*
X117981365Y-66073535D01*
X117798222Y-66216081D01*
X117798219Y-66216084D01*
X117641016Y-66386852D01*
X117514075Y-66581151D01*
X117420842Y-66793699D01*
X117363866Y-67018691D01*
X117363864Y-67018702D01*
X117344700Y-67249993D01*
X117344700Y-67250006D01*
X115382766Y-67250006D01*
X115314504Y-67213064D01*
X115314495Y-67213061D01*
X115094984Y-67137702D01*
X114906799Y-67106300D01*
X114866049Y-67099500D01*
X114633951Y-67099500D01*
X114593201Y-67106300D01*
X114405015Y-67137702D01*
X114185504Y-67213061D01*
X114185495Y-67213064D01*
X113981372Y-67323530D01*
X113951161Y-67347045D01*
X113886166Y-67372686D01*
X113817627Y-67359119D01*
X113798839Y-67347045D01*
X113768627Y-67323530D01*
X113564504Y-67213064D01*
X113564495Y-67213061D01*
X113344984Y-67137702D01*
X113156799Y-67106300D01*
X113116049Y-67099500D01*
X112883951Y-67099500D01*
X112843201Y-67106300D01*
X112655015Y-67137702D01*
X112435504Y-67213061D01*
X112435495Y-67213064D01*
X112231372Y-67323530D01*
X112201161Y-67347045D01*
X112136166Y-67372686D01*
X112067627Y-67359119D01*
X112048839Y-67347045D01*
X112018627Y-67323530D01*
X111814504Y-67213064D01*
X111814495Y-67213061D01*
X111594984Y-67137702D01*
X111406799Y-67106300D01*
X111366049Y-67099500D01*
X111133951Y-67099500D01*
X111093201Y-67106300D01*
X110905015Y-67137702D01*
X110685504Y-67213061D01*
X110685495Y-67213064D01*
X110481372Y-67323530D01*
X110451161Y-67347045D01*
X110386166Y-67372686D01*
X110317627Y-67359119D01*
X110298839Y-67347045D01*
X110268627Y-67323530D01*
X110064504Y-67213064D01*
X110064495Y-67213061D01*
X109844984Y-67137702D01*
X109656799Y-67106300D01*
X109616049Y-67099500D01*
X109383951Y-67099500D01*
X109343201Y-67106300D01*
X109155015Y-67137702D01*
X108935504Y-67213061D01*
X108935490Y-67213067D01*
X108783516Y-67295311D01*
X108715188Y-67309906D01*
X108649816Y-67285243D01*
X108608155Y-67229152D01*
X108600500Y-67186261D01*
X108600500Y-64837065D01*
X127329500Y-64837065D01*
X127344890Y-65022813D01*
X127344892Y-65022824D01*
X127405936Y-65263881D01*
X127505826Y-65491606D01*
X127641833Y-65699782D01*
X127641836Y-65699785D01*
X127810256Y-65882738D01*
X127810259Y-65882740D01*
X127810262Y-65882743D01*
X127918218Y-65966769D01*
X127959031Y-66023479D01*
X127962706Y-66093252D01*
X127955613Y-66114431D01*
X127920841Y-66193704D01*
X127863866Y-66418691D01*
X127863864Y-66418702D01*
X127844700Y-66649993D01*
X127844700Y-66650006D01*
X127863864Y-66881297D01*
X127863866Y-66881308D01*
X127920842Y-67106300D01*
X128014075Y-67318848D01*
X128141016Y-67513147D01*
X128141018Y-67513149D01*
X128141021Y-67513153D01*
X128298216Y-67683913D01*
X128298219Y-67683915D01*
X128298222Y-67683918D01*
X128481365Y-67826464D01*
X128481371Y-67826468D01*
X128481374Y-67826470D01*
X128685497Y-67936936D01*
X128799487Y-67976068D01*
X128905015Y-68012297D01*
X128905017Y-68012297D01*
X128905019Y-68012298D01*
X129133951Y-68050500D01*
X129133952Y-68050500D01*
X129366048Y-68050500D01*
X129366049Y-68050500D01*
X129594981Y-68012298D01*
X129814503Y-67936936D01*
X130018626Y-67826470D01*
X130201784Y-67683913D01*
X130358979Y-67513153D01*
X130358982Y-67513149D01*
X130359661Y-67512277D01*
X130360029Y-67512011D01*
X130362453Y-67509379D01*
X130362994Y-67509877D01*
X130416367Y-67471458D01*
X130477929Y-67466121D01*
X130683951Y-67500500D01*
X130848850Y-67500500D01*
X130890595Y-67501488D01*
X130890599Y-67501487D01*
X130890610Y-67501488D01*
X130900901Y-67500686D01*
X130905713Y-67500500D01*
X130916047Y-67500500D01*
X130916049Y-67500500D01*
X130924533Y-67499083D01*
X130929881Y-67498430D01*
X131100205Y-67485173D01*
X131145660Y-67479543D01*
X131192967Y-67471482D01*
X131237829Y-67461712D01*
X131237827Y-67461712D01*
X131237834Y-67461711D01*
X131410057Y-67415881D01*
X131432986Y-67409192D01*
X131442017Y-67406323D01*
X131456378Y-67401761D01*
X131479154Y-67393921D01*
X131551420Y-67367090D01*
X131584947Y-67359713D01*
X131667240Y-67353308D01*
X131676002Y-67351954D01*
X131694938Y-67350500D01*
X132580664Y-67350500D01*
X132647703Y-67370185D01*
X132668345Y-67386819D01*
X134081494Y-68799968D01*
X134114979Y-68861291D01*
X134114097Y-68913531D01*
X134114710Y-68913634D01*
X134114026Y-68917728D01*
X134114021Y-68918078D01*
X134113867Y-68918686D01*
X134113865Y-68918695D01*
X134094700Y-69149993D01*
X134094700Y-69150006D01*
X134113864Y-69381297D01*
X134113866Y-69381308D01*
X134170842Y-69606300D01*
X134264075Y-69818848D01*
X134391016Y-70013147D01*
X134391019Y-70013151D01*
X134391021Y-70013153D01*
X134548216Y-70183913D01*
X134548219Y-70183915D01*
X134548222Y-70183918D01*
X134731365Y-70326464D01*
X134731371Y-70326468D01*
X134731374Y-70326470D01*
X134935497Y-70436936D01*
X135049487Y-70476068D01*
X135155015Y-70512297D01*
X135155017Y-70512297D01*
X135155019Y-70512298D01*
X135383951Y-70550500D01*
X135383952Y-70550500D01*
X135616048Y-70550500D01*
X135616049Y-70550500D01*
X135844981Y-70512298D01*
X136064503Y-70436936D01*
X136268626Y-70326470D01*
X136451784Y-70183913D01*
X136608979Y-70013153D01*
X136735924Y-69818849D01*
X136744189Y-69800006D01*
X140994700Y-69800006D01*
X141013864Y-70031297D01*
X141013866Y-70031308D01*
X141070842Y-70256300D01*
X141164075Y-70468848D01*
X141291016Y-70663147D01*
X141291019Y-70663151D01*
X141291021Y-70663153D01*
X141448216Y-70833913D01*
X141448219Y-70833915D01*
X141448222Y-70833918D01*
X141631365Y-70976464D01*
X141631371Y-70976468D01*
X141631374Y-70976470D01*
X141835497Y-71086936D01*
X141949487Y-71126068D01*
X142055015Y-71162297D01*
X142055017Y-71162297D01*
X142055019Y-71162298D01*
X142283951Y-71200500D01*
X142283952Y-71200500D01*
X142516048Y-71200500D01*
X142516049Y-71200500D01*
X142744981Y-71162298D01*
X142964503Y-71086936D01*
X143168626Y-70976470D01*
X143351784Y-70833913D01*
X143508979Y-70663153D01*
X143635924Y-70468849D01*
X143729157Y-70256300D01*
X143786134Y-70031305D01*
X143787639Y-70013147D01*
X143805300Y-69800006D01*
X143805300Y-69799993D01*
X143786135Y-69568702D01*
X143786133Y-69568691D01*
X143729157Y-69343699D01*
X143635924Y-69131151D01*
X143615576Y-69100006D01*
X144694700Y-69100006D01*
X144713864Y-69331297D01*
X144713866Y-69331308D01*
X144770842Y-69556300D01*
X144864075Y-69768848D01*
X144991016Y-69963147D01*
X144991019Y-69963151D01*
X144991021Y-69963153D01*
X145148216Y-70133913D01*
X145148219Y-70133915D01*
X145148222Y-70133918D01*
X145331365Y-70276464D01*
X145331371Y-70276468D01*
X145331374Y-70276470D01*
X145535497Y-70386936D01*
X145649487Y-70426068D01*
X145755015Y-70462297D01*
X145755017Y-70462297D01*
X145755019Y-70462298D01*
X145983951Y-70500500D01*
X145983952Y-70500500D01*
X146216048Y-70500500D01*
X146216049Y-70500500D01*
X146444981Y-70462298D01*
X146664503Y-70386936D01*
X146868626Y-70276470D01*
X147051784Y-70133913D01*
X147208979Y-69963153D01*
X147335924Y-69768849D01*
X147429157Y-69556300D01*
X147486134Y-69331305D01*
X147486147Y-69331151D01*
X147505300Y-69100006D01*
X147505300Y-69099993D01*
X147486135Y-68868702D01*
X147486133Y-68868691D01*
X147429157Y-68643699D01*
X147335924Y-68431151D01*
X147208983Y-68236852D01*
X147208980Y-68236849D01*
X147208979Y-68236847D01*
X147051784Y-68066087D01*
X147051779Y-68066083D01*
X147051777Y-68066081D01*
X146868634Y-67923535D01*
X146868628Y-67923531D01*
X146664504Y-67813064D01*
X146664495Y-67813061D01*
X146444984Y-67737702D01*
X146256799Y-67706300D01*
X146216049Y-67699500D01*
X145983951Y-67699500D01*
X145943201Y-67706300D01*
X145755015Y-67737702D01*
X145535504Y-67813061D01*
X145535495Y-67813064D01*
X145331371Y-67923531D01*
X145331365Y-67923535D01*
X145148222Y-68066081D01*
X145148219Y-68066084D01*
X145148216Y-68066086D01*
X145148216Y-68066087D01*
X145104894Y-68113147D01*
X144991016Y-68236852D01*
X144864075Y-68431151D01*
X144770842Y-68643699D01*
X144713866Y-68868691D01*
X144713864Y-68868702D01*
X144694700Y-69099993D01*
X144694700Y-69100006D01*
X143615576Y-69100006D01*
X143508983Y-68936852D01*
X143508980Y-68936849D01*
X143508979Y-68936847D01*
X143351784Y-68766087D01*
X143351779Y-68766083D01*
X143351777Y-68766081D01*
X143168634Y-68623535D01*
X143168628Y-68623531D01*
X142964504Y-68513064D01*
X142964495Y-68513061D01*
X142744984Y-68437702D01*
X142573281Y-68409050D01*
X142516049Y-68399500D01*
X142283951Y-68399500D01*
X142238164Y-68407140D01*
X142055015Y-68437702D01*
X141835504Y-68513061D01*
X141835495Y-68513064D01*
X141631371Y-68623531D01*
X141631365Y-68623535D01*
X141448222Y-68766081D01*
X141448219Y-68766084D01*
X141448216Y-68766086D01*
X141448216Y-68766087D01*
X141395336Y-68823530D01*
X141291016Y-68936852D01*
X141164075Y-69131151D01*
X141070842Y-69343699D01*
X141013866Y-69568691D01*
X141013864Y-69568702D01*
X140994700Y-69799993D01*
X140994700Y-69800006D01*
X136744189Y-69800006D01*
X136829157Y-69606300D01*
X136886134Y-69381305D01*
X136890290Y-69331151D01*
X136905300Y-69150006D01*
X136905300Y-69149993D01*
X136886135Y-68918702D01*
X136886134Y-68918699D01*
X136886134Y-68918695D01*
X136829157Y-68693700D01*
X136828259Y-68691654D01*
X136825625Y-68684474D01*
X136803056Y-68608859D01*
X136798521Y-68586012D01*
X136793754Y-68539331D01*
X136779266Y-68378377D01*
X136769608Y-68315680D01*
X136759303Y-68268695D01*
X136755379Y-68250800D01*
X136755378Y-68250799D01*
X136755377Y-68250794D01*
X136737877Y-68189722D01*
X136721984Y-68145112D01*
X136718030Y-68075357D01*
X136752417Y-68014535D01*
X136814228Y-67981959D01*
X136879056Y-67986219D01*
X136955019Y-68012298D01*
X137183951Y-68050500D01*
X137183952Y-68050500D01*
X137416048Y-68050500D01*
X137416049Y-68050500D01*
X137644981Y-68012298D01*
X137864503Y-67936936D01*
X138068626Y-67826470D01*
X138251784Y-67683913D01*
X138408979Y-67513153D01*
X138535924Y-67318849D01*
X138629157Y-67106300D01*
X138686134Y-66881305D01*
X138686135Y-66881297D01*
X138705300Y-66650006D01*
X138705300Y-66649993D01*
X138686135Y-66418702D01*
X138686133Y-66418691D01*
X138629157Y-66193699D01*
X138535925Y-65981154D01*
X138535924Y-65981151D01*
X138531934Y-65975044D01*
X138511748Y-65908156D01*
X138530928Y-65840970D01*
X138544509Y-65823246D01*
X138658164Y-65699785D01*
X138794173Y-65491607D01*
X138894063Y-65263881D01*
X138955108Y-65022821D01*
X138955399Y-65019317D01*
X138970500Y-64837065D01*
X138970500Y-63612935D01*
X138955109Y-63427186D01*
X138955107Y-63427175D01*
X138894063Y-63186118D01*
X138794173Y-62958393D01*
X138658166Y-62750217D01*
X138636557Y-62726744D01*
X138489744Y-62567262D01*
X138293509Y-62414526D01*
X138293507Y-62414525D01*
X138293506Y-62414524D01*
X138074811Y-62296172D01*
X138074802Y-62296169D01*
X137839616Y-62215429D01*
X137693447Y-62191038D01*
X137641131Y-62182308D01*
X137578247Y-62151859D01*
X137541807Y-62092244D01*
X137543382Y-62022392D01*
X137582471Y-61964480D01*
X137641131Y-61937691D01*
X137839614Y-61904571D01*
X138074810Y-61823828D01*
X138293509Y-61705474D01*
X138489744Y-61552738D01*
X138658164Y-61369785D01*
X138794173Y-61161607D01*
X138894063Y-60933881D01*
X138955108Y-60692821D01*
X138970500Y-60507067D01*
X138970500Y-59582933D01*
X138966145Y-59530376D01*
X138955109Y-59397186D01*
X138955107Y-59397175D01*
X138894063Y-59156118D01*
X138794173Y-58928393D01*
X138658166Y-58720217D01*
X138567673Y-58621916D01*
X138489744Y-58537262D01*
X138293509Y-58384526D01*
X138293507Y-58384525D01*
X138293506Y-58384524D01*
X138074811Y-58266172D01*
X138074802Y-58266169D01*
X137839616Y-58185429D01*
X137594335Y-58144500D01*
X137345665Y-58144500D01*
X137100383Y-58185429D01*
X136865197Y-58266169D01*
X136865188Y-58266172D01*
X136646493Y-58384524D01*
X136450257Y-58537261D01*
X136281833Y-58720217D01*
X136145826Y-58928393D01*
X136045936Y-59156118D01*
X135984892Y-59397175D01*
X135984890Y-59397186D01*
X135969500Y-59582935D01*
X135969500Y-60507065D01*
X135984890Y-60692813D01*
X135984892Y-60692824D01*
X136045936Y-60933881D01*
X136145826Y-61161606D01*
X136281833Y-61369782D01*
X136281836Y-61369785D01*
X136450256Y-61552738D01*
X136646491Y-61705474D01*
X136865190Y-61823828D01*
X137100386Y-61904571D01*
X137281654Y-61934818D01*
X137298867Y-61937691D01*
X137361753Y-61968141D01*
X137398192Y-62027756D01*
X137396617Y-62097608D01*
X137357528Y-62155520D01*
X137298867Y-62182309D01*
X137100383Y-62215429D01*
X136865197Y-62296169D01*
X136865188Y-62296172D01*
X136646493Y-62414524D01*
X136450257Y-62567261D01*
X136281833Y-62750217D01*
X136145826Y-62958393D01*
X136095613Y-63072868D01*
X136050657Y-63126354D01*
X135998243Y-63145997D01*
X135888720Y-63160416D01*
X135888719Y-63160416D01*
X135747752Y-63218806D01*
X135626696Y-63311696D01*
X135533806Y-63432752D01*
X135475416Y-63573719D01*
X135475415Y-63573721D01*
X135455500Y-63724998D01*
X135455500Y-63725001D01*
X135475415Y-63876278D01*
X135475416Y-63876280D01*
X135533806Y-64017247D01*
X135533807Y-64017249D01*
X135533808Y-64017250D01*
X135626696Y-64138304D01*
X135747750Y-64231192D01*
X135888720Y-64289584D01*
X135888721Y-64289584D01*
X135892953Y-64291337D01*
X135947356Y-64335178D01*
X135969421Y-64401472D01*
X135969500Y-64405898D01*
X135969500Y-64837065D01*
X135984890Y-65022813D01*
X135984892Y-65022824D01*
X136045936Y-65263881D01*
X136145826Y-65491606D01*
X136224619Y-65612209D01*
X136244807Y-65679099D01*
X136225626Y-65746284D01*
X136212042Y-65764010D01*
X136191022Y-65786844D01*
X136191020Y-65786846D01*
X136064075Y-65981151D01*
X135970842Y-66193699D01*
X135913866Y-66418691D01*
X135913864Y-66418702D01*
X135894700Y-66649993D01*
X135894700Y-66649995D01*
X135894700Y-66650000D01*
X135905275Y-66777623D01*
X135891193Y-66846059D01*
X135842348Y-66896018D01*
X135774246Y-66911638D01*
X135708511Y-66887960D01*
X135694017Y-66875543D01*
X134086356Y-65267882D01*
X134081719Y-65262693D01*
X134057507Y-65232332D01*
X134006031Y-65187359D01*
X134002997Y-65184523D01*
X133994529Y-65176055D01*
X133962181Y-65149049D01*
X133887996Y-65084235D01*
X133884241Y-65081991D01*
X133868373Y-65070732D01*
X133865019Y-65067932D01*
X133865018Y-65067931D01*
X133865013Y-65067927D01*
X133785517Y-65022821D01*
X133779340Y-65019316D01*
X133694764Y-64968785D01*
X133694761Y-64968783D01*
X133690669Y-64967248D01*
X133673044Y-64959002D01*
X133669245Y-64956846D01*
X133576253Y-64924307D01*
X133484029Y-64889694D01*
X133484019Y-64889691D01*
X133479723Y-64888912D01*
X133460918Y-64883949D01*
X133456784Y-64882502D01*
X133456779Y-64882501D01*
X133359472Y-64867089D01*
X133262550Y-64849500D01*
X133262547Y-64849500D01*
X133258172Y-64849500D01*
X133238769Y-64847972D01*
X133234460Y-64847289D01*
X133135978Y-64849500D01*
X131693890Y-64849500D01*
X131671808Y-64847518D01*
X131667243Y-64846692D01*
X131667242Y-64846692D01*
X131584946Y-64840285D01*
X131551413Y-64832906D01*
X131511438Y-64818065D01*
X131479013Y-64806027D01*
X131456002Y-64798112D01*
X131432626Y-64790699D01*
X131419397Y-64786843D01*
X131409935Y-64784085D01*
X131237787Y-64738275D01*
X131237772Y-64738271D01*
X131210644Y-64732366D01*
X131192824Y-64728487D01*
X131192813Y-64728485D01*
X131192808Y-64728484D01*
X131172961Y-64725106D01*
X131145527Y-64720437D01*
X131145518Y-64720435D01*
X131145513Y-64720435D01*
X131100159Y-64714823D01*
X131069791Y-64712459D01*
X130929905Y-64701570D01*
X130924510Y-64700911D01*
X130916060Y-64699501D01*
X130916051Y-64699500D01*
X130916049Y-64699500D01*
X130916044Y-64699500D01*
X130905717Y-64699500D01*
X130900905Y-64699313D01*
X130871588Y-64697031D01*
X130851697Y-64696239D01*
X130849633Y-64696182D01*
X130826945Y-64695558D01*
X130826929Y-64695558D01*
X130783972Y-64699270D01*
X130778633Y-64699500D01*
X130683951Y-64699500D01*
X130474909Y-64734382D01*
X130405544Y-64726000D01*
X130351722Y-64681447D01*
X130330532Y-64614868D01*
X130330500Y-64612073D01*
X130330500Y-64405898D01*
X130350185Y-64338859D01*
X130402989Y-64293104D01*
X130407047Y-64291337D01*
X130411278Y-64289584D01*
X130411280Y-64289584D01*
X130552250Y-64231192D01*
X130673304Y-64138304D01*
X130766192Y-64017250D01*
X130824584Y-63876280D01*
X130844500Y-63725000D01*
X130824584Y-63573720D01*
X130766192Y-63432750D01*
X130673304Y-63311696D01*
X130552250Y-63218808D01*
X130552249Y-63218807D01*
X130552247Y-63218806D01*
X130411280Y-63160416D01*
X130411278Y-63160415D01*
X130301757Y-63145997D01*
X130237860Y-63117730D01*
X130204387Y-63072869D01*
X130154173Y-62958393D01*
X130154172Y-62958393D01*
X130018166Y-62750217D01*
X129996557Y-62726744D01*
X129849744Y-62567262D01*
X129653509Y-62414526D01*
X129653507Y-62414525D01*
X129653506Y-62414524D01*
X129434811Y-62296172D01*
X129434802Y-62296169D01*
X129199616Y-62215429D01*
X129053447Y-62191038D01*
X129001131Y-62182308D01*
X128938247Y-62151859D01*
X128901807Y-62092244D01*
X128903382Y-62022392D01*
X128942471Y-61964480D01*
X129001131Y-61937691D01*
X129199614Y-61904571D01*
X129434810Y-61823828D01*
X129653509Y-61705474D01*
X129849744Y-61552738D01*
X130018164Y-61369785D01*
X130154173Y-61161607D01*
X130254063Y-60933881D01*
X130315108Y-60692821D01*
X130330500Y-60507067D01*
X130330500Y-59582933D01*
X130326145Y-59530376D01*
X130315109Y-59397186D01*
X130315107Y-59397175D01*
X130254063Y-59156118D01*
X130154173Y-58928393D01*
X130018166Y-58720217D01*
X129927673Y-58621916D01*
X129849744Y-58537262D01*
X129653509Y-58384526D01*
X129653507Y-58384525D01*
X129653506Y-58384524D01*
X129434811Y-58266172D01*
X129434802Y-58266169D01*
X129199616Y-58185429D01*
X128954335Y-58144500D01*
X128705665Y-58144500D01*
X128460383Y-58185429D01*
X128225197Y-58266169D01*
X128225188Y-58266172D01*
X128006493Y-58384524D01*
X127810257Y-58537261D01*
X127641833Y-58720217D01*
X127505826Y-58928393D01*
X127405936Y-59156118D01*
X127344892Y-59397175D01*
X127344890Y-59397186D01*
X127329500Y-59582935D01*
X127329500Y-60507065D01*
X127344890Y-60692813D01*
X127344892Y-60692824D01*
X127405936Y-60933881D01*
X127505826Y-61161606D01*
X127641833Y-61369782D01*
X127641836Y-61369785D01*
X127810256Y-61552738D01*
X128006491Y-61705474D01*
X128225190Y-61823828D01*
X128460386Y-61904571D01*
X128641654Y-61934818D01*
X128658867Y-61937691D01*
X128721753Y-61968141D01*
X128758192Y-62027756D01*
X128756617Y-62097608D01*
X128717528Y-62155520D01*
X128658867Y-62182309D01*
X128460383Y-62215429D01*
X128225197Y-62296169D01*
X128225188Y-62296172D01*
X128006493Y-62414524D01*
X127810257Y-62567261D01*
X127641833Y-62750217D01*
X127505826Y-62958393D01*
X127405936Y-63186118D01*
X127344892Y-63427175D01*
X127344890Y-63427186D01*
X127329500Y-63612935D01*
X127329500Y-64837065D01*
X108600500Y-64837065D01*
X108600500Y-61859576D01*
X108620185Y-61792538D01*
X108672989Y-61746783D01*
X108742147Y-61736839D01*
X108805703Y-61765864D01*
X108843477Y-61824642D01*
X108844262Y-61827440D01*
X108852083Y-61856626D01*
X108875787Y-61945091D01*
X109014787Y-62307197D01*
X109190877Y-62652793D01*
X109402122Y-62978082D01*
X109597057Y-63218806D01*
X109646219Y-63279516D01*
X109920484Y-63553781D01*
X109945107Y-63573720D01*
X110221917Y-63797877D01*
X110547206Y-64009122D01*
X110547211Y-64009125D01*
X110892806Y-64185214D01*
X111254913Y-64324214D01*
X111629567Y-64424602D01*
X112012662Y-64485278D01*
X112378576Y-64504455D01*
X112399999Y-64505578D01*
X112400000Y-64505578D01*
X112400001Y-64505578D01*
X112420301Y-64504514D01*
X112787338Y-64485278D01*
X113170433Y-64424602D01*
X113545087Y-64324214D01*
X113907194Y-64185214D01*
X114252789Y-64009125D01*
X114578084Y-63797876D01*
X114879516Y-63553781D01*
X115153781Y-63279516D01*
X115397876Y-62978084D01*
X115609125Y-62652789D01*
X115785214Y-62307194D01*
X115924214Y-61945087D01*
X116024602Y-61570433D01*
X116085278Y-61187338D01*
X116105578Y-60800000D01*
X116085278Y-60412662D01*
X116024602Y-60029567D01*
X115924214Y-59654913D01*
X115785214Y-59292806D01*
X115609125Y-58947211D01*
X115609122Y-58947206D01*
X115397877Y-58621917D01*
X115205641Y-58384526D01*
X115153781Y-58320484D01*
X114879516Y-58046219D01*
X114653194Y-57862947D01*
X114578082Y-57802122D01*
X114252793Y-57590877D01*
X113907197Y-57414787D01*
X113545094Y-57275788D01*
X113545087Y-57275786D01*
X113427482Y-57244274D01*
X113367824Y-57207910D01*
X113337295Y-57145063D01*
X113345590Y-57075687D01*
X113390075Y-57021809D01*
X113456627Y-57000535D01*
X113459578Y-57000500D01*
X154340422Y-57000500D01*
X154407461Y-57020185D01*
G37*
%TD.AperFunction*%
%TD*%
%TA.AperFunction,Conductor*%
%TO.N,5vUSB*%
G36*
X130812551Y-65700977D02*
G01*
X130999346Y-65715517D01*
X131001432Y-65715872D01*
X131081348Y-65737138D01*
X131139942Y-65752731D01*
X131140456Y-65752894D01*
X131259795Y-65797200D01*
X131399592Y-65834400D01*
X131589210Y-65849160D01*
X131597190Y-65853218D01*
X131600000Y-65860824D01*
X131600000Y-66339175D01*
X131596573Y-66347448D01*
X131589208Y-66350840D01*
X131399591Y-66365600D01*
X131399589Y-66365600D01*
X131259795Y-66402800D01*
X131259784Y-66402803D01*
X131259783Y-66402803D01*
X131140474Y-66447099D01*
X131139942Y-66447268D01*
X131001439Y-66484125D01*
X130999338Y-66484483D01*
X130812576Y-66499021D01*
X130804062Y-66496246D01*
X130800003Y-66488264D01*
X130799968Y-66487385D01*
X130799867Y-66447099D01*
X130799000Y-66100000D01*
X130799968Y-65712612D01*
X130803416Y-65704349D01*
X130811697Y-65700943D01*
X130812551Y-65700977D01*
G37*
%TD.AperFunction*%
%TD*%
%TA.AperFunction,Conductor*%
%TO.N,5vUSB*%
G36*
X135613309Y-68211815D02*
G01*
X135614218Y-68212837D01*
X135730530Y-68360133D01*
X135732370Y-68363458D01*
X135780027Y-68497233D01*
X135780658Y-68500110D01*
X135792844Y-68635492D01*
X135809060Y-68794250D01*
X135809060Y-68794252D01*
X135866539Y-68986834D01*
X135865622Y-68995741D01*
X135859830Y-69000979D01*
X135505200Y-69148833D01*
X135496246Y-69148854D01*
X135496210Y-69148839D01*
X135142545Y-69001951D01*
X135136219Y-68995613D01*
X135136228Y-68986658D01*
X135136797Y-68985479D01*
X135192100Y-68885780D01*
X135192497Y-68885163D01*
X135257805Y-68797034D01*
X135304621Y-68720258D01*
X135310325Y-68643734D01*
X135257765Y-68564031D01*
X135256072Y-68555239D01*
X135259258Y-68549320D01*
X135596764Y-68211814D01*
X135605036Y-68208388D01*
X135613309Y-68211815D01*
G37*
%TD.AperFunction*%
%TD*%
M02*
