M48
; DRILL file {KiCad 7.0.6} date Tue 15 Aug 2023 19:50:43
; FORMAT={-:-/ absolute / inch / decimal}
; #@! TF.CreationDate,2023-08-15T19:50:43+12:00
; #@! TF.GenerationSoftware,Kicad,Pcbnew,7.0.6
; #@! TF.FileFunction,Plated,1,4,PTH
FMAT,2
INCH
; #@! TA.AperFunction,Plated,PTH,ViaDrill
T1C0.0118
; #@! TA.AperFunction,Plated,PTH,ViaDrill
T2C0.0157
; #@! TA.AperFunction,Plated,PTH,ComponentDrill
T3C0.0236
; #@! TA.AperFunction,Plated,PTH,ComponentDrill
T4C0.0394
; #@! TA.AperFunction,Plated,PTH,ComponentDrill
T5C0.1063
; #@! TA.AperFunction,Plated,PTH,ComponentDrill
T6C0.1220
; #@! TA.AperFunction,Plated,PTH,ComponentDrill
T7C0.1413
%
G90
G05
T1
X4.2953Y-3.1594
X4.3051Y-2.9331
X4.3081Y-3.0276
X4.311Y-2.9823
X4.311Y-3.0659
X4.311Y-3.1102
X4.3593Y-3.0285
X4.3593Y-3.0659
X4.3602Y-2.9823
X4.3602Y-3.1102
X4.4075Y-3.0659
X4.4085Y-3.0285
X4.4094Y-2.9823
X4.4094Y-3.1102
X4.4537Y-3.0659
X4.4587Y-2.9823
X4.4587Y-3.1102
X4.4606Y-3.0276
X4.5Y-3.1388
X4.5069Y-2.9429
X4.5256Y-3.0276
X4.5256Y-3.0669
X4.5374Y-2.8967
X4.5374Y-2.9823
X4.5374Y-3.1102
X4.5443Y-3.2215
X5.2364Y-4.1904
X5.2849Y-4.1969
X5.3169Y-4.1063
X5.3229Y-4.1564
T2
X4.311Y-2.6969
X4.311Y-3.4154
X4.3415Y-4.06
X4.3455Y-4.247
X4.3799Y-2.6969
X4.3799Y-3.4154
X4.4488Y-2.6969
X4.4488Y-3.4154
X4.4843Y-4.252
X4.5177Y-2.6969
X4.5177Y-3.4154
X4.5276Y-4.1102
X4.5787Y-3.1752
X4.5827Y-3.6535
X4.5866Y-4.1417
X4.5866Y-4.2126
X4.6476Y-2.939
X4.6752Y-2.6476
X4.6772Y-3.7874
X4.6978Y-4.1732
X4.7283Y-3.3839
X4.7506Y-4.4975
X4.7756Y-3.2028
X4.7795Y-2.811
X4.874Y-2.9961
X4.9094Y-2.6201
X4.9331Y-4.1181
X4.937Y-4.2835
X4.94Y-4.4882
X5.0197Y-4.6063
X5.0226Y-4.5305
X5.0315Y-4.252
X5.0315Y-4.4596
X5.0512Y-3.3622
X5.0886Y-2.624
X5.1299Y-3.3583
X5.1305Y-2.7559
X5.1496Y-2.6024
X5.1545Y-4.4469
X5.1585Y-4.5256
X5.1585Y-4.5984
X5.1611Y-3.7916
X5.1614Y-3.8524
X5.1656Y-4.0313
X5.2343Y-4.6053
X5.248Y-3.3583
X5.2992Y-4.3268
X5.2992Y-4.378
X5.315Y-4.0315
X5.3189Y-3.8031
X5.3228Y-3.4488
X5.3249Y-3.9294
X5.3346Y-2.7224
X5.4055Y-2.624
X5.4134Y-3.4488
X5.4213Y-4.0354
X5.425Y-3.8709
X5.4331Y-2.9213
X5.4488Y-3.9331
X5.4705Y-4.4843
X5.5039Y-2.8898
X5.5059Y-4.2303
X5.5866Y-4.2047
X5.6024Y-3.8356
X5.6063Y-2.748
X5.6161Y-2.6142
X5.69Y-3.7136
X5.7106Y-3.0925
X5.7441Y-3.9006
X5.752Y-2.7205
X5.8465Y-4.2224
X5.8474Y-3.7116
X5.872Y-2.9429
X5.9941Y-4.0551
X6.0118Y-3.9272
X6.0138Y-3.7106
X6.0256Y-3.1949
X6.0709Y-4.0669
X6.0984Y-2.7992
X6.0984Y-2.8445
X6.1535Y-3.2057
T4
X4.4094Y-3.5969
X4.4094Y-3.6969
X4.4094Y-3.7969
X4.4094Y-3.8969
X6.185Y-3.7819
X6.185Y-3.8819
X6.185Y-3.9819
X6.185Y-4.1299
X6.185Y-4.2299
T5
X4.4094Y-3.248
X4.4134Y-2.8445
X4.4252Y-2.3937
X4.4252Y-4.4409
X6.1181Y-2.3937
X6.1181Y-4.4409
T6
X5.8119Y-3.265
X5.93Y-3.45
T7
X5.6859Y-3.45
T3
G00X5.072Y-2.3797
M15
G01X5.072Y-2.3482
M16
G05
G00X5.072Y-2.5502
M15
G01X5.072Y-2.5069
M16
G05
G00X5.4122Y-2.3797
M15
G01X5.4122Y-2.3482
M16
G05
G00X5.4122Y-2.5502
M15
G01X5.4122Y-2.5069
M16
G05
T0
M30
