%TF.GenerationSoftware,KiCad,Pcbnew,7.0.6*%
%TF.CreationDate,2023-08-15T19:52:18+12:00*%
%TF.ProjectId,esp32c3-ev-board,65737033-3263-4332-9d65-762d626f6172,rev?*%
%TF.SameCoordinates,Original*%
%TF.FileFunction,Copper,L3,Inr*%
%TF.FilePolarity,Positive*%
%FSLAX46Y46*%
G04 Gerber Fmt 4.6, Leading zero omitted, Abs format (unit mm)*
G04 Created by KiCad (PCBNEW 7.0.6) date 2023-08-15 19:52:18*
%MOMM*%
%LPD*%
G01*
G04 APERTURE LIST*
%TA.AperFunction,ComponentPad*%
%ADD10O,1.000000X1.800000*%
%TD*%
%TA.AperFunction,ComponentPad*%
%ADD11O,1.000000X2.100000*%
%TD*%
%TA.AperFunction,ComponentPad*%
%ADD12R,1.700000X1.700000*%
%TD*%
%TA.AperFunction,ComponentPad*%
%ADD13O,1.700000X1.700000*%
%TD*%
%TA.AperFunction,ComponentPad*%
%ADD14C,5.400000*%
%TD*%
%TA.AperFunction,ComponentPad*%
%ADD15C,5.385000*%
%TD*%
%TA.AperFunction,ComponentPad*%
%ADD16C,4.650000*%
%TD*%
%TA.AperFunction,ViaPad*%
%ADD17C,0.800000*%
%TD*%
%TA.AperFunction,ViaPad*%
%ADD18C,0.700000*%
%TD*%
%TA.AperFunction,Conductor*%
%ADD19C,0.300000*%
%TD*%
G04 APERTURE END LIST*
D10*
%TO.N,unconnected-(J5-SHIELD-PadS1)*%
%TO.C,J5*%
X128830000Y-60045000D03*
D11*
X128830000Y-64225000D03*
D10*
X137470000Y-60045000D03*
D11*
X137470000Y-64225000D03*
%TD*%
D12*
%TO.N,+3.3V*%
%TO.C,Hall*%
X157100000Y-96060000D03*
D13*
%TO.N,Net-(IC3-MTDI)*%
X157100000Y-98600000D03*
%TO.N,Reg Neg*%
X157100000Y-101140000D03*
%TD*%
D14*
%TO.N,Reg Neg*%
%TO.C,H1*%
X155400000Y-60800000D03*
%TD*%
%TO.N,Reg Neg*%
%TO.C,H3*%
X155400000Y-112800000D03*
%TD*%
D15*
%TO.N,Net-(D4-A)*%
%TO.C,J2*%
X144422000Y-87630000D03*
D16*
%TO.N,Reg Neg*%
X150622000Y-87630000D03*
%TO.N,N/C*%
X147622000Y-82930000D03*
%TD*%
D14*
%TO.N,Reg Neg*%
%TO.C,Negative -*%
X112000000Y-82500000D03*
%TD*%
%TO.N,Reg Neg*%
%TO.C,H4*%
X112400000Y-112800000D03*
%TD*%
D12*
%TO.N,Net-(J4-Pin_1)*%
%TO.C,UART*%
X112000000Y-91360000D03*
D13*
%TO.N,VBUS*%
X112000000Y-93900000D03*
%TO.N,Reg Neg*%
X112000000Y-96440000D03*
%TO.N,Net-(J4-Pin_4)*%
X112000000Y-98980000D03*
%TD*%
D14*
%TO.N,UnregNeg(furthest from bat term)*%
%TO.C,Negative +*%
X112100000Y-72250000D03*
%TD*%
%TO.N,UnregPos*%
%TO.C,Positive*%
X112400000Y-60800000D03*
%TD*%
D12*
%TO.N,Net-(IC3-MTMS)*%
%TO.C,Therm*%
X157100000Y-104900000D03*
D13*
%TO.N,Reg Neg*%
X157100000Y-107440000D03*
%TD*%
D17*
%TO.N,+3.3V*%
X125400000Y-108800000D03*
X154900000Y-71100000D03*
X138950000Y-113900000D03*
X152750000Y-94250000D03*
X142650000Y-66400000D03*
X123800000Y-76100000D03*
X125300000Y-104600000D03*
X137700000Y-102500000D03*
X152250000Y-103000500D03*
X135100000Y-96600000D03*
X154900000Y-72250000D03*
X124700000Y-66550000D03*
X141900000Y-106800000D03*
%TO.N,Reg Neg*%
X129250000Y-66650000D03*
X114750000Y-86750000D03*
X142300000Y-97425000D03*
X137500000Y-87600000D03*
X153050000Y-81150000D03*
X113000000Y-86750000D03*
D18*
X111950000Y-77875000D03*
D17*
X116500000Y-105200000D03*
D18*
X115250000Y-79000000D03*
D17*
X115000000Y-104400000D03*
D18*
X115425000Y-81825000D03*
D17*
X119325000Y-106000000D03*
X144525000Y-94325000D03*
X145900000Y-99075000D03*
X110375000Y-107875000D03*
X131204977Y-102395023D03*
X110275000Y-103125000D03*
X130315196Y-70000000D03*
D18*
X110725000Y-77875000D03*
D17*
X127800000Y-108000000D03*
X130925000Y-112950000D03*
X120666226Y-114235735D03*
X127500000Y-117000000D03*
X131025000Y-114950000D03*
X116500000Y-107000000D03*
D18*
X109500000Y-77875000D03*
X110750000Y-79000000D03*
D17*
X109500000Y-86750000D03*
X137300000Y-66650000D03*
X132950000Y-116975000D03*
X127800000Y-113275000D03*
X125475000Y-114000000D03*
X120100000Y-85950000D03*
X116300000Y-80650000D03*
X116400000Y-92800000D03*
D18*
X114950000Y-77900000D03*
D17*
X118800000Y-96200000D03*
X121300000Y-81350000D03*
X128300000Y-85400000D03*
X148525000Y-94275000D03*
X131025000Y-116800000D03*
X137796210Y-98321210D03*
X134600000Y-109900000D03*
X111250000Y-86750000D03*
X135200000Y-87600000D03*
D18*
X114300000Y-79725000D03*
D17*
X149149500Y-74750000D03*
X145050000Y-78550000D03*
D18*
X109500000Y-79000000D03*
D17*
X127575000Y-115075000D03*
X156300000Y-81425000D03*
X146100000Y-69100000D03*
X113900000Y-108000000D03*
D18*
X112000000Y-79000000D03*
X113125000Y-77875000D03*
X109100000Y-80250000D03*
D17*
X134600000Y-111200000D03*
D18*
X113250000Y-79000000D03*
D17*
%TO.N,CurMeas*%
X138400000Y-99900000D03*
X118050000Y-74650000D03*
X142400000Y-69800000D03*
X138000000Y-74200000D03*
X139800000Y-73400000D03*
%TO.N,CHIPEN*%
X118750000Y-67250000D03*
D18*
X134236386Y-106600500D03*
D17*
%TO.N,VoltMeas*%
X121400000Y-71400000D03*
X135251233Y-99806233D03*
%TO.N,5vUSB*%
X135500000Y-69150000D03*
X130800000Y-66100000D03*
%TO.N,LED B*%
X139850000Y-107449500D03*
X135000000Y-102400500D03*
%TO.N,Net-(IC3-SPICS0)*%
X131092324Y-96307675D03*
X133300000Y-85300000D03*
%TO.N,Net-(IC3-SPIWP)*%
X130300000Y-85300000D03*
X131099500Y-97850000D03*
%TO.N,UnregNeg(furthest from bat term)*%
X109500000Y-68500000D03*
D18*
X109350000Y-74500000D03*
X112000000Y-75750000D03*
X109500000Y-75750000D03*
X114475000Y-74750000D03*
X115250000Y-73575000D03*
X110725000Y-76925000D03*
D17*
X111250000Y-68500000D03*
D18*
X114950000Y-76900000D03*
D17*
X113000000Y-68500000D03*
X114750000Y-68500000D03*
D18*
X115250000Y-75750000D03*
X113250000Y-75750000D03*
X109425000Y-76900000D03*
X110750000Y-75750000D03*
X113300000Y-76900000D03*
X111975000Y-76925000D03*
%TO.N,Net-(IC3-MTDI)*%
X135050000Y-104300000D03*
D17*
X152700000Y-99750000D03*
%TO.N,Net-(IC3-GPIO2)*%
X148500000Y-107250000D03*
D18*
X133004718Y-106434892D03*
%TO.N,Net-(IC3-MTMS)*%
X135201464Y-105573536D03*
D17*
X154200000Y-103300000D03*
%TD*%
D19*
%TO.N,CurMeas*%
X134940572Y-100556233D02*
X134501233Y-100116894D01*
X138400000Y-99900000D02*
X137743767Y-100556233D01*
X138650000Y-95346805D02*
X138650000Y-74800000D01*
X138650000Y-74800000D02*
X136300000Y-72450000D01*
X137743767Y-100556233D02*
X134940572Y-100556233D01*
X120250000Y-72450000D02*
X118050000Y-74650000D01*
X136300000Y-72450000D02*
X120250000Y-72450000D01*
X139800000Y-72400000D02*
X139800000Y-73400000D01*
X142400000Y-69800000D02*
X139800000Y-72400000D01*
X134501233Y-100116894D02*
X134501233Y-99495572D01*
X134501233Y-99495572D02*
X138650000Y-95346805D01*
%TO.N,CHIPEN*%
X117300000Y-68700000D02*
X117300000Y-89550000D01*
X118750000Y-67250000D02*
X117300000Y-68700000D01*
X117300000Y-89550000D02*
X134250000Y-106500000D01*
%TO.N,VoltMeas*%
X139700000Y-74600000D02*
X139700000Y-95357466D01*
X139700000Y-95357466D02*
X135251233Y-99806233D01*
X121400000Y-71400000D02*
X136500000Y-71400000D01*
X136500000Y-71400000D02*
X139700000Y-74600000D01*
%TO.N,LED B*%
X134247467Y-105608782D02*
X134247467Y-103153033D01*
X134247467Y-103153033D02*
X135000000Y-102400500D01*
X139850000Y-107449500D02*
X136088185Y-107449500D01*
X136088185Y-107449500D02*
X134247467Y-105608782D01*
%TO.N,Net-(IC3-SPICS0)*%
X131092324Y-96207676D02*
X133300000Y-94000000D01*
X131092324Y-96307675D02*
X131092324Y-96207676D01*
X133300000Y-94000000D02*
X133300000Y-85300000D01*
%TO.N,Net-(IC3-SPIWP)*%
X130300000Y-85300000D02*
X130300000Y-96575305D01*
X131099500Y-97374805D02*
X131099500Y-97850000D01*
X130300000Y-96575305D02*
X131099500Y-97374805D01*
%TO.N,Net-(IC3-MTDI)*%
X135050000Y-104300000D02*
X148150000Y-104300000D01*
X148150000Y-104300000D02*
X152700000Y-99750000D01*
%TO.N,Net-(IC3-GPIO2)*%
X133004718Y-106434892D02*
X133004718Y-106486085D01*
X134718133Y-108199500D02*
X147550500Y-108199500D01*
X147550500Y-108199500D02*
X148500000Y-107250000D01*
X133004718Y-106486085D02*
X134718133Y-108199500D01*
%TO.N,Net-(IC3-MTMS)*%
X153750000Y-103750000D02*
X154200000Y-103300000D01*
X135201464Y-105573536D02*
X135476879Y-105298121D01*
X135476879Y-105298121D02*
X148451879Y-105298121D01*
X150000000Y-103750000D02*
X153750000Y-103750000D01*
X148451879Y-105298121D02*
X150000000Y-103750000D01*
%TD*%
%TA.AperFunction,Conductor*%
%TO.N,Reg Neg*%
G36*
X115485000Y-87500000D02*
G01*
X108600500Y-87500000D01*
X108600500Y-77617000D01*
X108620185Y-77549961D01*
X108664665Y-77511418D01*
X115685000Y-77500000D01*
X115485000Y-87500000D01*
G37*
%TD.AperFunction*%
%TD*%
%TA.AperFunction,Conductor*%
%TO.N,UnregNeg(furthest from bat term)*%
G36*
X115642852Y-67319685D02*
G01*
X115688607Y-67372489D01*
X115699813Y-67424186D01*
X115685186Y-77163686D01*
X115665401Y-77230696D01*
X115612528Y-77276372D01*
X115561186Y-77287500D01*
X108724500Y-77287500D01*
X108657461Y-77267815D01*
X108611706Y-77215011D01*
X108600500Y-77163500D01*
X108600500Y-67424000D01*
X108620185Y-67356961D01*
X108672989Y-67311206D01*
X108724500Y-67300000D01*
X115575813Y-67300000D01*
X115642852Y-67319685D01*
G37*
%TD.AperFunction*%
%TD*%
%TA.AperFunction,Conductor*%
%TO.N,Reg Neg*%
G36*
X155401512Y-57000575D02*
G01*
X155769375Y-57018647D01*
X155775422Y-57019241D01*
X156138234Y-57073059D01*
X156144181Y-57074241D01*
X156499987Y-57163366D01*
X156505793Y-57165127D01*
X156851149Y-57288698D01*
X156856752Y-57291019D01*
X157188321Y-57447839D01*
X157193679Y-57450702D01*
X157508270Y-57639261D01*
X157513332Y-57642643D01*
X157807933Y-57861135D01*
X157812637Y-57864995D01*
X158084409Y-58111315D01*
X158088684Y-58115590D01*
X158335002Y-58387360D01*
X158338864Y-58392066D01*
X158557356Y-58686667D01*
X158560738Y-58691729D01*
X158577921Y-58720397D01*
X158661375Y-58859632D01*
X158749290Y-59006308D01*
X158752160Y-59011678D01*
X158908980Y-59343247D01*
X158911305Y-59348860D01*
X159034866Y-59694186D01*
X159036633Y-59700012D01*
X159125754Y-60055799D01*
X159126941Y-60061771D01*
X159180756Y-60424566D01*
X159181352Y-60430624D01*
X159199425Y-60798487D01*
X159199500Y-60801530D01*
X159199500Y-112798469D01*
X159199425Y-112801512D01*
X159181352Y-113169375D01*
X159180756Y-113175433D01*
X159126941Y-113538228D01*
X159125754Y-113544200D01*
X159036633Y-113899987D01*
X159034866Y-113905812D01*
X158932963Y-114190613D01*
X158911310Y-114251128D01*
X158908980Y-114256752D01*
X158752160Y-114588321D01*
X158749290Y-114593691D01*
X158560738Y-114908270D01*
X158557356Y-114913332D01*
X158338864Y-115207933D01*
X158335002Y-115212639D01*
X158088699Y-115484394D01*
X158084399Y-115488693D01*
X157987317Y-115576683D01*
X157812639Y-115735002D01*
X157807933Y-115738864D01*
X157513332Y-115957356D01*
X157508270Y-115960738D01*
X157193691Y-116149290D01*
X157188321Y-116152160D01*
X156856752Y-116308980D01*
X156851132Y-116311308D01*
X156505813Y-116434866D01*
X156499987Y-116436633D01*
X156144200Y-116525754D01*
X156138228Y-116526941D01*
X155775433Y-116580756D01*
X155769375Y-116581352D01*
X155401513Y-116599425D01*
X155398470Y-116599500D01*
X143600000Y-116599500D01*
X143460198Y-116599425D01*
X143460197Y-116599425D01*
X143460192Y-116599425D01*
X143182955Y-116635623D01*
X143182939Y-116635626D01*
X142931072Y-116702537D01*
X142912714Y-116707415D01*
X142795010Y-116755727D01*
X142654054Y-116813584D01*
X142411314Y-116952350D01*
X142188580Y-117121377D01*
X141989607Y-117317815D01*
X141989601Y-117317822D01*
X141817738Y-117538365D01*
X141817736Y-117538368D01*
X141784330Y-117595104D01*
X141743812Y-117663917D01*
X141692837Y-117711697D01*
X141636961Y-117725000D01*
X126295917Y-117725000D01*
X126228878Y-117705315D01*
X126189392Y-117662194D01*
X126188524Y-117662719D01*
X126186595Y-117659529D01*
X126186589Y-117659517D01*
X126035363Y-117440430D01*
X126018294Y-117421163D01*
X125858833Y-117241168D01*
X125858831Y-117241166D01*
X125659575Y-117064641D01*
X125659572Y-117064639D01*
X125659570Y-117064637D01*
X125440483Y-116913411D01*
X125204764Y-116789697D01*
X125197661Y-116787003D01*
X124955857Y-116695298D01*
X124894045Y-116680062D01*
X124697376Y-116631588D01*
X124538813Y-116612335D01*
X124433108Y-116599500D01*
X124433106Y-116599500D01*
X124322590Y-116599500D01*
X112401530Y-116599500D01*
X112398487Y-116599425D01*
X112030624Y-116581352D01*
X112024566Y-116580756D01*
X111661771Y-116526941D01*
X111655802Y-116525754D01*
X111578735Y-116506450D01*
X111300012Y-116436633D01*
X111294193Y-116434868D01*
X110948860Y-116311305D01*
X110943247Y-116308980D01*
X110611678Y-116152160D01*
X110606313Y-116149293D01*
X110291729Y-115960738D01*
X110286667Y-115957356D01*
X109992066Y-115738864D01*
X109987360Y-115735002D01*
X109715590Y-115488684D01*
X109711315Y-115484409D01*
X109464995Y-115212637D01*
X109461135Y-115207933D01*
X109242643Y-114913332D01*
X109239261Y-114908270D01*
X109050702Y-114593679D01*
X109047839Y-114588321D01*
X108891019Y-114256752D01*
X108888698Y-114251149D01*
X108765127Y-113905793D01*
X108763366Y-113899987D01*
X108752987Y-113858552D01*
X108674241Y-113544181D01*
X108673058Y-113538228D01*
X108669345Y-113513194D01*
X108619241Y-113175422D01*
X108618647Y-113169375D01*
X108600575Y-112801511D01*
X108600538Y-112800000D01*
X109194958Y-112800000D01*
X109215110Y-113158846D01*
X109215112Y-113158858D01*
X109275314Y-113513185D01*
X109275316Y-113513194D01*
X109374812Y-113858552D01*
X109512353Y-114190609D01*
X109512355Y-114190613D01*
X109686215Y-114505189D01*
X109686218Y-114505194D01*
X109894193Y-114798306D01*
X109966843Y-114879601D01*
X111285072Y-113561371D01*
X111361890Y-113671078D01*
X111528922Y-113838110D01*
X111638626Y-113914925D01*
X110320397Y-115233155D01*
X110320396Y-115233155D01*
X110401693Y-115305806D01*
X110694805Y-115513781D01*
X110694810Y-115513784D01*
X111009386Y-115687644D01*
X111009390Y-115687646D01*
X111341447Y-115825187D01*
X111686805Y-115924683D01*
X111686814Y-115924685D01*
X112041141Y-115984887D01*
X112041153Y-115984889D01*
X112400000Y-116005041D01*
X112758846Y-115984889D01*
X112758858Y-115984887D01*
X113113185Y-115924685D01*
X113113194Y-115924683D01*
X113458552Y-115825187D01*
X113790609Y-115687646D01*
X113790613Y-115687644D01*
X114105189Y-115513784D01*
X114105194Y-115513781D01*
X114398306Y-115305806D01*
X114479601Y-115233155D01*
X113161373Y-113914925D01*
X113271078Y-113838110D01*
X113438110Y-113671078D01*
X113514926Y-113561373D01*
X114833155Y-114879601D01*
X114905806Y-114798306D01*
X115113781Y-114505194D01*
X115113784Y-114505189D01*
X115287644Y-114190613D01*
X115287646Y-114190609D01*
X115408019Y-113899999D01*
X138244355Y-113899999D01*
X138264859Y-114068869D01*
X138264860Y-114068874D01*
X138325182Y-114227931D01*
X138387475Y-114318177D01*
X138421817Y-114367929D01*
X138527505Y-114461560D01*
X138549150Y-114480736D01*
X138699773Y-114559789D01*
X138699775Y-114559790D01*
X138864944Y-114600500D01*
X139035056Y-114600500D01*
X139200225Y-114559790D01*
X139304248Y-114505194D01*
X139350849Y-114480736D01*
X139350850Y-114480734D01*
X139350852Y-114480734D01*
X139478183Y-114367929D01*
X139574818Y-114227930D01*
X139635140Y-114068872D01*
X139655645Y-113900000D01*
X139635140Y-113731128D01*
X139574818Y-113572070D01*
X139551458Y-113538228D01*
X139540476Y-113522318D01*
X139478183Y-113432071D01*
X139350852Y-113319266D01*
X139350849Y-113319263D01*
X139200226Y-113240210D01*
X139035056Y-113199500D01*
X138864944Y-113199500D01*
X138699773Y-113240210D01*
X138549150Y-113319263D01*
X138421816Y-113432072D01*
X138325182Y-113572068D01*
X138264860Y-113731125D01*
X138264859Y-113731130D01*
X138244355Y-113899999D01*
X115408019Y-113899999D01*
X115425187Y-113858552D01*
X115524683Y-113513194D01*
X115524685Y-113513185D01*
X115584887Y-113158858D01*
X115584889Y-113158846D01*
X115605041Y-112799999D01*
X152194958Y-112799999D01*
X152215110Y-113158846D01*
X152215112Y-113158858D01*
X152275314Y-113513185D01*
X152275316Y-113513194D01*
X152374812Y-113858552D01*
X152512353Y-114190609D01*
X152512355Y-114190613D01*
X152686215Y-114505189D01*
X152686218Y-114505194D01*
X152894193Y-114798306D01*
X152966843Y-114879601D01*
X154285072Y-113561371D01*
X154361890Y-113671078D01*
X154528922Y-113838110D01*
X154638626Y-113914925D01*
X153320397Y-115233155D01*
X153401693Y-115305806D01*
X153694805Y-115513781D01*
X153694810Y-115513784D01*
X154009386Y-115687644D01*
X154009390Y-115687646D01*
X154341447Y-115825187D01*
X154686805Y-115924683D01*
X154686814Y-115924685D01*
X155041141Y-115984887D01*
X155041153Y-115984889D01*
X155399999Y-116005041D01*
X155758846Y-115984889D01*
X155758858Y-115984887D01*
X156113185Y-115924685D01*
X156113194Y-115924683D01*
X156458552Y-115825187D01*
X156790609Y-115687646D01*
X156790613Y-115687644D01*
X157105189Y-115513784D01*
X157105194Y-115513781D01*
X157398306Y-115305806D01*
X157479601Y-115233155D01*
X156161373Y-113914925D01*
X156271078Y-113838110D01*
X156438110Y-113671078D01*
X156514926Y-113561373D01*
X157833155Y-114879601D01*
X157905806Y-114798306D01*
X158113781Y-114505194D01*
X158113784Y-114505189D01*
X158287644Y-114190613D01*
X158287646Y-114190609D01*
X158425187Y-113858552D01*
X158524683Y-113513194D01*
X158524685Y-113513185D01*
X158584887Y-113158858D01*
X158584889Y-113158846D01*
X158605041Y-112799999D01*
X158584889Y-112441153D01*
X158584887Y-112441141D01*
X158524685Y-112086814D01*
X158524683Y-112086805D01*
X158425187Y-111741447D01*
X158287646Y-111409390D01*
X158287644Y-111409386D01*
X158113784Y-111094810D01*
X158113781Y-111094805D01*
X157905806Y-110801693D01*
X157833155Y-110720397D01*
X156514925Y-112038626D01*
X156438110Y-111928922D01*
X156271078Y-111761890D01*
X156161372Y-111685073D01*
X157479602Y-110366843D01*
X157398306Y-110294193D01*
X157105194Y-110086218D01*
X157105189Y-110086215D01*
X156790613Y-109912355D01*
X156790609Y-109912353D01*
X156458552Y-109774812D01*
X156113194Y-109675316D01*
X156113185Y-109675314D01*
X155758858Y-109615112D01*
X155758846Y-109615110D01*
X155399999Y-109594958D01*
X155041153Y-109615110D01*
X155041141Y-109615112D01*
X154686814Y-109675314D01*
X154686805Y-109675316D01*
X154341447Y-109774812D01*
X154009390Y-109912353D01*
X154009386Y-109912355D01*
X153694810Y-110086215D01*
X153694805Y-110086218D01*
X153401693Y-110294194D01*
X153401685Y-110294199D01*
X153320397Y-110366842D01*
X153320397Y-110366843D01*
X154638627Y-111685073D01*
X154528922Y-111761890D01*
X154361890Y-111928922D01*
X154285073Y-112038626D01*
X152966843Y-110720396D01*
X152966842Y-110720397D01*
X152894199Y-110801685D01*
X152894194Y-110801693D01*
X152686218Y-111094805D01*
X152686215Y-111094810D01*
X152512355Y-111409386D01*
X152512353Y-111409390D01*
X152374812Y-111741447D01*
X152275316Y-112086805D01*
X152275314Y-112086814D01*
X152215112Y-112441141D01*
X152215110Y-112441153D01*
X152194958Y-112799999D01*
X115605041Y-112799999D01*
X115584889Y-112441153D01*
X115584887Y-112441141D01*
X115524685Y-112086814D01*
X115524683Y-112086805D01*
X115425187Y-111741447D01*
X115287646Y-111409390D01*
X115287644Y-111409386D01*
X115113784Y-111094810D01*
X115113781Y-111094805D01*
X114905806Y-110801693D01*
X114833155Y-110720397D01*
X113514925Y-112038626D01*
X113438110Y-111928922D01*
X113271078Y-111761890D01*
X113161372Y-111685073D01*
X114479602Y-110366843D01*
X114398306Y-110294193D01*
X114105194Y-110086218D01*
X114105189Y-110086215D01*
X113790613Y-109912355D01*
X113790609Y-109912353D01*
X113458552Y-109774812D01*
X113113194Y-109675316D01*
X113113185Y-109675314D01*
X112758858Y-109615112D01*
X112758846Y-109615110D01*
X112400000Y-109594958D01*
X112041153Y-109615110D01*
X112041141Y-109615112D01*
X111686814Y-109675314D01*
X111686805Y-109675316D01*
X111341447Y-109774812D01*
X111009390Y-109912353D01*
X111009386Y-109912355D01*
X110694810Y-110086215D01*
X110694805Y-110086218D01*
X110401693Y-110294194D01*
X110401685Y-110294199D01*
X110320397Y-110366842D01*
X110320397Y-110366843D01*
X111638627Y-111685073D01*
X111528922Y-111761890D01*
X111361890Y-111928922D01*
X111285073Y-112038626D01*
X109966843Y-110720396D01*
X109966842Y-110720397D01*
X109894199Y-110801685D01*
X109894194Y-110801693D01*
X109686218Y-111094805D01*
X109686215Y-111094810D01*
X109512355Y-111409386D01*
X109512353Y-111409390D01*
X109374812Y-111741447D01*
X109275316Y-112086805D01*
X109275314Y-112086814D01*
X109215112Y-112441141D01*
X109215110Y-112441153D01*
X109194958Y-112800000D01*
X108600538Y-112800000D01*
X108600500Y-112798469D01*
X108600500Y-108800000D01*
X124694355Y-108800000D01*
X124714859Y-108968869D01*
X124714860Y-108968874D01*
X124775182Y-109127931D01*
X124837475Y-109218177D01*
X124871817Y-109267929D01*
X124977505Y-109361560D01*
X124999150Y-109380736D01*
X125149773Y-109459789D01*
X125149775Y-109459790D01*
X125314944Y-109500500D01*
X125485056Y-109500500D01*
X125650225Y-109459790D01*
X125729692Y-109418081D01*
X125800849Y-109380736D01*
X125800850Y-109380734D01*
X125800852Y-109380734D01*
X125928183Y-109267929D01*
X126024818Y-109127930D01*
X126085140Y-108968872D01*
X126105645Y-108800000D01*
X126085140Y-108631128D01*
X126074204Y-108602293D01*
X126044514Y-108524004D01*
X126024818Y-108472070D01*
X126019638Y-108464566D01*
X125990476Y-108422318D01*
X125928183Y-108332071D01*
X125800852Y-108219266D01*
X125800849Y-108219263D01*
X125650226Y-108140210D01*
X125485056Y-108099500D01*
X125314944Y-108099500D01*
X125149773Y-108140210D01*
X124999150Y-108219263D01*
X124871816Y-108332072D01*
X124775182Y-108472068D01*
X124714860Y-108631125D01*
X124714859Y-108631130D01*
X124694355Y-108800000D01*
X108600500Y-108800000D01*
X108600500Y-104600000D01*
X124594355Y-104600000D01*
X124614859Y-104768869D01*
X124614860Y-104768874D01*
X124675182Y-104927931D01*
X124737475Y-105018177D01*
X124771817Y-105067929D01*
X124877505Y-105161560D01*
X124899150Y-105180736D01*
X125049773Y-105259789D01*
X125049775Y-105259790D01*
X125214944Y-105300500D01*
X125385056Y-105300500D01*
X125550225Y-105259790D01*
X125667608Y-105198182D01*
X125700849Y-105180736D01*
X125700850Y-105180734D01*
X125700852Y-105180734D01*
X125828183Y-105067929D01*
X125924818Y-104927930D01*
X125985140Y-104768872D01*
X126005645Y-104600000D01*
X125985140Y-104431128D01*
X125924818Y-104272070D01*
X125828183Y-104132071D01*
X125700852Y-104019266D01*
X125700849Y-104019263D01*
X125550226Y-103940210D01*
X125385056Y-103899500D01*
X125214944Y-103899500D01*
X125049773Y-103940210D01*
X124899150Y-104019263D01*
X124771816Y-104132072D01*
X124675182Y-104272068D01*
X124614860Y-104431125D01*
X124614859Y-104431130D01*
X124594355Y-104600000D01*
X108600500Y-104600000D01*
X108600500Y-96690000D01*
X110669364Y-96690000D01*
X110726567Y-96903486D01*
X110726570Y-96903492D01*
X110826399Y-97117578D01*
X110961894Y-97311082D01*
X111128917Y-97478105D01*
X111322421Y-97613600D01*
X111521573Y-97706466D01*
X111574012Y-97752638D01*
X111593164Y-97819832D01*
X111572948Y-97886713D01*
X111519783Y-97932048D01*
X111513968Y-97934472D01*
X111506771Y-97937260D01*
X111484982Y-97945701D01*
X111484980Y-97945702D01*
X111303699Y-98057947D01*
X111146127Y-98201593D01*
X111017632Y-98371746D01*
X110922596Y-98562605D01*
X110922596Y-98562607D01*
X110864244Y-98767689D01*
X110844570Y-98979999D01*
X110844570Y-98980000D01*
X110864244Y-99192310D01*
X110922596Y-99397392D01*
X110922596Y-99397394D01*
X111017632Y-99588253D01*
X111125529Y-99731130D01*
X111146128Y-99758407D01*
X111303698Y-99902052D01*
X111484981Y-100014298D01*
X111683802Y-100091321D01*
X111893390Y-100130500D01*
X111893392Y-100130500D01*
X112106608Y-100130500D01*
X112106610Y-100130500D01*
X112316198Y-100091321D01*
X112515019Y-100014298D01*
X112696302Y-99902052D01*
X112853872Y-99758407D01*
X112982366Y-99588255D01*
X113000419Y-99551999D01*
X113077403Y-99397394D01*
X113077403Y-99397393D01*
X113077405Y-99397389D01*
X113135756Y-99192310D01*
X113155429Y-98980000D01*
X113135756Y-98767690D01*
X113077405Y-98562611D01*
X113077403Y-98562606D01*
X113077403Y-98562605D01*
X112982367Y-98371746D01*
X112853872Y-98201593D01*
X112827915Y-98177930D01*
X112696302Y-98057948D01*
X112515019Y-97945702D01*
X112515014Y-97945700D01*
X112508129Y-97943032D01*
X112486037Y-97934474D01*
X112430636Y-97891903D01*
X112407045Y-97826136D01*
X112422756Y-97758056D01*
X112472779Y-97709276D01*
X112478426Y-97706466D01*
X112677578Y-97613599D01*
X112871082Y-97478105D01*
X113038105Y-97311082D01*
X113173600Y-97117578D01*
X113273429Y-96903492D01*
X113273432Y-96903486D01*
X113330636Y-96690000D01*
X112433686Y-96690000D01*
X112459493Y-96649844D01*
X112500000Y-96511889D01*
X112500000Y-96368111D01*
X112459493Y-96230156D01*
X112433686Y-96190000D01*
X113330636Y-96190000D01*
X113330635Y-96189999D01*
X113273432Y-95976513D01*
X113273429Y-95976507D01*
X113173600Y-95762422D01*
X113173599Y-95762420D01*
X113038113Y-95568926D01*
X113038108Y-95568920D01*
X112871082Y-95401894D01*
X112677578Y-95266399D01*
X112478426Y-95173533D01*
X112425987Y-95127360D01*
X112406835Y-95060167D01*
X112427051Y-94993286D01*
X112480216Y-94947951D01*
X112486005Y-94945537D01*
X112515019Y-94934298D01*
X112696302Y-94822052D01*
X112853872Y-94678407D01*
X112982366Y-94508255D01*
X113026873Y-94418872D01*
X113077403Y-94317394D01*
X113077403Y-94317393D01*
X113077405Y-94317389D01*
X113135756Y-94112310D01*
X113155429Y-93900000D01*
X113135756Y-93687690D01*
X113077405Y-93482611D01*
X113077403Y-93482606D01*
X113077403Y-93482605D01*
X112982367Y-93291746D01*
X112853872Y-93121593D01*
X112696302Y-92977948D01*
X112515019Y-92865702D01*
X112515017Y-92865701D01*
X112415608Y-92827190D01*
X112316198Y-92788679D01*
X112143456Y-92756387D01*
X112081176Y-92724719D01*
X112045903Y-92664407D01*
X112048837Y-92594599D01*
X112089046Y-92537459D01*
X112153764Y-92511128D01*
X112166233Y-92510499D01*
X112894864Y-92510499D01*
X112894879Y-92510497D01*
X112894882Y-92510497D01*
X112919987Y-92507586D01*
X112919988Y-92507585D01*
X112919991Y-92507585D01*
X113022765Y-92462206D01*
X113102206Y-92382765D01*
X113147585Y-92279991D01*
X113150500Y-92254865D01*
X113150499Y-90465136D01*
X113149324Y-90455000D01*
X113147586Y-90440012D01*
X113147585Y-90440010D01*
X113147585Y-90440009D01*
X113102206Y-90337235D01*
X113022765Y-90257794D01*
X113022764Y-90257793D01*
X112919992Y-90212415D01*
X112894865Y-90209500D01*
X111105143Y-90209500D01*
X111105117Y-90209502D01*
X111080012Y-90212413D01*
X111080008Y-90212415D01*
X110977235Y-90257793D01*
X110897794Y-90337234D01*
X110852415Y-90440006D01*
X110852415Y-90440008D01*
X110849500Y-90465131D01*
X110849500Y-92254856D01*
X110849502Y-92254882D01*
X110852413Y-92279987D01*
X110852415Y-92279991D01*
X110897793Y-92382764D01*
X110897794Y-92382765D01*
X110977235Y-92462206D01*
X111080009Y-92507585D01*
X111105135Y-92510500D01*
X111833758Y-92510499D01*
X111900795Y-92530183D01*
X111946550Y-92582987D01*
X111956494Y-92652146D01*
X111927469Y-92715702D01*
X111868691Y-92753476D01*
X111856542Y-92756388D01*
X111800116Y-92766935D01*
X111683802Y-92788679D01*
X111683800Y-92788679D01*
X111683798Y-92788680D01*
X111484982Y-92865701D01*
X111484980Y-92865702D01*
X111303699Y-92977947D01*
X111146127Y-93121593D01*
X111017632Y-93291746D01*
X110922596Y-93482605D01*
X110922596Y-93482607D01*
X110864244Y-93687689D01*
X110844570Y-93899999D01*
X110844570Y-93900000D01*
X110864244Y-94112310D01*
X110922596Y-94317392D01*
X110922596Y-94317394D01*
X111017632Y-94508253D01*
X111070251Y-94577931D01*
X111146128Y-94678407D01*
X111303698Y-94822052D01*
X111484981Y-94934298D01*
X111513961Y-94945525D01*
X111569362Y-94988095D01*
X111592954Y-95053861D01*
X111577244Y-95121942D01*
X111527222Y-95170722D01*
X111521573Y-95173533D01*
X111322422Y-95266399D01*
X111322420Y-95266400D01*
X111128926Y-95401886D01*
X111128920Y-95401891D01*
X110961891Y-95568920D01*
X110961886Y-95568926D01*
X110826400Y-95762420D01*
X110826399Y-95762422D01*
X110726570Y-95976507D01*
X110726567Y-95976513D01*
X110669364Y-96189999D01*
X110669364Y-96190000D01*
X111566314Y-96190000D01*
X111540507Y-96230156D01*
X111500000Y-96368111D01*
X111500000Y-96511889D01*
X111540507Y-96649844D01*
X111566314Y-96690000D01*
X110669364Y-96690000D01*
X108600500Y-96690000D01*
X108600500Y-89567035D01*
X116844730Y-89567035D01*
X116855788Y-89625479D01*
X116864652Y-89684290D01*
X116867162Y-89692427D01*
X116869978Y-89700475D01*
X116897777Y-89753072D01*
X116923576Y-89806644D01*
X116928362Y-89813665D01*
X116933431Y-89820532D01*
X116933434Y-89820538D01*
X116975496Y-89862600D01*
X117010049Y-89899840D01*
X117015947Y-89906196D01*
X117023210Y-89911988D01*
X117022689Y-89912641D01*
X117034930Y-89922034D01*
X124962896Y-97850000D01*
X132759916Y-105647019D01*
X132793401Y-105708342D01*
X132788417Y-105778034D01*
X132746545Y-105833967D01*
X132729862Y-105844496D01*
X132632479Y-105895608D01*
X132514234Y-106000363D01*
X132424499Y-106130367D01*
X132424498Y-106130368D01*
X132368480Y-106278073D01*
X132349440Y-106434891D01*
X132349440Y-106434892D01*
X132368480Y-106591710D01*
X132397894Y-106669266D01*
X132424498Y-106739415D01*
X132514235Y-106869422D01*
X132632478Y-106974175D01*
X132751417Y-107036599D01*
X132756555Y-107039623D01*
X132780667Y-107055436D01*
X132910510Y-107109668D01*
X132913063Y-107110804D01*
X132988913Y-107146691D01*
X132995689Y-107150432D01*
X133038997Y-107178001D01*
X133045849Y-107183056D01*
X133104526Y-107232914D01*
X133107665Y-107235773D01*
X133157221Y-107284112D01*
X133205270Y-107330981D01*
X133208979Y-107334538D01*
X133217624Y-107340096D01*
X133238248Y-107356719D01*
X134379223Y-108497693D01*
X134383859Y-108502880D01*
X134408254Y-108533470D01*
X134408254Y-108533471D01*
X134457404Y-108566980D01*
X134505251Y-108602293D01*
X134512787Y-108606276D01*
X134520452Y-108609967D01*
X134520460Y-108609972D01*
X134577309Y-108627506D01*
X134577310Y-108627507D01*
X134633430Y-108647145D01*
X134633432Y-108647145D01*
X134633434Y-108647146D01*
X134633435Y-108647146D01*
X134641831Y-108648734D01*
X134650228Y-108650000D01*
X134650231Y-108650000D01*
X134709692Y-108650000D01*
X134769142Y-108652225D01*
X134769142Y-108652224D01*
X134769143Y-108652225D01*
X134769143Y-108652224D01*
X134778375Y-108651185D01*
X134778468Y-108652013D01*
X134793772Y-108650000D01*
X147521717Y-108650000D01*
X147528655Y-108650389D01*
X147560550Y-108653983D01*
X147567534Y-108654770D01*
X147567534Y-108654769D01*
X147567535Y-108654770D01*
X147625979Y-108643711D01*
X147684787Y-108634848D01*
X147684790Y-108634846D01*
X147692947Y-108632330D01*
X147700969Y-108629523D01*
X147700972Y-108629523D01*
X147753572Y-108601722D01*
X147807142Y-108575925D01*
X147807142Y-108575924D01*
X147807144Y-108575924D01*
X147814195Y-108571116D01*
X147821038Y-108566066D01*
X147863099Y-108524004D01*
X147863099Y-108524003D01*
X147906694Y-108483555D01*
X147906696Y-108483550D01*
X147912487Y-108476290D01*
X147913143Y-108476813D01*
X147922532Y-108464570D01*
X148222238Y-108164863D01*
X148246214Y-108146161D01*
X148251056Y-108143263D01*
X148338952Y-108065497D01*
X148357567Y-108051892D01*
X148389538Y-108032811D01*
X148411659Y-108022414D01*
X148426511Y-108017149D01*
X148462395Y-108004430D01*
X148465864Y-108003316D01*
X148580783Y-107970146D01*
X148584253Y-107969017D01*
X148590701Y-107966922D01*
X148674400Y-107936676D01*
X148742705Y-107911994D01*
X148748948Y-107910105D01*
X148750218Y-107909792D01*
X148750218Y-107909791D01*
X148750225Y-107909790D01*
X148752171Y-107908768D01*
X148757317Y-107906362D01*
X148764811Y-107903272D01*
X148769112Y-107900339D01*
X148775227Y-107896667D01*
X148780485Y-107893907D01*
X148900852Y-107830734D01*
X149028183Y-107717929D01*
X149047461Y-107690000D01*
X155769364Y-107690000D01*
X155826567Y-107903486D01*
X155826570Y-107903492D01*
X155926399Y-108117578D01*
X156061894Y-108311082D01*
X156228917Y-108478105D01*
X156422421Y-108613600D01*
X156636507Y-108713429D01*
X156636516Y-108713433D01*
X156850000Y-108770634D01*
X156850000Y-107875501D01*
X156957685Y-107924680D01*
X157064237Y-107940000D01*
X157135763Y-107940000D01*
X157242315Y-107924680D01*
X157350000Y-107875501D01*
X157350000Y-108770633D01*
X157563483Y-108713433D01*
X157563492Y-108713429D01*
X157777578Y-108613600D01*
X157971082Y-108478105D01*
X158138105Y-108311082D01*
X158273600Y-108117578D01*
X158373429Y-107903492D01*
X158373432Y-107903486D01*
X158430636Y-107690000D01*
X157533686Y-107690000D01*
X157559493Y-107649844D01*
X157600000Y-107511889D01*
X157600000Y-107368111D01*
X157559493Y-107230156D01*
X157533686Y-107190000D01*
X158430636Y-107190000D01*
X158430635Y-107189999D01*
X158373432Y-106976513D01*
X158373429Y-106976507D01*
X158273600Y-106762422D01*
X158273599Y-106762420D01*
X158138113Y-106568926D01*
X158138108Y-106568920D01*
X157971082Y-106401894D01*
X157791394Y-106276074D01*
X157747769Y-106221496D01*
X157740577Y-106151998D01*
X157772099Y-106089643D01*
X157832329Y-106054230D01*
X157862517Y-106050499D01*
X157994864Y-106050499D01*
X157994879Y-106050497D01*
X157994882Y-106050497D01*
X158019987Y-106047586D01*
X158019988Y-106047585D01*
X158019991Y-106047585D01*
X158122765Y-106002206D01*
X158202206Y-105922765D01*
X158247585Y-105819991D01*
X158250500Y-105794865D01*
X158250499Y-104005136D01*
X158250497Y-104005117D01*
X158247586Y-103980012D01*
X158247585Y-103980010D01*
X158247585Y-103980009D01*
X158202206Y-103877235D01*
X158122765Y-103797794D01*
X158108379Y-103791442D01*
X158019992Y-103752415D01*
X157994865Y-103749500D01*
X156205143Y-103749500D01*
X156205117Y-103749502D01*
X156180012Y-103752413D01*
X156180008Y-103752415D01*
X156077235Y-103797793D01*
X155997794Y-103877234D01*
X155952415Y-103980006D01*
X155952415Y-103980008D01*
X155949500Y-104005131D01*
X155949500Y-105794856D01*
X155949502Y-105794882D01*
X155952413Y-105819987D01*
X155952415Y-105819991D01*
X155997793Y-105922764D01*
X155997794Y-105922765D01*
X156077235Y-106002206D01*
X156180009Y-106047585D01*
X156205135Y-106050500D01*
X156337483Y-106050499D01*
X156404520Y-106070183D01*
X156450275Y-106122987D01*
X156460219Y-106192145D01*
X156431195Y-106255701D01*
X156408605Y-106276074D01*
X156228922Y-106401890D01*
X156228920Y-106401891D01*
X156061891Y-106568920D01*
X156061886Y-106568926D01*
X155926400Y-106762420D01*
X155926399Y-106762422D01*
X155826570Y-106976507D01*
X155826567Y-106976513D01*
X155769364Y-107189999D01*
X155769364Y-107190000D01*
X156666314Y-107190000D01*
X156640507Y-107230156D01*
X156600000Y-107368111D01*
X156600000Y-107511889D01*
X156640507Y-107649844D01*
X156666314Y-107690000D01*
X155769364Y-107690000D01*
X149047461Y-107690000D01*
X149124818Y-107577930D01*
X149185140Y-107418872D01*
X149205645Y-107250000D01*
X149185140Y-107081128D01*
X149175396Y-107055436D01*
X149144599Y-106974228D01*
X149124818Y-106922070D01*
X149098104Y-106883369D01*
X149088023Y-106868763D01*
X149028183Y-106782071D01*
X148900852Y-106669266D01*
X148900849Y-106669263D01*
X148750226Y-106590210D01*
X148585056Y-106549500D01*
X148414944Y-106549500D01*
X148249773Y-106590210D01*
X148099150Y-106669263D01*
X147993998Y-106762420D01*
X147971817Y-106782071D01*
X147956279Y-106804582D01*
X147875180Y-106922071D01*
X147856519Y-106971276D01*
X147847472Y-106990149D01*
X147838977Y-107004596D01*
X147838977Y-107004598D01*
X147783237Y-107158845D01*
X147779985Y-107168742D01*
X147746686Y-107284112D01*
X147745555Y-107287633D01*
X147727583Y-107338334D01*
X147717188Y-107360452D01*
X147698099Y-107392439D01*
X147684490Y-107411059D01*
X147606736Y-107498943D01*
X147606732Y-107498949D01*
X147603532Y-107504249D01*
X147585067Y-107527828D01*
X147400214Y-107712682D01*
X147338894Y-107746166D01*
X147312535Y-107749000D01*
X140659246Y-107749000D01*
X140592207Y-107729315D01*
X140546452Y-107676511D01*
X140536150Y-107610053D01*
X140555645Y-107449500D01*
X140535140Y-107280628D01*
X140523524Y-107250000D01*
X140497088Y-107180293D01*
X140474818Y-107121570D01*
X140466975Y-107110208D01*
X140418265Y-107039640D01*
X140378183Y-106981571D01*
X140283316Y-106897526D01*
X140250849Y-106868763D01*
X140119832Y-106800000D01*
X141194355Y-106800000D01*
X141214859Y-106968869D01*
X141214860Y-106968874D01*
X141275182Y-107127931D01*
X141318025Y-107189999D01*
X141371817Y-107267929D01*
X141464355Y-107349910D01*
X141499150Y-107380736D01*
X141630167Y-107449499D01*
X141649775Y-107459790D01*
X141814944Y-107500500D01*
X141985056Y-107500500D01*
X142150225Y-107459790D01*
X142259600Y-107402385D01*
X142300849Y-107380736D01*
X142300850Y-107380734D01*
X142300852Y-107380734D01*
X142428183Y-107267929D01*
X142524818Y-107127930D01*
X142585140Y-106968872D01*
X142605645Y-106800000D01*
X142585140Y-106631128D01*
X142524818Y-106472070D01*
X142428183Y-106332071D01*
X142314764Y-106231591D01*
X142300849Y-106219263D01*
X142150226Y-106140210D01*
X141985056Y-106099500D01*
X141814944Y-106099500D01*
X141649773Y-106140210D01*
X141499150Y-106219263D01*
X141371816Y-106332072D01*
X141275182Y-106472068D01*
X141214860Y-106631125D01*
X141214859Y-106631130D01*
X141194355Y-106800000D01*
X140119832Y-106800000D01*
X140100226Y-106789710D01*
X139935056Y-106749000D01*
X139764944Y-106749000D01*
X139599774Y-106789710D01*
X139599773Y-106789710D01*
X139584082Y-106797945D01*
X139557623Y-106808166D01*
X139556122Y-106808555D01*
X139556114Y-106808558D01*
X139406753Y-106878626D01*
X139397511Y-106883369D01*
X139293205Y-106940948D01*
X139289915Y-106942638D01*
X139241352Y-106965783D01*
X139218360Y-106974072D01*
X139182248Y-106983190D01*
X139159464Y-106986732D01*
X139042335Y-106993897D01*
X139042333Y-106993898D01*
X139036331Y-106995381D01*
X139006593Y-106999000D01*
X136326150Y-106999000D01*
X136259111Y-106979315D01*
X136238469Y-106962681D01*
X135568702Y-106292914D01*
X135535217Y-106231591D01*
X135540201Y-106161899D01*
X135574155Y-106112418D01*
X135691947Y-106008066D01*
X135781684Y-105878059D01*
X135800422Y-105828649D01*
X135842600Y-105772947D01*
X135908197Y-105748890D01*
X135916364Y-105748621D01*
X148423096Y-105748621D01*
X148430034Y-105749010D01*
X148461929Y-105752604D01*
X148468913Y-105753391D01*
X148468913Y-105753390D01*
X148468914Y-105753391D01*
X148527358Y-105742332D01*
X148586166Y-105733469D01*
X148586169Y-105733467D01*
X148594326Y-105730951D01*
X148602348Y-105728144D01*
X148602351Y-105728144D01*
X148654951Y-105700343D01*
X148708521Y-105674546D01*
X148708521Y-105674545D01*
X148708523Y-105674545D01*
X148715574Y-105669737D01*
X148722417Y-105664687D01*
X148764478Y-105622625D01*
X148808073Y-105582176D01*
X148808075Y-105582171D01*
X148813866Y-105574911D01*
X148814522Y-105575434D01*
X148823911Y-105563191D01*
X150150284Y-104236818D01*
X150211607Y-104203334D01*
X150237965Y-104200500D01*
X153579178Y-104200500D01*
X153587705Y-104201089D01*
X153612921Y-104204592D01*
X153698926Y-104200567D01*
X153701813Y-104200500D01*
X153721217Y-104200500D01*
X153728155Y-104200889D01*
X153760050Y-104204483D01*
X153767034Y-104205270D01*
X153767034Y-104205269D01*
X153767035Y-104205270D01*
X153825479Y-104194211D01*
X153884287Y-104185348D01*
X153884290Y-104185346D01*
X153892477Y-104182821D01*
X153900468Y-104180023D01*
X153900472Y-104180023D01*
X153900474Y-104180021D01*
X153903036Y-104179125D01*
X153911332Y-104176853D01*
X153988465Y-104161388D01*
X153988464Y-104161388D01*
X153988475Y-104161386D01*
X154001842Y-104158072D01*
X154001843Y-104158071D01*
X154001843Y-104158070D01*
X154001855Y-104158068D01*
X154017111Y-104153545D01*
X154017109Y-104153545D01*
X154017118Y-104153543D01*
X154017116Y-104153544D01*
X154030154Y-104149028D01*
X154030157Y-104149027D01*
X154156898Y-104098618D01*
X154168338Y-104093548D01*
X154300126Y-104028672D01*
X154468505Y-103952630D01*
X154470244Y-103951838D01*
X154480952Y-103944269D01*
X154487894Y-103940019D01*
X154600852Y-103880734D01*
X154728183Y-103767929D01*
X154824818Y-103627930D01*
X154885140Y-103468872D01*
X154905645Y-103300000D01*
X154885140Y-103131128D01*
X154824818Y-102972070D01*
X154821958Y-102967927D01*
X154753279Y-102868429D01*
X154728183Y-102832071D01*
X154600852Y-102719266D01*
X154600849Y-102719263D01*
X154450226Y-102640210D01*
X154285056Y-102599500D01*
X154114944Y-102599500D01*
X153949773Y-102640210D01*
X153799150Y-102719263D01*
X153686842Y-102818760D01*
X153671817Y-102832071D01*
X153664170Y-102843150D01*
X153575180Y-102972071D01*
X153575180Y-102972072D01*
X153544660Y-103052548D01*
X153542353Y-103057867D01*
X153532582Y-103077787D01*
X153526443Y-103099857D01*
X153524681Y-103105230D01*
X153514861Y-103131122D01*
X153514860Y-103131125D01*
X153513747Y-103140291D01*
X153510119Y-103158555D01*
X153507111Y-103169372D01*
X153496381Y-103207955D01*
X153496374Y-103207981D01*
X153496169Y-103208721D01*
X153459243Y-103268036D01*
X153396112Y-103297972D01*
X153376702Y-103299500D01*
X153059307Y-103299500D01*
X152992268Y-103279815D01*
X152946513Y-103227011D01*
X152936211Y-103160553D01*
X152941056Y-103120646D01*
X152955645Y-103000500D01*
X152935140Y-102831628D01*
X152874818Y-102672570D01*
X152872265Y-102668872D01*
X152798192Y-102561559D01*
X152778183Y-102532571D01*
X152650852Y-102419766D01*
X152650849Y-102419763D01*
X152500226Y-102340710D01*
X152335056Y-102300000D01*
X152164944Y-102300000D01*
X151999773Y-102340710D01*
X151849150Y-102419763D01*
X151721816Y-102532572D01*
X151625182Y-102672568D01*
X151564860Y-102831625D01*
X151564859Y-102831630D01*
X151544355Y-103000500D01*
X151563789Y-103160553D01*
X151552329Y-103229477D01*
X151505425Y-103281263D01*
X151440693Y-103299500D01*
X150086965Y-103299500D01*
X150019926Y-103279815D01*
X149974171Y-103227011D01*
X149964227Y-103157853D01*
X149993252Y-103094297D01*
X149999284Y-103087819D01*
X151697102Y-101390000D01*
X155769364Y-101390000D01*
X155826567Y-101603486D01*
X155826570Y-101603492D01*
X155926399Y-101817578D01*
X156061894Y-102011082D01*
X156228917Y-102178105D01*
X156422421Y-102313600D01*
X156636507Y-102413429D01*
X156636516Y-102413433D01*
X156850000Y-102470634D01*
X156850000Y-101575501D01*
X156957685Y-101624680D01*
X157064237Y-101640000D01*
X157135763Y-101640000D01*
X157242315Y-101624680D01*
X157350000Y-101575501D01*
X157350000Y-102470633D01*
X157563483Y-102413433D01*
X157563492Y-102413429D01*
X157777578Y-102313600D01*
X157971082Y-102178105D01*
X158138105Y-102011082D01*
X158273600Y-101817578D01*
X158373429Y-101603492D01*
X158373432Y-101603486D01*
X158430636Y-101390000D01*
X157533686Y-101390000D01*
X157559493Y-101349844D01*
X157600000Y-101211889D01*
X157600000Y-101068111D01*
X157559493Y-100930156D01*
X157533686Y-100890000D01*
X158430636Y-100890000D01*
X158430635Y-100889999D01*
X158373432Y-100676513D01*
X158373429Y-100676507D01*
X158273600Y-100462422D01*
X158273599Y-100462420D01*
X158138113Y-100268926D01*
X158138108Y-100268920D01*
X157971082Y-100101894D01*
X157777578Y-99966399D01*
X157578426Y-99873533D01*
X157525987Y-99827360D01*
X157506835Y-99760167D01*
X157527051Y-99693286D01*
X157580216Y-99647951D01*
X157586005Y-99645537D01*
X157615019Y-99634298D01*
X157796302Y-99522052D01*
X157953872Y-99378407D01*
X158082366Y-99208255D01*
X158177405Y-99017389D01*
X158235756Y-98812310D01*
X158255429Y-98600000D01*
X158235756Y-98387690D01*
X158177405Y-98182611D01*
X158177403Y-98182606D01*
X158177403Y-98182605D01*
X158082367Y-97991746D01*
X157953872Y-97821593D01*
X157920116Y-97790820D01*
X157796302Y-97677948D01*
X157615019Y-97565702D01*
X157615017Y-97565701D01*
X157502386Y-97522068D01*
X157416198Y-97488679D01*
X157243456Y-97456387D01*
X157181176Y-97424719D01*
X157145903Y-97364407D01*
X157148837Y-97294599D01*
X157189046Y-97237459D01*
X157253764Y-97211128D01*
X157266233Y-97210499D01*
X157994864Y-97210499D01*
X157994879Y-97210497D01*
X157994882Y-97210497D01*
X158019987Y-97207586D01*
X158019988Y-97207585D01*
X158019991Y-97207585D01*
X158122765Y-97162206D01*
X158202206Y-97082765D01*
X158247585Y-96979991D01*
X158250500Y-96954865D01*
X158250499Y-95165136D01*
X158249927Y-95160202D01*
X158247586Y-95140012D01*
X158247585Y-95140010D01*
X158247585Y-95140009D01*
X158202206Y-95037235D01*
X158122765Y-94957794D01*
X158069554Y-94934299D01*
X158019992Y-94912415D01*
X157994865Y-94909500D01*
X156205143Y-94909500D01*
X156205117Y-94909502D01*
X156180012Y-94912413D01*
X156180008Y-94912415D01*
X156077235Y-94957793D01*
X155997794Y-95037234D01*
X155952415Y-95140006D01*
X155952415Y-95140008D01*
X155949500Y-95165131D01*
X155949500Y-96954856D01*
X155949502Y-96954882D01*
X155952413Y-96979987D01*
X155952415Y-96979991D01*
X155997793Y-97082764D01*
X155997794Y-97082765D01*
X156077235Y-97162206D01*
X156180009Y-97207585D01*
X156205135Y-97210500D01*
X156933758Y-97210499D01*
X157000795Y-97230183D01*
X157046550Y-97282987D01*
X157056494Y-97352146D01*
X157027469Y-97415702D01*
X156968691Y-97453476D01*
X156956542Y-97456388D01*
X156900116Y-97466935D01*
X156783802Y-97488679D01*
X156783800Y-97488679D01*
X156783798Y-97488680D01*
X156584982Y-97565701D01*
X156584980Y-97565702D01*
X156403699Y-97677947D01*
X156246127Y-97821593D01*
X156117632Y-97991746D01*
X156022596Y-98182605D01*
X156022596Y-98182607D01*
X155964244Y-98387689D01*
X155948036Y-98562611D01*
X155944571Y-98600000D01*
X155964244Y-98812310D01*
X156011956Y-98979999D01*
X156022596Y-99017392D01*
X156022596Y-99017394D01*
X156117632Y-99208253D01*
X156201464Y-99319263D01*
X156246128Y-99378407D01*
X156403698Y-99522052D01*
X156584981Y-99634298D01*
X156613961Y-99645525D01*
X156669362Y-99688095D01*
X156692954Y-99753861D01*
X156677244Y-99821942D01*
X156627222Y-99870722D01*
X156621573Y-99873533D01*
X156422422Y-99966399D01*
X156422420Y-99966400D01*
X156228926Y-100101886D01*
X156228920Y-100101891D01*
X156061891Y-100268920D01*
X156061886Y-100268926D01*
X155926400Y-100462420D01*
X155926399Y-100462422D01*
X155826570Y-100676507D01*
X155826567Y-100676513D01*
X155769364Y-100889999D01*
X155769364Y-100890000D01*
X156666314Y-100890000D01*
X156640507Y-100930156D01*
X156600000Y-101068111D01*
X156600000Y-101211889D01*
X156640507Y-101349844D01*
X156666314Y-101390000D01*
X155769364Y-101390000D01*
X151697102Y-101390000D01*
X151737258Y-101349844D01*
X152422237Y-100664864D01*
X152446218Y-100646159D01*
X152451056Y-100643263D01*
X152538950Y-100565500D01*
X152557567Y-100551892D01*
X152563541Y-100548327D01*
X152589536Y-100532811D01*
X152611659Y-100522414D01*
X152626511Y-100517149D01*
X152662395Y-100504430D01*
X152665864Y-100503316D01*
X152780783Y-100470146D01*
X152784253Y-100469017D01*
X152790701Y-100466922D01*
X152874400Y-100436676D01*
X152942705Y-100411994D01*
X152948948Y-100410105D01*
X152950218Y-100409792D01*
X152950218Y-100409791D01*
X152950225Y-100409790D01*
X152952171Y-100408768D01*
X152957317Y-100406362D01*
X152964811Y-100403272D01*
X152969112Y-100400339D01*
X152975227Y-100396667D01*
X152992815Y-100387436D01*
X153100852Y-100330734D01*
X153228183Y-100217929D01*
X153324818Y-100077930D01*
X153385140Y-99918872D01*
X153405645Y-99750000D01*
X153385140Y-99581128D01*
X153375575Y-99555908D01*
X153328610Y-99432070D01*
X153324818Y-99422070D01*
X153322858Y-99419231D01*
X153239108Y-99297899D01*
X153228183Y-99282071D01*
X153100852Y-99169266D01*
X153100849Y-99169263D01*
X152950226Y-99090210D01*
X152785056Y-99049500D01*
X152614944Y-99049500D01*
X152449773Y-99090210D01*
X152299150Y-99169263D01*
X152219068Y-99240210D01*
X152171817Y-99282071D01*
X152171390Y-99282690D01*
X152075180Y-99422071D01*
X152056519Y-99471276D01*
X152047472Y-99490149D01*
X152038977Y-99504596D01*
X152038977Y-99504598D01*
X151983237Y-99658845D01*
X151979985Y-99668742D01*
X151946686Y-99784112D01*
X151945555Y-99787633D01*
X151927583Y-99838334D01*
X151917188Y-99860452D01*
X151898099Y-99892439D01*
X151884490Y-99911059D01*
X151806736Y-99998943D01*
X151806732Y-99998949D01*
X151803532Y-100004249D01*
X151785067Y-100027828D01*
X147999716Y-103813181D01*
X147938393Y-103846666D01*
X147912035Y-103849500D01*
X135893317Y-103849500D01*
X135863130Y-103845769D01*
X135857668Y-103844398D01*
X135740533Y-103837232D01*
X135717750Y-103833690D01*
X135681636Y-103824572D01*
X135658641Y-103816281D01*
X135610070Y-103793132D01*
X135606790Y-103791447D01*
X135536084Y-103752415D01*
X135501911Y-103733550D01*
X135497198Y-103731158D01*
X135492624Y-103728837D01*
X135379682Y-103675853D01*
X135340821Y-103657622D01*
X135339053Y-103656840D01*
X135337286Y-103656058D01*
X135330991Y-103653439D01*
X135324698Y-103650820D01*
X135214389Y-103629932D01*
X135207670Y-103629916D01*
X135205432Y-103629911D01*
X135205431Y-103629911D01*
X135191333Y-103630202D01*
X135191330Y-103630202D01*
X135122272Y-103646273D01*
X135094168Y-103649500D01*
X134971014Y-103649500D01*
X134851641Y-103678922D01*
X134781839Y-103675853D01*
X134724777Y-103635532D01*
X134698572Y-103570763D01*
X134697967Y-103558525D01*
X134697967Y-103395527D01*
X134717652Y-103328488D01*
X134748722Y-103295471D01*
X134751042Y-103293771D01*
X134751056Y-103293763D01*
X134838950Y-103216000D01*
X134857567Y-103202392D01*
X134860738Y-103200500D01*
X134889536Y-103183311D01*
X134911659Y-103172914D01*
X134926511Y-103167649D01*
X134962395Y-103154930D01*
X134965864Y-103153816D01*
X135080783Y-103120646D01*
X135084253Y-103119517D01*
X135090701Y-103117422D01*
X135192230Y-103080734D01*
X135242705Y-103062494D01*
X135248948Y-103060605D01*
X135250218Y-103060292D01*
X135250218Y-103060291D01*
X135250225Y-103060290D01*
X135252171Y-103059268D01*
X135257317Y-103056862D01*
X135264811Y-103053772D01*
X135269112Y-103050839D01*
X135275227Y-103047167D01*
X135280485Y-103044407D01*
X135400852Y-102981234D01*
X135528183Y-102868429D01*
X135624818Y-102728430D01*
X135685140Y-102569372D01*
X135693564Y-102499999D01*
X136994355Y-102499999D01*
X137014859Y-102668869D01*
X137014860Y-102668874D01*
X137075182Y-102827931D01*
X137119616Y-102892304D01*
X137171817Y-102967929D01*
X137276071Y-103060290D01*
X137299150Y-103080736D01*
X137440528Y-103154937D01*
X137449775Y-103159790D01*
X137614944Y-103200500D01*
X137785056Y-103200500D01*
X137950225Y-103159790D01*
X138030950Y-103117422D01*
X138100849Y-103080736D01*
X138100850Y-103080734D01*
X138100852Y-103080734D01*
X138228183Y-102967929D01*
X138324818Y-102827930D01*
X138385140Y-102668872D01*
X138405645Y-102500000D01*
X138385140Y-102331128D01*
X138324818Y-102172070D01*
X138303129Y-102140649D01*
X138256138Y-102072571D01*
X138228183Y-102032071D01*
X138133316Y-101948026D01*
X138100849Y-101919263D01*
X137950226Y-101840210D01*
X137785056Y-101799500D01*
X137614944Y-101799500D01*
X137449773Y-101840210D01*
X137299150Y-101919263D01*
X137171816Y-102032072D01*
X137075182Y-102172068D01*
X137014860Y-102331125D01*
X137014859Y-102331130D01*
X136994355Y-102499999D01*
X135693564Y-102499999D01*
X135705645Y-102400500D01*
X135685140Y-102231628D01*
X135624818Y-102072570D01*
X135528183Y-101932571D01*
X135400852Y-101819766D01*
X135400849Y-101819763D01*
X135250226Y-101740710D01*
X135085056Y-101700000D01*
X134914944Y-101700000D01*
X134749773Y-101740710D01*
X134599150Y-101819763D01*
X134486835Y-101919266D01*
X134471817Y-101932571D01*
X134453334Y-101959346D01*
X134375180Y-102072571D01*
X134356519Y-102121776D01*
X134347472Y-102140649D01*
X134338977Y-102155096D01*
X134338977Y-102155098D01*
X134283237Y-102309345D01*
X134279985Y-102319242D01*
X134246686Y-102434612D01*
X134245555Y-102438133D01*
X134227583Y-102488834D01*
X134217188Y-102510952D01*
X134198099Y-102542939D01*
X134184490Y-102561559D01*
X134106736Y-102649443D01*
X134106732Y-102649449D01*
X134103532Y-102654749D01*
X134085067Y-102678328D01*
X133949271Y-102814125D01*
X133944084Y-102818760D01*
X133913500Y-102843150D01*
X133913496Y-102843154D01*
X133879986Y-102892304D01*
X133844673Y-102940151D01*
X133840683Y-102947700D01*
X133836995Y-102955359D01*
X133819459Y-103012210D01*
X133799820Y-103068334D01*
X133798238Y-103076692D01*
X133796967Y-103085133D01*
X133796967Y-103144606D01*
X133794742Y-103204042D01*
X133795783Y-103213276D01*
X133794955Y-103213369D01*
X133796966Y-103228668D01*
X133796966Y-105110501D01*
X133777281Y-105177540D01*
X133724477Y-105223295D01*
X133655319Y-105233239D01*
X133591763Y-105204214D01*
X133585285Y-105198182D01*
X125769176Y-97382073D01*
X117786819Y-89399715D01*
X117753334Y-89338392D01*
X117750500Y-89312034D01*
X117750500Y-85300000D01*
X129594355Y-85300000D01*
X129614859Y-85468869D01*
X129614860Y-85468872D01*
X129635001Y-85521981D01*
X129650907Y-85563924D01*
X129652950Y-85570340D01*
X129659058Y-85593879D01*
X129659060Y-85593886D01*
X129728816Y-85742580D01*
X129733533Y-85751879D01*
X129791447Y-85856791D01*
X129793137Y-85860080D01*
X129816282Y-85908644D01*
X129824571Y-85931635D01*
X129833690Y-85967749D01*
X129837233Y-85990536D01*
X129844397Y-86107662D01*
X129845882Y-86113672D01*
X129849499Y-86143403D01*
X129849499Y-96546522D01*
X129849109Y-96553468D01*
X129844730Y-96592340D01*
X129855788Y-96650784D01*
X129864652Y-96709595D01*
X129867162Y-96717732D01*
X129869978Y-96725780D01*
X129897777Y-96778377D01*
X129923576Y-96831949D01*
X129928362Y-96838970D01*
X129933431Y-96845837D01*
X129933434Y-96845843D01*
X129975495Y-96887904D01*
X130012634Y-96927931D01*
X130015947Y-96931501D01*
X130023210Y-96937293D01*
X130022689Y-96937946D01*
X130034930Y-96947339D01*
X130259323Y-97171732D01*
X130452323Y-97364731D01*
X130485808Y-97426054D01*
X130480824Y-97495745D01*
X130477061Y-97504737D01*
X130446029Y-97571408D01*
X130438704Y-97590336D01*
X130431745Y-97612614D01*
X130427006Y-97632257D01*
X130427005Y-97632265D01*
X130427004Y-97632268D01*
X130424130Y-97648946D01*
X130417877Y-97671850D01*
X130414360Y-97681124D01*
X130414360Y-97681125D01*
X130404442Y-97762798D01*
X130403995Y-97765845D01*
X130399695Y-97790820D01*
X130398045Y-97803593D01*
X130397320Y-97811970D01*
X130396987Y-97822195D01*
X130396568Y-97827652D01*
X130393855Y-97849998D01*
X130393855Y-97849999D01*
X130414359Y-98018869D01*
X130414360Y-98018874D01*
X130474682Y-98177931D01*
X130536975Y-98268177D01*
X130571317Y-98317929D01*
X130677005Y-98411560D01*
X130698650Y-98430736D01*
X130849273Y-98509789D01*
X130849275Y-98509790D01*
X131014444Y-98550500D01*
X131184556Y-98550500D01*
X131349725Y-98509790D01*
X131429192Y-98468081D01*
X131500349Y-98430736D01*
X131500350Y-98430734D01*
X131500352Y-98430734D01*
X131627683Y-98317929D01*
X131724318Y-98177930D01*
X131784640Y-98018872D01*
X131805145Y-97850000D01*
X131784640Y-97681128D01*
X131784638Y-97681124D01*
X131758656Y-97612613D01*
X131724318Y-97522070D01*
X131706147Y-97495745D01*
X131627685Y-97382073D01*
X131622260Y-97377267D01*
X131604932Y-97358375D01*
X131602384Y-97354943D01*
X131566714Y-97315177D01*
X131536604Y-97252128D01*
X131536434Y-97251045D01*
X131534848Y-97240518D01*
X131534846Y-97240514D01*
X131534846Y-97240512D01*
X131532328Y-97232348D01*
X131529525Y-97224336D01*
X131506480Y-97180734D01*
X131501722Y-97171731D01*
X131475925Y-97118163D01*
X131475922Y-97118160D01*
X131475922Y-97118159D01*
X131471142Y-97111147D01*
X131466067Y-97104271D01*
X131466066Y-97104268D01*
X131452996Y-97091199D01*
X131419512Y-97029876D01*
X131424496Y-96960184D01*
X131466368Y-96904251D01*
X131483048Y-96893724D01*
X131493176Y-96888409D01*
X131620507Y-96775604D01*
X131717142Y-96635605D01*
X131730644Y-96599999D01*
X134394355Y-96599999D01*
X134414859Y-96768869D01*
X134414860Y-96768874D01*
X134475182Y-96927931D01*
X134534808Y-97014313D01*
X134571817Y-97067929D01*
X134628520Y-97118163D01*
X134699150Y-97180736D01*
X134832753Y-97250856D01*
X134849775Y-97259790D01*
X135014944Y-97300500D01*
X135185056Y-97300500D01*
X135350225Y-97259790D01*
X135444144Y-97210497D01*
X135500849Y-97180736D01*
X135500850Y-97180734D01*
X135500852Y-97180734D01*
X135628183Y-97067929D01*
X135724818Y-96927930D01*
X135785140Y-96768872D01*
X135805645Y-96600000D01*
X135785140Y-96431128D01*
X135724818Y-96272070D01*
X135628183Y-96132071D01*
X135500852Y-96019266D01*
X135500849Y-96019263D01*
X135350226Y-95940210D01*
X135185056Y-95899500D01*
X135014944Y-95899500D01*
X134849773Y-95940210D01*
X134699150Y-96019263D01*
X134571816Y-96132072D01*
X134475182Y-96272068D01*
X134414860Y-96431125D01*
X134414859Y-96431130D01*
X134394355Y-96599999D01*
X131730644Y-96599999D01*
X131742502Y-96568729D01*
X131745748Y-96561575D01*
X131757146Y-96540172D01*
X131775050Y-96483194D01*
X131776201Y-96479875D01*
X131777464Y-96476547D01*
X131777465Y-96476535D01*
X131778169Y-96473681D01*
X131779215Y-96469942D01*
X131796749Y-96414146D01*
X131807581Y-96379682D01*
X131810749Y-96368004D01*
X131813853Y-96354452D01*
X131816074Y-96342651D01*
X131835907Y-96208389D01*
X131845006Y-96148994D01*
X131852991Y-96120377D01*
X131855483Y-96114352D01*
X131873845Y-96083538D01*
X131934523Y-96008901D01*
X131934527Y-96008892D01*
X131937497Y-96004527D01*
X131937781Y-96004720D01*
X131954690Y-95982412D01*
X133598210Y-94338892D01*
X133603378Y-94334273D01*
X133633970Y-94309879D01*
X133667471Y-94260741D01*
X133702793Y-94212883D01*
X133702796Y-94212872D01*
X133706786Y-94205324D01*
X133710466Y-94197680D01*
X133710472Y-94197673D01*
X133722916Y-94157325D01*
X133728005Y-94140830D01*
X133747646Y-94084700D01*
X133749227Y-94076341D01*
X133750500Y-94067899D01*
X133750500Y-94008426D01*
X133752724Y-93948991D01*
X133751683Y-93939752D01*
X133752513Y-93939658D01*
X133750499Y-93924357D01*
X133750499Y-90034821D01*
X133750499Y-86143302D01*
X133754230Y-86113126D01*
X133755602Y-86107661D01*
X133762764Y-85990536D01*
X133766306Y-85967752D01*
X133768934Y-85957339D01*
X133775425Y-85931633D01*
X133783709Y-85908656D01*
X133806869Y-85860060D01*
X133808551Y-85856789D01*
X133866295Y-85752186D01*
X133871034Y-85742898D01*
X133908881Y-85662220D01*
X133942328Y-85590926D01*
X133943861Y-85587468D01*
X133949179Y-85574697D01*
X133951312Y-85563429D01*
X133957204Y-85542531D01*
X133963782Y-85525187D01*
X133985140Y-85468872D01*
X134005645Y-85300000D01*
X133985140Y-85131128D01*
X133924818Y-84972070D01*
X133828183Y-84832071D01*
X133700852Y-84719266D01*
X133700849Y-84719263D01*
X133550226Y-84640210D01*
X133385056Y-84599500D01*
X133214944Y-84599500D01*
X133049773Y-84640210D01*
X132899150Y-84719263D01*
X132771816Y-84832072D01*
X132675182Y-84972068D01*
X132614860Y-85131125D01*
X132614859Y-85131130D01*
X132594355Y-85299999D01*
X132614859Y-85468869D01*
X132614860Y-85468872D01*
X132635001Y-85521981D01*
X132650907Y-85563924D01*
X132652950Y-85570340D01*
X132659058Y-85593879D01*
X132659060Y-85593886D01*
X132728816Y-85742580D01*
X132733533Y-85751879D01*
X132791447Y-85856791D01*
X132793137Y-85860080D01*
X132816282Y-85908644D01*
X132824571Y-85931635D01*
X132833690Y-85967749D01*
X132837233Y-85990536D01*
X132844398Y-86107668D01*
X132845883Y-86113681D01*
X132849499Y-86143409D01*
X132849499Y-93762034D01*
X132829814Y-93829073D01*
X132813180Y-93849715D01*
X131302699Y-95360196D01*
X131282847Y-95376319D01*
X131272483Y-95383090D01*
X131272474Y-95383098D01*
X131175934Y-95475507D01*
X131171681Y-95479222D01*
X131119505Y-95520770D01*
X131104179Y-95531202D01*
X131062723Y-95555094D01*
X131056498Y-95558230D01*
X130971490Y-95595221D01*
X130921205Y-95615667D01*
X130851689Y-95622684D01*
X130789414Y-95591003D01*
X130754154Y-95530684D01*
X130750499Y-95500800D01*
X130750499Y-92254856D01*
X130750499Y-86143302D01*
X130754230Y-86113126D01*
X130755602Y-86107661D01*
X130762764Y-85990536D01*
X130766306Y-85967752D01*
X130768934Y-85957339D01*
X130775425Y-85931633D01*
X130783709Y-85908656D01*
X130806869Y-85860060D01*
X130808551Y-85856789D01*
X130866295Y-85752186D01*
X130871034Y-85742898D01*
X130908881Y-85662220D01*
X130942328Y-85590926D01*
X130943861Y-85587468D01*
X130949179Y-85574697D01*
X130951312Y-85563429D01*
X130957204Y-85542531D01*
X130963782Y-85525187D01*
X130985140Y-85468872D01*
X131005645Y-85300000D01*
X130985140Y-85131128D01*
X130924818Y-84972070D01*
X130828183Y-84832071D01*
X130700852Y-84719266D01*
X130700849Y-84719263D01*
X130550226Y-84640210D01*
X130385056Y-84599500D01*
X130214944Y-84599500D01*
X130049773Y-84640210D01*
X129899150Y-84719263D01*
X129771816Y-84832072D01*
X129675182Y-84972068D01*
X129614860Y-85131125D01*
X129614859Y-85131130D01*
X129594355Y-85300000D01*
X117750500Y-85300000D01*
X117750500Y-80767306D01*
X126716828Y-80767306D01*
X126726613Y-80997662D01*
X126726614Y-80997670D01*
X126775190Y-81223062D01*
X126775190Y-81223063D01*
X126861157Y-81437002D01*
X126861159Y-81437006D01*
X126876481Y-81461890D01*
X126982048Y-81633342D01*
X127134380Y-81806425D01*
X127134384Y-81806429D01*
X127313765Y-81951269D01*
X127313766Y-81951270D01*
X127313769Y-81951271D01*
X127313772Y-81951274D01*
X127515063Y-82063721D01*
X127732462Y-82140533D01*
X127859272Y-82162277D01*
X127959706Y-82179499D01*
X127959715Y-82179500D01*
X128132540Y-82179500D01*
X128304734Y-82164844D01*
X128304737Y-82164843D01*
X128304739Y-82164843D01*
X128527869Y-82106745D01*
X128683249Y-82036509D01*
X128737965Y-82011776D01*
X128737967Y-82011775D01*
X128737967Y-82011774D01*
X128737971Y-82011773D01*
X128929000Y-81882659D01*
X129095462Y-81723119D01*
X129232566Y-81537742D01*
X129336370Y-81331860D01*
X129403886Y-81111397D01*
X129433172Y-80882694D01*
X129423386Y-80652332D01*
X129374810Y-80426938D01*
X129288841Y-80212994D01*
X129167951Y-80016657D01*
X129015620Y-79843575D01*
X129015619Y-79843574D01*
X129015615Y-79843570D01*
X128836234Y-79698730D01*
X128836233Y-79698729D01*
X128634938Y-79586279D01*
X128417541Y-79509468D01*
X128417540Y-79509467D01*
X128417538Y-79509467D01*
X128417534Y-79509466D01*
X128417533Y-79509466D01*
X128190293Y-79470500D01*
X128190285Y-79470500D01*
X128017465Y-79470500D01*
X128017460Y-79470500D01*
X127845265Y-79485155D01*
X127622131Y-79543254D01*
X127412034Y-79638223D01*
X127412032Y-79638224D01*
X127220999Y-79767342D01*
X127054540Y-79926878D01*
X126917434Y-80112257D01*
X126813630Y-80318138D01*
X126746113Y-80538606D01*
X126716828Y-80767306D01*
X117750500Y-80767306D01*
X117750500Y-76100000D01*
X123094355Y-76100000D01*
X123114859Y-76268869D01*
X123114860Y-76268874D01*
X123175182Y-76427931D01*
X123237475Y-76518177D01*
X123271817Y-76567929D01*
X123377505Y-76661560D01*
X123399150Y-76680736D01*
X123549773Y-76759789D01*
X123549775Y-76759790D01*
X123714944Y-76800500D01*
X123885056Y-76800500D01*
X124050225Y-76759790D01*
X124129692Y-76718081D01*
X124200849Y-76680736D01*
X124200850Y-76680734D01*
X124200852Y-76680734D01*
X124328183Y-76567929D01*
X124424818Y-76427930D01*
X124485140Y-76268872D01*
X124505645Y-76100000D01*
X124485140Y-75931128D01*
X124424818Y-75772070D01*
X124328183Y-75632071D01*
X124200852Y-75519266D01*
X124200849Y-75519263D01*
X124050226Y-75440210D01*
X123885056Y-75399500D01*
X123714944Y-75399500D01*
X123549773Y-75440210D01*
X123399150Y-75519263D01*
X123271816Y-75632072D01*
X123175182Y-75772068D01*
X123114860Y-75931125D01*
X123114859Y-75931130D01*
X123094355Y-76100000D01*
X117750500Y-76100000D01*
X117750500Y-75455918D01*
X117770185Y-75388879D01*
X117822989Y-75343124D01*
X117892147Y-75333180D01*
X117904152Y-75335516D01*
X117964944Y-75350500D01*
X117964946Y-75350500D01*
X118135056Y-75350500D01*
X118300225Y-75309790D01*
X118379692Y-75268081D01*
X118450849Y-75230736D01*
X118450850Y-75230734D01*
X118450852Y-75230734D01*
X118578183Y-75117929D01*
X118674818Y-74977930D01*
X118693480Y-74928717D01*
X118702532Y-74909835D01*
X118711023Y-74895398D01*
X118752456Y-74780734D01*
X118766922Y-74740701D01*
X118770145Y-74730785D01*
X118788288Y-74667929D01*
X118803316Y-74615864D01*
X118804430Y-74612395D01*
X118822414Y-74561659D01*
X118832811Y-74539538D01*
X118851892Y-74507567D01*
X118865500Y-74488950D01*
X118877003Y-74475947D01*
X118943263Y-74401056D01*
X118946456Y-74395766D01*
X118964927Y-74372175D01*
X120400284Y-72936819D01*
X120461607Y-72903334D01*
X120487965Y-72900500D01*
X136062034Y-72900500D01*
X136129073Y-72920185D01*
X136149715Y-72936819D01*
X137264497Y-74051600D01*
X137297982Y-74112923D01*
X137299912Y-74154225D01*
X137294355Y-74199997D01*
X137294355Y-74199999D01*
X137314859Y-74368869D01*
X137314860Y-74368874D01*
X137375182Y-74527931D01*
X137413170Y-74582965D01*
X137471817Y-74667929D01*
X137535682Y-74724508D01*
X137599150Y-74780736D01*
X137749773Y-74859789D01*
X137749775Y-74859790D01*
X137914944Y-74900500D01*
X138062035Y-74900500D01*
X138129074Y-74920185D01*
X138149713Y-74936816D01*
X138163179Y-74950282D01*
X138196665Y-75011601D01*
X138199500Y-75037964D01*
X138199500Y-95108839D01*
X138179815Y-95175878D01*
X138163181Y-95196520D01*
X134203037Y-99156664D01*
X134197850Y-99161299D01*
X134167266Y-99185689D01*
X134167262Y-99185693D01*
X134133752Y-99234843D01*
X134098439Y-99282690D01*
X134094449Y-99290239D01*
X134090761Y-99297898D01*
X134073225Y-99354749D01*
X134053586Y-99410873D01*
X134052004Y-99419231D01*
X134050733Y-99427672D01*
X134050733Y-99487145D01*
X134048508Y-99546581D01*
X134049549Y-99555815D01*
X134048718Y-99555908D01*
X134050733Y-99571207D01*
X134050733Y-100088111D01*
X134050343Y-100095049D01*
X134049140Y-100105733D01*
X134045962Y-100133928D01*
X134057021Y-100192373D01*
X134065885Y-100251184D01*
X134068395Y-100259321D01*
X134071211Y-100267369D01*
X134099010Y-100319966D01*
X134124809Y-100373538D01*
X134129595Y-100380559D01*
X134134664Y-100387426D01*
X134134667Y-100387432D01*
X134176728Y-100429493D01*
X134207281Y-100462422D01*
X134217180Y-100473090D01*
X134224443Y-100478882D01*
X134223922Y-100479535D01*
X134236163Y-100488928D01*
X134601662Y-100854426D01*
X134606298Y-100859613D01*
X134630693Y-100890203D01*
X134630693Y-100890204D01*
X134679843Y-100923713D01*
X134727690Y-100959026D01*
X134735226Y-100963009D01*
X134742891Y-100966700D01*
X134742899Y-100966705D01*
X134799748Y-100984240D01*
X134799749Y-100984240D01*
X134855869Y-101003878D01*
X134855871Y-101003878D01*
X134855873Y-101003879D01*
X134855874Y-101003879D01*
X134864251Y-101005463D01*
X134872668Y-101006732D01*
X134872670Y-101006733D01*
X134932146Y-101006733D01*
X134991581Y-101008957D01*
X134991581Y-101008956D01*
X134991582Y-101008957D01*
X134991582Y-101008956D01*
X135000816Y-101007917D01*
X135000909Y-101008746D01*
X135016208Y-101006733D01*
X137714984Y-101006733D01*
X137721922Y-101007122D01*
X137753817Y-101010716D01*
X137760801Y-101011503D01*
X137760801Y-101011502D01*
X137760802Y-101011503D01*
X137819246Y-101000444D01*
X137878054Y-100991581D01*
X137878057Y-100991579D01*
X137886214Y-100989063D01*
X137894236Y-100986256D01*
X137894239Y-100986256D01*
X137946839Y-100958455D01*
X138000409Y-100932658D01*
X138000409Y-100932657D01*
X138000411Y-100932657D01*
X138007462Y-100927849D01*
X138014305Y-100922799D01*
X138056366Y-100880737D01*
X138056366Y-100880736D01*
X138099961Y-100840288D01*
X138099963Y-100840283D01*
X138105754Y-100833023D01*
X138106410Y-100833546D01*
X138115799Y-100821303D01*
X138122240Y-100814862D01*
X138146216Y-100796160D01*
X138151056Y-100793263D01*
X138238950Y-100715500D01*
X138257567Y-100701892D01*
X138289538Y-100682811D01*
X138311659Y-100672414D01*
X138332948Y-100664868D01*
X138362395Y-100654430D01*
X138365864Y-100653316D01*
X138480783Y-100620146D01*
X138484253Y-100619017D01*
X138490701Y-100616922D01*
X138574400Y-100586676D01*
X138642705Y-100561994D01*
X138648948Y-100560105D01*
X138650218Y-100559792D01*
X138650218Y-100559791D01*
X138650225Y-100559790D01*
X138652171Y-100558768D01*
X138657317Y-100556362D01*
X138664811Y-100553272D01*
X138669112Y-100550339D01*
X138675227Y-100546667D01*
X138713621Y-100526516D01*
X138800852Y-100480734D01*
X138928183Y-100367929D01*
X139024818Y-100227930D01*
X139085140Y-100068872D01*
X139105645Y-99900000D01*
X139085140Y-99731128D01*
X139024818Y-99572070D01*
X139024222Y-99571207D01*
X138978244Y-99504596D01*
X138928183Y-99432071D01*
X138800852Y-99319266D01*
X138800849Y-99319263D01*
X138650226Y-99240210D01*
X138485056Y-99199500D01*
X138314944Y-99199500D01*
X138149773Y-99240210D01*
X137999150Y-99319263D01*
X137876785Y-99427670D01*
X137871817Y-99432071D01*
X137853334Y-99458846D01*
X137775180Y-99572071D01*
X137756519Y-99621276D01*
X137747472Y-99640149D01*
X137738977Y-99654596D01*
X137738977Y-99654598D01*
X137683237Y-99808845D01*
X137679985Y-99818742D01*
X137646686Y-99934112D01*
X137645555Y-99937633D01*
X137627583Y-99988334D01*
X137617187Y-100010454D01*
X137598099Y-100042438D01*
X137584513Y-100061030D01*
X137582000Y-100063872D01*
X137522846Y-100101055D01*
X137489107Y-100105733D01*
X136069360Y-100105733D01*
X136002321Y-100086048D01*
X135956566Y-100033244D01*
X135946622Y-99964086D01*
X135952740Y-99939593D01*
X135968155Y-99896934D01*
X135971378Y-99887018D01*
X135971379Y-99887016D01*
X136004549Y-99772097D01*
X136005663Y-99768628D01*
X136023647Y-99717892D01*
X136034044Y-99695771D01*
X136053125Y-99663800D01*
X136066733Y-99645183D01*
X136087884Y-99621276D01*
X136144496Y-99557289D01*
X136147689Y-99551999D01*
X136166160Y-99528408D01*
X139998205Y-95696362D01*
X140003373Y-95691743D01*
X140033970Y-95667345D01*
X140067480Y-95618194D01*
X140102793Y-95570348D01*
X140102794Y-95570345D01*
X140106787Y-95562790D01*
X140110470Y-95555142D01*
X140110470Y-95555141D01*
X140110472Y-95555139D01*
X140128007Y-95498288D01*
X140147646Y-95442165D01*
X140149228Y-95433802D01*
X140150500Y-95425365D01*
X140150500Y-95365907D01*
X140152725Y-95306456D01*
X140151685Y-95297224D01*
X140152513Y-95297130D01*
X140150500Y-95281827D01*
X140150500Y-94249999D01*
X152044355Y-94249999D01*
X152064859Y-94418869D01*
X152064860Y-94418874D01*
X152125182Y-94577931D01*
X152187475Y-94668177D01*
X152221817Y-94717929D01*
X152327505Y-94811560D01*
X152349150Y-94830736D01*
X152499222Y-94909500D01*
X152499775Y-94909790D01*
X152664944Y-94950500D01*
X152835056Y-94950500D01*
X153000225Y-94909790D01*
X153079692Y-94868081D01*
X153150849Y-94830736D01*
X153150850Y-94830734D01*
X153150852Y-94830734D01*
X153278183Y-94717929D01*
X153374818Y-94577930D01*
X153435140Y-94418872D01*
X153455645Y-94250000D01*
X153435140Y-94081128D01*
X153374818Y-93922070D01*
X153359583Y-93899999D01*
X153340476Y-93872318D01*
X153278183Y-93782071D01*
X153183316Y-93698026D01*
X153150849Y-93669263D01*
X153000226Y-93590210D01*
X152835056Y-93549500D01*
X152664944Y-93549500D01*
X152499773Y-93590210D01*
X152349150Y-93669263D01*
X152221816Y-93782072D01*
X152125182Y-93922068D01*
X152064860Y-94081125D01*
X152064859Y-94081130D01*
X152044355Y-94249999D01*
X140150500Y-94249999D01*
X140150500Y-87630003D01*
X141423928Y-87630003D01*
X141444200Y-87978055D01*
X141444201Y-87978066D01*
X141504737Y-88321385D01*
X141504739Y-88321394D01*
X141504741Y-88321403D01*
X141562211Y-88513365D01*
X141604734Y-88655402D01*
X141742821Y-88975523D01*
X141742827Y-88975536D01*
X141917147Y-89277468D01*
X142125340Y-89557120D01*
X142125345Y-89557126D01*
X142189833Y-89625479D01*
X142364598Y-89810719D01*
X142497259Y-89922034D01*
X142631673Y-90034821D01*
X142631681Y-90034827D01*
X142922960Y-90226405D01*
X143234516Y-90382874D01*
X143234517Y-90382875D01*
X143234520Y-90382876D01*
X143234524Y-90382878D01*
X143562143Y-90502122D01*
X143742208Y-90544798D01*
X143901374Y-90582522D01*
X143901381Y-90582523D01*
X143901390Y-90582525D01*
X144247678Y-90623000D01*
X144247685Y-90623000D01*
X144596315Y-90623000D01*
X144596322Y-90623000D01*
X144942610Y-90582525D01*
X144942619Y-90582522D01*
X144942625Y-90582522D01*
X145054164Y-90556086D01*
X145281857Y-90502122D01*
X145609476Y-90382878D01*
X145921036Y-90226407D01*
X146212324Y-90034823D01*
X146479402Y-89810719D01*
X146718656Y-89557124D01*
X146926853Y-89277467D01*
X147101175Y-88975532D01*
X147239266Y-88655401D01*
X147339259Y-88321403D01*
X147399800Y-87978055D01*
X147420072Y-87630000D01*
X147399800Y-87281945D01*
X147398830Y-87276446D01*
X147339262Y-86938614D01*
X147339260Y-86938605D01*
X147339259Y-86938597D01*
X147239266Y-86604599D01*
X147101175Y-86284468D01*
X146926853Y-85982533D01*
X146926852Y-85982531D01*
X146718659Y-85702879D01*
X146718654Y-85702873D01*
X146636780Y-85616092D01*
X146605092Y-85553821D01*
X146612102Y-85484304D01*
X146655582Y-85429612D01*
X146721729Y-85407109D01*
X146763864Y-85412613D01*
X146921931Y-85461868D01*
X146992528Y-85483867D01*
X147304952Y-85541121D01*
X147622000Y-85560299D01*
X147939048Y-85541121D01*
X148251472Y-85483867D01*
X148554717Y-85389372D01*
X148633882Y-85353742D01*
X148703091Y-85344179D01*
X148766486Y-85373552D01*
X148803938Y-85432536D01*
X148807422Y-85461868D01*
X149715121Y-86369567D01*
X149687820Y-86386832D01*
X149500499Y-86552784D01*
X149361488Y-86723041D01*
X148452223Y-85813777D01*
X148257744Y-86075010D01*
X148093211Y-86359988D01*
X148093205Y-86360001D01*
X147962869Y-86662154D01*
X147868487Y-86977414D01*
X147868485Y-86977423D01*
X147811347Y-87301470D01*
X147811346Y-87301481D01*
X147792212Y-87629996D01*
X147792212Y-87630003D01*
X147811346Y-87958518D01*
X147811347Y-87958529D01*
X147868485Y-88282576D01*
X147868487Y-88282585D01*
X147962869Y-88597845D01*
X148093205Y-88899998D01*
X148093211Y-88900011D01*
X148257744Y-89184989D01*
X148257751Y-89185001D01*
X148452222Y-89446221D01*
X148452223Y-89446222D01*
X149363350Y-88535094D01*
X149417456Y-88613480D01*
X149590816Y-88793966D01*
X149716865Y-88888686D01*
X148809034Y-89796517D01*
X148809035Y-89796518D01*
X148932160Y-89899833D01*
X149207109Y-90080669D01*
X149501170Y-90228354D01*
X149501176Y-90228356D01*
X149810395Y-90340902D01*
X149810416Y-90340909D01*
X150130596Y-90416794D01*
X150130611Y-90416796D01*
X150457468Y-90454999D01*
X150457469Y-90455000D01*
X150786531Y-90455000D01*
X150786531Y-90454999D01*
X151113388Y-90416796D01*
X151113403Y-90416794D01*
X151433583Y-90340909D01*
X151433604Y-90340902D01*
X151742823Y-90228356D01*
X151742829Y-90228354D01*
X152036890Y-90080669D01*
X152311829Y-89899840D01*
X152311831Y-89899839D01*
X152434963Y-89796518D01*
X152434964Y-89796517D01*
X151528879Y-88890431D01*
X151556180Y-88873168D01*
X151743501Y-88707216D01*
X151882511Y-88536958D01*
X152791776Y-89446222D01*
X152986252Y-89184995D01*
X153150788Y-88900011D01*
X153150794Y-88899998D01*
X153281130Y-88597845D01*
X153375512Y-88282585D01*
X153375514Y-88282576D01*
X153432652Y-87958529D01*
X153432653Y-87958518D01*
X153451788Y-87630003D01*
X153451788Y-87629996D01*
X153432653Y-87301481D01*
X153432652Y-87301470D01*
X153375514Y-86977423D01*
X153375512Y-86977414D01*
X153281130Y-86662154D01*
X153150794Y-86360001D01*
X153150788Y-86359988D01*
X152986255Y-86075010D01*
X152986248Y-86074998D01*
X152791776Y-85813777D01*
X152791775Y-85813777D01*
X151880648Y-86724904D01*
X151826544Y-86646520D01*
X151653184Y-86466034D01*
X151527133Y-86371312D01*
X152434964Y-85463481D01*
X152434963Y-85463480D01*
X152311839Y-85360166D01*
X152036890Y-85179330D01*
X151742829Y-85031645D01*
X151742823Y-85031643D01*
X151433604Y-84919097D01*
X151433583Y-84919090D01*
X151113403Y-84843205D01*
X151113388Y-84843203D01*
X150786531Y-84805000D01*
X150457469Y-84805000D01*
X150130611Y-84843203D01*
X150130596Y-84843205D01*
X149810416Y-84919090D01*
X149810395Y-84919097D01*
X149605720Y-84993592D01*
X149535991Y-84998023D01*
X149474935Y-84964052D01*
X149441938Y-84902465D01*
X149447476Y-84832816D01*
X149475627Y-84789390D01*
X149590807Y-84674211D01*
X149786694Y-84424180D01*
X149951014Y-84152361D01*
X150081372Y-83862717D01*
X150175867Y-83559472D01*
X150233121Y-83247048D01*
X150252299Y-82930000D01*
X150233121Y-82612952D01*
X150175867Y-82300528D01*
X150098492Y-82052222D01*
X150081378Y-81997301D01*
X150081374Y-81997290D01*
X150081372Y-81997283D01*
X149951014Y-81707639D01*
X149786694Y-81435820D01*
X149705247Y-81331861D01*
X149590804Y-81185785D01*
X149366214Y-80961195D01*
X149116186Y-80765310D01*
X149116178Y-80765304D01*
X148929306Y-80652337D01*
X148844361Y-80600986D01*
X148554717Y-80470628D01*
X148554712Y-80470626D01*
X148554709Y-80470625D01*
X148554698Y-80470621D01*
X148251480Y-80376135D01*
X148251476Y-80376134D01*
X148251472Y-80376133D01*
X147939048Y-80318879D01*
X147939047Y-80318878D01*
X147939042Y-80318878D01*
X147622000Y-80299701D01*
X147304957Y-80318878D01*
X147304951Y-80318879D01*
X147304952Y-80318879D01*
X146992528Y-80376133D01*
X146992525Y-80376133D01*
X146992519Y-80376135D01*
X146689301Y-80470621D01*
X146689290Y-80470625D01*
X146399643Y-80600984D01*
X146399641Y-80600985D01*
X146127821Y-80765304D01*
X146127813Y-80765310D01*
X145877785Y-80961195D01*
X145653195Y-81185785D01*
X145457310Y-81435813D01*
X145457304Y-81435821D01*
X145292985Y-81707641D01*
X145292984Y-81707643D01*
X145162625Y-81997290D01*
X145162621Y-81997301D01*
X145068135Y-82300519D01*
X145068133Y-82300525D01*
X145068133Y-82300528D01*
X145031578Y-82500000D01*
X145010878Y-82612957D01*
X144991701Y-82929999D01*
X145010878Y-83247042D01*
X145010878Y-83247047D01*
X145010879Y-83247048D01*
X145068133Y-83559472D01*
X145068134Y-83559476D01*
X145068135Y-83559480D01*
X145162621Y-83862698D01*
X145162625Y-83862709D01*
X145162626Y-83862712D01*
X145162628Y-83862717D01*
X145292986Y-84152361D01*
X145324922Y-84205189D01*
X145457304Y-84424178D01*
X145457310Y-84424186D01*
X145625644Y-84639047D01*
X145651493Y-84703959D01*
X145638145Y-84772541D01*
X145589837Y-84823020D01*
X145521906Y-84839369D01*
X145485623Y-84832042D01*
X145281869Y-84757882D01*
X145281864Y-84757880D01*
X145281857Y-84757878D01*
X145255113Y-84751539D01*
X144942625Y-84677477D01*
X144942610Y-84677475D01*
X144942609Y-84677474D01*
X144596322Y-84637000D01*
X144247678Y-84637000D01*
X143944675Y-84672415D01*
X143901389Y-84677475D01*
X143901374Y-84677477D01*
X143562151Y-84757876D01*
X143562143Y-84757878D01*
X143562141Y-84757878D01*
X143562136Y-84757880D01*
X143234517Y-84877124D01*
X143234516Y-84877125D01*
X142922960Y-85033594D01*
X142631681Y-85225172D01*
X142631673Y-85225178D01*
X142364598Y-85449281D01*
X142364596Y-85449283D01*
X142125345Y-85702873D01*
X142125340Y-85702879D01*
X141917147Y-85982531D01*
X141742827Y-86284463D01*
X141742821Y-86284476D01*
X141604734Y-86604597D01*
X141504739Y-86938605D01*
X141504737Y-86938614D01*
X141444201Y-87281933D01*
X141444200Y-87281944D01*
X141423928Y-87629996D01*
X141423928Y-87630003D01*
X140150500Y-87630003D01*
X140150500Y-74628782D01*
X140150889Y-74621843D01*
X140155270Y-74582965D01*
X140144211Y-74524520D01*
X140135348Y-74465713D01*
X140135347Y-74465711D01*
X140132836Y-74457571D01*
X140130024Y-74449533D01*
X140130023Y-74449528D01*
X140102226Y-74396936D01*
X140076425Y-74343358D01*
X140076422Y-74343355D01*
X140076421Y-74343352D01*
X140071642Y-74336342D01*
X140066566Y-74329465D01*
X140066565Y-74329462D01*
X140024516Y-74287413D01*
X140000227Y-74261235D01*
X139969060Y-74198704D01*
X139976647Y-74129248D01*
X140020581Y-74074919D01*
X140047156Y-74060954D01*
X140050215Y-74059792D01*
X140050225Y-74059790D01*
X140170380Y-73996727D01*
X140200849Y-73980736D01*
X140200850Y-73980734D01*
X140200852Y-73980734D01*
X140328183Y-73867929D01*
X140424818Y-73727930D01*
X140485140Y-73568872D01*
X140505645Y-73400000D01*
X140485140Y-73231128D01*
X140449085Y-73136060D01*
X140447041Y-73129638D01*
X140445916Y-73125302D01*
X140441764Y-73109294D01*
X140440940Y-73106116D01*
X140371034Y-72957101D01*
X140370858Y-72956755D01*
X140366294Y-72947810D01*
X140308537Y-72843181D01*
X140306863Y-72839923D01*
X140283712Y-72791350D01*
X140275425Y-72768363D01*
X140266306Y-72732246D01*
X140262764Y-72709460D01*
X140258386Y-72637875D01*
X140273942Y-72569763D01*
X140294470Y-72542632D01*
X140587103Y-72249999D01*
X154194355Y-72249999D01*
X154214859Y-72418869D01*
X154214860Y-72418874D01*
X154275182Y-72577931D01*
X154285124Y-72592334D01*
X154371817Y-72717929D01*
X154454703Y-72791359D01*
X154499150Y-72830736D01*
X154637474Y-72903334D01*
X154649775Y-72909790D01*
X154814944Y-72950500D01*
X154985056Y-72950500D01*
X155150225Y-72909790D01*
X155277110Y-72843195D01*
X155300849Y-72830736D01*
X155300850Y-72830734D01*
X155300852Y-72830734D01*
X155428183Y-72717929D01*
X155524818Y-72577930D01*
X155585140Y-72418872D01*
X155605645Y-72250000D01*
X155585140Y-72081128D01*
X155584097Y-72078379D01*
X155554035Y-71999110D01*
X155524818Y-71922070D01*
X155514865Y-71907651D01*
X155428182Y-71782070D01*
X155412093Y-71767817D01*
X155374965Y-71708628D01*
X155375731Y-71638763D01*
X155412093Y-71582183D01*
X155428183Y-71567929D01*
X155524818Y-71427930D01*
X155585140Y-71268872D01*
X155605645Y-71100000D01*
X155585140Y-70931128D01*
X155524818Y-70772070D01*
X155502826Y-70740210D01*
X155470421Y-70693263D01*
X155428183Y-70632071D01*
X155333316Y-70548026D01*
X155300849Y-70519263D01*
X155150226Y-70440210D01*
X154985056Y-70399500D01*
X154814944Y-70399500D01*
X154649773Y-70440210D01*
X154499150Y-70519263D01*
X154371816Y-70632072D01*
X154275182Y-70772068D01*
X154214860Y-70931125D01*
X154214859Y-70931130D01*
X154194355Y-71099999D01*
X154214859Y-71268869D01*
X154214860Y-71268874D01*
X154275182Y-71427931D01*
X154371817Y-71567928D01*
X154371817Y-71567929D01*
X154387906Y-71582183D01*
X154425034Y-71641370D01*
X154424268Y-71711236D01*
X154387911Y-71767812D01*
X154371819Y-71782068D01*
X154371815Y-71782073D01*
X154275182Y-71922068D01*
X154214860Y-72081125D01*
X154214859Y-72081130D01*
X154194355Y-72249999D01*
X140587103Y-72249999D01*
X142122237Y-70714864D01*
X142146218Y-70696159D01*
X142151056Y-70693263D01*
X142238950Y-70615500D01*
X142257567Y-70601892D01*
X142289538Y-70582811D01*
X142311659Y-70572414D01*
X142326511Y-70567149D01*
X142362395Y-70554430D01*
X142365864Y-70553316D01*
X142480783Y-70520146D01*
X142484253Y-70519017D01*
X142490701Y-70516922D01*
X142574400Y-70486676D01*
X142642705Y-70461994D01*
X142648948Y-70460105D01*
X142650218Y-70459792D01*
X142650218Y-70459791D01*
X142650225Y-70459790D01*
X142652171Y-70458768D01*
X142657317Y-70456362D01*
X142664811Y-70453272D01*
X142669112Y-70450339D01*
X142675227Y-70446667D01*
X142687530Y-70440210D01*
X142800852Y-70380734D01*
X142928183Y-70267929D01*
X143024818Y-70127930D01*
X143085140Y-69968872D01*
X143105645Y-69800000D01*
X143085140Y-69631128D01*
X143024818Y-69472070D01*
X142928183Y-69332071D01*
X142800852Y-69219266D01*
X142800849Y-69219263D01*
X142650226Y-69140210D01*
X142485056Y-69099500D01*
X142314944Y-69099500D01*
X142149773Y-69140210D01*
X141999150Y-69219263D01*
X141886713Y-69318874D01*
X141871817Y-69332071D01*
X141853334Y-69358846D01*
X141775180Y-69472071D01*
X141756519Y-69521276D01*
X141747472Y-69540149D01*
X141738977Y-69554596D01*
X141738977Y-69554598D01*
X141683237Y-69708845D01*
X141679985Y-69718742D01*
X141646686Y-69834112D01*
X141645555Y-69837633D01*
X141627583Y-69888334D01*
X141617188Y-69910452D01*
X141598099Y-69942439D01*
X141584490Y-69961059D01*
X141506736Y-70048943D01*
X141506732Y-70048949D01*
X141503532Y-70054249D01*
X141485067Y-70077828D01*
X139501804Y-72061092D01*
X139496617Y-72065727D01*
X139466033Y-72090117D01*
X139466029Y-72090121D01*
X139432519Y-72139271D01*
X139397206Y-72187118D01*
X139393216Y-72194667D01*
X139389528Y-72202326D01*
X139371992Y-72259177D01*
X139352353Y-72315301D01*
X139350771Y-72323659D01*
X139349500Y-72332100D01*
X139349500Y-72391573D01*
X139347275Y-72451009D01*
X139348316Y-72460243D01*
X139347489Y-72460336D01*
X139349499Y-72475633D01*
X139349500Y-72556680D01*
X139345770Y-72586867D01*
X139344397Y-72592333D01*
X139337233Y-72709461D01*
X139333690Y-72732248D01*
X139324570Y-72768366D01*
X139316280Y-72791359D01*
X139293143Y-72839903D01*
X139291454Y-72843190D01*
X139259820Y-72900500D01*
X139233870Y-72947511D01*
X139233717Y-72947810D01*
X139229125Y-72956755D01*
X139228964Y-72957099D01*
X139159059Y-73106116D01*
X139157568Y-73109294D01*
X139155971Y-73112910D01*
X139150822Y-73125293D01*
X139150819Y-73125304D01*
X139148684Y-73136578D01*
X139142830Y-73157371D01*
X139142586Y-73158016D01*
X139100454Y-73213754D01*
X139034877Y-73237866D01*
X138966674Y-73222696D01*
X138938926Y-73201823D01*
X136838908Y-71101805D01*
X136834271Y-71096617D01*
X136809878Y-71066029D01*
X136760728Y-71032519D01*
X136712882Y-70997207D01*
X136705297Y-70993198D01*
X136697677Y-70989529D01*
X136673161Y-70981967D01*
X136640822Y-70971992D01*
X136620154Y-70964760D01*
X136584695Y-70952352D01*
X136576326Y-70950768D01*
X136567904Y-70949500D01*
X136567902Y-70949500D01*
X136508426Y-70949500D01*
X136448990Y-70947275D01*
X136439756Y-70948316D01*
X136439662Y-70947486D01*
X136424364Y-70949500D01*
X122243317Y-70949500D01*
X122213130Y-70945769D01*
X122207668Y-70944398D01*
X122090533Y-70937232D01*
X122067750Y-70933690D01*
X122031636Y-70924572D01*
X122008641Y-70916281D01*
X121960070Y-70893132D01*
X121956790Y-70891447D01*
X121912973Y-70867259D01*
X121851911Y-70833550D01*
X121847198Y-70831158D01*
X121842624Y-70828837D01*
X121721614Y-70772068D01*
X121690821Y-70757622D01*
X121687286Y-70756058D01*
X121668762Y-70748350D01*
X121668804Y-70748247D01*
X121654189Y-70742290D01*
X121650225Y-70740210D01*
X121650222Y-70740209D01*
X121485056Y-70699500D01*
X121314944Y-70699500D01*
X121149773Y-70740210D01*
X120999150Y-70819263D01*
X120915770Y-70893132D01*
X120872882Y-70931128D01*
X120871816Y-70932072D01*
X120775182Y-71072068D01*
X120714860Y-71231125D01*
X120714859Y-71231130D01*
X120694355Y-71399999D01*
X120714859Y-71568869D01*
X120714860Y-71568874D01*
X120775182Y-71727931D01*
X120828421Y-71805060D01*
X120850304Y-71871414D01*
X120832839Y-71939066D01*
X120781571Y-71986536D01*
X120726371Y-71999500D01*
X120278783Y-71999500D01*
X120271844Y-71999110D01*
X120259545Y-71997724D01*
X120232966Y-71994729D01*
X120174508Y-72005789D01*
X120115708Y-72014652D01*
X120107550Y-72017168D01*
X120099529Y-72019975D01*
X120099528Y-72019976D01*
X120099526Y-72019976D01*
X120099523Y-72019978D01*
X120046915Y-72047783D01*
X119993358Y-72073575D01*
X119986310Y-72078379D01*
X119979459Y-72083435D01*
X119951420Y-72111474D01*
X119937400Y-72125495D01*
X119917175Y-72144260D01*
X119893807Y-72165943D01*
X119888015Y-72173207D01*
X119887363Y-72172687D01*
X119877969Y-72184925D01*
X118327766Y-73735129D01*
X118303794Y-73753830D01*
X118298945Y-73756733D01*
X118211059Y-73834489D01*
X118192440Y-73848099D01*
X118160454Y-73867188D01*
X118138335Y-73877583D01*
X118087627Y-73895557D01*
X118084106Y-73896688D01*
X118008027Y-73918647D01*
X117968987Y-73929915D01*
X117959082Y-73933152D01*
X117916639Y-73948489D01*
X117846900Y-73952759D01*
X117785923Y-73918647D01*
X117753069Y-73856983D01*
X117750499Y-73831878D01*
X117750499Y-69150000D01*
X134794355Y-69150000D01*
X134814859Y-69318869D01*
X134814860Y-69318874D01*
X134875182Y-69477931D01*
X134911878Y-69531093D01*
X134971817Y-69617929D01*
X135074440Y-69708845D01*
X135099150Y-69730736D01*
X135231122Y-69800000D01*
X135249775Y-69809790D01*
X135414944Y-69850500D01*
X135585056Y-69850500D01*
X135750225Y-69809790D01*
X135829692Y-69768081D01*
X135900849Y-69730736D01*
X135900850Y-69730734D01*
X135900852Y-69730734D01*
X136028183Y-69617929D01*
X136124818Y-69477930D01*
X136185140Y-69318872D01*
X136205645Y-69150000D01*
X136185140Y-68981128D01*
X136124818Y-68822070D01*
X136028183Y-68682071D01*
X135900852Y-68569266D01*
X135900849Y-68569263D01*
X135750226Y-68490210D01*
X135585056Y-68449500D01*
X135414944Y-68449500D01*
X135249773Y-68490210D01*
X135099150Y-68569263D01*
X134971816Y-68682072D01*
X134875182Y-68822068D01*
X134814860Y-68981125D01*
X134814859Y-68981130D01*
X134794355Y-69150000D01*
X117750499Y-69150000D01*
X117750499Y-68937964D01*
X117770184Y-68870926D01*
X117786818Y-68850284D01*
X118077925Y-68559177D01*
X118472240Y-68164862D01*
X118496214Y-68146161D01*
X118501056Y-68143263D01*
X118588952Y-68065497D01*
X118607567Y-68051892D01*
X118639538Y-68032811D01*
X118661659Y-68022414D01*
X118676511Y-68017149D01*
X118712395Y-68004430D01*
X118715864Y-68003316D01*
X118830783Y-67970146D01*
X118834253Y-67969017D01*
X118840701Y-67966922D01*
X118924400Y-67936676D01*
X118992705Y-67911994D01*
X118998948Y-67910105D01*
X119000218Y-67909792D01*
X119000218Y-67909791D01*
X119000225Y-67909790D01*
X119002171Y-67908768D01*
X119007317Y-67906362D01*
X119014811Y-67903272D01*
X119019112Y-67900339D01*
X119025227Y-67896667D01*
X119030485Y-67893907D01*
X119150852Y-67830734D01*
X119278183Y-67717929D01*
X119374818Y-67577930D01*
X119435140Y-67418872D01*
X119455645Y-67250000D01*
X119435140Y-67081128D01*
X119374818Y-66922070D01*
X119374777Y-66922011D01*
X119337447Y-66867929D01*
X119278183Y-66782071D01*
X119150852Y-66669266D01*
X119150849Y-66669263D01*
X119000226Y-66590210D01*
X118837081Y-66549999D01*
X123994355Y-66549999D01*
X124014859Y-66718869D01*
X124014860Y-66718874D01*
X124075182Y-66877931D01*
X124137475Y-66968177D01*
X124171817Y-67017929D01*
X124265021Y-67100500D01*
X124299150Y-67130736D01*
X124449773Y-67209789D01*
X124449775Y-67209790D01*
X124614944Y-67250500D01*
X124785056Y-67250500D01*
X124950225Y-67209790D01*
X125047292Y-67158845D01*
X125100849Y-67130736D01*
X125100850Y-67130734D01*
X125100852Y-67130734D01*
X125228183Y-67017929D01*
X125324818Y-66877930D01*
X125385140Y-66718872D01*
X125405645Y-66550000D01*
X125385140Y-66381128D01*
X125324818Y-66222070D01*
X125240558Y-66099999D01*
X130094355Y-66099999D01*
X130114859Y-66268869D01*
X130114860Y-66268874D01*
X130175182Y-66427931D01*
X130237475Y-66518177D01*
X130271817Y-66567929D01*
X130377505Y-66661560D01*
X130399150Y-66680736D01*
X130489071Y-66727930D01*
X130549775Y-66759790D01*
X130714944Y-66800500D01*
X130885056Y-66800500D01*
X131050225Y-66759790D01*
X131129692Y-66718081D01*
X131200849Y-66680736D01*
X131200850Y-66680734D01*
X131200852Y-66680734D01*
X131328183Y-66567929D01*
X131424818Y-66427930D01*
X131435410Y-66400000D01*
X141944355Y-66400000D01*
X141964859Y-66568869D01*
X141964860Y-66568874D01*
X142025182Y-66727931D01*
X142062552Y-66782070D01*
X142121817Y-66867929D01*
X142182928Y-66922068D01*
X142249150Y-66980736D01*
X142399773Y-67059789D01*
X142399775Y-67059790D01*
X142564944Y-67100500D01*
X142735056Y-67100500D01*
X142900225Y-67059790D01*
X142985846Y-67014852D01*
X143050849Y-66980736D01*
X143050850Y-66980734D01*
X143050852Y-66980734D01*
X143178183Y-66867929D01*
X143274818Y-66727930D01*
X143335140Y-66568872D01*
X143355645Y-66400000D01*
X143335140Y-66231128D01*
X143274818Y-66072070D01*
X143178183Y-65932071D01*
X143050852Y-65819266D01*
X143050849Y-65819263D01*
X142900226Y-65740210D01*
X142735056Y-65699500D01*
X142564944Y-65699500D01*
X142399773Y-65740210D01*
X142249150Y-65819263D01*
X142169068Y-65890210D01*
X142122882Y-65931128D01*
X142121816Y-65932072D01*
X142025182Y-66072068D01*
X141964860Y-66231125D01*
X141964859Y-66231130D01*
X141944355Y-66400000D01*
X131435410Y-66400000D01*
X131485140Y-66268872D01*
X131505645Y-66100000D01*
X131485140Y-65931128D01*
X131424818Y-65772070D01*
X131402826Y-65740210D01*
X131374726Y-65699500D01*
X131328183Y-65632071D01*
X131200852Y-65519266D01*
X131200849Y-65519263D01*
X131050226Y-65440210D01*
X130885056Y-65399500D01*
X130714944Y-65399500D01*
X130549773Y-65440210D01*
X130399150Y-65519263D01*
X130271816Y-65632072D01*
X130175182Y-65772068D01*
X130114860Y-65931125D01*
X130114859Y-65931130D01*
X130094355Y-66099999D01*
X125240558Y-66099999D01*
X125228183Y-66082071D01*
X125100852Y-65969266D01*
X125100849Y-65969263D01*
X124950226Y-65890210D01*
X124785056Y-65849500D01*
X124614944Y-65849500D01*
X124449773Y-65890210D01*
X124299150Y-65969263D01*
X124171816Y-66082072D01*
X124075182Y-66222068D01*
X124014860Y-66381125D01*
X124014859Y-66381130D01*
X123994355Y-66549999D01*
X118837081Y-66549999D01*
X118835056Y-66549500D01*
X118664944Y-66549500D01*
X118499773Y-66590210D01*
X118349150Y-66669263D01*
X118246968Y-66759789D01*
X118221817Y-66782071D01*
X118209096Y-66800500D01*
X118125180Y-66922071D01*
X118106519Y-66971276D01*
X118097472Y-66990149D01*
X118088977Y-67004596D01*
X118088977Y-67004598D01*
X118033237Y-67158845D01*
X118029985Y-67168742D01*
X117996686Y-67284112D01*
X117995555Y-67287633D01*
X117977583Y-67338334D01*
X117967188Y-67360452D01*
X117948099Y-67392439D01*
X117934490Y-67411059D01*
X117856736Y-67498943D01*
X117856732Y-67498949D01*
X117853532Y-67504249D01*
X117835067Y-67527828D01*
X117001804Y-68361092D01*
X116996617Y-68365727D01*
X116966033Y-68390117D01*
X116966029Y-68390121D01*
X116932519Y-68439271D01*
X116897206Y-68487118D01*
X116893216Y-68494667D01*
X116889528Y-68502326D01*
X116871992Y-68559177D01*
X116852353Y-68615301D01*
X116850771Y-68623659D01*
X116849500Y-68632100D01*
X116849500Y-68691573D01*
X116847275Y-68751009D01*
X116848316Y-68760243D01*
X116847488Y-68760336D01*
X116849499Y-68775635D01*
X116849499Y-89521217D01*
X116849109Y-89528163D01*
X116844730Y-89567035D01*
X108600500Y-89567035D01*
X108600500Y-87500000D01*
X115485000Y-87500000D01*
X115683537Y-77573141D01*
X115715240Y-77564088D01*
X115715240Y-77564087D01*
X115715243Y-77564087D01*
X115812241Y-77507553D01*
X115833390Y-77489282D01*
X115865108Y-77461883D01*
X115865114Y-77461877D01*
X115907361Y-77417205D01*
X115958397Y-77317204D01*
X115978182Y-77250194D01*
X115990686Y-77164145D01*
X116005313Y-67424645D01*
X115998379Y-67359468D01*
X115987173Y-67307771D01*
X115976167Y-67269342D01*
X115919488Y-67172429D01*
X115873733Y-67119625D01*
X115873731Y-67119623D01*
X115873721Y-67119612D01*
X115829005Y-67077451D01*
X115829002Y-67077449D01*
X115829000Y-67077447D01*
X115728924Y-67026561D01*
X115728923Y-67026560D01*
X115728922Y-67026560D01*
X115661891Y-67006877D01*
X115661885Y-67006876D01*
X115575813Y-66994500D01*
X108724500Y-66994500D01*
X108657461Y-66974815D01*
X108611706Y-66922011D01*
X108600500Y-66870500D01*
X108600500Y-64819960D01*
X128029500Y-64819960D01*
X128044630Y-64954249D01*
X128044631Y-64954254D01*
X128104211Y-65124523D01*
X128200184Y-65277262D01*
X128327738Y-65404816D01*
X128480478Y-65500789D01*
X128650745Y-65560367D01*
X128650745Y-65560368D01*
X128650750Y-65560369D01*
X128829996Y-65580565D01*
X128830000Y-65580565D01*
X128830004Y-65580565D01*
X129009249Y-65560369D01*
X129009252Y-65560368D01*
X129009255Y-65560368D01*
X129179522Y-65500789D01*
X129332262Y-65404816D01*
X129459816Y-65277262D01*
X129555789Y-65124522D01*
X129615368Y-64954255D01*
X129630500Y-64819954D01*
X129630500Y-64221468D01*
X129650185Y-64154430D01*
X129702989Y-64108675D01*
X129772147Y-64098731D01*
X129835703Y-64127756D01*
X129842186Y-64133792D01*
X129846689Y-64138295D01*
X129846696Y-64138304D01*
X129967750Y-64231192D01*
X130108720Y-64289584D01*
X130165370Y-64297042D01*
X130222019Y-64304500D01*
X130222020Y-64304500D01*
X130297981Y-64304500D01*
X130335746Y-64299528D01*
X130411280Y-64289584D01*
X130552250Y-64231192D01*
X130673304Y-64138304D01*
X130766192Y-64017250D01*
X130824584Y-63876280D01*
X130844500Y-63725001D01*
X135455500Y-63725001D01*
X135475415Y-63876278D01*
X135475416Y-63876280D01*
X135533806Y-64017247D01*
X135533807Y-64017249D01*
X135533808Y-64017250D01*
X135626696Y-64138304D01*
X135747750Y-64231192D01*
X135888720Y-64289584D01*
X135945370Y-64297042D01*
X136002019Y-64304500D01*
X136002020Y-64304500D01*
X136077981Y-64304500D01*
X136115746Y-64299528D01*
X136191280Y-64289584D01*
X136332250Y-64231192D01*
X136453304Y-64138304D01*
X136453307Y-64138299D01*
X136457819Y-64133789D01*
X136519142Y-64100304D01*
X136588834Y-64105288D01*
X136644767Y-64147160D01*
X136669184Y-64212624D01*
X136669500Y-64221470D01*
X136669500Y-64819960D01*
X136684630Y-64954249D01*
X136684631Y-64954254D01*
X136744211Y-65124523D01*
X136840184Y-65277262D01*
X136967738Y-65404816D01*
X137120478Y-65500789D01*
X137290745Y-65560367D01*
X137290745Y-65560368D01*
X137290750Y-65560369D01*
X137469996Y-65580565D01*
X137470000Y-65580565D01*
X137470004Y-65580565D01*
X137649249Y-65560369D01*
X137649252Y-65560368D01*
X137649255Y-65560368D01*
X137819522Y-65500789D01*
X137972262Y-65404816D01*
X138099816Y-65277262D01*
X138195789Y-65124522D01*
X138255368Y-64954255D01*
X138270500Y-64819954D01*
X138270500Y-63630046D01*
X138262582Y-63559773D01*
X138255369Y-63495750D01*
X138255368Y-63495745D01*
X138227688Y-63416641D01*
X138195789Y-63325478D01*
X138187130Y-63311698D01*
X138156582Y-63263080D01*
X138099816Y-63172738D01*
X137972262Y-63045184D01*
X137878363Y-62986183D01*
X137819523Y-62949211D01*
X137649254Y-62889631D01*
X137649249Y-62889630D01*
X137470004Y-62869435D01*
X137469996Y-62869435D01*
X137290750Y-62889630D01*
X137290745Y-62889631D01*
X137120476Y-62949211D01*
X136967737Y-63045184D01*
X136840184Y-63172737D01*
X136744208Y-63325481D01*
X136732176Y-63359866D01*
X136691453Y-63416641D01*
X136626500Y-63442386D01*
X136557939Y-63428928D01*
X136516760Y-63394394D01*
X136453305Y-63311697D01*
X136332247Y-63218806D01*
X136191280Y-63160416D01*
X136191278Y-63160415D01*
X136077981Y-63145500D01*
X136077980Y-63145500D01*
X136002020Y-63145500D01*
X136002019Y-63145500D01*
X135888721Y-63160415D01*
X135888719Y-63160416D01*
X135747752Y-63218806D01*
X135626696Y-63311696D01*
X135533806Y-63432752D01*
X135475416Y-63573719D01*
X135475415Y-63573721D01*
X135455500Y-63724998D01*
X135455500Y-63725001D01*
X130844500Y-63725001D01*
X130844500Y-63725000D01*
X130839582Y-63687646D01*
X130824584Y-63573721D01*
X130824584Y-63573720D01*
X130779420Y-63464686D01*
X130766193Y-63432752D01*
X130766192Y-63432751D01*
X130766192Y-63432750D01*
X130673304Y-63311696D01*
X130552250Y-63218808D01*
X130552249Y-63218807D01*
X130552247Y-63218806D01*
X130411280Y-63160416D01*
X130411278Y-63160415D01*
X130297981Y-63145500D01*
X130297980Y-63145500D01*
X130222020Y-63145500D01*
X130222019Y-63145500D01*
X130108721Y-63160415D01*
X130108719Y-63160416D01*
X129967752Y-63218806D01*
X129907222Y-63265252D01*
X129846696Y-63311696D01*
X129846695Y-63311697D01*
X129846694Y-63311698D01*
X129783238Y-63394395D01*
X129726810Y-63435597D01*
X129657064Y-63439752D01*
X129596144Y-63405539D01*
X129567822Y-63359863D01*
X129555790Y-63325480D01*
X129555789Y-63325478D01*
X129459816Y-63172738D01*
X129332262Y-63045184D01*
X129238363Y-62986183D01*
X129179523Y-62949211D01*
X129009254Y-62889631D01*
X129009249Y-62889630D01*
X128830004Y-62869435D01*
X128829996Y-62869435D01*
X128650750Y-62889630D01*
X128650745Y-62889631D01*
X128480476Y-62949211D01*
X128327737Y-63045184D01*
X128200184Y-63172737D01*
X128104211Y-63325476D01*
X128044631Y-63495745D01*
X128044630Y-63495750D01*
X128029500Y-63630039D01*
X128029500Y-64819960D01*
X108600500Y-64819960D01*
X108600500Y-60801530D01*
X108600538Y-60800003D01*
X109394415Y-60800003D01*
X109414738Y-61148927D01*
X109414739Y-61148938D01*
X109475428Y-61493127D01*
X109475430Y-61493134D01*
X109575674Y-61827972D01*
X109714107Y-62148895D01*
X109714113Y-62148908D01*
X109888870Y-62451597D01*
X110097584Y-62731949D01*
X110097589Y-62731955D01*
X110221463Y-62863253D01*
X110337442Y-62986183D01*
X110407757Y-63045184D01*
X110605186Y-63210847D01*
X110605194Y-63210853D01*
X110897203Y-63402911D01*
X110970559Y-63439752D01*
X111209549Y-63559777D01*
X111537989Y-63679319D01*
X111878086Y-63759923D01*
X112225241Y-63800500D01*
X112225248Y-63800500D01*
X112574752Y-63800500D01*
X112574759Y-63800500D01*
X112921914Y-63759923D01*
X113262011Y-63679319D01*
X113590451Y-63559777D01*
X113902793Y-63402913D01*
X114194811Y-63210849D01*
X114462558Y-62986183D01*
X114702412Y-62731953D01*
X114911130Y-62451596D01*
X115085889Y-62148904D01*
X115224326Y-61827971D01*
X115324569Y-61493136D01*
X115327313Y-61477578D01*
X115385260Y-61148938D01*
X115385259Y-61148938D01*
X115385262Y-61148927D01*
X115405585Y-60800000D01*
X115387527Y-60489960D01*
X128029500Y-60489960D01*
X128044630Y-60624249D01*
X128044631Y-60624254D01*
X128104211Y-60794523D01*
X128108614Y-60801530D01*
X128200184Y-60947262D01*
X128327738Y-61074816D01*
X128480478Y-61170789D01*
X128650745Y-61230368D01*
X128650750Y-61230369D01*
X128829996Y-61250565D01*
X128830000Y-61250565D01*
X128830004Y-61250565D01*
X129009249Y-61230369D01*
X129009252Y-61230368D01*
X129009255Y-61230368D01*
X129179522Y-61170789D01*
X129332262Y-61074816D01*
X129459816Y-60947262D01*
X129555789Y-60794522D01*
X129615368Y-60624255D01*
X129617448Y-60605799D01*
X129630499Y-60489960D01*
X136669500Y-60489960D01*
X136684630Y-60624249D01*
X136684631Y-60624254D01*
X136744211Y-60794523D01*
X136748614Y-60801530D01*
X136840184Y-60947262D01*
X136967738Y-61074816D01*
X137120478Y-61170789D01*
X137290745Y-61230368D01*
X137290750Y-61230369D01*
X137469996Y-61250565D01*
X137470000Y-61250565D01*
X137470004Y-61250565D01*
X137649249Y-61230369D01*
X137649252Y-61230368D01*
X137649255Y-61230368D01*
X137819522Y-61170789D01*
X137972262Y-61074816D01*
X138099816Y-60947262D01*
X138192347Y-60800000D01*
X152194958Y-60800000D01*
X152215110Y-61158846D01*
X152215112Y-61158858D01*
X152275314Y-61513185D01*
X152275316Y-61513194D01*
X152374812Y-61858552D01*
X152512353Y-62190609D01*
X152512355Y-62190613D01*
X152686215Y-62505189D01*
X152686218Y-62505194D01*
X152894193Y-62798306D01*
X152966843Y-62879601D01*
X154285072Y-61561371D01*
X154361890Y-61671078D01*
X154528922Y-61838110D01*
X154638626Y-61914925D01*
X153320397Y-63233155D01*
X153401693Y-63305806D01*
X153694805Y-63513781D01*
X153694810Y-63513784D01*
X154009386Y-63687644D01*
X154009390Y-63687646D01*
X154341447Y-63825187D01*
X154686805Y-63924683D01*
X154686814Y-63924685D01*
X155041141Y-63984887D01*
X155041153Y-63984889D01*
X155399999Y-64005041D01*
X155758846Y-63984889D01*
X155758858Y-63984887D01*
X156113185Y-63924685D01*
X156113194Y-63924683D01*
X156458552Y-63825187D01*
X156790609Y-63687646D01*
X156790613Y-63687644D01*
X157105189Y-63513784D01*
X157105194Y-63513781D01*
X157398306Y-63305806D01*
X157479601Y-63233155D01*
X156161373Y-61914925D01*
X156271078Y-61838110D01*
X156438110Y-61671078D01*
X156514926Y-61561373D01*
X157833155Y-62879601D01*
X157905806Y-62798306D01*
X158113781Y-62505194D01*
X158113784Y-62505189D01*
X158287644Y-62190613D01*
X158287646Y-62190609D01*
X158425187Y-61858552D01*
X158524683Y-61513194D01*
X158524685Y-61513185D01*
X158584887Y-61158858D01*
X158584889Y-61158846D01*
X158605041Y-60800000D01*
X158584889Y-60441153D01*
X158584887Y-60441141D01*
X158524685Y-60086814D01*
X158524683Y-60086805D01*
X158425187Y-59741447D01*
X158287646Y-59409390D01*
X158287644Y-59409386D01*
X158113784Y-59094810D01*
X158113781Y-59094805D01*
X157905806Y-58801693D01*
X157833155Y-58720397D01*
X156514925Y-60038626D01*
X156438110Y-59928922D01*
X156271078Y-59761890D01*
X156161372Y-59685073D01*
X157479602Y-58366843D01*
X157398306Y-58294193D01*
X157105194Y-58086218D01*
X157105189Y-58086215D01*
X156790613Y-57912355D01*
X156790609Y-57912353D01*
X156458552Y-57774812D01*
X156113194Y-57675316D01*
X156113185Y-57675314D01*
X155758858Y-57615112D01*
X155758846Y-57615110D01*
X155399999Y-57594958D01*
X155041153Y-57615110D01*
X155041141Y-57615112D01*
X154686814Y-57675314D01*
X154686805Y-57675316D01*
X154341447Y-57774812D01*
X154009390Y-57912353D01*
X154009386Y-57912355D01*
X153694810Y-58086215D01*
X153694805Y-58086218D01*
X153401693Y-58294194D01*
X153401685Y-58294199D01*
X153320397Y-58366842D01*
X153320397Y-58366843D01*
X154638627Y-59685073D01*
X154528922Y-59761890D01*
X154361890Y-59928922D01*
X154285073Y-60038626D01*
X152966843Y-58720396D01*
X152966842Y-58720397D01*
X152894199Y-58801685D01*
X152894194Y-58801693D01*
X152686218Y-59094805D01*
X152686215Y-59094810D01*
X152512355Y-59409386D01*
X152512353Y-59409390D01*
X152374812Y-59741447D01*
X152275316Y-60086805D01*
X152275314Y-60086814D01*
X152215112Y-60441141D01*
X152215110Y-60441153D01*
X152194958Y-60800000D01*
X138192347Y-60800000D01*
X138195789Y-60794522D01*
X138255368Y-60624255D01*
X138257448Y-60605799D01*
X138270499Y-60489960D01*
X138270500Y-60489956D01*
X138270500Y-59600043D01*
X138270499Y-59600039D01*
X138255369Y-59465750D01*
X138255368Y-59465745D01*
X138249859Y-59450000D01*
X138195789Y-59295478D01*
X138099816Y-59142738D01*
X137972262Y-59015184D01*
X137958136Y-59006308D01*
X137819523Y-58919211D01*
X137649254Y-58859631D01*
X137649249Y-58859630D01*
X137470004Y-58839435D01*
X137469996Y-58839435D01*
X137290750Y-58859630D01*
X137290745Y-58859631D01*
X137120476Y-58919211D01*
X136967737Y-59015184D01*
X136840184Y-59142737D01*
X136744211Y-59295476D01*
X136684631Y-59465745D01*
X136684630Y-59465750D01*
X136669500Y-59600039D01*
X136669500Y-60489960D01*
X129630499Y-60489960D01*
X129630500Y-60489956D01*
X129630500Y-59600043D01*
X129630499Y-59600039D01*
X129615369Y-59465750D01*
X129615368Y-59465745D01*
X129609859Y-59450000D01*
X129555789Y-59295478D01*
X129459816Y-59142738D01*
X129332262Y-59015184D01*
X129318136Y-59006308D01*
X129179523Y-58919211D01*
X129009254Y-58859631D01*
X129009249Y-58859630D01*
X128830004Y-58839435D01*
X128829996Y-58839435D01*
X128650750Y-58859630D01*
X128650745Y-58859631D01*
X128480476Y-58919211D01*
X128327737Y-59015184D01*
X128200184Y-59142737D01*
X128104211Y-59295476D01*
X128044631Y-59465745D01*
X128044630Y-59465750D01*
X128029500Y-59600039D01*
X128029500Y-60489960D01*
X115387527Y-60489960D01*
X115385262Y-60451073D01*
X115380588Y-60424566D01*
X115324571Y-60106872D01*
X115324569Y-60106865D01*
X115318566Y-60086814D01*
X115224326Y-59772029D01*
X115085889Y-59451096D01*
X114911130Y-59148404D01*
X114906912Y-59142738D01*
X114702415Y-58868050D01*
X114702410Y-58868044D01*
X114533594Y-58689111D01*
X114462558Y-58613817D01*
X114235877Y-58423609D01*
X114194813Y-58389152D01*
X114194805Y-58389146D01*
X113902796Y-58197088D01*
X113590458Y-58040226D01*
X113590452Y-58040223D01*
X113262012Y-57920681D01*
X113262009Y-57920680D01*
X112921915Y-57840077D01*
X112878519Y-57835004D01*
X112574759Y-57799500D01*
X112225241Y-57799500D01*
X111921480Y-57835004D01*
X111878085Y-57840077D01*
X111878083Y-57840077D01*
X111537990Y-57920680D01*
X111537987Y-57920681D01*
X111209547Y-58040223D01*
X111209541Y-58040226D01*
X110897203Y-58197088D01*
X110605194Y-58389146D01*
X110605186Y-58389152D01*
X110337442Y-58613817D01*
X110337440Y-58613819D01*
X110097589Y-58868044D01*
X110097584Y-58868050D01*
X109888870Y-59148402D01*
X109714113Y-59451091D01*
X109714107Y-59451104D01*
X109575674Y-59772027D01*
X109475430Y-60106865D01*
X109475428Y-60106872D01*
X109414739Y-60451061D01*
X109414738Y-60451072D01*
X109394415Y-60799996D01*
X109394415Y-60800003D01*
X108600538Y-60800003D01*
X108600575Y-60798488D01*
X108618647Y-60430624D01*
X108619241Y-60424579D01*
X108673059Y-60061761D01*
X108674240Y-60055822D01*
X108763367Y-59700006D01*
X108765125Y-59694211D01*
X108888700Y-59348842D01*
X108891019Y-59343247D01*
X108983174Y-59148402D01*
X109047842Y-59011672D01*
X109050697Y-59006329D01*
X109239269Y-58691716D01*
X109242637Y-58686675D01*
X109461136Y-58392064D01*
X109464986Y-58387372D01*
X109711325Y-58115579D01*
X109715579Y-58111325D01*
X109987372Y-57864986D01*
X109992066Y-57861135D01*
X110286675Y-57642637D01*
X110291716Y-57639269D01*
X110606329Y-57450697D01*
X110611672Y-57447842D01*
X110943250Y-57291017D01*
X110948842Y-57288700D01*
X111294211Y-57165125D01*
X111300006Y-57163367D01*
X111655822Y-57074240D01*
X111661761Y-57073059D01*
X112024579Y-57019241D01*
X112030624Y-57018647D01*
X112398488Y-57000575D01*
X112401530Y-57000500D01*
X112439882Y-57000500D01*
X155360118Y-57000500D01*
X155398470Y-57000500D01*
X155401512Y-57000575D01*
G37*
%TD.AperFunction*%
%TD*%
%TA.AperFunction,Conductor*%
%TO.N,Net-(IC3-SPICS0)*%
G36*
X131500092Y-95603964D02*
G01*
X131696666Y-95800538D01*
X131700093Y-95808811D01*
X131697472Y-95816191D01*
X131597197Y-95939537D01*
X131597196Y-95939540D01*
X131550882Y-96051478D01*
X131533806Y-96162933D01*
X131514730Y-96292070D01*
X131514318Y-96293868D01*
X131465698Y-96448583D01*
X131459948Y-96455448D01*
X131451028Y-96456237D01*
X131450084Y-96455895D01*
X131096128Y-96310238D01*
X131089781Y-96303920D01*
X131089760Y-96303870D01*
X131085644Y-96293868D01*
X130943721Y-95948985D01*
X130943742Y-95940033D01*
X130950087Y-95933716D01*
X131089993Y-95876826D01*
X131197357Y-95830108D01*
X131284625Y-95779813D01*
X131375078Y-95707786D01*
X131483729Y-95603784D01*
X131492075Y-95600540D01*
X131500092Y-95603964D01*
G37*
%TD.AperFunction*%
%TD*%
%TA.AperFunction,Conductor*%
%TO.N,Net-(IC3-MTDI)*%
G36*
X152341713Y-99601562D02*
G01*
X152696195Y-99747436D01*
X152702542Y-99753754D01*
X152702563Y-99753804D01*
X152848421Y-100108249D01*
X152848400Y-100117203D01*
X152842053Y-100123521D01*
X152841577Y-100123705D01*
X152691532Y-100177923D01*
X152691166Y-100178042D01*
X152570642Y-100212831D01*
X152469504Y-100248678D01*
X152366554Y-100310121D01*
X152248624Y-100414458D01*
X152240157Y-100417373D01*
X152232598Y-100413968D01*
X152036031Y-100217401D01*
X152032604Y-100209128D01*
X152035539Y-100201378D01*
X152139878Y-100083444D01*
X152201319Y-99980495D01*
X152237165Y-99879363D01*
X152271958Y-99758818D01*
X152272074Y-99758465D01*
X152326294Y-99608421D01*
X152332329Y-99601805D01*
X152341274Y-99601393D01*
X152341713Y-99601562D01*
G37*
%TD.AperFunction*%
%TD*%
%TA.AperFunction,Conductor*%
%TO.N,Net-(IC3-GPIO2)*%
G36*
X133407347Y-106251345D02*
G01*
X133413665Y-106257692D01*
X133414039Y-106258740D01*
X133461458Y-106414697D01*
X133461883Y-106416728D01*
X133477377Y-106547814D01*
X133490130Y-106661480D01*
X133490131Y-106661481D01*
X133533008Y-106775390D01*
X133632471Y-106900054D01*
X133634952Y-106908658D01*
X133631598Y-106915624D01*
X133435032Y-107112190D01*
X133426759Y-107115617D01*
X133418590Y-107112292D01*
X133367636Y-107062589D01*
X133311958Y-107008278D01*
X133224390Y-106933871D01*
X133195726Y-106915624D01*
X133140361Y-106880379D01*
X133140359Y-106880378D01*
X133036064Y-106831032D01*
X132898409Y-106773537D01*
X132892095Y-106767187D01*
X132892097Y-106758291D01*
X133038180Y-106403302D01*
X133044496Y-106396957D01*
X133398394Y-106251324D01*
X133407347Y-106251345D01*
G37*
%TD.AperFunction*%
%TD*%
%TA.AperFunction,Conductor*%
%TO.N,Net-(IC3-MTDI)*%
G36*
X135213670Y-103935431D02*
G01*
X135214122Y-103935631D01*
X135358578Y-104003399D01*
X135358907Y-104003566D01*
X135468746Y-104064200D01*
X135468749Y-104064201D01*
X135468749Y-104064202D01*
X135521505Y-104089345D01*
X135565605Y-104110364D01*
X135681847Y-104139715D01*
X135839014Y-104149328D01*
X135847063Y-104153253D01*
X135850000Y-104161006D01*
X135850000Y-104438993D01*
X135846573Y-104447266D01*
X135839014Y-104450671D01*
X135681850Y-104460283D01*
X135565606Y-104489634D01*
X135468749Y-104535797D01*
X135468746Y-104535799D01*
X135422944Y-104561082D01*
X135358909Y-104596430D01*
X135358566Y-104596605D01*
X135214137Y-104664361D01*
X135205192Y-104664773D01*
X135198576Y-104658738D01*
X135198381Y-104658299D01*
X135050875Y-104304499D01*
X135050855Y-104295550D01*
X135198370Y-103941726D01*
X135204716Y-103935410D01*
X135213670Y-103935431D01*
G37*
%TD.AperFunction*%
%TD*%
%TA.AperFunction,Conductor*%
%TO.N,LED B*%
G36*
X134641713Y-102252062D02*
G01*
X134996195Y-102397936D01*
X135002542Y-102404254D01*
X135002563Y-102404304D01*
X135148421Y-102758749D01*
X135148400Y-102767703D01*
X135142053Y-102774021D01*
X135141577Y-102774205D01*
X134991532Y-102828423D01*
X134991166Y-102828542D01*
X134870642Y-102863331D01*
X134769504Y-102899178D01*
X134666554Y-102960621D01*
X134548624Y-103064958D01*
X134540157Y-103067873D01*
X134532598Y-103064468D01*
X134336031Y-102867901D01*
X134332604Y-102859628D01*
X134335539Y-102851878D01*
X134439878Y-102733944D01*
X134501319Y-102630995D01*
X134537165Y-102529863D01*
X134571958Y-102409318D01*
X134572074Y-102408965D01*
X134626294Y-102258921D01*
X134632329Y-102252305D01*
X134641274Y-102251893D01*
X134641713Y-102252062D01*
G37*
%TD.AperFunction*%
%TD*%
%TA.AperFunction,Conductor*%
%TO.N,CurMeas*%
G36*
X139947267Y-72603427D02*
G01*
X139950672Y-72610986D01*
X139960283Y-72768148D01*
X139989634Y-72884392D01*
X140035797Y-72981249D01*
X140035798Y-72981249D01*
X140035799Y-72981252D01*
X140074750Y-73051813D01*
X140096430Y-73091088D01*
X140096605Y-73091431D01*
X140164361Y-73235862D01*
X140164773Y-73244807D01*
X140158738Y-73251423D01*
X140158271Y-73251630D01*
X139804502Y-73399123D01*
X139795548Y-73399144D01*
X139795498Y-73399123D01*
X139441728Y-73251630D01*
X139435410Y-73245283D01*
X139435431Y-73236329D01*
X139435624Y-73235892D01*
X139503404Y-73091407D01*
X139503560Y-73091103D01*
X139564200Y-72981252D01*
X139564201Y-72981249D01*
X139564202Y-72981249D01*
X139581478Y-72944998D01*
X139610364Y-72884394D01*
X139639715Y-72768152D01*
X139649328Y-72610985D01*
X139653253Y-72602937D01*
X139661006Y-72600000D01*
X139938994Y-72600000D01*
X139947267Y-72603427D01*
G37*
%TD.AperFunction*%
%TD*%
%TA.AperFunction,Conductor*%
%TO.N,VoltMeas*%
G36*
X135718634Y-99142264D02*
G01*
X135915201Y-99338831D01*
X135918628Y-99347104D01*
X135915691Y-99354857D01*
X135811354Y-99472787D01*
X135749911Y-99575737D01*
X135714064Y-99676875D01*
X135679275Y-99797399D01*
X135679156Y-99797765D01*
X135624938Y-99947810D01*
X135618903Y-99954426D01*
X135609958Y-99954838D01*
X135609482Y-99954654D01*
X135255037Y-99808796D01*
X135248690Y-99802478D01*
X135248669Y-99802428D01*
X135246678Y-99797589D01*
X135102810Y-99447980D01*
X135102831Y-99439029D01*
X135109178Y-99432711D01*
X135109634Y-99432534D01*
X135259696Y-99378307D01*
X135260051Y-99378191D01*
X135367757Y-99347104D01*
X135380590Y-99343400D01*
X135380596Y-99343398D01*
X135481728Y-99307552D01*
X135584677Y-99246111D01*
X135702610Y-99141772D01*
X135711075Y-99138859D01*
X135718634Y-99142264D01*
G37*
%TD.AperFunction*%
%TD*%
%TA.AperFunction,Conductor*%
%TO.N,Net-(IC3-SPICS0)*%
G36*
X133658272Y-85448370D02*
G01*
X133664589Y-85454716D01*
X133664568Y-85463670D01*
X133664361Y-85464137D01*
X133596605Y-85608566D01*
X133596430Y-85608909D01*
X133561082Y-85672944D01*
X133535799Y-85718746D01*
X133535798Y-85718749D01*
X133535797Y-85718749D01*
X133489634Y-85815606D01*
X133460283Y-85931850D01*
X133450672Y-86089014D01*
X133446747Y-86097063D01*
X133438994Y-86100000D01*
X133161006Y-86100000D01*
X133152733Y-86096573D01*
X133149328Y-86089014D01*
X133139715Y-85931850D01*
X133139715Y-85931847D01*
X133110364Y-85815605D01*
X133089345Y-85771505D01*
X133064202Y-85718749D01*
X133064201Y-85718749D01*
X133064200Y-85718746D01*
X133003566Y-85608907D01*
X133003393Y-85608566D01*
X132935638Y-85464137D01*
X132935226Y-85455192D01*
X132941261Y-85448576D01*
X132941683Y-85448388D01*
X133295500Y-85300875D01*
X133304449Y-85300855D01*
X133658272Y-85448370D01*
G37*
%TD.AperFunction*%
%TD*%
%TA.AperFunction,Conductor*%
%TO.N,CHIPEN*%
G36*
X118391713Y-67101562D02*
G01*
X118746195Y-67247436D01*
X118752542Y-67253754D01*
X118752563Y-67253804D01*
X118898421Y-67608249D01*
X118898400Y-67617203D01*
X118892053Y-67623521D01*
X118891577Y-67623705D01*
X118741532Y-67677923D01*
X118741166Y-67678042D01*
X118620642Y-67712831D01*
X118519504Y-67748678D01*
X118416554Y-67810121D01*
X118298624Y-67914458D01*
X118290157Y-67917373D01*
X118282598Y-67913968D01*
X118086031Y-67717401D01*
X118082604Y-67709128D01*
X118085539Y-67701378D01*
X118189878Y-67583444D01*
X118251319Y-67480495D01*
X118287165Y-67379363D01*
X118321958Y-67258818D01*
X118322074Y-67258465D01*
X118376294Y-67108421D01*
X118382329Y-67101805D01*
X118391274Y-67101393D01*
X118391713Y-67101562D01*
G37*
%TD.AperFunction*%
%TD*%
%TA.AperFunction,Conductor*%
%TO.N,Net-(IC3-MTMS)*%
G36*
X135161137Y-104933552D02*
G01*
X135161589Y-104933752D01*
X135306045Y-105001520D01*
X135306374Y-105001687D01*
X135416213Y-105062321D01*
X135416216Y-105062322D01*
X135416216Y-105062323D01*
X135468972Y-105087466D01*
X135513072Y-105108485D01*
X135629314Y-105137836D01*
X135786481Y-105147449D01*
X135794530Y-105151374D01*
X135797467Y-105159127D01*
X135797467Y-105437114D01*
X135794040Y-105445387D01*
X135786481Y-105448792D01*
X135629317Y-105458404D01*
X135513073Y-105487755D01*
X135416216Y-105533918D01*
X135416213Y-105533920D01*
X135370411Y-105559203D01*
X135306376Y-105594551D01*
X135306033Y-105594726D01*
X135161604Y-105662482D01*
X135152659Y-105662894D01*
X135146043Y-105656859D01*
X135145848Y-105656420D01*
X134998342Y-105302620D01*
X134998322Y-105293671D01*
X135145837Y-104939847D01*
X135152183Y-104933531D01*
X135161137Y-104933552D01*
G37*
%TD.AperFunction*%
%TD*%
%TA.AperFunction,Conductor*%
%TO.N,Net-(IC3-SPIWP)*%
G36*
X130658272Y-85448370D02*
G01*
X130664589Y-85454716D01*
X130664568Y-85463670D01*
X130664361Y-85464137D01*
X130596605Y-85608566D01*
X130596430Y-85608909D01*
X130561082Y-85672944D01*
X130535799Y-85718746D01*
X130535798Y-85718749D01*
X130535797Y-85718749D01*
X130489634Y-85815606D01*
X130460283Y-85931850D01*
X130450672Y-86089014D01*
X130446747Y-86097063D01*
X130438994Y-86100000D01*
X130161006Y-86100000D01*
X130152733Y-86096573D01*
X130149328Y-86089014D01*
X130139715Y-85931850D01*
X130139715Y-85931847D01*
X130110364Y-85815605D01*
X130089345Y-85771505D01*
X130064202Y-85718749D01*
X130064201Y-85718749D01*
X130064200Y-85718746D01*
X130003566Y-85608907D01*
X130003393Y-85608566D01*
X129935638Y-85464137D01*
X129935226Y-85455192D01*
X129941261Y-85448576D01*
X129941683Y-85448388D01*
X130295500Y-85300875D01*
X130304449Y-85300855D01*
X130658272Y-85448370D01*
G37*
%TD.AperFunction*%
%TD*%
%TA.AperFunction,Conductor*%
%TO.N,Net-(IC3-SPIWP)*%
G36*
X130983706Y-97047802D02*
G01*
X130984143Y-97048263D01*
X131085768Y-97161564D01*
X131086231Y-97162151D01*
X131152778Y-97258717D01*
X131152993Y-97259053D01*
X131205345Y-97347341D01*
X131205345Y-97347342D01*
X131272214Y-97444378D01*
X131374962Y-97558928D01*
X131377935Y-97567375D01*
X131374546Y-97574992D01*
X131103646Y-97847250D01*
X131095381Y-97850698D01*
X131095331Y-97850698D01*
X130713362Y-97850024D01*
X130705095Y-97846583D01*
X130701683Y-97838303D01*
X130701853Y-97836338D01*
X130726358Y-97694071D01*
X130727279Y-97691123D01*
X130783442Y-97570460D01*
X130833125Y-97467238D01*
X130838842Y-97366330D01*
X130838841Y-97366329D01*
X130838842Y-97366329D01*
X130768948Y-97259151D01*
X130767299Y-97250349D01*
X130770473Y-97244489D01*
X130967161Y-97047801D01*
X130975433Y-97044375D01*
X130983706Y-97047802D01*
G37*
%TD.AperFunction*%
%TD*%
%TA.AperFunction,Conductor*%
%TO.N,CHIPEN*%
G36*
X133780740Y-105817541D02*
G01*
X133919178Y-105938031D01*
X133919183Y-105938035D01*
X134005046Y-105991096D01*
X134037883Y-106011388D01*
X134147038Y-106066529D01*
X134147463Y-106066767D01*
X134265153Y-106139497D01*
X134266680Y-106140623D01*
X134397251Y-106254265D01*
X134397527Y-106254524D01*
X134403397Y-106260394D01*
X134406824Y-106268667D01*
X134403418Y-106276919D01*
X134132163Y-106549535D01*
X134128321Y-106552103D01*
X133772378Y-106698578D01*
X133763424Y-106698557D01*
X133757106Y-106692210D01*
X133756670Y-106690950D01*
X133711739Y-106532149D01*
X133711320Y-106529654D01*
X133703490Y-106394465D01*
X133700022Y-106276221D01*
X133664485Y-106158224D01*
X133632049Y-106115941D01*
X133566618Y-106030645D01*
X133564301Y-106021995D01*
X133567627Y-106015252D01*
X133764787Y-105818092D01*
X133773059Y-105814666D01*
X133780740Y-105817541D01*
G37*
%TD.AperFunction*%
%TD*%
%TA.AperFunction,Conductor*%
%TO.N,CurMeas*%
G36*
X142041713Y-69651562D02*
G01*
X142396195Y-69797436D01*
X142402542Y-69803754D01*
X142402563Y-69803804D01*
X142548421Y-70158249D01*
X142548400Y-70167203D01*
X142542053Y-70173521D01*
X142541577Y-70173705D01*
X142391532Y-70227923D01*
X142391166Y-70228042D01*
X142270642Y-70262831D01*
X142169504Y-70298678D01*
X142066554Y-70360121D01*
X141948624Y-70464458D01*
X141940157Y-70467373D01*
X141932598Y-70463968D01*
X141736031Y-70267401D01*
X141732604Y-70259128D01*
X141735539Y-70251378D01*
X141839878Y-70133444D01*
X141901319Y-70030495D01*
X141937165Y-69929363D01*
X141971958Y-69808818D01*
X141972074Y-69808465D01*
X142026294Y-69658421D01*
X142032329Y-69651805D01*
X142041274Y-69651393D01*
X142041713Y-69651562D01*
G37*
%TD.AperFunction*%
%TD*%
%TA.AperFunction,Conductor*%
%TO.N,CurMeas*%
G36*
X138041713Y-99751562D02*
G01*
X138396195Y-99897436D01*
X138402542Y-99903754D01*
X138402563Y-99903804D01*
X138548421Y-100258249D01*
X138548400Y-100267203D01*
X138542053Y-100273521D01*
X138541577Y-100273705D01*
X138391532Y-100327923D01*
X138391166Y-100328042D01*
X138270642Y-100362831D01*
X138169504Y-100398678D01*
X138066554Y-100460121D01*
X137948624Y-100564458D01*
X137940157Y-100567373D01*
X137932598Y-100563968D01*
X137736031Y-100367401D01*
X137732604Y-100359128D01*
X137735539Y-100351378D01*
X137839878Y-100233444D01*
X137901319Y-100130495D01*
X137937165Y-100029363D01*
X137971958Y-99908818D01*
X137972074Y-99908465D01*
X138026294Y-99758421D01*
X138032329Y-99751805D01*
X138041274Y-99751393D01*
X138041713Y-99751562D01*
G37*
%TD.AperFunction*%
%TD*%
%TA.AperFunction,Conductor*%
%TO.N,VoltMeas*%
G36*
X121563670Y-71035431D02*
G01*
X121564122Y-71035631D01*
X121708578Y-71103399D01*
X121708907Y-71103566D01*
X121818746Y-71164200D01*
X121818749Y-71164201D01*
X121818749Y-71164202D01*
X121871505Y-71189345D01*
X121915605Y-71210364D01*
X122031847Y-71239715D01*
X122189014Y-71249328D01*
X122197063Y-71253253D01*
X122200000Y-71261006D01*
X122200000Y-71538993D01*
X122196573Y-71547266D01*
X122189014Y-71550671D01*
X122031850Y-71560283D01*
X121915606Y-71589634D01*
X121818749Y-71635797D01*
X121818746Y-71635799D01*
X121772944Y-71661082D01*
X121708909Y-71696430D01*
X121708566Y-71696605D01*
X121564137Y-71764361D01*
X121555192Y-71764773D01*
X121548576Y-71758738D01*
X121548381Y-71758299D01*
X121400875Y-71404499D01*
X121400855Y-71395550D01*
X121548370Y-71041726D01*
X121554716Y-71035410D01*
X121563670Y-71035431D01*
G37*
%TD.AperFunction*%
%TD*%
%TA.AperFunction,Conductor*%
%TO.N,CurMeas*%
G36*
X118517401Y-73986031D02*
G01*
X118713968Y-74182598D01*
X118717395Y-74190871D01*
X118714458Y-74198624D01*
X118610121Y-74316554D01*
X118548678Y-74419504D01*
X118512831Y-74520642D01*
X118478042Y-74641166D01*
X118477923Y-74641532D01*
X118423705Y-74791577D01*
X118417670Y-74798193D01*
X118408725Y-74798605D01*
X118408249Y-74798421D01*
X118053804Y-74652563D01*
X118047457Y-74646245D01*
X118047436Y-74646195D01*
X118045445Y-74641356D01*
X117901577Y-74291747D01*
X117901598Y-74282796D01*
X117907945Y-74276478D01*
X117908401Y-74276301D01*
X118058463Y-74222074D01*
X118058818Y-74221958D01*
X118166524Y-74190871D01*
X118179357Y-74187167D01*
X118179363Y-74187165D01*
X118280495Y-74151319D01*
X118383444Y-74089878D01*
X118501377Y-73985539D01*
X118509842Y-73982626D01*
X118517401Y-73986031D01*
G37*
%TD.AperFunction*%
%TD*%
%TA.AperFunction,Conductor*%
%TO.N,Net-(IC3-MTMS)*%
G36*
X153842646Y-103151966D02*
G01*
X154167516Y-103286168D01*
X154196500Y-103298141D01*
X154202838Y-103304467D01*
X154202853Y-103304503D01*
X154348768Y-103659092D01*
X154348747Y-103668046D01*
X154342764Y-103674207D01*
X154169757Y-103752339D01*
X154038937Y-103816738D01*
X154038515Y-103816925D01*
X153923664Y-103862606D01*
X153921640Y-103863206D01*
X153785200Y-103890564D01*
X153783447Y-103890779D01*
X153598642Y-103899426D01*
X153590218Y-103896390D01*
X153586408Y-103888286D01*
X153586395Y-103887739D01*
X153586395Y-103609481D01*
X153589822Y-103601208D01*
X153595669Y-103598035D01*
X153701130Y-103575701D01*
X153755100Y-103508982D01*
X153766053Y-103456908D01*
X153776109Y-103409103D01*
X153789501Y-103304503D01*
X153791850Y-103286155D01*
X153792178Y-103284533D01*
X153826911Y-103159644D01*
X153832428Y-103152594D01*
X153841317Y-103151509D01*
X153842646Y-103151966D01*
G37*
%TD.AperFunction*%
%TD*%
%TA.AperFunction,Conductor*%
%TO.N,LED B*%
G36*
X139701423Y-107090761D02*
G01*
X139701627Y-107091221D01*
X139788462Y-107299500D01*
X139849123Y-107444997D01*
X139849144Y-107453951D01*
X139849123Y-107454001D01*
X139701630Y-107807771D01*
X139695283Y-107814089D01*
X139686329Y-107814068D01*
X139685862Y-107813861D01*
X139541431Y-107746105D01*
X139541088Y-107745930D01*
X139501813Y-107724250D01*
X139431252Y-107685299D01*
X139431249Y-107685297D01*
X139334392Y-107639134D01*
X139218148Y-107609783D01*
X139060986Y-107600171D01*
X139052937Y-107596246D01*
X139050000Y-107588493D01*
X139050000Y-107310506D01*
X139053427Y-107302233D01*
X139060985Y-107298828D01*
X139218152Y-107289215D01*
X139334394Y-107259864D01*
X139394998Y-107230978D01*
X139431249Y-107213702D01*
X139431249Y-107213701D01*
X139431252Y-107213700D01*
X139541103Y-107153060D01*
X139541407Y-107152904D01*
X139685863Y-107085137D01*
X139694807Y-107084726D01*
X139701423Y-107090761D01*
G37*
%TD.AperFunction*%
%TD*%
%TA.AperFunction,Conductor*%
%TO.N,Net-(IC3-GPIO2)*%
G36*
X148141713Y-107101562D02*
G01*
X148496195Y-107247436D01*
X148502542Y-107253754D01*
X148502563Y-107253804D01*
X148648421Y-107608249D01*
X148648400Y-107617203D01*
X148642053Y-107623521D01*
X148641577Y-107623705D01*
X148491532Y-107677923D01*
X148491166Y-107678042D01*
X148370642Y-107712831D01*
X148269504Y-107748678D01*
X148166554Y-107810121D01*
X148048624Y-107914458D01*
X148040157Y-107917373D01*
X148032598Y-107913968D01*
X147836031Y-107717401D01*
X147832604Y-107709128D01*
X147835539Y-107701378D01*
X147939878Y-107583444D01*
X148001319Y-107480495D01*
X148037165Y-107379363D01*
X148071958Y-107258818D01*
X148072074Y-107258465D01*
X148126294Y-107108421D01*
X148132329Y-107101805D01*
X148141274Y-107101393D01*
X148141713Y-107101562D01*
G37*
%TD.AperFunction*%
%TD*%
M02*
